G04 #@! TF.GenerationSoftware,KiCad,Pcbnew,9.0.0*
G04 #@! TF.CreationDate,2025-07-23T17:32:58-04:00*
G04 #@! TF.ProjectId,PresToe_BMS_48V,50726573-546f-4655-9f42-4d535f343856,rev?*
G04 #@! TF.SameCoordinates,Original*
G04 #@! TF.FileFunction,Copper,L6,Bot*
G04 #@! TF.FilePolarity,Positive*
%FSLAX46Y46*%
G04 Gerber Fmt 4.6, Leading zero omitted, Abs format (unit mm)*
G04 Created by KiCad (PCBNEW 9.0.0) date 2025-07-23 17:32:58*
%MOMM*%
%LPD*%
G01*
G04 APERTURE LIST*
G04 #@! TA.AperFunction,ComponentPad*
%ADD10C,0.800000*%
G04 #@! TD*
G04 #@! TA.AperFunction,ComponentPad*
%ADD11C,6.400000*%
G04 #@! TD*
G04 #@! TA.AperFunction,ComponentPad*
%ADD12C,1.295400*%
G04 #@! TD*
G04 #@! TA.AperFunction,ComponentPad*
%ADD13R,1.508000X1.508000*%
G04 #@! TD*
G04 #@! TA.AperFunction,ComponentPad*
%ADD14C,1.508000*%
G04 #@! TD*
G04 #@! TA.AperFunction,ComponentPad*
%ADD15O,1.950000X1.700000*%
G04 #@! TD*
G04 #@! TA.AperFunction,ComponentPad*
%ADD16R,9.150000X9.150000*%
G04 #@! TD*
G04 #@! TA.AperFunction,ComponentPad*
%ADD17C,9.150000*%
G04 #@! TD*
G04 #@! TA.AperFunction,ComponentPad*
%ADD18C,2.550000*%
G04 #@! TD*
G04 #@! TA.AperFunction,ComponentPad*
%ADD19R,2.550000X2.550000*%
G04 #@! TD*
G04 #@! TA.AperFunction,ViaPad*
%ADD20C,0.500000*%
G04 #@! TD*
G04 #@! TA.AperFunction,ViaPad*
%ADD21C,0.600000*%
G04 #@! TD*
G04 #@! TA.AperFunction,ViaPad*
%ADD22C,1.000000*%
G04 #@! TD*
G04 #@! TA.AperFunction,Conductor*
%ADD23C,0.200000*%
G04 #@! TD*
G04 #@! TA.AperFunction,Conductor*
%ADD24C,0.600000*%
G04 #@! TD*
G04 APERTURE END LIST*
D10*
X31850000Y-32000000D03*
X32552944Y-30302944D03*
X32552944Y-33697056D03*
X34250000Y-29600000D03*
D11*
X34250000Y-32000000D03*
D10*
X34250000Y-34400000D03*
X35947056Y-30302944D03*
X35947056Y-33697056D03*
X36650000Y-32000000D03*
D12*
X34025000Y-65800000D03*
X31485000Y-70880000D03*
X34025000Y-78500000D03*
D13*
X67566750Y-35640000D03*
D14*
X65066750Y-35640000D03*
X62566750Y-35640000D03*
D15*
X90937500Y-48320000D03*
X90937500Y-50820000D03*
X90937500Y-53320000D03*
X90937500Y-55820000D03*
X90937500Y-58320000D03*
X90937500Y-60820000D03*
D10*
X90600000Y-78250000D03*
X91302944Y-76552944D03*
X91302944Y-79947056D03*
X93000000Y-75850000D03*
D11*
X93000000Y-78250000D03*
D10*
X93000000Y-80650000D03*
X94697056Y-76552944D03*
X94697056Y-79947056D03*
X95400000Y-78250000D03*
D16*
X46430000Y-77630000D03*
D17*
X57430000Y-77630000D03*
D18*
X42205750Y-43750000D03*
D19*
X42205750Y-48750000D03*
D14*
X32205750Y-40750000D03*
X32205750Y-51750000D03*
D10*
X90600000Y-32000000D03*
X91302944Y-30302944D03*
X91302944Y-33697056D03*
X93000000Y-29600000D03*
D11*
X93000000Y-32000000D03*
D10*
X93000000Y-34400000D03*
X94697056Y-30302944D03*
X94697056Y-33697056D03*
X95400000Y-32000000D03*
D16*
X70430000Y-77630000D03*
D17*
X81430000Y-77630000D03*
D20*
X37275000Y-76050000D03*
X50850000Y-40100000D03*
D21*
X51720000Y-46495000D03*
D20*
X84525000Y-27550000D03*
X37900000Y-76050000D03*
X37750000Y-56175000D03*
X51200000Y-56325000D03*
X57432500Y-28975000D03*
X38525000Y-74800000D03*
X80375000Y-27550000D03*
X46994370Y-60578850D03*
X37900000Y-75425000D03*
D21*
X54300000Y-65140000D03*
D20*
X57500000Y-36595000D03*
D21*
X49720000Y-46495000D03*
D20*
X46994370Y-62350000D03*
X54675000Y-40050000D03*
X46950000Y-65850000D03*
X39520000Y-29460000D03*
X47275000Y-47250000D03*
X37275000Y-74800000D03*
X38525000Y-76050000D03*
X38525000Y-75425000D03*
X87526150Y-30954999D03*
X88525000Y-27450000D03*
X54800000Y-47575000D03*
X51975000Y-66675000D03*
X75975000Y-32342200D03*
X87526150Y-30305001D03*
X52898220Y-57850000D03*
X49495000Y-51610000D03*
X37275000Y-75425000D03*
X37900000Y-74800000D03*
X89875000Y-41300000D03*
D21*
X50720000Y-46495000D03*
D20*
X76450000Y-53250000D03*
X69900000Y-66750000D03*
X75050000Y-49500000D03*
X79250000Y-42000000D03*
X74800000Y-63750000D03*
X75750000Y-60000000D03*
X72950000Y-45750000D03*
X72500000Y-38250000D03*
X78550000Y-51750000D03*
X74350000Y-51000000D03*
X73650000Y-40500000D03*
X73650000Y-44250000D03*
X72950000Y-47250000D03*
X68750000Y-39000000D03*
X68750000Y-50250000D03*
X78550000Y-51000000D03*
X71550000Y-42000000D03*
X72950000Y-59250000D03*
X75050000Y-52500000D03*
X74800000Y-66000000D03*
X75050000Y-51000000D03*
X79500000Y-36000000D03*
X75750000Y-45750000D03*
X74800000Y-63000000D03*
X68750000Y-43500000D03*
X77600000Y-69750000D03*
X75750000Y-56250000D03*
X75050000Y-40500000D03*
X69900000Y-65250000D03*
X68500000Y-63750000D03*
X75750000Y-41250000D03*
X76200000Y-69000000D03*
X75050000Y-44250000D03*
X74350000Y-49500000D03*
X77150000Y-44250000D03*
X75050000Y-42000000D03*
X75750000Y-40500000D03*
X76450000Y-55500000D03*
X72000000Y-68250000D03*
X77150000Y-55500000D03*
X79250000Y-41250000D03*
X76450000Y-46500000D03*
X70150000Y-45750000D03*
X72950000Y-42000000D03*
X69450000Y-39000000D03*
X72250000Y-50250000D03*
X74350000Y-57000000D03*
X68750000Y-61500000D03*
X71550000Y-45750000D03*
X73900000Y-36000000D03*
X76900000Y-69750000D03*
X70850000Y-55500000D03*
X77850000Y-57750000D03*
X74800000Y-62250000D03*
X74350000Y-39750000D03*
X77150000Y-46500000D03*
X76450000Y-41250000D03*
X74600000Y-36000000D03*
X78300000Y-66000000D03*
X74800000Y-65250000D03*
X78550000Y-39750000D03*
X78550000Y-57750000D03*
X73650000Y-39000000D03*
X76700000Y-37500000D03*
X76450000Y-42000000D03*
X69450000Y-61500000D03*
X73200000Y-36000000D03*
X70850000Y-45750000D03*
X79250000Y-47250000D03*
X76450000Y-49500000D03*
X79250000Y-50250000D03*
X75750000Y-55500000D03*
X68750000Y-56250000D03*
X78550000Y-60750000D03*
X75050000Y-42750000D03*
X69450000Y-39750000D03*
X72950000Y-60000000D03*
X77150000Y-60750000D03*
X74350000Y-48000000D03*
X74350000Y-39000000D03*
X78550000Y-56250000D03*
X70850000Y-51750000D03*
X78550000Y-45000000D03*
X68750000Y-51000000D03*
X70850000Y-43500000D03*
X69200000Y-63000000D03*
X78300000Y-69000000D03*
X78550000Y-54000000D03*
X72250000Y-61500000D03*
X76900000Y-63000000D03*
X74100000Y-62250000D03*
X54780000Y-59280000D03*
X74350000Y-54000000D03*
X70850000Y-53250000D03*
X77150000Y-57000000D03*
X79250000Y-52500000D03*
X77850000Y-44250000D03*
X75300000Y-38250000D03*
X70600000Y-66750000D03*
X77150000Y-53250000D03*
X70600000Y-66000000D03*
X73650000Y-61500000D03*
X68500000Y-67500000D03*
X75050000Y-58500000D03*
X70850000Y-61500000D03*
X71550000Y-54750000D03*
X75050000Y-54000000D03*
X69200000Y-67500000D03*
X72950000Y-56250000D03*
X75750000Y-42000000D03*
X69900000Y-64500000D03*
X77400000Y-38250000D03*
X69450000Y-43500000D03*
X70150000Y-51750000D03*
X70150000Y-46500000D03*
X77150000Y-42750000D03*
X79250000Y-54000000D03*
X70850000Y-57000000D03*
X75050000Y-57750000D03*
X78300000Y-68250000D03*
X79500000Y-36750000D03*
X77850000Y-42000000D03*
X73400000Y-67500000D03*
X75050000Y-39750000D03*
X76000000Y-38250000D03*
X72950000Y-40500000D03*
X75750000Y-59250000D03*
X72250000Y-41250000D03*
X72000000Y-66750000D03*
X71550000Y-56250000D03*
X70850000Y-54750000D03*
X77850000Y-60000000D03*
X77850000Y-56250000D03*
X69450000Y-41250000D03*
X78550000Y-59250000D03*
X76450000Y-57750000D03*
X79000000Y-65250000D03*
X72250000Y-53250000D03*
X73400000Y-65250000D03*
X72250000Y-54000000D03*
X70150000Y-41250000D03*
X72950000Y-54750000D03*
X72250000Y-56250000D03*
X75300000Y-36750000D03*
X79000000Y-66000000D03*
X71550000Y-50250000D03*
X77850000Y-61500000D03*
X72700000Y-68250000D03*
X77850000Y-52500000D03*
X78300000Y-69750000D03*
X71550000Y-41250000D03*
X73650000Y-50250000D03*
X77150000Y-49500000D03*
X74350000Y-57750000D03*
X72250000Y-39750000D03*
X77850000Y-41250000D03*
X70150000Y-60750000D03*
X77150000Y-45750000D03*
X72700000Y-63750000D03*
X77150000Y-47250000D03*
X69450000Y-53250000D03*
X68750000Y-60750000D03*
X75050000Y-56250000D03*
X73650000Y-57000000D03*
X72000000Y-64500000D03*
X74350000Y-52500000D03*
X70150000Y-39000000D03*
X74350000Y-44250000D03*
X78100000Y-36000000D03*
X73650000Y-52500000D03*
X75050000Y-48750000D03*
X74800000Y-66750000D03*
X72950000Y-60750000D03*
X79000000Y-62250000D03*
X74100000Y-67500000D03*
X74800000Y-69750000D03*
X71300000Y-65250000D03*
X74600000Y-37500000D03*
X75050000Y-55500000D03*
X75750000Y-50250000D03*
X74100000Y-68250000D03*
X75300000Y-36000000D03*
X70850000Y-51000000D03*
X75500000Y-65250000D03*
X75750000Y-39000000D03*
X72500000Y-36000000D03*
X77400000Y-36750000D03*
X72250000Y-54750000D03*
X76450000Y-56250000D03*
X68750000Y-39750000D03*
X72950000Y-50250000D03*
X77150000Y-51000000D03*
X72700000Y-62250000D03*
X74100000Y-63000000D03*
X73650000Y-60000000D03*
X75750000Y-53250000D03*
X76450000Y-48000000D03*
X75750000Y-60750000D03*
X74100000Y-65250000D03*
X77850000Y-50250000D03*
X78550000Y-43500000D03*
X76200000Y-65250000D03*
X73650000Y-58500000D03*
X77400000Y-36000000D03*
X76000000Y-36000000D03*
X77850000Y-47250000D03*
X78800000Y-37500000D03*
X77150000Y-54000000D03*
X69450000Y-45000000D03*
X79000000Y-69000000D03*
X75500000Y-68250000D03*
X74350000Y-50250000D03*
X70850000Y-42750000D03*
X79250000Y-45000000D03*
X68500000Y-64500000D03*
X68500000Y-65250000D03*
X76200000Y-64500000D03*
X69450000Y-56250000D03*
X72950000Y-51750000D03*
X73650000Y-48000000D03*
X73900000Y-38250000D03*
X71550000Y-42750000D03*
X72250000Y-45750000D03*
X79250000Y-39750000D03*
X76450000Y-60750000D03*
X75500000Y-62250000D03*
X77850000Y-49500000D03*
X70850000Y-45000000D03*
X75750000Y-44250000D03*
X77150000Y-51750000D03*
X76700000Y-36750000D03*
X79000000Y-67500000D03*
X77600000Y-62250000D03*
X73650000Y-54000000D03*
X76450000Y-59250000D03*
X77150000Y-54750000D03*
X74350000Y-53250000D03*
X75750000Y-45000000D03*
X77850000Y-39750000D03*
X76450000Y-47250000D03*
X79250000Y-53250000D03*
X77150000Y-61500000D03*
X70850000Y-56250000D03*
X77150000Y-43500000D03*
X70850000Y-54000000D03*
X77850000Y-46500000D03*
X79000000Y-66750000D03*
X70850000Y-52500000D03*
X76900000Y-64500000D03*
X72700000Y-66750000D03*
X76450000Y-39000000D03*
X70850000Y-40500000D03*
X72950000Y-58500000D03*
X70600000Y-63000000D03*
X72000000Y-67500000D03*
X70850000Y-46500000D03*
X69900000Y-66000000D03*
X73650000Y-42000000D03*
X75050000Y-47250000D03*
X74100000Y-69000000D03*
X77150000Y-39750000D03*
X69900000Y-63000000D03*
X75750000Y-48750000D03*
X76450000Y-44250000D03*
X77850000Y-51750000D03*
X76200000Y-66750000D03*
X70150000Y-55500000D03*
X68750000Y-40500000D03*
X71550000Y-43500000D03*
X73650000Y-60750000D03*
X75750000Y-48000000D03*
X77600000Y-64500000D03*
X75050000Y-54750000D03*
X76200000Y-68250000D03*
X71300000Y-63000000D03*
X72250000Y-45000000D03*
X76450000Y-48750000D03*
X76000000Y-37500000D03*
X77150000Y-56250000D03*
X73400000Y-62250000D03*
X78550000Y-61500000D03*
X74800000Y-69000000D03*
X74350000Y-41250000D03*
X70850000Y-39000000D03*
X78550000Y-45750000D03*
X70150000Y-42000000D03*
X77600000Y-66750000D03*
X72700000Y-64500000D03*
X73400000Y-69000000D03*
X69200000Y-68250000D03*
X71300000Y-66000000D03*
X72250000Y-52500000D03*
X79250000Y-57000000D03*
X76200000Y-63750000D03*
X72000000Y-63000000D03*
X73650000Y-49500000D03*
X76450000Y-50250000D03*
X77150000Y-40500000D03*
X69200000Y-66750000D03*
X73650000Y-55500000D03*
X79250000Y-43500000D03*
X71550000Y-45000000D03*
X71550000Y-61500000D03*
X70850000Y-50250000D03*
X75050000Y-53250000D03*
X75050000Y-45750000D03*
X75750000Y-54000000D03*
X73400000Y-66000000D03*
X72000000Y-65250000D03*
X72250000Y-43500000D03*
X76450000Y-39750000D03*
X72950000Y-52500000D03*
X70600000Y-65250000D03*
X75050000Y-48000000D03*
X75050000Y-45000000D03*
X72250000Y-46500000D03*
X77150000Y-48000000D03*
X77150000Y-42000000D03*
X76450000Y-40500000D03*
X79000000Y-63000000D03*
X72250000Y-60750000D03*
X76200000Y-69750000D03*
X78550000Y-57000000D03*
X74600000Y-38250000D03*
X71300000Y-63750000D03*
X76000000Y-36750000D03*
X68750000Y-42000000D03*
X75050000Y-51750000D03*
X70150000Y-54750000D03*
X73650000Y-51750000D03*
X77600000Y-63000000D03*
X70150000Y-39750000D03*
X73650000Y-53250000D03*
X71300000Y-66750000D03*
X70150000Y-61500000D03*
X73650000Y-39750000D03*
X75050000Y-43500000D03*
X74350000Y-56250000D03*
X75500000Y-67500000D03*
X76450000Y-51750000D03*
X79250000Y-51000000D03*
X72500000Y-37500000D03*
X78800000Y-38250000D03*
X72950000Y-51000000D03*
X73650000Y-45750000D03*
X77850000Y-54750000D03*
X72950000Y-53250000D03*
X76200000Y-63000000D03*
X74100000Y-63750000D03*
X68750000Y-52500000D03*
X72950000Y-43500000D03*
X78300000Y-62250000D03*
X76900000Y-63750000D03*
X72950000Y-46500000D03*
X75500000Y-69750000D03*
X78300000Y-64500000D03*
X76450000Y-57000000D03*
X77150000Y-48750000D03*
X79000000Y-63750000D03*
X74350000Y-55500000D03*
X76450000Y-43500000D03*
X74800000Y-68250000D03*
X76450000Y-60000000D03*
X77850000Y-59250000D03*
X79250000Y-61500000D03*
X77150000Y-39000000D03*
X73650000Y-57750000D03*
X79250000Y-46500000D03*
X76450000Y-51000000D03*
X75750000Y-51000000D03*
X76450000Y-45000000D03*
X79250000Y-56250000D03*
X68750000Y-54750000D03*
X68750000Y-51750000D03*
X78300000Y-67500000D03*
X70150000Y-43500000D03*
X77150000Y-60000000D03*
X75050000Y-61500000D03*
X78550000Y-46500000D03*
X77150000Y-45000000D03*
X74350000Y-45750000D03*
X73400000Y-68250000D03*
X77600000Y-69000000D03*
X72250000Y-55500000D03*
X69450000Y-42750000D03*
X76900000Y-67500000D03*
X79000000Y-64500000D03*
X79250000Y-60750000D03*
X69900000Y-68250000D03*
X77400000Y-37500000D03*
X74800000Y-64500000D03*
X76450000Y-54000000D03*
X75750000Y-47250000D03*
X74350000Y-51750000D03*
X68750000Y-45000000D03*
X72250000Y-39000000D03*
X78550000Y-42750000D03*
X73400000Y-66750000D03*
X73200000Y-38250000D03*
X71550000Y-46500000D03*
X70150000Y-50250000D03*
X75050000Y-50250000D03*
X68750000Y-55500000D03*
X77150000Y-41250000D03*
X76900000Y-66750000D03*
X69450000Y-42000000D03*
X79250000Y-58500000D03*
X73650000Y-41250000D03*
X76450000Y-42750000D03*
X77150000Y-57750000D03*
X72950000Y-41250000D03*
X75500000Y-63000000D03*
X78550000Y-52500000D03*
X72250000Y-40500000D03*
X78100000Y-38250000D03*
X75750000Y-46500000D03*
X70150000Y-45000000D03*
X76900000Y-66000000D03*
X74350000Y-61500000D03*
X68750000Y-44250000D03*
X75050000Y-60750000D03*
X78300000Y-65250000D03*
X72950000Y-39000000D03*
X69450000Y-50250000D03*
X68750000Y-42750000D03*
X75750000Y-43500000D03*
X69200000Y-62250000D03*
X79250000Y-60000000D03*
X73400000Y-63750000D03*
X79500000Y-37500000D03*
X75050000Y-46500000D03*
X72950000Y-57000000D03*
X78550000Y-55500000D03*
X70150000Y-51000000D03*
X74350000Y-40500000D03*
X78550000Y-44250000D03*
X78550000Y-60000000D03*
X74350000Y-59250000D03*
X77150000Y-50250000D03*
X73650000Y-48750000D03*
X71550000Y-44250000D03*
X77850000Y-48000000D03*
X75750000Y-57750000D03*
X71550000Y-53250000D03*
X73400000Y-64500000D03*
X77850000Y-54000000D03*
X75050000Y-41250000D03*
X78100000Y-37500000D03*
X76900000Y-65250000D03*
X77600000Y-66000000D03*
X72950000Y-49500000D03*
X74350000Y-60000000D03*
X73650000Y-51000000D03*
X79250000Y-40500000D03*
X78800000Y-36750000D03*
X75050000Y-57000000D03*
X73400000Y-69750000D03*
X70850000Y-41250000D03*
X79500000Y-38250000D03*
X68750000Y-54000000D03*
X76450000Y-58500000D03*
X71550000Y-39000000D03*
X78550000Y-42000000D03*
X70850000Y-42000000D03*
X75050000Y-39000000D03*
X76700000Y-38250000D03*
X72950000Y-44250000D03*
X71550000Y-39750000D03*
X77600000Y-68250000D03*
X69900000Y-63750000D03*
X72950000Y-42750000D03*
X75500000Y-63750000D03*
X79000000Y-69750000D03*
X70150000Y-56250000D03*
X73650000Y-45000000D03*
X78550000Y-50250000D03*
X79250000Y-49500000D03*
X77600000Y-63750000D03*
X69900000Y-67500000D03*
X69450000Y-51000000D03*
X73650000Y-54750000D03*
X72950000Y-45000000D03*
X79250000Y-39000000D03*
X77600000Y-65250000D03*
X78550000Y-39000000D03*
X70150000Y-57000000D03*
X76900000Y-68250000D03*
X68750000Y-57000000D03*
X70150000Y-52500000D03*
X76900000Y-62250000D03*
X74800000Y-67500000D03*
X78550000Y-40500000D03*
X73650000Y-56250000D03*
X70150000Y-40500000D03*
X75750000Y-61500000D03*
X75050000Y-59250000D03*
X69450000Y-52500000D03*
X77150000Y-58500000D03*
X75300000Y-37500000D03*
X72250000Y-51000000D03*
X69450000Y-54000000D03*
X76450000Y-52500000D03*
X68500000Y-63000000D03*
X72700000Y-67500000D03*
X71300000Y-68250000D03*
X70600000Y-67500000D03*
X78300000Y-63000000D03*
X72250000Y-42000000D03*
X70850000Y-44250000D03*
X79250000Y-45750000D03*
X74350000Y-42000000D03*
X71550000Y-52500000D03*
X74100000Y-64500000D03*
X70600000Y-64500000D03*
X71550000Y-40500000D03*
X70600000Y-68250000D03*
X78550000Y-48000000D03*
X79250000Y-57750000D03*
X76450000Y-45750000D03*
X79250000Y-48000000D03*
X69450000Y-40500000D03*
X70600000Y-62250000D03*
X71300000Y-64500000D03*
X70150000Y-42750000D03*
X75050000Y-60000000D03*
X78300000Y-66750000D03*
X75500000Y-64500000D03*
X73200000Y-37500000D03*
X69450000Y-46500000D03*
X75750000Y-52500000D03*
X72700000Y-69000000D03*
X72700000Y-66000000D03*
X72000000Y-63750000D03*
X68500000Y-62250000D03*
X68500000Y-68250000D03*
X72250000Y-47250000D03*
X74350000Y-45000000D03*
X71550000Y-51750000D03*
X73650000Y-43500000D03*
X76450000Y-54750000D03*
X77850000Y-60750000D03*
X69450000Y-55500000D03*
X75750000Y-49500000D03*
X74350000Y-43500000D03*
X73650000Y-59250000D03*
X72950000Y-54000000D03*
X75750000Y-51750000D03*
X72250000Y-44250000D03*
X74350000Y-46500000D03*
X79250000Y-48750000D03*
X73650000Y-46500000D03*
X68750000Y-53250000D03*
X79250000Y-55500000D03*
X75500000Y-69000000D03*
X77600000Y-67500000D03*
X74350000Y-54750000D03*
X72950000Y-55500000D03*
X69200000Y-66000000D03*
X77850000Y-51000000D03*
X68500000Y-66750000D03*
X71550000Y-57000000D03*
X72250000Y-57750000D03*
X78550000Y-58500000D03*
X71550000Y-55500000D03*
X78100000Y-36750000D03*
X73650000Y-47250000D03*
X78550000Y-47250000D03*
X70600000Y-63750000D03*
X77850000Y-39000000D03*
X69450000Y-45750000D03*
X69900000Y-62250000D03*
X75750000Y-54750000D03*
X74100000Y-69750000D03*
X77150000Y-59250000D03*
X73650000Y-42750000D03*
X78550000Y-54750000D03*
X79000000Y-68250000D03*
X75750000Y-58500000D03*
X74600000Y-36750000D03*
X77850000Y-43500000D03*
X73900000Y-36750000D03*
X71550000Y-51000000D03*
X71300000Y-62250000D03*
X69450000Y-51750000D03*
X69450000Y-54750000D03*
X68750000Y-45750000D03*
X74350000Y-48750000D03*
X69450000Y-57000000D03*
X75500000Y-66000000D03*
X69450000Y-60750000D03*
X74100000Y-66750000D03*
X73400000Y-63000000D03*
X72950000Y-57750000D03*
X79250000Y-51750000D03*
X78550000Y-41250000D03*
X68750000Y-41250000D03*
X72250000Y-57000000D03*
X76450000Y-61500000D03*
X71550000Y-54000000D03*
X76200000Y-62250000D03*
X78550000Y-48750000D03*
X72250000Y-42750000D03*
X71300000Y-67500000D03*
X78300000Y-63750000D03*
X68500000Y-66000000D03*
X75750000Y-39750000D03*
X70850000Y-39750000D03*
X78800000Y-36000000D03*
X79250000Y-54750000D03*
X77850000Y-55500000D03*
X72000000Y-66000000D03*
X76700000Y-36000000D03*
X78550000Y-53250000D03*
X77850000Y-40500000D03*
X74100000Y-66000000D03*
X75750000Y-42750000D03*
X77850000Y-42750000D03*
X74350000Y-47250000D03*
X72700000Y-65250000D03*
X75500000Y-66750000D03*
X72950000Y-39750000D03*
X77850000Y-45000000D03*
X77150000Y-52500000D03*
X78550000Y-49500000D03*
X69200000Y-65250000D03*
X70150000Y-53250000D03*
X77850000Y-45750000D03*
X72000000Y-62250000D03*
X74350000Y-58500000D03*
X79250000Y-44250000D03*
X72950000Y-61500000D03*
X69200000Y-63750000D03*
X77850000Y-57000000D03*
X73900000Y-37500000D03*
X69200000Y-64500000D03*
X75750000Y-57000000D03*
X70150000Y-54000000D03*
X68750000Y-46500000D03*
X72500000Y-36750000D03*
X74350000Y-42750000D03*
X72700000Y-63000000D03*
X77850000Y-48750000D03*
X74350000Y-60750000D03*
X69450000Y-44250000D03*
X77850000Y-58500000D03*
X79250000Y-59250000D03*
X79250000Y-42750000D03*
X73200000Y-36750000D03*
X76200000Y-66000000D03*
X72250000Y-51750000D03*
X76900000Y-69000000D03*
X77850000Y-53250000D03*
X76200000Y-67500000D03*
X70150000Y-44250000D03*
X42350000Y-30650000D03*
X44310000Y-31570000D03*
X65700000Y-54250000D03*
X65000000Y-56500000D03*
X60800000Y-50500000D03*
X63500000Y-70000000D03*
X66400000Y-57250000D03*
X64300000Y-55000000D03*
X61500000Y-39250000D03*
X62200000Y-52000000D03*
X63000000Y-70750000D03*
X60800000Y-52000000D03*
X64950000Y-67750000D03*
X59400000Y-52000000D03*
X62900000Y-54250000D03*
X63600000Y-47500000D03*
X58000000Y-39250000D03*
X64000000Y-73000000D03*
X61500000Y-64000000D03*
X60100000Y-46750000D03*
X62900000Y-56500000D03*
X61500000Y-61000000D03*
X66400000Y-48250000D03*
X63600000Y-65500000D03*
X62900000Y-51250000D03*
X62200000Y-65500000D03*
X59400000Y-47500000D03*
X58700000Y-61750000D03*
X59400000Y-43750000D03*
X65700000Y-57250000D03*
X62400000Y-67000000D03*
X63050000Y-74500000D03*
X61200000Y-73000000D03*
X63600000Y-56500000D03*
X60100000Y-64750000D03*
X58700000Y-46000000D03*
X59400000Y-52750000D03*
X66400000Y-41500000D03*
X65100000Y-70750000D03*
X65000000Y-40000000D03*
X60800000Y-38500000D03*
X65700000Y-53500000D03*
X60100000Y-42250000D03*
X60100000Y-48250000D03*
X60800000Y-39250000D03*
X66400000Y-65500000D03*
X58000000Y-43750000D03*
X60100000Y-57250000D03*
X66400000Y-43750000D03*
X66400000Y-43000000D03*
X58700000Y-52000000D03*
X65000000Y-39250000D03*
X62900000Y-46750000D03*
X65700000Y-51250000D03*
X59400000Y-45250000D03*
X58700000Y-52750000D03*
X58000000Y-44500000D03*
X58000000Y-40750000D03*
X62900000Y-40000000D03*
X65700000Y-62500000D03*
X65000000Y-50500000D03*
X53850000Y-82000000D03*
X63550000Y-67750000D03*
X60100000Y-54250000D03*
X60800000Y-40000000D03*
X62200000Y-64750000D03*
X60800000Y-41500000D03*
X62900000Y-61750000D03*
X65000000Y-43750000D03*
X65600000Y-70000000D03*
X65000000Y-54250000D03*
X62900000Y-55000000D03*
X63600000Y-64000000D03*
X62900000Y-57250000D03*
X60800000Y-44500000D03*
X58700000Y-64750000D03*
X62200000Y-53500000D03*
X62150000Y-67750000D03*
X60800000Y-52750000D03*
X62200000Y-43750000D03*
X64300000Y-46750000D03*
X65700000Y-64750000D03*
X58000000Y-42250000D03*
X60800000Y-42250000D03*
X62900000Y-65500000D03*
X63600000Y-39250000D03*
X65850000Y-69250000D03*
X64300000Y-40750000D03*
X61450000Y-67750000D03*
X60100000Y-55750000D03*
X65000000Y-62500000D03*
X66400000Y-52750000D03*
X63600000Y-45250000D03*
X60200000Y-70750000D03*
X59400000Y-48250000D03*
X62900000Y-61000000D03*
X58000000Y-41500000D03*
X60100000Y-53500000D03*
X66400000Y-64750000D03*
X62200000Y-51250000D03*
X65700000Y-48250000D03*
X66400000Y-46000000D03*
X66400000Y-47500000D03*
X63500000Y-75250000D03*
X62200000Y-46750000D03*
X61500000Y-44500000D03*
X64300000Y-64750000D03*
X58000000Y-57250000D03*
X66400000Y-56500000D03*
X58000000Y-45250000D03*
X62200000Y-40750000D03*
X65400000Y-68500000D03*
X65000000Y-48250000D03*
X62900000Y-64000000D03*
X61200000Y-68500000D03*
X61500000Y-50500000D03*
X62200000Y-50500000D03*
X60250000Y-69250000D03*
X65700000Y-40750000D03*
X63600000Y-46750000D03*
X60100000Y-52750000D03*
X58700000Y-65500000D03*
X64300000Y-54250000D03*
X60100000Y-40000000D03*
X60900000Y-70750000D03*
X61500000Y-55000000D03*
X66400000Y-39250000D03*
X64200000Y-70000000D03*
X58700000Y-43750000D03*
X63600000Y-40750000D03*
X59400000Y-43000000D03*
X60900000Y-82250000D03*
X59400000Y-50500000D03*
X64300000Y-57250000D03*
X62800000Y-75250000D03*
X60800000Y-55000000D03*
X65700000Y-61000000D03*
X62350000Y-69250000D03*
X60100000Y-40750000D03*
X66400000Y-55000000D03*
X60800000Y-45250000D03*
X62200000Y-39250000D03*
X59400000Y-55750000D03*
X64000000Y-73750000D03*
X62900000Y-53500000D03*
X64300000Y-43000000D03*
X59800000Y-68500000D03*
X62200000Y-55750000D03*
X59400000Y-54250000D03*
X62600000Y-73000000D03*
X60100000Y-52000000D03*
X63600000Y-48250000D03*
X64300000Y-45250000D03*
X65450000Y-66250000D03*
X64300000Y-46000000D03*
X60800000Y-64000000D03*
X61500000Y-56500000D03*
X60800000Y-43750000D03*
X66400000Y-52000000D03*
X63600000Y-44500000D03*
X62200000Y-38500000D03*
X59300000Y-70000000D03*
X62200000Y-44500000D03*
X65700000Y-40000000D03*
X62900000Y-46000000D03*
X63700000Y-70750000D03*
X56850000Y-72250000D03*
X64400000Y-70750000D03*
X58700000Y-47500000D03*
X58700000Y-55000000D03*
X60550000Y-66250000D03*
X61500000Y-43000000D03*
X64300000Y-47500000D03*
X56500000Y-70000000D03*
X58900000Y-67000000D03*
X62200000Y-40000000D03*
X58700000Y-44500000D03*
X58000000Y-48250000D03*
X66150000Y-66250000D03*
X64300000Y-52000000D03*
X64300000Y-61000000D03*
X63600000Y-52750000D03*
X53150000Y-82000000D03*
X60200000Y-82250000D03*
X58700000Y-56500000D03*
X61200000Y-73750000D03*
X62200000Y-62500000D03*
X56900000Y-71500000D03*
X65700000Y-52000000D03*
X59400000Y-46000000D03*
X65900000Y-67000000D03*
X64300000Y-62500000D03*
X64300000Y-48250000D03*
X62200000Y-52750000D03*
X59400000Y-63250000D03*
X58650000Y-67750000D03*
X59400000Y-64000000D03*
X63600000Y-43750000D03*
X62350000Y-74500000D03*
X62200000Y-63250000D03*
X58700000Y-51250000D03*
X66400000Y-62500000D03*
X60800000Y-47500000D03*
X66100000Y-68500000D03*
X64300000Y-53500000D03*
X58700000Y-42250000D03*
X62900000Y-41500000D03*
X61900000Y-73000000D03*
X60100000Y-56500000D03*
X63300000Y-73750000D03*
X60500000Y-68500000D03*
X64300000Y-38500000D03*
X58000000Y-52000000D03*
X59400000Y-65500000D03*
X64700000Y-68500000D03*
X63600000Y-64750000D03*
X62200000Y-57250000D03*
X65000000Y-45250000D03*
X65700000Y-43750000D03*
X62900000Y-63250000D03*
X58700000Y-57250000D03*
X59400000Y-56500000D03*
X60800000Y-51250000D03*
X60950000Y-69250000D03*
X61500000Y-40750000D03*
X61500000Y-65500000D03*
X59400000Y-51250000D03*
X65700000Y-61750000D03*
X59400000Y-62500000D03*
X59400000Y-38500000D03*
X62600000Y-73750000D03*
X62900000Y-47500000D03*
X58850000Y-69250000D03*
X66400000Y-63250000D03*
X62650000Y-66250000D03*
X62200000Y-55000000D03*
X56200000Y-71500000D03*
X58700000Y-45250000D03*
X60100000Y-61750000D03*
X56000000Y-70750000D03*
X58000000Y-46000000D03*
X62300000Y-70750000D03*
X65700000Y-45250000D03*
X64300000Y-55750000D03*
X60100000Y-46000000D03*
X58000000Y-51250000D03*
X59400000Y-46750000D03*
X59400000Y-42250000D03*
X60800000Y-65500000D03*
X58700000Y-48250000D03*
X65700000Y-39250000D03*
X61500000Y-48250000D03*
X65700000Y-52750000D03*
X66400000Y-40750000D03*
X62900000Y-50500000D03*
X61950000Y-66250000D03*
X64300000Y-40000000D03*
X63600000Y-61750000D03*
X60050000Y-67750000D03*
X55500000Y-71500000D03*
X60800000Y-56500000D03*
X60100000Y-44500000D03*
X62900000Y-39250000D03*
X60800000Y-53500000D03*
X63600000Y-46000000D03*
X60800000Y-55750000D03*
X59400000Y-41500000D03*
X58700000Y-43000000D03*
X66400000Y-53500000D03*
X60800000Y-61000000D03*
X65700000Y-43000000D03*
X65000000Y-53500000D03*
X64000000Y-68500000D03*
X64300000Y-44500000D03*
X63300000Y-73000000D03*
X58000000Y-54250000D03*
X61900000Y-73750000D03*
X64300000Y-52750000D03*
X64300000Y-51250000D03*
X64300000Y-64000000D03*
X65000000Y-61750000D03*
X64900000Y-70000000D03*
X62850000Y-67750000D03*
X62900000Y-44500000D03*
X63350000Y-66250000D03*
X63600000Y-51250000D03*
X57550000Y-72250000D03*
X60800000Y-54250000D03*
X58700000Y-38500000D03*
X65700000Y-38500000D03*
X61500000Y-57250000D03*
X58450000Y-66250000D03*
X63600000Y-40000000D03*
X61500000Y-47500000D03*
X64500000Y-67000000D03*
X65000000Y-55000000D03*
X58000000Y-53500000D03*
X63600000Y-57250000D03*
X59350000Y-67750000D03*
X56150000Y-72250000D03*
X61500000Y-52750000D03*
X65000000Y-55750000D03*
X59400000Y-44500000D03*
X65000000Y-41500000D03*
X62200000Y-43000000D03*
X61500000Y-40000000D03*
X63600000Y-55000000D03*
X61250000Y-66250000D03*
X62200000Y-47500000D03*
X66400000Y-51250000D03*
X58000000Y-52750000D03*
X65700000Y-44500000D03*
X65700000Y-56500000D03*
X61500000Y-46000000D03*
X53150000Y-81250000D03*
X64300000Y-56500000D03*
X65000000Y-64000000D03*
X65000000Y-46750000D03*
X65200000Y-67000000D03*
X59400000Y-57250000D03*
X60100000Y-47500000D03*
X60100000Y-65500000D03*
X60800000Y-63250000D03*
X58700000Y-61000000D03*
X62900000Y-52000000D03*
X63300000Y-68500000D03*
X61500000Y-52000000D03*
X61500000Y-53500000D03*
X63750000Y-69250000D03*
X58700000Y-50500000D03*
X66400000Y-44500000D03*
X58700000Y-64000000D03*
X61500000Y-43750000D03*
X59400000Y-40750000D03*
X59400000Y-61000000D03*
X62900000Y-48250000D03*
X64300000Y-42250000D03*
X60100000Y-45250000D03*
X62200000Y-45250000D03*
X62800000Y-70000000D03*
X61500000Y-51250000D03*
X61500000Y-62500000D03*
X59150000Y-66250000D03*
X59400000Y-64750000D03*
X59400000Y-39250000D03*
X65700000Y-55750000D03*
X61500000Y-54250000D03*
X65700000Y-65500000D03*
X66600000Y-67000000D03*
X58400000Y-68500000D03*
X60800000Y-57250000D03*
X58700000Y-41500000D03*
X63600000Y-53500000D03*
X60100000Y-39250000D03*
X62200000Y-61750000D03*
X58000000Y-56500000D03*
X58700000Y-63250000D03*
X62900000Y-43000000D03*
X61500000Y-45250000D03*
X65000000Y-57250000D03*
X59400000Y-53500000D03*
X61500000Y-63250000D03*
X66400000Y-55750000D03*
X54750000Y-72250000D03*
X64750000Y-66250000D03*
X65000000Y-65500000D03*
X65000000Y-51250000D03*
X60100000Y-38500000D03*
X63800000Y-67000000D03*
X65700000Y-41500000D03*
X63600000Y-55750000D03*
X59850000Y-66250000D03*
X60100000Y-62500000D03*
X64300000Y-43750000D03*
X61600000Y-70750000D03*
X55450000Y-72250000D03*
X60800000Y-48250000D03*
X65000000Y-38500000D03*
X59100000Y-68500000D03*
X58700000Y-54250000D03*
X65000000Y-42250000D03*
X65000000Y-64750000D03*
X58000000Y-43000000D03*
X64300000Y-61750000D03*
X60800000Y-43000000D03*
X65000000Y-61000000D03*
X63600000Y-52000000D03*
X64300000Y-65500000D03*
X64450000Y-69250000D03*
X66400000Y-54250000D03*
X63050000Y-69250000D03*
X65700000Y-64000000D03*
X58700000Y-46750000D03*
X59600000Y-67000000D03*
X60300000Y-67000000D03*
X64050000Y-66250000D03*
X58000000Y-55000000D03*
X63600000Y-43000000D03*
X54600000Y-73000000D03*
X64300000Y-39250000D03*
X60100000Y-43000000D03*
X61500000Y-41500000D03*
X65000000Y-40750000D03*
X62200000Y-48250000D03*
X65700000Y-63250000D03*
X61500000Y-55750000D03*
X53900000Y-73000000D03*
X66400000Y-46750000D03*
X64300000Y-63250000D03*
X64300000Y-50500000D03*
X63600000Y-63250000D03*
X61900000Y-68500000D03*
X60100000Y-61000000D03*
X62600000Y-68500000D03*
X59550000Y-69250000D03*
X66400000Y-45250000D03*
X63750000Y-74500000D03*
X66350000Y-67750000D03*
X63600000Y-42250000D03*
X58000000Y-46750000D03*
X58700000Y-53500000D03*
X66400000Y-64000000D03*
X60100000Y-43750000D03*
X65000000Y-44500000D03*
X59400000Y-55000000D03*
X62200000Y-61000000D03*
X62900000Y-40750000D03*
X58700000Y-40000000D03*
X62900000Y-42250000D03*
X62100000Y-70000000D03*
X62900000Y-62500000D03*
X60100000Y-50500000D03*
X66400000Y-40000000D03*
X60800000Y-40750000D03*
X62900000Y-45250000D03*
X56700000Y-70750000D03*
X58000000Y-61000000D03*
X61500000Y-42250000D03*
X65700000Y-42250000D03*
X60750000Y-67750000D03*
X66400000Y-61750000D03*
X61400000Y-70000000D03*
X66400000Y-61000000D03*
X65000000Y-47500000D03*
X60100000Y-64000000D03*
X58700000Y-39250000D03*
X61650000Y-69250000D03*
X61500000Y-61750000D03*
X65000000Y-46000000D03*
X63600000Y-61000000D03*
X58700000Y-62500000D03*
X65700000Y-55000000D03*
X65000000Y-52750000D03*
X63600000Y-62500000D03*
X58700000Y-40750000D03*
X64300000Y-41500000D03*
X60800000Y-46000000D03*
X63100000Y-67000000D03*
X62200000Y-41500000D03*
X62200000Y-46000000D03*
X65000000Y-63250000D03*
X61000000Y-67000000D03*
X60500000Y-73000000D03*
X62200000Y-42250000D03*
X66400000Y-38500000D03*
X64250000Y-67750000D03*
X61500000Y-64750000D03*
X60700000Y-70000000D03*
X65000000Y-43000000D03*
X58000000Y-40000000D03*
X60100000Y-41500000D03*
X61500000Y-46750000D03*
X65000000Y-52000000D03*
X65700000Y-46750000D03*
X58700000Y-55750000D03*
X58000000Y-47500000D03*
X60800000Y-64750000D03*
X62200000Y-56500000D03*
X62900000Y-52750000D03*
X61700000Y-67000000D03*
X65150000Y-69250000D03*
X62200000Y-64000000D03*
X62200000Y-54250000D03*
X63600000Y-38500000D03*
X60100000Y-55000000D03*
X62900000Y-38500000D03*
X63600000Y-54250000D03*
X65700000Y-46000000D03*
X58000000Y-55750000D03*
X60800000Y-46750000D03*
X62900000Y-64750000D03*
X66400000Y-42250000D03*
X65650000Y-67750000D03*
X59400000Y-40000000D03*
X60100000Y-51250000D03*
X60800000Y-61750000D03*
X60000000Y-70000000D03*
X58000000Y-38500000D03*
X66400000Y-50500000D03*
X60800000Y-62500000D03*
X62900000Y-43750000D03*
X65700000Y-47500000D03*
X62900000Y-55750000D03*
X63600000Y-41500000D03*
X63600000Y-50500000D03*
X60100000Y-63250000D03*
X58000000Y-50500000D03*
X65700000Y-50500000D03*
X61500000Y-38500000D03*
X59400000Y-61750000D03*
X82050000Y-63750000D03*
X82750000Y-58500000D03*
X86950000Y-67500000D03*
X85550000Y-62250000D03*
X84150000Y-48750000D03*
X86250000Y-61500000D03*
X86250000Y-63000000D03*
X84150000Y-51000000D03*
X85550000Y-65250000D03*
X82750000Y-49500000D03*
X87200000Y-40500000D03*
X85100000Y-42750000D03*
X84850000Y-51750000D03*
X82050000Y-64500000D03*
X82050000Y-47250000D03*
X84400000Y-36000000D03*
X86950000Y-45000000D03*
X83450000Y-65250000D03*
X86250000Y-45750000D03*
X84850000Y-45750000D03*
X84150000Y-59250000D03*
X84850000Y-63750000D03*
X84150000Y-45000000D03*
X86500000Y-36750000D03*
X84150000Y-57000000D03*
X82050000Y-51750000D03*
X82050000Y-62250000D03*
X83450000Y-58500000D03*
X78500000Y-82250000D03*
X86250000Y-66750000D03*
X85550000Y-56250000D03*
X83700000Y-41250000D03*
X82300000Y-42000000D03*
X84200000Y-72750000D03*
X82050000Y-58500000D03*
X82750000Y-45000000D03*
X85600000Y-72750000D03*
X86950000Y-51750000D03*
X85600000Y-74250000D03*
X83450000Y-59250000D03*
X86950000Y-46500000D03*
X82050000Y-65250000D03*
X87000000Y-71250000D03*
X84150000Y-61500000D03*
X82750000Y-67500000D03*
X85100000Y-41250000D03*
X85550000Y-66750000D03*
X84850000Y-68250000D03*
X86500000Y-42000000D03*
X82050000Y-48000000D03*
X85550000Y-44250000D03*
X86250000Y-65250000D03*
X84850000Y-66000000D03*
X79750000Y-72750000D03*
X86950000Y-45750000D03*
X86950000Y-49500000D03*
X86500000Y-40500000D03*
X85550000Y-58500000D03*
X83700000Y-39750000D03*
X86250000Y-45000000D03*
X85550000Y-43500000D03*
X82750000Y-70500000D03*
X84150000Y-60750000D03*
X83000000Y-37500000D03*
X86500000Y-39000000D03*
X83000000Y-35250000D03*
X83450000Y-66750000D03*
X86950000Y-58500000D03*
X85550000Y-57000000D03*
X83450000Y-45000000D03*
X83000000Y-42000000D03*
X86500000Y-41250000D03*
X87000000Y-74250000D03*
X85550000Y-48000000D03*
X84400000Y-41250000D03*
X84850000Y-56250000D03*
X85550000Y-60000000D03*
X86950000Y-69000000D03*
X83700000Y-39000000D03*
X86950000Y-63000000D03*
X85800000Y-42750000D03*
X85550000Y-64500000D03*
X83450000Y-68250000D03*
X82750000Y-44250000D03*
X82300000Y-39750000D03*
X81400000Y-71250000D03*
X86250000Y-63750000D03*
X84150000Y-70500000D03*
X84150000Y-58500000D03*
X82050000Y-67500000D03*
X84150000Y-69000000D03*
X82750000Y-54000000D03*
X82750000Y-46500000D03*
X84850000Y-52500000D03*
X83500000Y-71250000D03*
X82750000Y-65250000D03*
X83700000Y-40500000D03*
X86250000Y-54000000D03*
X84150000Y-47250000D03*
X82750000Y-56250000D03*
X84850000Y-49500000D03*
X82750000Y-53250000D03*
X83450000Y-62250000D03*
X86250000Y-48750000D03*
X84850000Y-65250000D03*
X84150000Y-44250000D03*
X84150000Y-51750000D03*
X84850000Y-53250000D03*
X82050000Y-60000000D03*
X82750000Y-63750000D03*
X87200000Y-39000000D03*
X83450000Y-67500000D03*
X80700000Y-72000000D03*
X85600000Y-73500000D03*
X86500000Y-36000000D03*
X84850000Y-58500000D03*
X84400000Y-40500000D03*
X83700000Y-36000000D03*
X86950000Y-48750000D03*
X82050000Y-57750000D03*
X84150000Y-50250000D03*
X84150000Y-56250000D03*
X84850000Y-55500000D03*
X84150000Y-45750000D03*
X82050000Y-61500000D03*
X82300000Y-41250000D03*
X83000000Y-36000000D03*
X86250000Y-60750000D03*
X86250000Y-58500000D03*
X84150000Y-53250000D03*
X84400000Y-38250000D03*
X82050000Y-49500000D03*
X83700000Y-42000000D03*
X82300000Y-42750000D03*
X84150000Y-68250000D03*
X86950000Y-54000000D03*
X84850000Y-43500000D03*
X83450000Y-51750000D03*
X83450000Y-69750000D03*
X82050000Y-45000000D03*
X85800000Y-36750000D03*
X83700000Y-35250000D03*
X86300000Y-75750000D03*
X86500000Y-37500000D03*
X86250000Y-48000000D03*
X83450000Y-63750000D03*
X86250000Y-52500000D03*
X85100000Y-42000000D03*
X82750000Y-47250000D03*
X84850000Y-57750000D03*
X82750000Y-61500000D03*
X84150000Y-66000000D03*
X82750000Y-59250000D03*
X84150000Y-63750000D03*
X84150000Y-65250000D03*
X83000000Y-40500000D03*
X84200000Y-71250000D03*
X84150000Y-57750000D03*
X82300000Y-37500000D03*
X86950000Y-68250000D03*
X86950000Y-53250000D03*
X84850000Y-69000000D03*
X85550000Y-48750000D03*
X84400000Y-36750000D03*
X86950000Y-52500000D03*
X83450000Y-43500000D03*
X82050000Y-51000000D03*
X80000000Y-72000000D03*
X84400000Y-42000000D03*
X84150000Y-64500000D03*
X84850000Y-64500000D03*
X84850000Y-69750000D03*
X84850000Y-70500000D03*
X84850000Y-62250000D03*
X84400000Y-35250000D03*
X84150000Y-43500000D03*
X86950000Y-43500000D03*
X86300000Y-73500000D03*
X84850000Y-54000000D03*
X82050000Y-57000000D03*
X84850000Y-48750000D03*
X85550000Y-69000000D03*
X83450000Y-69000000D03*
X85550000Y-63000000D03*
X83700000Y-36750000D03*
X85100000Y-36750000D03*
X86500000Y-39750000D03*
X83000000Y-39750000D03*
X85550000Y-51000000D03*
X82750000Y-50250000D03*
X82050000Y-60750000D03*
X86250000Y-55500000D03*
X85100000Y-36000000D03*
X85550000Y-52500000D03*
X86950000Y-55500000D03*
X82050000Y-66000000D03*
X86250000Y-54750000D03*
X87200000Y-36000000D03*
X82050000Y-46500000D03*
X85550000Y-57750000D03*
X86950000Y-48000000D03*
X79050000Y-72750000D03*
X86250000Y-64500000D03*
X87000000Y-73500000D03*
X84150000Y-69750000D03*
X86250000Y-56250000D03*
X84850000Y-46500000D03*
X82050000Y-52500000D03*
X84400000Y-39750000D03*
X87200000Y-36750000D03*
X86250000Y-43500000D03*
X84850000Y-61500000D03*
X86250000Y-49500000D03*
X84200000Y-72000000D03*
X84850000Y-60750000D03*
X87200000Y-38250000D03*
X85550000Y-55500000D03*
X82050000Y-48750000D03*
X85800000Y-39000000D03*
X82100000Y-71250000D03*
X86250000Y-44250000D03*
X85550000Y-49500000D03*
X84850000Y-45000000D03*
X85800000Y-41250000D03*
X83450000Y-45750000D03*
X87200000Y-37500000D03*
X80700000Y-71250000D03*
X86250000Y-66000000D03*
X83450000Y-63000000D03*
X82750000Y-43500000D03*
X82300000Y-38250000D03*
X82050000Y-45750000D03*
X82050000Y-68250000D03*
X86250000Y-53250000D03*
X86250000Y-51750000D03*
X83500000Y-72750000D03*
X85800000Y-39750000D03*
X84850000Y-50250000D03*
X86950000Y-57750000D03*
X77800000Y-82250000D03*
X82300000Y-40500000D03*
X86950000Y-66000000D03*
X86250000Y-67500000D03*
X83450000Y-70500000D03*
X87000000Y-72000000D03*
X83450000Y-53250000D03*
X82750000Y-62250000D03*
X83450000Y-52500000D03*
X83450000Y-48000000D03*
X82100000Y-72000000D03*
X82750000Y-57000000D03*
X87000000Y-75000000D03*
X86950000Y-60750000D03*
X82750000Y-60750000D03*
X83450000Y-56250000D03*
X86300000Y-74250000D03*
X86950000Y-57000000D03*
X85800000Y-42000000D03*
X85550000Y-69750000D03*
X86950000Y-61500000D03*
X86950000Y-63750000D03*
X86500000Y-38250000D03*
X85550000Y-63750000D03*
X87200000Y-42000000D03*
X82050000Y-54000000D03*
X83450000Y-44250000D03*
X87000000Y-75750000D03*
X82750000Y-69000000D03*
X86250000Y-70500000D03*
X86250000Y-47250000D03*
X86250000Y-57000000D03*
X82750000Y-52500000D03*
X85550000Y-54750000D03*
X86950000Y-44250000D03*
X84850000Y-48000000D03*
X82050000Y-44250000D03*
X84900000Y-71250000D03*
X83450000Y-54750000D03*
X81400000Y-72000000D03*
X87200000Y-35250000D03*
X82750000Y-48000000D03*
X82050000Y-69750000D03*
X85550000Y-53250000D03*
X86300000Y-72000000D03*
X85550000Y-60750000D03*
X82050000Y-55500000D03*
X86950000Y-60000000D03*
X86250000Y-51000000D03*
X83500000Y-72000000D03*
X84150000Y-46500000D03*
X86500000Y-35250000D03*
X85550000Y-47250000D03*
X85100000Y-39000000D03*
X85800000Y-37500000D03*
X84850000Y-67500000D03*
X85550000Y-45750000D03*
X84150000Y-55500000D03*
X82750000Y-64500000D03*
X82750000Y-51000000D03*
X82750000Y-66750000D03*
X86300000Y-75000000D03*
X84150000Y-54750000D03*
X83000000Y-41250000D03*
X84850000Y-59250000D03*
X82750000Y-55500000D03*
X82050000Y-66750000D03*
X87200000Y-39750000D03*
X85800000Y-36000000D03*
X85100000Y-40500000D03*
X86950000Y-69750000D03*
X86250000Y-68250000D03*
X85600000Y-71250000D03*
X85550000Y-45000000D03*
X82050000Y-43500000D03*
X87200000Y-41250000D03*
X83450000Y-66000000D03*
X83450000Y-51000000D03*
X86950000Y-56250000D03*
X83450000Y-50250000D03*
X86950000Y-54750000D03*
X86950000Y-70500000D03*
X83450000Y-64500000D03*
X86950000Y-51000000D03*
X82750000Y-63000000D03*
X83700000Y-38250000D03*
X86950000Y-47250000D03*
X82750000Y-57750000D03*
X84900000Y-72750000D03*
X84150000Y-54000000D03*
X83700000Y-42750000D03*
X82750000Y-54750000D03*
X82300000Y-35250000D03*
X85800000Y-40500000D03*
X82750000Y-68250000D03*
X85550000Y-51750000D03*
X82750000Y-48750000D03*
X83450000Y-54000000D03*
X86950000Y-66750000D03*
X82050000Y-53250000D03*
X83700000Y-37500000D03*
X86300000Y-72750000D03*
X82050000Y-50250000D03*
X82300000Y-39000000D03*
X86250000Y-62250000D03*
X86250000Y-59250000D03*
X84900000Y-72000000D03*
X84150000Y-67500000D03*
X85550000Y-46500000D03*
X84850000Y-60000000D03*
X84150000Y-66750000D03*
X85100000Y-38250000D03*
X86250000Y-69750000D03*
X83000000Y-38250000D03*
X82800000Y-71250000D03*
X85100000Y-39750000D03*
X86500000Y-42750000D03*
X85550000Y-68250000D03*
X83000000Y-39000000D03*
X84850000Y-47250000D03*
X86950000Y-64500000D03*
X84150000Y-49500000D03*
X84850000Y-66750000D03*
X84150000Y-62250000D03*
X83450000Y-55500000D03*
X85550000Y-54000000D03*
X86300000Y-71250000D03*
X84850000Y-57000000D03*
X83450000Y-48750000D03*
X86950000Y-50250000D03*
X84850000Y-54750000D03*
X84150000Y-63000000D03*
X84150000Y-60000000D03*
X86950000Y-59250000D03*
X83450000Y-57750000D03*
X82750000Y-51750000D03*
X86250000Y-50250000D03*
X82800000Y-72000000D03*
X85550000Y-59250000D03*
X82050000Y-54750000D03*
X83450000Y-49500000D03*
X85100000Y-37500000D03*
X82750000Y-69750000D03*
X83000000Y-42750000D03*
X83450000Y-60000000D03*
X83450000Y-46500000D03*
X84400000Y-42750000D03*
X82050000Y-59250000D03*
X82050000Y-70500000D03*
X85800000Y-35250000D03*
X83000000Y-36750000D03*
X82300000Y-36000000D03*
X82300000Y-36750000D03*
X84150000Y-52500000D03*
X85550000Y-50250000D03*
X84850000Y-51000000D03*
X85800000Y-38250000D03*
X83450000Y-57000000D03*
X82750000Y-60000000D03*
X84150000Y-48000000D03*
X84850000Y-44250000D03*
X85100000Y-35250000D03*
X85550000Y-67500000D03*
X87200000Y-42750000D03*
X84400000Y-37500000D03*
X83450000Y-61500000D03*
X83450000Y-47250000D03*
X86250000Y-60000000D03*
X82750000Y-66000000D03*
X87000000Y-72750000D03*
X83450000Y-60750000D03*
X84900000Y-73500000D03*
X86950000Y-62250000D03*
X86250000Y-46500000D03*
X82050000Y-63000000D03*
X82050000Y-56250000D03*
X50784401Y-61722162D03*
X84850000Y-63000000D03*
X84400000Y-39000000D03*
X82750000Y-45750000D03*
X86250000Y-57750000D03*
X86950000Y-65250000D03*
X85550000Y-61500000D03*
X86250000Y-69000000D03*
X85550000Y-70500000D03*
X82050000Y-69000000D03*
X85550000Y-66000000D03*
X85600000Y-72000000D03*
X49150000Y-67525000D03*
X80920000Y-30910000D03*
X74705000Y-32342200D03*
X78360000Y-31580000D03*
X50089483Y-35204461D03*
X97000000Y-57000000D03*
X51000000Y-30500000D03*
X50492029Y-34045625D03*
X49200000Y-37900000D03*
X50850000Y-32565164D03*
X52000000Y-30000000D03*
X96500000Y-59500000D03*
D22*
X69520000Y-70810000D03*
X50050000Y-54950000D03*
X71000000Y-59750000D03*
X48200000Y-54750000D03*
X69250000Y-48750000D03*
X46450000Y-54850000D03*
D20*
X43320000Y-54780000D03*
X52060000Y-62570000D03*
X44090000Y-53890000D03*
X53200000Y-62710000D03*
X47790000Y-48470000D03*
X48160000Y-64210000D03*
X80050000Y-33850000D03*
X96150000Y-38050000D03*
X39575000Y-65975000D03*
D21*
X48700000Y-69060000D03*
D20*
X73435000Y-32342200D03*
X83093850Y-30289097D03*
X77375000Y-27375000D03*
X62520000Y-30400000D03*
X55130000Y-33060000D03*
D21*
X75025000Y-29150000D03*
D20*
X73815000Y-29195000D03*
X60040000Y-31510000D03*
X60150000Y-32780000D03*
X70210000Y-33190000D03*
X37275000Y-78800000D03*
X37275000Y-78175000D03*
X38525000Y-78175000D03*
X38525000Y-78800000D03*
X38525000Y-77550000D03*
X37900000Y-78800000D03*
X37900000Y-78175000D03*
X37275000Y-77550000D03*
X37900000Y-77550000D03*
D23*
X59540000Y-71610000D02*
X73490000Y-71610000D01*
X73490000Y-71610000D02*
X75670000Y-69430000D01*
X57776712Y-62276712D02*
X57776712Y-69846712D01*
X54780000Y-59280000D02*
X57776712Y-62276712D01*
X57776712Y-69846712D02*
X59540000Y-71610000D01*
X75670000Y-69430000D02*
X75670000Y-52750000D01*
X43270000Y-31570000D02*
X42350000Y-30650000D01*
X44310000Y-31570000D02*
X43270000Y-31570000D01*
X59150000Y-72150000D02*
X77190000Y-72150000D01*
X57350000Y-63270000D02*
X57350000Y-70350000D01*
X50784401Y-61545599D02*
X51480000Y-60850000D01*
X57350000Y-70350000D02*
X59150000Y-72150000D01*
X54930000Y-60850000D02*
X57350000Y-63270000D01*
X51480000Y-60850000D02*
X54930000Y-60850000D01*
X50784401Y-61722162D02*
X50784401Y-61545599D01*
X77190000Y-72150000D02*
X81430000Y-76390000D01*
X81450000Y-27740000D02*
X83010000Y-27740000D01*
X80280000Y-28910000D02*
X81450000Y-27740000D01*
X94200000Y-55820000D02*
X90937500Y-55820000D01*
X49410000Y-30710000D02*
X52930000Y-27190000D01*
X52930000Y-27190000D02*
X76230000Y-27190000D01*
X96190000Y-53890000D02*
X94230000Y-55850000D01*
X94230000Y-55850000D02*
X94200000Y-55820000D01*
X49410000Y-34524978D02*
X49410000Y-30710000D01*
X50089483Y-35204461D02*
X49410000Y-34524978D01*
X77950000Y-28910000D02*
X80280000Y-28910000D01*
X83010000Y-27740000D02*
X96190000Y-40920000D01*
X76230000Y-27190000D02*
X77950000Y-28910000D01*
X96190000Y-40920000D02*
X96190000Y-53890000D01*
X71590000Y-29190000D02*
X73370000Y-30970000D01*
X60910000Y-29820000D02*
X61540000Y-29190000D01*
X78020000Y-32690000D02*
X86690000Y-32690000D01*
X54717654Y-29820000D02*
X60910000Y-29820000D01*
X73370000Y-30970000D02*
X76300000Y-30970000D01*
X86690000Y-32690000D02*
X94170000Y-40170000D01*
X93370000Y-48320000D02*
X90937500Y-48320000D01*
X76300000Y-30970000D02*
X78020000Y-32690000D01*
X94170000Y-47520000D02*
X93370000Y-48320000D01*
X94170000Y-40170000D02*
X94170000Y-47520000D01*
X50492029Y-34045625D02*
X54717654Y-29820000D01*
X61540000Y-29190000D02*
X71590000Y-29190000D01*
X94830000Y-40264314D02*
X94830000Y-48570000D01*
X94830000Y-48570000D02*
X92580000Y-50820000D01*
X75646900Y-28374000D02*
X76647900Y-29375000D01*
X55041164Y-28374000D02*
X75646900Y-28374000D01*
X92580000Y-50820000D02*
X90937500Y-50820000D01*
X50850000Y-32565164D02*
X55041164Y-28374000D01*
X76647900Y-29375000D02*
X83940686Y-29375000D01*
X83940686Y-29375000D02*
X94830000Y-40264314D01*
D24*
X52387925Y-54950000D02*
X50050000Y-54950000D01*
X67250000Y-59500000D02*
X56937925Y-59500000D01*
X56937925Y-59500000D02*
X52387925Y-54950000D01*
X67500000Y-68790000D02*
X67500000Y-59750000D01*
X67500000Y-59750000D02*
X67250000Y-59500000D01*
X69520000Y-70810000D02*
X67500000Y-68790000D01*
X57250000Y-58500000D02*
X52350000Y-53600000D01*
X49350000Y-53600000D02*
X48200000Y-54750000D01*
X71000000Y-59750000D02*
X69750000Y-58500000D01*
X52350000Y-53600000D02*
X49350000Y-53600000D01*
X69750000Y-58500000D02*
X57250000Y-58500000D01*
X53500000Y-50000000D02*
X54000000Y-49500000D01*
X67500000Y-49500000D02*
X68000000Y-49000000D01*
X68000000Y-49000000D02*
X69000000Y-49000000D01*
X54000000Y-49500000D02*
X67500000Y-49500000D01*
X69000000Y-49000000D02*
X69250000Y-48750000D01*
X48250000Y-50000000D02*
X53500000Y-50000000D01*
X46450000Y-51800000D02*
X48250000Y-50000000D01*
X46450000Y-54850000D02*
X46450000Y-51800000D01*
D23*
X48520000Y-66050000D02*
X49900000Y-66050000D01*
X41110000Y-55740000D02*
X41110000Y-58640000D01*
X51780000Y-62850000D02*
X52060000Y-62570000D01*
X51780000Y-64170000D02*
X51780000Y-62850000D01*
X43320000Y-54780000D02*
X42070000Y-54780000D01*
X41110000Y-58640000D02*
X48520000Y-66050000D01*
X49900000Y-66050000D02*
X51780000Y-64170000D01*
X42070000Y-54780000D02*
X41110000Y-55740000D01*
X40710000Y-55570000D02*
X40710000Y-58805686D01*
X44090000Y-53890000D02*
X42390000Y-53890000D01*
X42390000Y-53890000D02*
X40710000Y-55570000D01*
X40710000Y-58805686D02*
X48534314Y-66630000D01*
X53200000Y-63580000D02*
X53200000Y-62710000D01*
X48534314Y-66630000D02*
X50150000Y-66630000D01*
X50150000Y-66630000D02*
X53200000Y-63580000D01*
X45350000Y-50910000D02*
X45350000Y-61850000D01*
X47790000Y-48470000D02*
X45350000Y-50910000D01*
X47710000Y-64210000D02*
X48160000Y-64210000D01*
X45350000Y-61850000D02*
X47710000Y-64210000D01*
X45615000Y-65975000D02*
X48700000Y-69060000D01*
X39575000Y-65975000D02*
X45615000Y-65975000D01*
G04 #@! TA.AperFunction,Conductor*
G36*
X87535173Y-34745885D02*
G01*
X87601581Y-34767605D01*
X87645703Y-34821780D01*
X87655390Y-34869720D01*
X87685495Y-69822400D01*
X87685280Y-69829801D01*
X87350543Y-75510783D01*
X87348098Y-75529034D01*
X86357422Y-80234745D01*
X86324843Y-80295788D01*
X83597752Y-83091299D01*
X83536848Y-83125541D01*
X83505952Y-83128674D01*
X77498347Y-82981378D01*
X77431810Y-82960056D01*
X77387363Y-82906146D01*
X77384657Y-82899251D01*
X75725982Y-78268786D01*
X75721908Y-78199037D01*
X75726328Y-78184208D01*
X77389412Y-73658810D01*
X77422803Y-73609457D01*
X80930000Y-70450000D01*
X81738131Y-34787197D01*
X81759329Y-34720622D01*
X81813156Y-34676075D01*
X81822865Y-34672378D01*
X82079066Y-34586977D01*
X82122058Y-34580673D01*
X87535173Y-34745885D01*
G37*
G04 #@! TD.AperFunction*
G04 #@! TA.AperFunction,Conductor*
G36*
X72165416Y-51127329D02*
G01*
X72156695Y-58582850D01*
X72156356Y-58582850D01*
X71008789Y-58576079D01*
X70941867Y-58555999D01*
X70921840Y-58539762D01*
X70260292Y-57878213D01*
X70260288Y-57878210D01*
X70129185Y-57790609D01*
X70129172Y-57790602D01*
X69983501Y-57730264D01*
X69983489Y-57730261D01*
X69828845Y-57699500D01*
X69828842Y-57699500D01*
X68106673Y-57699500D01*
X68039634Y-57679815D01*
X67993879Y-57627011D01*
X67982673Y-57575646D01*
X67974017Y-50209564D01*
X67993623Y-50142505D01*
X68010331Y-50121746D01*
X68295259Y-49836819D01*
X68356582Y-49803334D01*
X68382940Y-49800500D01*
X69078844Y-49800500D01*
X69078845Y-49800499D01*
X69155152Y-49785320D01*
X69233488Y-49769739D01*
X69233489Y-49769738D01*
X69233497Y-49769737D01*
X69257155Y-49759937D01*
X69304604Y-49750500D01*
X69348543Y-49750500D01*
X69478582Y-49724632D01*
X69541835Y-49712051D01*
X69723914Y-49636632D01*
X69754792Y-49615999D01*
X69852721Y-49550567D01*
X69919398Y-49529689D01*
X69921611Y-49529669D01*
X72124891Y-49529669D01*
X72165416Y-51127329D01*
G37*
G04 #@! TD.AperFunction*
G04 #@! TA.AperFunction,Conductor*
G36*
X68164434Y-38580000D02*
G01*
X68165000Y-38580000D01*
X71847149Y-38580000D01*
X72076773Y-47632692D01*
X68110218Y-47609290D01*
X68043296Y-47589210D01*
X67997854Y-47536137D01*
X67986950Y-47485438D01*
X67976610Y-38686119D01*
X67996216Y-38619059D01*
X68048966Y-38573242D01*
X68118113Y-38563217D01*
X68164434Y-38580000D01*
G37*
G04 #@! TD.AperFunction*
G04 #@! TA.AperFunction,Conductor*
G36*
X72949726Y-69475535D02*
G01*
X71915547Y-69475535D01*
X71898643Y-69474377D01*
X71836677Y-69465850D01*
X71847285Y-60397352D01*
X73070000Y-58500866D01*
X72949726Y-69475535D01*
G37*
G04 #@! TD.AperFunction*
G04 #@! TA.AperFunction,Conductor*
G36*
X73270000Y-58582852D02*
G01*
X72157088Y-58582852D01*
X72156695Y-58582850D01*
X72167285Y-49529669D01*
X73390000Y-47633183D01*
X73270000Y-58582852D01*
G37*
G04 #@! TD.AperFunction*
G04 #@! TA.AperFunction,Conductor*
G36*
X70248108Y-60417037D02*
G01*
X70268745Y-60433666D01*
X70356431Y-60521352D01*
X70362219Y-60527140D01*
X70526079Y-60636628D01*
X70526092Y-60636635D01*
X70708160Y-60712049D01*
X70708165Y-60712051D01*
X70708169Y-60712051D01*
X70708170Y-60712052D01*
X70901456Y-60750500D01*
X70901459Y-60750500D01*
X71098543Y-60750500D01*
X71228582Y-60724632D01*
X71291835Y-60712051D01*
X71473914Y-60636632D01*
X71637782Y-60527139D01*
X71731251Y-60433669D01*
X71792572Y-60400186D01*
X71818931Y-60397352D01*
X71847285Y-60397352D01*
X71836698Y-69448111D01*
X69326009Y-69433299D01*
X69259087Y-69413219D01*
X69239060Y-69396982D01*
X68336819Y-68494741D01*
X68303334Y-68433418D01*
X68300500Y-68407060D01*
X68300500Y-60521352D01*
X68320185Y-60454313D01*
X68372989Y-60408558D01*
X68424500Y-60397352D01*
X70181069Y-60397352D01*
X70248108Y-60417037D01*
G37*
G04 #@! TD.AperFunction*
G04 #@! TA.AperFunction,Conductor*
G36*
X56689934Y-65026653D02*
G01*
X56736983Y-65078307D01*
X56749500Y-65132598D01*
X56749500Y-70263330D01*
X56749499Y-70263348D01*
X56749499Y-70429054D01*
X56749498Y-70429054D01*
X56790423Y-70581785D01*
X56819358Y-70631900D01*
X56819359Y-70631904D01*
X56819360Y-70631904D01*
X56869479Y-70718714D01*
X56869481Y-70718717D01*
X56988349Y-70837585D01*
X56988355Y-70837590D01*
X58665139Y-72514374D01*
X58665149Y-72514385D01*
X58669479Y-72518715D01*
X58669480Y-72518716D01*
X58781284Y-72630520D01*
X58781286Y-72630521D01*
X58781290Y-72630524D01*
X58918209Y-72709573D01*
X58918216Y-72709577D01*
X59030019Y-72739534D01*
X59070942Y-72750500D01*
X59070943Y-72750500D01*
X64584883Y-72750500D01*
X64651922Y-72770185D01*
X64697677Y-72822989D01*
X64707621Y-72892147D01*
X64703086Y-72911971D01*
X61523810Y-82940981D01*
X61484787Y-82998938D01*
X61420625Y-83026597D01*
X61406250Y-83027508D01*
X52832039Y-83071992D01*
X52764899Y-83052656D01*
X52718870Y-83000090D01*
X52710780Y-82976765D01*
X51995616Y-79978578D01*
X51992321Y-79954442D01*
X51846360Y-76037815D01*
X51856237Y-75984505D01*
X56511465Y-65083896D01*
X56555896Y-65029976D01*
X56622427Y-65008636D01*
X56689934Y-65026653D01*
G37*
G04 #@! TD.AperFunction*
G04 #@! TA.AperFunction,Conductor*
G36*
X66642539Y-60320185D02*
G01*
X66688294Y-60372989D01*
X66699500Y-60424500D01*
X66699500Y-68868846D01*
X66730261Y-69023489D01*
X66730264Y-69023501D01*
X66790602Y-69169172D01*
X66790609Y-69169185D01*
X66878209Y-69300287D01*
X66878210Y-69300288D01*
X66878211Y-69300289D01*
X66991178Y-69413256D01*
X67024662Y-69474577D01*
X67027496Y-69501124D01*
X67025400Y-70885688D01*
X67005614Y-70952697D01*
X66952741Y-70998372D01*
X66901400Y-71009500D01*
X59840098Y-71009500D01*
X59773059Y-70989815D01*
X59752417Y-70973181D01*
X58413531Y-69634295D01*
X58380046Y-69572972D01*
X58377212Y-69546614D01*
X58377212Y-62365772D01*
X58377213Y-62365759D01*
X58377213Y-62197656D01*
X58377213Y-62197655D01*
X58336289Y-62044928D01*
X58325429Y-62026118D01*
X58257236Y-61908002D01*
X58257230Y-61907994D01*
X57191371Y-60842135D01*
X57157886Y-60780812D01*
X57155061Y-60752971D01*
X57159026Y-60423008D01*
X57179515Y-60356212D01*
X57232865Y-60311095D01*
X57283017Y-60300500D01*
X66575500Y-60300500D01*
X66642539Y-60320185D01*
G37*
G04 #@! TD.AperFunction*
G04 #@! TA.AperFunction,Conductor*
G36*
X66999417Y-50320185D02*
G01*
X67045172Y-50372989D01*
X67056378Y-50424688D01*
X67045551Y-57575688D01*
X67025765Y-57642697D01*
X66972892Y-57688372D01*
X66921551Y-57699500D01*
X57632940Y-57699500D01*
X57565901Y-57679815D01*
X57545259Y-57663181D01*
X57233316Y-57351238D01*
X57199831Y-57289915D01*
X57197006Y-57262073D01*
X57246054Y-53180028D01*
X57279182Y-50423010D01*
X57299671Y-50356212D01*
X57353020Y-50311095D01*
X57403173Y-50300500D01*
X66932378Y-50300500D01*
X66999417Y-50320185D01*
G37*
G04 #@! TD.AperFunction*
G04 #@! TA.AperFunction,Conductor*
G36*
X66951685Y-38124133D02*
G01*
X67018584Y-38144288D01*
X67063967Y-38197412D01*
X67074813Y-38248318D01*
X67059177Y-48575688D01*
X67039391Y-48642697D01*
X66986518Y-48688372D01*
X66935177Y-48699500D01*
X57425389Y-48699500D01*
X57358350Y-48679815D01*
X57312595Y-48627011D01*
X57301398Y-48574010D01*
X57426280Y-38180571D01*
X57446769Y-38113776D01*
X57500118Y-38068659D01*
X57551141Y-38058067D01*
X66951685Y-38124133D01*
G37*
G04 #@! TD.AperFunction*
G04 #@! TA.AperFunction,Conductor*
G36*
X77750000Y-35000000D02*
G01*
X77750091Y-35000003D01*
X77750224Y-35000009D01*
X77750223Y-35000009D01*
X78452409Y-35026716D01*
X79731180Y-35075354D01*
X79797420Y-35097571D01*
X79841135Y-35152076D01*
X79850456Y-35200701D01*
X79441334Y-70474978D01*
X79420873Y-70541785D01*
X79367542Y-70586924D01*
X79325202Y-70597291D01*
X72798553Y-71011834D01*
X72730401Y-70996438D01*
X72681391Y-70946641D01*
X72666733Y-70891229D01*
X72630823Y-69475535D01*
X72949726Y-69475535D01*
X73069101Y-58582852D01*
X73270000Y-58582852D01*
X73390000Y-47633183D01*
X72167285Y-49529669D01*
X72165416Y-51127359D01*
X71753362Y-34882555D01*
X71771340Y-34815040D01*
X71822967Y-34767961D01*
X71882483Y-34755520D01*
X77750000Y-35000000D01*
G37*
G04 #@! TD.AperFunction*
G04 #@! TA.AperFunction,Conductor*
G36*
X72379609Y-59571692D02*
G01*
X72354527Y-58582852D01*
X73017141Y-58582852D01*
X72379609Y-59571692D01*
G37*
G04 #@! TD.AperFunction*
M02*
