G04 #@! TF.GenerationSoftware,KiCad,Pcbnew,9.0.0*
G04 #@! TF.CreationDate,2025-07-23T17:32:58-04:00*
G04 #@! TF.ProjectId,PresToe_BMS_48V,50726573-546f-4655-9f42-4d535f343856,rev?*
G04 #@! TF.SameCoordinates,Original*
G04 #@! TF.FileFunction,Copper,L3,Inr*
G04 #@! TF.FilePolarity,Positive*
%FSLAX46Y46*%
G04 Gerber Fmt 4.6, Leading zero omitted, Abs format (unit mm)*
G04 Created by KiCad (PCBNEW 9.0.0) date 2025-07-23 17:32:58*
%MOMM*%
%LPD*%
G01*
G04 APERTURE LIST*
G04 #@! TA.AperFunction,ComponentPad*
%ADD10C,0.800000*%
G04 #@! TD*
G04 #@! TA.AperFunction,ComponentPad*
%ADD11C,6.400000*%
G04 #@! TD*
G04 #@! TA.AperFunction,ComponentPad*
%ADD12C,1.295400*%
G04 #@! TD*
G04 #@! TA.AperFunction,ComponentPad*
%ADD13R,1.508000X1.508000*%
G04 #@! TD*
G04 #@! TA.AperFunction,ComponentPad*
%ADD14C,1.508000*%
G04 #@! TD*
G04 #@! TA.AperFunction,ComponentPad*
%ADD15O,1.950000X1.700000*%
G04 #@! TD*
G04 #@! TA.AperFunction,ComponentPad*
%ADD16R,9.150000X9.150000*%
G04 #@! TD*
G04 #@! TA.AperFunction,ComponentPad*
%ADD17C,9.150000*%
G04 #@! TD*
G04 #@! TA.AperFunction,ComponentPad*
%ADD18C,2.550000*%
G04 #@! TD*
G04 #@! TA.AperFunction,ComponentPad*
%ADD19R,2.550000X2.550000*%
G04 #@! TD*
G04 #@! TA.AperFunction,ViaPad*
%ADD20C,0.500000*%
G04 #@! TD*
G04 #@! TA.AperFunction,ViaPad*
%ADD21C,0.600000*%
G04 #@! TD*
G04 #@! TA.AperFunction,ViaPad*
%ADD22C,1.000000*%
G04 #@! TD*
G04 #@! TA.AperFunction,Conductor*
%ADD23C,0.200000*%
G04 #@! TD*
G04 APERTURE END LIST*
D10*
X31850000Y-32000000D03*
X32552944Y-30302944D03*
X32552944Y-33697056D03*
X34250000Y-29600000D03*
D11*
X34250000Y-32000000D03*
D10*
X34250000Y-34400000D03*
X35947056Y-30302944D03*
X35947056Y-33697056D03*
X36650000Y-32000000D03*
D12*
X34025000Y-65800000D03*
X31485000Y-70880000D03*
X34025000Y-78500000D03*
D13*
X67566750Y-35640000D03*
D14*
X65066750Y-35640000D03*
X62566750Y-35640000D03*
D15*
X90937500Y-48320000D03*
X90937500Y-50820000D03*
X90937500Y-53320000D03*
X90937500Y-55820000D03*
X90937500Y-58320000D03*
X90937500Y-60820000D03*
D10*
X90600000Y-78250000D03*
X91302944Y-76552944D03*
X91302944Y-79947056D03*
X93000000Y-75850000D03*
D11*
X93000000Y-78250000D03*
D10*
X93000000Y-80650000D03*
X94697056Y-76552944D03*
X94697056Y-79947056D03*
X95400000Y-78250000D03*
D16*
X46430000Y-77630000D03*
D17*
X57430000Y-77630000D03*
D18*
X42205750Y-43750000D03*
D19*
X42205750Y-48750000D03*
D14*
X32205750Y-40750000D03*
X32205750Y-51750000D03*
D10*
X90600000Y-32000000D03*
X91302944Y-30302944D03*
X91302944Y-33697056D03*
X93000000Y-29600000D03*
D11*
X93000000Y-32000000D03*
D10*
X93000000Y-34400000D03*
X94697056Y-30302944D03*
X94697056Y-33697056D03*
X95400000Y-32000000D03*
D16*
X70430000Y-77630000D03*
D17*
X81430000Y-77630000D03*
D20*
X37275000Y-76050000D03*
X50850000Y-40100000D03*
D21*
X51720000Y-46495000D03*
D20*
X84525000Y-27550000D03*
X37900000Y-76050000D03*
X37750000Y-56175000D03*
X51200000Y-56325000D03*
X57432500Y-28975000D03*
X38525000Y-74800000D03*
X80375000Y-27550000D03*
X46994370Y-60578850D03*
X37900000Y-75425000D03*
D21*
X54300000Y-65140000D03*
D20*
X57500000Y-36595000D03*
D21*
X49720000Y-46495000D03*
D20*
X46994370Y-62350000D03*
X54675000Y-40050000D03*
X46950000Y-65850000D03*
X39520000Y-29460000D03*
X47275000Y-47250000D03*
X37275000Y-74800000D03*
X38525000Y-76050000D03*
X38525000Y-75425000D03*
X87526150Y-30954999D03*
X88525000Y-27450000D03*
X54800000Y-47575000D03*
X51975000Y-66675000D03*
X75975000Y-32342200D03*
X87526150Y-30305001D03*
X52898220Y-57850000D03*
X49495000Y-51610000D03*
X37275000Y-75425000D03*
X37900000Y-74800000D03*
X89875000Y-41300000D03*
D21*
X50720000Y-46495000D03*
D20*
X76450000Y-53250000D03*
X69900000Y-66750000D03*
X75050000Y-49500000D03*
X79250000Y-42000000D03*
X74800000Y-63750000D03*
X75750000Y-60000000D03*
X72950000Y-45750000D03*
X72500000Y-38250000D03*
X78550000Y-51750000D03*
X74350000Y-51000000D03*
X73650000Y-40500000D03*
X73650000Y-44250000D03*
X72950000Y-47250000D03*
X68750000Y-39000000D03*
X68750000Y-50250000D03*
X78550000Y-51000000D03*
X71550000Y-42000000D03*
X72950000Y-59250000D03*
X75050000Y-52500000D03*
X74800000Y-66000000D03*
X75050000Y-51000000D03*
X79500000Y-36000000D03*
X75750000Y-45750000D03*
X74800000Y-63000000D03*
X68750000Y-43500000D03*
X77600000Y-69750000D03*
X75750000Y-56250000D03*
X75050000Y-40500000D03*
X69900000Y-65250000D03*
X68500000Y-63750000D03*
X75750000Y-41250000D03*
X76200000Y-69000000D03*
X75050000Y-44250000D03*
X74350000Y-49500000D03*
X77150000Y-44250000D03*
X75050000Y-42000000D03*
X75750000Y-40500000D03*
X76450000Y-55500000D03*
X72000000Y-68250000D03*
X77150000Y-55500000D03*
X79250000Y-41250000D03*
X76450000Y-46500000D03*
X70150000Y-45750000D03*
X72950000Y-42000000D03*
X69450000Y-39000000D03*
X72250000Y-50250000D03*
X74350000Y-57000000D03*
X68750000Y-61500000D03*
X71550000Y-45750000D03*
X73900000Y-36000000D03*
X76900000Y-69750000D03*
X70850000Y-55500000D03*
X77850000Y-57750000D03*
X74800000Y-62250000D03*
X74350000Y-39750000D03*
X77150000Y-46500000D03*
X76450000Y-41250000D03*
X74600000Y-36000000D03*
X78300000Y-66000000D03*
X74800000Y-65250000D03*
X78550000Y-39750000D03*
X78550000Y-57750000D03*
X73650000Y-39000000D03*
X76700000Y-37500000D03*
X76450000Y-42000000D03*
X69450000Y-61500000D03*
X73200000Y-36000000D03*
X70850000Y-45750000D03*
X79250000Y-47250000D03*
X76450000Y-49500000D03*
X79250000Y-50250000D03*
X75750000Y-55500000D03*
X68750000Y-56250000D03*
X78550000Y-60750000D03*
X75050000Y-42750000D03*
X69450000Y-39750000D03*
X72950000Y-60000000D03*
X77150000Y-60750000D03*
X74350000Y-48000000D03*
X74350000Y-39000000D03*
X78550000Y-56250000D03*
X70850000Y-51750000D03*
X78550000Y-45000000D03*
X68750000Y-51000000D03*
X70850000Y-43500000D03*
X69200000Y-63000000D03*
X78300000Y-69000000D03*
X78550000Y-54000000D03*
X72250000Y-61500000D03*
X76900000Y-63000000D03*
X74100000Y-62250000D03*
X54780000Y-59280000D03*
X74350000Y-54000000D03*
X70850000Y-53250000D03*
X77150000Y-57000000D03*
X79250000Y-52500000D03*
X77850000Y-44250000D03*
X75300000Y-38250000D03*
X70600000Y-66750000D03*
X77150000Y-53250000D03*
X70600000Y-66000000D03*
X73650000Y-61500000D03*
X68500000Y-67500000D03*
X75050000Y-58500000D03*
X70850000Y-61500000D03*
X71550000Y-54750000D03*
X75050000Y-54000000D03*
X69200000Y-67500000D03*
X72950000Y-56250000D03*
X75750000Y-42000000D03*
X69900000Y-64500000D03*
X77400000Y-38250000D03*
X69450000Y-43500000D03*
X70150000Y-51750000D03*
X70150000Y-46500000D03*
X77150000Y-42750000D03*
X79250000Y-54000000D03*
X70850000Y-57000000D03*
X75050000Y-57750000D03*
X78300000Y-68250000D03*
X79500000Y-36750000D03*
X77850000Y-42000000D03*
X73400000Y-67500000D03*
X75050000Y-39750000D03*
X76000000Y-38250000D03*
X72950000Y-40500000D03*
X75750000Y-59250000D03*
X72250000Y-41250000D03*
X72000000Y-66750000D03*
X71550000Y-56250000D03*
X70850000Y-54750000D03*
X77850000Y-60000000D03*
X77850000Y-56250000D03*
X69450000Y-41250000D03*
X78550000Y-59250000D03*
X76450000Y-57750000D03*
X79000000Y-65250000D03*
X72250000Y-53250000D03*
X73400000Y-65250000D03*
X72250000Y-54000000D03*
X70150000Y-41250000D03*
X72950000Y-54750000D03*
X72250000Y-56250000D03*
X75300000Y-36750000D03*
X79000000Y-66000000D03*
X71550000Y-50250000D03*
X77850000Y-61500000D03*
X72700000Y-68250000D03*
X77850000Y-52500000D03*
X78300000Y-69750000D03*
X71550000Y-41250000D03*
X73650000Y-50250000D03*
X77150000Y-49500000D03*
X74350000Y-57750000D03*
X72250000Y-39750000D03*
X77850000Y-41250000D03*
X70150000Y-60750000D03*
X77150000Y-45750000D03*
X72700000Y-63750000D03*
X77150000Y-47250000D03*
X69450000Y-53250000D03*
X68750000Y-60750000D03*
X75050000Y-56250000D03*
X73650000Y-57000000D03*
X72000000Y-64500000D03*
X74350000Y-52500000D03*
X70150000Y-39000000D03*
X74350000Y-44250000D03*
X78100000Y-36000000D03*
X73650000Y-52500000D03*
X75050000Y-48750000D03*
X74800000Y-66750000D03*
X72950000Y-60750000D03*
X79000000Y-62250000D03*
X74100000Y-67500000D03*
X74800000Y-69750000D03*
X71300000Y-65250000D03*
X74600000Y-37500000D03*
X75050000Y-55500000D03*
X75750000Y-50250000D03*
X74100000Y-68250000D03*
X75300000Y-36000000D03*
X70850000Y-51000000D03*
X75500000Y-65250000D03*
X75750000Y-39000000D03*
X72500000Y-36000000D03*
X77400000Y-36750000D03*
X72250000Y-54750000D03*
X76450000Y-56250000D03*
X68750000Y-39750000D03*
X72950000Y-50250000D03*
X77150000Y-51000000D03*
X72700000Y-62250000D03*
X74100000Y-63000000D03*
X73650000Y-60000000D03*
X75750000Y-53250000D03*
X76450000Y-48000000D03*
X75750000Y-60750000D03*
X74100000Y-65250000D03*
X77850000Y-50250000D03*
X78550000Y-43500000D03*
X76200000Y-65250000D03*
X73650000Y-58500000D03*
X77400000Y-36000000D03*
X76000000Y-36000000D03*
X77850000Y-47250000D03*
X78800000Y-37500000D03*
X77150000Y-54000000D03*
X69450000Y-45000000D03*
X79000000Y-69000000D03*
X75500000Y-68250000D03*
X74350000Y-50250000D03*
X70850000Y-42750000D03*
X79250000Y-45000000D03*
X68500000Y-64500000D03*
X68500000Y-65250000D03*
X76200000Y-64500000D03*
X69450000Y-56250000D03*
X72950000Y-51750000D03*
X73650000Y-48000000D03*
X73900000Y-38250000D03*
X71550000Y-42750000D03*
X72250000Y-45750000D03*
X79250000Y-39750000D03*
X76450000Y-60750000D03*
X75500000Y-62250000D03*
X77850000Y-49500000D03*
X70850000Y-45000000D03*
X75750000Y-44250000D03*
X77150000Y-51750000D03*
X76700000Y-36750000D03*
X79000000Y-67500000D03*
X77600000Y-62250000D03*
X73650000Y-54000000D03*
X76450000Y-59250000D03*
X77150000Y-54750000D03*
X74350000Y-53250000D03*
X75750000Y-45000000D03*
X77850000Y-39750000D03*
X76450000Y-47250000D03*
X79250000Y-53250000D03*
X77150000Y-61500000D03*
X70850000Y-56250000D03*
X77150000Y-43500000D03*
X70850000Y-54000000D03*
X77850000Y-46500000D03*
X79000000Y-66750000D03*
X70850000Y-52500000D03*
X76900000Y-64500000D03*
X72700000Y-66750000D03*
X76450000Y-39000000D03*
X70850000Y-40500000D03*
X72950000Y-58500000D03*
X70600000Y-63000000D03*
X72000000Y-67500000D03*
X70850000Y-46500000D03*
X69900000Y-66000000D03*
X73650000Y-42000000D03*
X75050000Y-47250000D03*
X74100000Y-69000000D03*
X77150000Y-39750000D03*
X69900000Y-63000000D03*
X75750000Y-48750000D03*
X76450000Y-44250000D03*
X77850000Y-51750000D03*
X76200000Y-66750000D03*
X70150000Y-55500000D03*
X68750000Y-40500000D03*
X71550000Y-43500000D03*
X73650000Y-60750000D03*
X75750000Y-48000000D03*
X77600000Y-64500000D03*
X75050000Y-54750000D03*
X76200000Y-68250000D03*
X71300000Y-63000000D03*
X72250000Y-45000000D03*
X76450000Y-48750000D03*
X76000000Y-37500000D03*
X77150000Y-56250000D03*
X73400000Y-62250000D03*
X78550000Y-61500000D03*
X74800000Y-69000000D03*
X74350000Y-41250000D03*
X70850000Y-39000000D03*
X78550000Y-45750000D03*
X70150000Y-42000000D03*
X77600000Y-66750000D03*
X72700000Y-64500000D03*
X73400000Y-69000000D03*
X69200000Y-68250000D03*
X71300000Y-66000000D03*
X72250000Y-52500000D03*
X79250000Y-57000000D03*
X76200000Y-63750000D03*
X72000000Y-63000000D03*
X73650000Y-49500000D03*
X76450000Y-50250000D03*
X77150000Y-40500000D03*
X69200000Y-66750000D03*
X73650000Y-55500000D03*
X79250000Y-43500000D03*
X71550000Y-45000000D03*
X71550000Y-61500000D03*
X70850000Y-50250000D03*
X75050000Y-53250000D03*
X75050000Y-45750000D03*
X75750000Y-54000000D03*
X73400000Y-66000000D03*
X72000000Y-65250000D03*
X72250000Y-43500000D03*
X76450000Y-39750000D03*
X72950000Y-52500000D03*
X70600000Y-65250000D03*
X75050000Y-48000000D03*
X75050000Y-45000000D03*
X72250000Y-46500000D03*
X77150000Y-48000000D03*
X77150000Y-42000000D03*
X76450000Y-40500000D03*
X79000000Y-63000000D03*
X72250000Y-60750000D03*
X76200000Y-69750000D03*
X78550000Y-57000000D03*
X74600000Y-38250000D03*
X71300000Y-63750000D03*
X76000000Y-36750000D03*
X68750000Y-42000000D03*
X75050000Y-51750000D03*
X70150000Y-54750000D03*
X73650000Y-51750000D03*
X77600000Y-63000000D03*
X70150000Y-39750000D03*
X73650000Y-53250000D03*
X71300000Y-66750000D03*
X70150000Y-61500000D03*
X73650000Y-39750000D03*
X75050000Y-43500000D03*
X74350000Y-56250000D03*
X75500000Y-67500000D03*
X76450000Y-51750000D03*
X79250000Y-51000000D03*
X72500000Y-37500000D03*
X78800000Y-38250000D03*
X72950000Y-51000000D03*
X73650000Y-45750000D03*
X77850000Y-54750000D03*
X72950000Y-53250000D03*
X76200000Y-63000000D03*
X74100000Y-63750000D03*
X68750000Y-52500000D03*
X72950000Y-43500000D03*
X78300000Y-62250000D03*
X76900000Y-63750000D03*
X72950000Y-46500000D03*
X75500000Y-69750000D03*
X78300000Y-64500000D03*
X76450000Y-57000000D03*
X77150000Y-48750000D03*
X79000000Y-63750000D03*
X74350000Y-55500000D03*
X76450000Y-43500000D03*
X74800000Y-68250000D03*
X76450000Y-60000000D03*
X77850000Y-59250000D03*
X79250000Y-61500000D03*
X77150000Y-39000000D03*
X73650000Y-57750000D03*
X79250000Y-46500000D03*
X76450000Y-51000000D03*
X75750000Y-51000000D03*
X76450000Y-45000000D03*
X79250000Y-56250000D03*
X68750000Y-54750000D03*
X68750000Y-51750000D03*
X78300000Y-67500000D03*
X70150000Y-43500000D03*
X77150000Y-60000000D03*
X75050000Y-61500000D03*
X78550000Y-46500000D03*
X77150000Y-45000000D03*
X74350000Y-45750000D03*
X73400000Y-68250000D03*
X77600000Y-69000000D03*
X72250000Y-55500000D03*
X69450000Y-42750000D03*
X76900000Y-67500000D03*
X79000000Y-64500000D03*
X79250000Y-60750000D03*
X69900000Y-68250000D03*
X77400000Y-37500000D03*
X74800000Y-64500000D03*
X76450000Y-54000000D03*
X75750000Y-47250000D03*
X74350000Y-51750000D03*
X68750000Y-45000000D03*
X72250000Y-39000000D03*
X78550000Y-42750000D03*
X73400000Y-66750000D03*
X73200000Y-38250000D03*
X71550000Y-46500000D03*
X70150000Y-50250000D03*
X75050000Y-50250000D03*
X68750000Y-55500000D03*
X77150000Y-41250000D03*
X76900000Y-66750000D03*
X69450000Y-42000000D03*
X79250000Y-58500000D03*
X73650000Y-41250000D03*
X76450000Y-42750000D03*
X77150000Y-57750000D03*
X72950000Y-41250000D03*
X75500000Y-63000000D03*
X78550000Y-52500000D03*
X72250000Y-40500000D03*
X78100000Y-38250000D03*
X75750000Y-46500000D03*
X70150000Y-45000000D03*
X76900000Y-66000000D03*
X74350000Y-61500000D03*
X68750000Y-44250000D03*
X75050000Y-60750000D03*
X78300000Y-65250000D03*
X72950000Y-39000000D03*
X69450000Y-50250000D03*
X68750000Y-42750000D03*
X75750000Y-43500000D03*
X69200000Y-62250000D03*
X79250000Y-60000000D03*
X73400000Y-63750000D03*
X79500000Y-37500000D03*
X75050000Y-46500000D03*
X72950000Y-57000000D03*
X78550000Y-55500000D03*
X70150000Y-51000000D03*
X74350000Y-40500000D03*
X78550000Y-44250000D03*
X78550000Y-60000000D03*
X74350000Y-59250000D03*
X77150000Y-50250000D03*
X73650000Y-48750000D03*
X71550000Y-44250000D03*
X77850000Y-48000000D03*
X75750000Y-57750000D03*
X71550000Y-53250000D03*
X73400000Y-64500000D03*
X77850000Y-54000000D03*
X75050000Y-41250000D03*
X78100000Y-37500000D03*
X76900000Y-65250000D03*
X77600000Y-66000000D03*
X72950000Y-49500000D03*
X74350000Y-60000000D03*
X73650000Y-51000000D03*
X79250000Y-40500000D03*
X78800000Y-36750000D03*
X75050000Y-57000000D03*
X73400000Y-69750000D03*
X70850000Y-41250000D03*
X79500000Y-38250000D03*
X68750000Y-54000000D03*
X76450000Y-58500000D03*
X71550000Y-39000000D03*
X78550000Y-42000000D03*
X70850000Y-42000000D03*
X75050000Y-39000000D03*
X76700000Y-38250000D03*
X72950000Y-44250000D03*
X71550000Y-39750000D03*
X77600000Y-68250000D03*
X69900000Y-63750000D03*
X72950000Y-42750000D03*
X75500000Y-63750000D03*
X79000000Y-69750000D03*
X70150000Y-56250000D03*
X73650000Y-45000000D03*
X78550000Y-50250000D03*
X79250000Y-49500000D03*
X77600000Y-63750000D03*
X69900000Y-67500000D03*
X69450000Y-51000000D03*
X73650000Y-54750000D03*
X72950000Y-45000000D03*
X79250000Y-39000000D03*
X77600000Y-65250000D03*
X78550000Y-39000000D03*
X70150000Y-57000000D03*
X76900000Y-68250000D03*
X68750000Y-57000000D03*
X70150000Y-52500000D03*
X76900000Y-62250000D03*
X74800000Y-67500000D03*
X78550000Y-40500000D03*
X73650000Y-56250000D03*
X70150000Y-40500000D03*
X75750000Y-61500000D03*
X75050000Y-59250000D03*
X69450000Y-52500000D03*
X77150000Y-58500000D03*
X75300000Y-37500000D03*
X72250000Y-51000000D03*
X69450000Y-54000000D03*
X76450000Y-52500000D03*
X68500000Y-63000000D03*
X72700000Y-67500000D03*
X71300000Y-68250000D03*
X70600000Y-67500000D03*
X78300000Y-63000000D03*
X72250000Y-42000000D03*
X70850000Y-44250000D03*
X79250000Y-45750000D03*
X74350000Y-42000000D03*
X71550000Y-52500000D03*
X74100000Y-64500000D03*
X70600000Y-64500000D03*
X71550000Y-40500000D03*
X70600000Y-68250000D03*
X78550000Y-48000000D03*
X79250000Y-57750000D03*
X76450000Y-45750000D03*
X79250000Y-48000000D03*
X69450000Y-40500000D03*
X70600000Y-62250000D03*
X71300000Y-64500000D03*
X70150000Y-42750000D03*
X75050000Y-60000000D03*
X78300000Y-66750000D03*
X75500000Y-64500000D03*
X73200000Y-37500000D03*
X69450000Y-46500000D03*
X75750000Y-52500000D03*
X72700000Y-69000000D03*
X72700000Y-66000000D03*
X72000000Y-63750000D03*
X68500000Y-62250000D03*
X68500000Y-68250000D03*
X72250000Y-47250000D03*
X74350000Y-45000000D03*
X71550000Y-51750000D03*
X73650000Y-43500000D03*
X76450000Y-54750000D03*
X77850000Y-60750000D03*
X69450000Y-55500000D03*
X75750000Y-49500000D03*
X74350000Y-43500000D03*
X73650000Y-59250000D03*
X72950000Y-54000000D03*
X75750000Y-51750000D03*
X72250000Y-44250000D03*
X74350000Y-46500000D03*
X79250000Y-48750000D03*
X73650000Y-46500000D03*
X68750000Y-53250000D03*
X79250000Y-55500000D03*
X75500000Y-69000000D03*
X77600000Y-67500000D03*
X74350000Y-54750000D03*
X72950000Y-55500000D03*
X69200000Y-66000000D03*
X77850000Y-51000000D03*
X68500000Y-66750000D03*
X71550000Y-57000000D03*
X72250000Y-57750000D03*
X78550000Y-58500000D03*
X71550000Y-55500000D03*
X78100000Y-36750000D03*
X73650000Y-47250000D03*
X78550000Y-47250000D03*
X70600000Y-63750000D03*
X77850000Y-39000000D03*
X69450000Y-45750000D03*
X69900000Y-62250000D03*
X75750000Y-54750000D03*
X74100000Y-69750000D03*
X77150000Y-59250000D03*
X73650000Y-42750000D03*
X78550000Y-54750000D03*
X79000000Y-68250000D03*
X75750000Y-58500000D03*
X74600000Y-36750000D03*
X77850000Y-43500000D03*
X73900000Y-36750000D03*
X71550000Y-51000000D03*
X71300000Y-62250000D03*
X69450000Y-51750000D03*
X69450000Y-54750000D03*
X68750000Y-45750000D03*
X74350000Y-48750000D03*
X69450000Y-57000000D03*
X75500000Y-66000000D03*
X69450000Y-60750000D03*
X74100000Y-66750000D03*
X73400000Y-63000000D03*
X72950000Y-57750000D03*
X79250000Y-51750000D03*
X78550000Y-41250000D03*
X68750000Y-41250000D03*
X72250000Y-57000000D03*
X76450000Y-61500000D03*
X71550000Y-54000000D03*
X76200000Y-62250000D03*
X78550000Y-48750000D03*
X72250000Y-42750000D03*
X71300000Y-67500000D03*
X78300000Y-63750000D03*
X68500000Y-66000000D03*
X75750000Y-39750000D03*
X70850000Y-39750000D03*
X78800000Y-36000000D03*
X79250000Y-54750000D03*
X77850000Y-55500000D03*
X72000000Y-66000000D03*
X76700000Y-36000000D03*
X78550000Y-53250000D03*
X77850000Y-40500000D03*
X74100000Y-66000000D03*
X75750000Y-42750000D03*
X77850000Y-42750000D03*
X74350000Y-47250000D03*
X72700000Y-65250000D03*
X75500000Y-66750000D03*
X72950000Y-39750000D03*
X77850000Y-45000000D03*
X77150000Y-52500000D03*
X78550000Y-49500000D03*
X69200000Y-65250000D03*
X70150000Y-53250000D03*
X77850000Y-45750000D03*
X72000000Y-62250000D03*
X74350000Y-58500000D03*
X79250000Y-44250000D03*
X72950000Y-61500000D03*
X69200000Y-63750000D03*
X77850000Y-57000000D03*
X73900000Y-37500000D03*
X69200000Y-64500000D03*
X75750000Y-57000000D03*
X70150000Y-54000000D03*
X68750000Y-46500000D03*
X72500000Y-36750000D03*
X74350000Y-42750000D03*
X72700000Y-63000000D03*
X77850000Y-48750000D03*
X74350000Y-60750000D03*
X69450000Y-44250000D03*
X77850000Y-58500000D03*
X79250000Y-59250000D03*
X79250000Y-42750000D03*
X73200000Y-36750000D03*
X76200000Y-66000000D03*
X72250000Y-51750000D03*
X76900000Y-69000000D03*
X77850000Y-53250000D03*
X76200000Y-67500000D03*
X70150000Y-44250000D03*
X42350000Y-30650000D03*
X44310000Y-31570000D03*
X65700000Y-54250000D03*
X65000000Y-56500000D03*
X60800000Y-50500000D03*
X63500000Y-70000000D03*
X66400000Y-57250000D03*
X64300000Y-55000000D03*
X61500000Y-39250000D03*
X62200000Y-52000000D03*
X63000000Y-70750000D03*
X60800000Y-52000000D03*
X64950000Y-67750000D03*
X59400000Y-52000000D03*
X62900000Y-54250000D03*
X63600000Y-47500000D03*
X58000000Y-39250000D03*
X64000000Y-73000000D03*
X61500000Y-64000000D03*
X60100000Y-46750000D03*
X62900000Y-56500000D03*
X61500000Y-61000000D03*
X66400000Y-48250000D03*
X63600000Y-65500000D03*
X62900000Y-51250000D03*
X62200000Y-65500000D03*
X59400000Y-47500000D03*
X58700000Y-61750000D03*
X59400000Y-43750000D03*
X65700000Y-57250000D03*
X62400000Y-67000000D03*
X63050000Y-74500000D03*
X61200000Y-73000000D03*
X63600000Y-56500000D03*
X60100000Y-64750000D03*
X58700000Y-46000000D03*
X59400000Y-52750000D03*
X66400000Y-41500000D03*
X65100000Y-70750000D03*
X65000000Y-40000000D03*
X60800000Y-38500000D03*
X65700000Y-53500000D03*
X60100000Y-42250000D03*
X60100000Y-48250000D03*
X60800000Y-39250000D03*
X66400000Y-65500000D03*
X58000000Y-43750000D03*
X60100000Y-57250000D03*
X66400000Y-43750000D03*
X66400000Y-43000000D03*
X58700000Y-52000000D03*
X65000000Y-39250000D03*
X62900000Y-46750000D03*
X65700000Y-51250000D03*
X59400000Y-45250000D03*
X58700000Y-52750000D03*
X58000000Y-44500000D03*
X58000000Y-40750000D03*
X62900000Y-40000000D03*
X65700000Y-62500000D03*
X65000000Y-50500000D03*
X53850000Y-82000000D03*
X63550000Y-67750000D03*
X60100000Y-54250000D03*
X60800000Y-40000000D03*
X62200000Y-64750000D03*
X60800000Y-41500000D03*
X62900000Y-61750000D03*
X65000000Y-43750000D03*
X65600000Y-70000000D03*
X65000000Y-54250000D03*
X62900000Y-55000000D03*
X63600000Y-64000000D03*
X62900000Y-57250000D03*
X60800000Y-44500000D03*
X58700000Y-64750000D03*
X62200000Y-53500000D03*
X62150000Y-67750000D03*
X60800000Y-52750000D03*
X62200000Y-43750000D03*
X64300000Y-46750000D03*
X65700000Y-64750000D03*
X58000000Y-42250000D03*
X60800000Y-42250000D03*
X62900000Y-65500000D03*
X63600000Y-39250000D03*
X65850000Y-69250000D03*
X64300000Y-40750000D03*
X61450000Y-67750000D03*
X60100000Y-55750000D03*
X65000000Y-62500000D03*
X66400000Y-52750000D03*
X63600000Y-45250000D03*
X60200000Y-70750000D03*
X59400000Y-48250000D03*
X62900000Y-61000000D03*
X58000000Y-41500000D03*
X60100000Y-53500000D03*
X66400000Y-64750000D03*
X62200000Y-51250000D03*
X65700000Y-48250000D03*
X66400000Y-46000000D03*
X66400000Y-47500000D03*
X63500000Y-75250000D03*
X62200000Y-46750000D03*
X61500000Y-44500000D03*
X64300000Y-64750000D03*
X58000000Y-57250000D03*
X66400000Y-56500000D03*
X58000000Y-45250000D03*
X62200000Y-40750000D03*
X65400000Y-68500000D03*
X65000000Y-48250000D03*
X62900000Y-64000000D03*
X61200000Y-68500000D03*
X61500000Y-50500000D03*
X62200000Y-50500000D03*
X60250000Y-69250000D03*
X65700000Y-40750000D03*
X63600000Y-46750000D03*
X60100000Y-52750000D03*
X58700000Y-65500000D03*
X64300000Y-54250000D03*
X60100000Y-40000000D03*
X60900000Y-70750000D03*
X61500000Y-55000000D03*
X66400000Y-39250000D03*
X64200000Y-70000000D03*
X58700000Y-43750000D03*
X63600000Y-40750000D03*
X59400000Y-43000000D03*
X60900000Y-82250000D03*
X59400000Y-50500000D03*
X64300000Y-57250000D03*
X62800000Y-75250000D03*
X60800000Y-55000000D03*
X65700000Y-61000000D03*
X62350000Y-69250000D03*
X60100000Y-40750000D03*
X66400000Y-55000000D03*
X60800000Y-45250000D03*
X62200000Y-39250000D03*
X59400000Y-55750000D03*
X64000000Y-73750000D03*
X62900000Y-53500000D03*
X64300000Y-43000000D03*
X59800000Y-68500000D03*
X62200000Y-55750000D03*
X59400000Y-54250000D03*
X62600000Y-73000000D03*
X60100000Y-52000000D03*
X63600000Y-48250000D03*
X64300000Y-45250000D03*
X65450000Y-66250000D03*
X64300000Y-46000000D03*
X60800000Y-64000000D03*
X61500000Y-56500000D03*
X60800000Y-43750000D03*
X66400000Y-52000000D03*
X63600000Y-44500000D03*
X62200000Y-38500000D03*
X59300000Y-70000000D03*
X62200000Y-44500000D03*
X65700000Y-40000000D03*
X62900000Y-46000000D03*
X63700000Y-70750000D03*
X56850000Y-72250000D03*
X64400000Y-70750000D03*
X58700000Y-47500000D03*
X58700000Y-55000000D03*
X60550000Y-66250000D03*
X61500000Y-43000000D03*
X64300000Y-47500000D03*
X56500000Y-70000000D03*
X58900000Y-67000000D03*
X62200000Y-40000000D03*
X58700000Y-44500000D03*
X58000000Y-48250000D03*
X66150000Y-66250000D03*
X64300000Y-52000000D03*
X64300000Y-61000000D03*
X63600000Y-52750000D03*
X53150000Y-82000000D03*
X60200000Y-82250000D03*
X58700000Y-56500000D03*
X61200000Y-73750000D03*
X62200000Y-62500000D03*
X56900000Y-71500000D03*
X65700000Y-52000000D03*
X59400000Y-46000000D03*
X65900000Y-67000000D03*
X64300000Y-62500000D03*
X64300000Y-48250000D03*
X62200000Y-52750000D03*
X59400000Y-63250000D03*
X58650000Y-67750000D03*
X59400000Y-64000000D03*
X63600000Y-43750000D03*
X62350000Y-74500000D03*
X62200000Y-63250000D03*
X58700000Y-51250000D03*
X66400000Y-62500000D03*
X60800000Y-47500000D03*
X66100000Y-68500000D03*
X64300000Y-53500000D03*
X58700000Y-42250000D03*
X62900000Y-41500000D03*
X61900000Y-73000000D03*
X60100000Y-56500000D03*
X63300000Y-73750000D03*
X60500000Y-68500000D03*
X64300000Y-38500000D03*
X58000000Y-52000000D03*
X59400000Y-65500000D03*
X64700000Y-68500000D03*
X63600000Y-64750000D03*
X62200000Y-57250000D03*
X65000000Y-45250000D03*
X65700000Y-43750000D03*
X62900000Y-63250000D03*
X58700000Y-57250000D03*
X59400000Y-56500000D03*
X60800000Y-51250000D03*
X60950000Y-69250000D03*
X61500000Y-40750000D03*
X61500000Y-65500000D03*
X59400000Y-51250000D03*
X65700000Y-61750000D03*
X59400000Y-62500000D03*
X59400000Y-38500000D03*
X62600000Y-73750000D03*
X62900000Y-47500000D03*
X58850000Y-69250000D03*
X66400000Y-63250000D03*
X62650000Y-66250000D03*
X62200000Y-55000000D03*
X56200000Y-71500000D03*
X58700000Y-45250000D03*
X60100000Y-61750000D03*
X56000000Y-70750000D03*
X58000000Y-46000000D03*
X62300000Y-70750000D03*
X65700000Y-45250000D03*
X64300000Y-55750000D03*
X60100000Y-46000000D03*
X58000000Y-51250000D03*
X59400000Y-46750000D03*
X59400000Y-42250000D03*
X60800000Y-65500000D03*
X58700000Y-48250000D03*
X65700000Y-39250000D03*
X61500000Y-48250000D03*
X65700000Y-52750000D03*
X66400000Y-40750000D03*
X62900000Y-50500000D03*
X61950000Y-66250000D03*
X64300000Y-40000000D03*
X63600000Y-61750000D03*
X60050000Y-67750000D03*
X55500000Y-71500000D03*
X60800000Y-56500000D03*
X60100000Y-44500000D03*
X62900000Y-39250000D03*
X60800000Y-53500000D03*
X63600000Y-46000000D03*
X60800000Y-55750000D03*
X59400000Y-41500000D03*
X58700000Y-43000000D03*
X66400000Y-53500000D03*
X60800000Y-61000000D03*
X65700000Y-43000000D03*
X65000000Y-53500000D03*
X64000000Y-68500000D03*
X64300000Y-44500000D03*
X63300000Y-73000000D03*
X58000000Y-54250000D03*
X61900000Y-73750000D03*
X64300000Y-52750000D03*
X64300000Y-51250000D03*
X64300000Y-64000000D03*
X65000000Y-61750000D03*
X64900000Y-70000000D03*
X62850000Y-67750000D03*
X62900000Y-44500000D03*
X63350000Y-66250000D03*
X63600000Y-51250000D03*
X57550000Y-72250000D03*
X60800000Y-54250000D03*
X58700000Y-38500000D03*
X65700000Y-38500000D03*
X61500000Y-57250000D03*
X58450000Y-66250000D03*
X63600000Y-40000000D03*
X61500000Y-47500000D03*
X64500000Y-67000000D03*
X65000000Y-55000000D03*
X58000000Y-53500000D03*
X63600000Y-57250000D03*
X59350000Y-67750000D03*
X56150000Y-72250000D03*
X61500000Y-52750000D03*
X65000000Y-55750000D03*
X59400000Y-44500000D03*
X65000000Y-41500000D03*
X62200000Y-43000000D03*
X61500000Y-40000000D03*
X63600000Y-55000000D03*
X61250000Y-66250000D03*
X62200000Y-47500000D03*
X66400000Y-51250000D03*
X58000000Y-52750000D03*
X65700000Y-44500000D03*
X65700000Y-56500000D03*
X61500000Y-46000000D03*
X53150000Y-81250000D03*
X64300000Y-56500000D03*
X65000000Y-64000000D03*
X65000000Y-46750000D03*
X65200000Y-67000000D03*
X59400000Y-57250000D03*
X60100000Y-47500000D03*
X60100000Y-65500000D03*
X60800000Y-63250000D03*
X58700000Y-61000000D03*
X62900000Y-52000000D03*
X63300000Y-68500000D03*
X61500000Y-52000000D03*
X61500000Y-53500000D03*
X63750000Y-69250000D03*
X58700000Y-50500000D03*
X66400000Y-44500000D03*
X58700000Y-64000000D03*
X61500000Y-43750000D03*
X59400000Y-40750000D03*
X59400000Y-61000000D03*
X62900000Y-48250000D03*
X64300000Y-42250000D03*
X60100000Y-45250000D03*
X62200000Y-45250000D03*
X62800000Y-70000000D03*
X61500000Y-51250000D03*
X61500000Y-62500000D03*
X59150000Y-66250000D03*
X59400000Y-64750000D03*
X59400000Y-39250000D03*
X65700000Y-55750000D03*
X61500000Y-54250000D03*
X65700000Y-65500000D03*
X66600000Y-67000000D03*
X58400000Y-68500000D03*
X60800000Y-57250000D03*
X58700000Y-41500000D03*
X63600000Y-53500000D03*
X60100000Y-39250000D03*
X62200000Y-61750000D03*
X58000000Y-56500000D03*
X58700000Y-63250000D03*
X62900000Y-43000000D03*
X61500000Y-45250000D03*
X65000000Y-57250000D03*
X59400000Y-53500000D03*
X61500000Y-63250000D03*
X66400000Y-55750000D03*
X54750000Y-72250000D03*
X64750000Y-66250000D03*
X65000000Y-65500000D03*
X65000000Y-51250000D03*
X60100000Y-38500000D03*
X63800000Y-67000000D03*
X65700000Y-41500000D03*
X63600000Y-55750000D03*
X59850000Y-66250000D03*
X60100000Y-62500000D03*
X64300000Y-43750000D03*
X61600000Y-70750000D03*
X55450000Y-72250000D03*
X60800000Y-48250000D03*
X65000000Y-38500000D03*
X59100000Y-68500000D03*
X58700000Y-54250000D03*
X65000000Y-42250000D03*
X65000000Y-64750000D03*
X58000000Y-43000000D03*
X64300000Y-61750000D03*
X60800000Y-43000000D03*
X65000000Y-61000000D03*
X63600000Y-52000000D03*
X64300000Y-65500000D03*
X64450000Y-69250000D03*
X66400000Y-54250000D03*
X63050000Y-69250000D03*
X65700000Y-64000000D03*
X58700000Y-46750000D03*
X59600000Y-67000000D03*
X60300000Y-67000000D03*
X64050000Y-66250000D03*
X58000000Y-55000000D03*
X63600000Y-43000000D03*
X54600000Y-73000000D03*
X64300000Y-39250000D03*
X60100000Y-43000000D03*
X61500000Y-41500000D03*
X65000000Y-40750000D03*
X62200000Y-48250000D03*
X65700000Y-63250000D03*
X61500000Y-55750000D03*
X53900000Y-73000000D03*
X66400000Y-46750000D03*
X64300000Y-63250000D03*
X64300000Y-50500000D03*
X63600000Y-63250000D03*
X61900000Y-68500000D03*
X60100000Y-61000000D03*
X62600000Y-68500000D03*
X59550000Y-69250000D03*
X66400000Y-45250000D03*
X63750000Y-74500000D03*
X66350000Y-67750000D03*
X63600000Y-42250000D03*
X58000000Y-46750000D03*
X58700000Y-53500000D03*
X66400000Y-64000000D03*
X60100000Y-43750000D03*
X65000000Y-44500000D03*
X59400000Y-55000000D03*
X62200000Y-61000000D03*
X62900000Y-40750000D03*
X58700000Y-40000000D03*
X62900000Y-42250000D03*
X62100000Y-70000000D03*
X62900000Y-62500000D03*
X60100000Y-50500000D03*
X66400000Y-40000000D03*
X60800000Y-40750000D03*
X62900000Y-45250000D03*
X56700000Y-70750000D03*
X58000000Y-61000000D03*
X61500000Y-42250000D03*
X65700000Y-42250000D03*
X60750000Y-67750000D03*
X66400000Y-61750000D03*
X61400000Y-70000000D03*
X66400000Y-61000000D03*
X65000000Y-47500000D03*
X60100000Y-64000000D03*
X58700000Y-39250000D03*
X61650000Y-69250000D03*
X61500000Y-61750000D03*
X65000000Y-46000000D03*
X63600000Y-61000000D03*
X58700000Y-62500000D03*
X65700000Y-55000000D03*
X65000000Y-52750000D03*
X63600000Y-62500000D03*
X58700000Y-40750000D03*
X64300000Y-41500000D03*
X60800000Y-46000000D03*
X63100000Y-67000000D03*
X62200000Y-41500000D03*
X62200000Y-46000000D03*
X65000000Y-63250000D03*
X61000000Y-67000000D03*
X60500000Y-73000000D03*
X62200000Y-42250000D03*
X66400000Y-38500000D03*
X64250000Y-67750000D03*
X61500000Y-64750000D03*
X60700000Y-70000000D03*
X65000000Y-43000000D03*
X58000000Y-40000000D03*
X60100000Y-41500000D03*
X61500000Y-46750000D03*
X65000000Y-52000000D03*
X65700000Y-46750000D03*
X58700000Y-55750000D03*
X58000000Y-47500000D03*
X60800000Y-64750000D03*
X62200000Y-56500000D03*
X62900000Y-52750000D03*
X61700000Y-67000000D03*
X65150000Y-69250000D03*
X62200000Y-64000000D03*
X62200000Y-54250000D03*
X63600000Y-38500000D03*
X60100000Y-55000000D03*
X62900000Y-38500000D03*
X63600000Y-54250000D03*
X65700000Y-46000000D03*
X58000000Y-55750000D03*
X60800000Y-46750000D03*
X62900000Y-64750000D03*
X66400000Y-42250000D03*
X65650000Y-67750000D03*
X59400000Y-40000000D03*
X60100000Y-51250000D03*
X60800000Y-61750000D03*
X60000000Y-70000000D03*
X58000000Y-38500000D03*
X66400000Y-50500000D03*
X60800000Y-62500000D03*
X62900000Y-43750000D03*
X65700000Y-47500000D03*
X62900000Y-55750000D03*
X63600000Y-41500000D03*
X63600000Y-50500000D03*
X60100000Y-63250000D03*
X58000000Y-50500000D03*
X65700000Y-50500000D03*
X61500000Y-38500000D03*
X59400000Y-61750000D03*
X82050000Y-63750000D03*
X82750000Y-58500000D03*
X86950000Y-67500000D03*
X85550000Y-62250000D03*
X84150000Y-48750000D03*
X86250000Y-61500000D03*
X86250000Y-63000000D03*
X84150000Y-51000000D03*
X85550000Y-65250000D03*
X82750000Y-49500000D03*
X87200000Y-40500000D03*
X85100000Y-42750000D03*
X84850000Y-51750000D03*
X82050000Y-64500000D03*
X82050000Y-47250000D03*
X84400000Y-36000000D03*
X86950000Y-45000000D03*
X83450000Y-65250000D03*
X86250000Y-45750000D03*
X84850000Y-45750000D03*
X84150000Y-59250000D03*
X84850000Y-63750000D03*
X84150000Y-45000000D03*
X86500000Y-36750000D03*
X84150000Y-57000000D03*
X82050000Y-51750000D03*
X82050000Y-62250000D03*
X83450000Y-58500000D03*
X78500000Y-82250000D03*
X86250000Y-66750000D03*
X85550000Y-56250000D03*
X83700000Y-41250000D03*
X82300000Y-42000000D03*
X84200000Y-72750000D03*
X82050000Y-58500000D03*
X82750000Y-45000000D03*
X85600000Y-72750000D03*
X86950000Y-51750000D03*
X85600000Y-74250000D03*
X83450000Y-59250000D03*
X86950000Y-46500000D03*
X82050000Y-65250000D03*
X87000000Y-71250000D03*
X84150000Y-61500000D03*
X82750000Y-67500000D03*
X85100000Y-41250000D03*
X85550000Y-66750000D03*
X84850000Y-68250000D03*
X86500000Y-42000000D03*
X82050000Y-48000000D03*
X85550000Y-44250000D03*
X86250000Y-65250000D03*
X84850000Y-66000000D03*
X79750000Y-72750000D03*
X86950000Y-45750000D03*
X86950000Y-49500000D03*
X86500000Y-40500000D03*
X85550000Y-58500000D03*
X83700000Y-39750000D03*
X86250000Y-45000000D03*
X85550000Y-43500000D03*
X82750000Y-70500000D03*
X84150000Y-60750000D03*
X83000000Y-37500000D03*
X86500000Y-39000000D03*
X83000000Y-35250000D03*
X83450000Y-66750000D03*
X86950000Y-58500000D03*
X85550000Y-57000000D03*
X83450000Y-45000000D03*
X83000000Y-42000000D03*
X86500000Y-41250000D03*
X87000000Y-74250000D03*
X85550000Y-48000000D03*
X84400000Y-41250000D03*
X84850000Y-56250000D03*
X85550000Y-60000000D03*
X86950000Y-69000000D03*
X83700000Y-39000000D03*
X86950000Y-63000000D03*
X85800000Y-42750000D03*
X85550000Y-64500000D03*
X83450000Y-68250000D03*
X82750000Y-44250000D03*
X82300000Y-39750000D03*
X81400000Y-71250000D03*
X86250000Y-63750000D03*
X84150000Y-70500000D03*
X84150000Y-58500000D03*
X82050000Y-67500000D03*
X84150000Y-69000000D03*
X82750000Y-54000000D03*
X82750000Y-46500000D03*
X84850000Y-52500000D03*
X83500000Y-71250000D03*
X82750000Y-65250000D03*
X83700000Y-40500000D03*
X86250000Y-54000000D03*
X84150000Y-47250000D03*
X82750000Y-56250000D03*
X84850000Y-49500000D03*
X82750000Y-53250000D03*
X83450000Y-62250000D03*
X86250000Y-48750000D03*
X84850000Y-65250000D03*
X84150000Y-44250000D03*
X84150000Y-51750000D03*
X84850000Y-53250000D03*
X82050000Y-60000000D03*
X82750000Y-63750000D03*
X87200000Y-39000000D03*
X83450000Y-67500000D03*
X80700000Y-72000000D03*
X85600000Y-73500000D03*
X86500000Y-36000000D03*
X84850000Y-58500000D03*
X84400000Y-40500000D03*
X83700000Y-36000000D03*
X86950000Y-48750000D03*
X82050000Y-57750000D03*
X84150000Y-50250000D03*
X84150000Y-56250000D03*
X84850000Y-55500000D03*
X84150000Y-45750000D03*
X82050000Y-61500000D03*
X82300000Y-41250000D03*
X83000000Y-36000000D03*
X86250000Y-60750000D03*
X86250000Y-58500000D03*
X84150000Y-53250000D03*
X84400000Y-38250000D03*
X82050000Y-49500000D03*
X83700000Y-42000000D03*
X82300000Y-42750000D03*
X84150000Y-68250000D03*
X86950000Y-54000000D03*
X84850000Y-43500000D03*
X83450000Y-51750000D03*
X83450000Y-69750000D03*
X82050000Y-45000000D03*
X85800000Y-36750000D03*
X83700000Y-35250000D03*
X86300000Y-75750000D03*
X86500000Y-37500000D03*
X86250000Y-48000000D03*
X83450000Y-63750000D03*
X86250000Y-52500000D03*
X85100000Y-42000000D03*
X82750000Y-47250000D03*
X84850000Y-57750000D03*
X82750000Y-61500000D03*
X84150000Y-66000000D03*
X82750000Y-59250000D03*
X84150000Y-63750000D03*
X84150000Y-65250000D03*
X83000000Y-40500000D03*
X84200000Y-71250000D03*
X84150000Y-57750000D03*
X82300000Y-37500000D03*
X86950000Y-68250000D03*
X86950000Y-53250000D03*
X84850000Y-69000000D03*
X85550000Y-48750000D03*
X84400000Y-36750000D03*
X86950000Y-52500000D03*
X83450000Y-43500000D03*
X82050000Y-51000000D03*
X80000000Y-72000000D03*
X84400000Y-42000000D03*
X84150000Y-64500000D03*
X84850000Y-64500000D03*
X84850000Y-69750000D03*
X84850000Y-70500000D03*
X84850000Y-62250000D03*
X84400000Y-35250000D03*
X84150000Y-43500000D03*
X86950000Y-43500000D03*
X86300000Y-73500000D03*
X84850000Y-54000000D03*
X82050000Y-57000000D03*
X84850000Y-48750000D03*
X85550000Y-69000000D03*
X83450000Y-69000000D03*
X85550000Y-63000000D03*
X83700000Y-36750000D03*
X85100000Y-36750000D03*
X86500000Y-39750000D03*
X83000000Y-39750000D03*
X85550000Y-51000000D03*
X82750000Y-50250000D03*
X82050000Y-60750000D03*
X86250000Y-55500000D03*
X85100000Y-36000000D03*
X85550000Y-52500000D03*
X86950000Y-55500000D03*
X82050000Y-66000000D03*
X86250000Y-54750000D03*
X87200000Y-36000000D03*
X82050000Y-46500000D03*
X85550000Y-57750000D03*
X86950000Y-48000000D03*
X79050000Y-72750000D03*
X86250000Y-64500000D03*
X87000000Y-73500000D03*
X84150000Y-69750000D03*
X86250000Y-56250000D03*
X84850000Y-46500000D03*
X82050000Y-52500000D03*
X84400000Y-39750000D03*
X87200000Y-36750000D03*
X86250000Y-43500000D03*
X84850000Y-61500000D03*
X86250000Y-49500000D03*
X84200000Y-72000000D03*
X84850000Y-60750000D03*
X87200000Y-38250000D03*
X85550000Y-55500000D03*
X82050000Y-48750000D03*
X85800000Y-39000000D03*
X82100000Y-71250000D03*
X86250000Y-44250000D03*
X85550000Y-49500000D03*
X84850000Y-45000000D03*
X85800000Y-41250000D03*
X83450000Y-45750000D03*
X87200000Y-37500000D03*
X80700000Y-71250000D03*
X86250000Y-66000000D03*
X83450000Y-63000000D03*
X82750000Y-43500000D03*
X82300000Y-38250000D03*
X82050000Y-45750000D03*
X82050000Y-68250000D03*
X86250000Y-53250000D03*
X86250000Y-51750000D03*
X83500000Y-72750000D03*
X85800000Y-39750000D03*
X84850000Y-50250000D03*
X86950000Y-57750000D03*
X77800000Y-82250000D03*
X82300000Y-40500000D03*
X86950000Y-66000000D03*
X86250000Y-67500000D03*
X83450000Y-70500000D03*
X87000000Y-72000000D03*
X83450000Y-53250000D03*
X82750000Y-62250000D03*
X83450000Y-52500000D03*
X83450000Y-48000000D03*
X82100000Y-72000000D03*
X82750000Y-57000000D03*
X87000000Y-75000000D03*
X86950000Y-60750000D03*
X82750000Y-60750000D03*
X83450000Y-56250000D03*
X86300000Y-74250000D03*
X86950000Y-57000000D03*
X85800000Y-42000000D03*
X85550000Y-69750000D03*
X86950000Y-61500000D03*
X86950000Y-63750000D03*
X86500000Y-38250000D03*
X85550000Y-63750000D03*
X87200000Y-42000000D03*
X82050000Y-54000000D03*
X83450000Y-44250000D03*
X87000000Y-75750000D03*
X82750000Y-69000000D03*
X86250000Y-70500000D03*
X86250000Y-47250000D03*
X86250000Y-57000000D03*
X82750000Y-52500000D03*
X85550000Y-54750000D03*
X86950000Y-44250000D03*
X84850000Y-48000000D03*
X82050000Y-44250000D03*
X84900000Y-71250000D03*
X83450000Y-54750000D03*
X81400000Y-72000000D03*
X87200000Y-35250000D03*
X82750000Y-48000000D03*
X82050000Y-69750000D03*
X85550000Y-53250000D03*
X86300000Y-72000000D03*
X85550000Y-60750000D03*
X82050000Y-55500000D03*
X86950000Y-60000000D03*
X86250000Y-51000000D03*
X83500000Y-72000000D03*
X84150000Y-46500000D03*
X86500000Y-35250000D03*
X85550000Y-47250000D03*
X85100000Y-39000000D03*
X85800000Y-37500000D03*
X84850000Y-67500000D03*
X85550000Y-45750000D03*
X84150000Y-55500000D03*
X82750000Y-64500000D03*
X82750000Y-51000000D03*
X82750000Y-66750000D03*
X86300000Y-75000000D03*
X84150000Y-54750000D03*
X83000000Y-41250000D03*
X84850000Y-59250000D03*
X82750000Y-55500000D03*
X82050000Y-66750000D03*
X87200000Y-39750000D03*
X85800000Y-36000000D03*
X85100000Y-40500000D03*
X86950000Y-69750000D03*
X86250000Y-68250000D03*
X85600000Y-71250000D03*
X85550000Y-45000000D03*
X82050000Y-43500000D03*
X87200000Y-41250000D03*
X83450000Y-66000000D03*
X83450000Y-51000000D03*
X86950000Y-56250000D03*
X83450000Y-50250000D03*
X86950000Y-54750000D03*
X86950000Y-70500000D03*
X83450000Y-64500000D03*
X86950000Y-51000000D03*
X82750000Y-63000000D03*
X83700000Y-38250000D03*
X86950000Y-47250000D03*
X82750000Y-57750000D03*
X84900000Y-72750000D03*
X84150000Y-54000000D03*
X83700000Y-42750000D03*
X82750000Y-54750000D03*
X82300000Y-35250000D03*
X85800000Y-40500000D03*
X82750000Y-68250000D03*
X85550000Y-51750000D03*
X82750000Y-48750000D03*
X83450000Y-54000000D03*
X86950000Y-66750000D03*
X82050000Y-53250000D03*
X83700000Y-37500000D03*
X86300000Y-72750000D03*
X82050000Y-50250000D03*
X82300000Y-39000000D03*
X86250000Y-62250000D03*
X86250000Y-59250000D03*
X84900000Y-72000000D03*
X84150000Y-67500000D03*
X85550000Y-46500000D03*
X84850000Y-60000000D03*
X84150000Y-66750000D03*
X85100000Y-38250000D03*
X86250000Y-69750000D03*
X83000000Y-38250000D03*
X82800000Y-71250000D03*
X85100000Y-39750000D03*
X86500000Y-42750000D03*
X85550000Y-68250000D03*
X83000000Y-39000000D03*
X84850000Y-47250000D03*
X86950000Y-64500000D03*
X84150000Y-49500000D03*
X84850000Y-66750000D03*
X84150000Y-62250000D03*
X83450000Y-55500000D03*
X85550000Y-54000000D03*
X86300000Y-71250000D03*
X84850000Y-57000000D03*
X83450000Y-48750000D03*
X86950000Y-50250000D03*
X84850000Y-54750000D03*
X84150000Y-63000000D03*
X84150000Y-60000000D03*
X86950000Y-59250000D03*
X83450000Y-57750000D03*
X82750000Y-51750000D03*
X86250000Y-50250000D03*
X82800000Y-72000000D03*
X85550000Y-59250000D03*
X82050000Y-54750000D03*
X83450000Y-49500000D03*
X85100000Y-37500000D03*
X82750000Y-69750000D03*
X83000000Y-42750000D03*
X83450000Y-60000000D03*
X83450000Y-46500000D03*
X84400000Y-42750000D03*
X82050000Y-59250000D03*
X82050000Y-70500000D03*
X85800000Y-35250000D03*
X83000000Y-36750000D03*
X82300000Y-36000000D03*
X82300000Y-36750000D03*
X84150000Y-52500000D03*
X85550000Y-50250000D03*
X84850000Y-51000000D03*
X85800000Y-38250000D03*
X83450000Y-57000000D03*
X82750000Y-60000000D03*
X84150000Y-48000000D03*
X84850000Y-44250000D03*
X85100000Y-35250000D03*
X85550000Y-67500000D03*
X87200000Y-42750000D03*
X84400000Y-37500000D03*
X83450000Y-61500000D03*
X83450000Y-47250000D03*
X86250000Y-60000000D03*
X82750000Y-66000000D03*
X87000000Y-72750000D03*
X83450000Y-60750000D03*
X84900000Y-73500000D03*
X86950000Y-62250000D03*
X86250000Y-46500000D03*
X82050000Y-63000000D03*
X82050000Y-56250000D03*
X50784401Y-61722162D03*
X84850000Y-63000000D03*
X84400000Y-39000000D03*
X82750000Y-45750000D03*
X86250000Y-57750000D03*
X86950000Y-65250000D03*
X85550000Y-61500000D03*
X86250000Y-69000000D03*
X85550000Y-70500000D03*
X82050000Y-69000000D03*
X85550000Y-66000000D03*
X85600000Y-72000000D03*
X49150000Y-67525000D03*
X80920000Y-30910000D03*
X74705000Y-32342200D03*
X78360000Y-31580000D03*
X50089483Y-35204461D03*
X97000000Y-57000000D03*
X51000000Y-30500000D03*
X50492029Y-34045625D03*
X49200000Y-37900000D03*
X50850000Y-32565164D03*
X52000000Y-30000000D03*
X96500000Y-59500000D03*
D22*
X69520000Y-70810000D03*
X50050000Y-54950000D03*
X71000000Y-59750000D03*
X48200000Y-54750000D03*
X69250000Y-48750000D03*
X46450000Y-54850000D03*
D20*
X43320000Y-54780000D03*
X52060000Y-62570000D03*
X44090000Y-53890000D03*
X53200000Y-62710000D03*
X47790000Y-48470000D03*
X48160000Y-64210000D03*
X80050000Y-33850000D03*
X96150000Y-38050000D03*
X39575000Y-65975000D03*
D21*
X48700000Y-69060000D03*
D20*
X73435000Y-32342200D03*
X83093850Y-30289097D03*
X77375000Y-27375000D03*
X62520000Y-30400000D03*
X55130000Y-33060000D03*
D21*
X75025000Y-29150000D03*
D20*
X73815000Y-29195000D03*
X60040000Y-31510000D03*
X60150000Y-32780000D03*
X70210000Y-33190000D03*
X37275000Y-78800000D03*
X37275000Y-78175000D03*
X38525000Y-78175000D03*
X38525000Y-78800000D03*
X38525000Y-77550000D03*
X37900000Y-78800000D03*
X37900000Y-78175000D03*
X37275000Y-77550000D03*
X37900000Y-77550000D03*
D23*
X80920000Y-31130000D02*
X80920000Y-30910000D01*
X77880000Y-31100000D02*
X78360000Y-31580000D01*
X78360000Y-31580000D02*
X79180000Y-32400000D01*
X74705000Y-31920000D02*
X75525000Y-31100000D01*
X75525000Y-31100000D02*
X77880000Y-31100000D01*
X79180000Y-32400000D02*
X79650000Y-32400000D01*
X79650000Y-32400000D02*
X80920000Y-31130000D01*
X74705000Y-32342200D02*
X74705000Y-31920000D01*
X73435000Y-30935000D02*
X73435000Y-32342200D01*
X73425000Y-30925000D02*
X73435000Y-30935000D01*
X74060903Y-30289097D02*
X73425000Y-30925000D01*
X83093850Y-30289097D02*
X74060903Y-30289097D01*
G04 #@! TA.AperFunction,Conductor*
G36*
X87535173Y-34745885D02*
G01*
X87601581Y-34767605D01*
X87645703Y-34821780D01*
X87655390Y-34869720D01*
X87685495Y-69822400D01*
X87685280Y-69829801D01*
X87350543Y-75510783D01*
X87348098Y-75529034D01*
X86357422Y-80234745D01*
X86324843Y-80295788D01*
X83597752Y-83091299D01*
X83536848Y-83125541D01*
X83505952Y-83128674D01*
X77498347Y-82981378D01*
X77431810Y-82960056D01*
X77387363Y-82906146D01*
X77384657Y-82899251D01*
X75725982Y-78268786D01*
X75721908Y-78199037D01*
X75726328Y-78184208D01*
X77389412Y-73658810D01*
X77422803Y-73609457D01*
X80930000Y-70450000D01*
X81738131Y-34787197D01*
X81759329Y-34720622D01*
X81813156Y-34676075D01*
X81822865Y-34672378D01*
X82079066Y-34586977D01*
X82122058Y-34580673D01*
X87535173Y-34745885D01*
G37*
G04 #@! TD.AperFunction*
G04 #@! TA.AperFunction,Conductor*
G36*
X68161167Y-49529669D02*
G01*
X68161733Y-49529669D01*
X68578389Y-49529669D01*
X68645428Y-49549354D01*
X68647279Y-49550567D01*
X68776075Y-49636625D01*
X68776078Y-49636626D01*
X68776086Y-49636632D01*
X68958165Y-49712051D01*
X68958169Y-49712051D01*
X68958170Y-49712052D01*
X69151456Y-49750500D01*
X69151459Y-49750500D01*
X69348543Y-49750500D01*
X69501873Y-49720000D01*
X69541835Y-49712051D01*
X69723914Y-49636632D01*
X69754792Y-49615999D01*
X69852721Y-49550567D01*
X69919398Y-49529689D01*
X69921611Y-49529669D01*
X72124891Y-49529669D01*
X72165416Y-51127329D01*
X72156695Y-58582850D01*
X72156356Y-58582850D01*
X68106951Y-58558959D01*
X68040029Y-58538879D01*
X67994587Y-58485806D01*
X67983683Y-58435107D01*
X67973343Y-49635788D01*
X67992949Y-49568728D01*
X68045699Y-49522911D01*
X68114846Y-49512886D01*
X68161167Y-49529669D01*
G37*
G04 #@! TD.AperFunction*
G04 #@! TA.AperFunction,Conductor*
G36*
X68164434Y-38580000D02*
G01*
X68165000Y-38580000D01*
X71847149Y-38580000D01*
X72076773Y-47632692D01*
X68110218Y-47609290D01*
X68043296Y-47589210D01*
X67997854Y-47536137D01*
X67986950Y-47485438D01*
X67976610Y-38686119D01*
X67996216Y-38619059D01*
X68048966Y-38573242D01*
X68118113Y-38563217D01*
X68164434Y-38580000D01*
G37*
G04 #@! TD.AperFunction*
G04 #@! TA.AperFunction,Conductor*
G36*
X72949726Y-69475535D02*
G01*
X71915547Y-69475535D01*
X71898643Y-69474377D01*
X71836677Y-69465850D01*
X71847285Y-60397352D01*
X73070000Y-58500866D01*
X72949726Y-69475535D01*
G37*
G04 #@! TD.AperFunction*
G04 #@! TA.AperFunction,Conductor*
G36*
X73270000Y-58582852D02*
G01*
X72157088Y-58582852D01*
X72156695Y-58582850D01*
X72167285Y-49529669D01*
X73390000Y-47633183D01*
X73270000Y-58582852D01*
G37*
G04 #@! TD.AperFunction*
G04 #@! TA.AperFunction,Conductor*
G36*
X68251798Y-60397352D02*
G01*
X68252364Y-60397352D01*
X70181069Y-60397352D01*
X70248108Y-60417037D01*
X70268745Y-60433666D01*
X70338550Y-60503471D01*
X70362219Y-60527140D01*
X70526079Y-60636628D01*
X70526092Y-60636635D01*
X70708160Y-60712049D01*
X70708165Y-60712051D01*
X70708169Y-60712051D01*
X70708170Y-60712052D01*
X70901456Y-60750500D01*
X70901459Y-60750500D01*
X71098543Y-60750500D01*
X71228582Y-60724632D01*
X71291835Y-60712051D01*
X71473914Y-60636632D01*
X71637782Y-60527139D01*
X71731251Y-60433669D01*
X71792572Y-60400186D01*
X71818931Y-60397352D01*
X71847285Y-60397352D01*
X71836698Y-69448111D01*
X68197582Y-69426642D01*
X68130660Y-69406562D01*
X68085218Y-69353489D01*
X68074314Y-69302790D01*
X68063974Y-60503471D01*
X68083580Y-60436411D01*
X68136330Y-60390594D01*
X68205477Y-60380569D01*
X68251798Y-60397352D01*
G37*
G04 #@! TD.AperFunction*
G04 #@! TA.AperFunction,Conductor*
G36*
X66951685Y-38124133D02*
G01*
X67018584Y-38144288D01*
X67063967Y-38197412D01*
X67074813Y-38248318D01*
X67025122Y-71068921D01*
X67005336Y-71135930D01*
X66952463Y-71181605D01*
X66950676Y-71182401D01*
X64978864Y-72042030D01*
X61523810Y-82940981D01*
X61484787Y-82998938D01*
X61420625Y-83026597D01*
X61406250Y-83027508D01*
X52832039Y-83071992D01*
X52764899Y-83052656D01*
X52718870Y-83000090D01*
X52710780Y-82976765D01*
X51995616Y-79978578D01*
X51992321Y-79954442D01*
X51846360Y-76037815D01*
X51856237Y-75984505D01*
X57120149Y-63658612D01*
X57426280Y-38180571D01*
X57446769Y-38113776D01*
X57500118Y-38068659D01*
X57551141Y-38058067D01*
X66951685Y-38124133D01*
G37*
G04 #@! TD.AperFunction*
G04 #@! TA.AperFunction,Conductor*
G36*
X77750000Y-35000000D02*
G01*
X77750091Y-35000003D01*
X77750224Y-35000009D01*
X77750223Y-35000009D01*
X78452409Y-35026716D01*
X79731180Y-35075354D01*
X79797420Y-35097571D01*
X79841135Y-35152076D01*
X79850456Y-35200701D01*
X79441334Y-70474978D01*
X79420873Y-70541785D01*
X79367542Y-70586924D01*
X79325202Y-70597291D01*
X72798553Y-71011834D01*
X72730401Y-70996438D01*
X72681391Y-70946641D01*
X72666733Y-70891229D01*
X72630823Y-69475535D01*
X72949726Y-69475535D01*
X73069101Y-58582852D01*
X73270000Y-58582852D01*
X73390000Y-47633183D01*
X72167285Y-49529669D01*
X72165416Y-51127359D01*
X71753362Y-34882555D01*
X71771340Y-34815040D01*
X71822967Y-34767961D01*
X71882483Y-34755520D01*
X77750000Y-35000000D01*
G37*
G04 #@! TD.AperFunction*
G04 #@! TA.AperFunction,Conductor*
G36*
X72379609Y-59571692D02*
G01*
X72354527Y-58582852D01*
X73017141Y-58582852D01*
X72379609Y-59571692D01*
G37*
G04 #@! TD.AperFunction*
G04 #@! TA.AperFunction,Conductor*
G36*
X98042088Y-26809769D02*
G01*
X98087920Y-26862506D01*
X98099198Y-26914977D01*
X98040000Y-36149871D01*
X97990202Y-66955041D01*
X97970409Y-67022049D01*
X97917531Y-67067718D01*
X97865047Y-67078836D01*
X89522044Y-67001136D01*
X89455191Y-66980828D01*
X89409930Y-66927600D01*
X89399202Y-66877954D01*
X89358949Y-60716530D01*
X89762000Y-60716530D01*
X89762000Y-60923469D01*
X89802368Y-61126412D01*
X89802370Y-61126420D01*
X89881558Y-61317596D01*
X89996524Y-61489657D01*
X90142842Y-61635975D01*
X90142845Y-61635977D01*
X90314902Y-61750941D01*
X90506080Y-61830130D01*
X90658706Y-61860489D01*
X90709030Y-61870499D01*
X90709034Y-61870500D01*
X90709035Y-61870500D01*
X91165966Y-61870500D01*
X91165967Y-61870499D01*
X91368920Y-61830130D01*
X91560098Y-61750941D01*
X91732155Y-61635977D01*
X91878477Y-61489655D01*
X91993441Y-61317598D01*
X92072630Y-61126420D01*
X92113000Y-60923465D01*
X92113000Y-60716535D01*
X92072630Y-60513580D01*
X91993441Y-60322402D01*
X91878477Y-60150345D01*
X91878475Y-60150342D01*
X91732157Y-60004024D01*
X91606101Y-59919797D01*
X91560098Y-59889059D01*
X91491124Y-59860489D01*
X91368920Y-59809870D01*
X91368912Y-59809868D01*
X91165969Y-59769500D01*
X91165965Y-59769500D01*
X90709035Y-59769500D01*
X90709030Y-59769500D01*
X90506087Y-59809868D01*
X90506079Y-59809870D01*
X90314903Y-59889058D01*
X90142842Y-60004024D01*
X89996524Y-60150342D01*
X89881558Y-60322403D01*
X89802370Y-60513579D01*
X89802368Y-60513587D01*
X89762000Y-60716530D01*
X89358949Y-60716530D01*
X89350614Y-59440691D01*
X96049500Y-59440691D01*
X96049500Y-59559309D01*
X96080201Y-59673886D01*
X96139511Y-59776613D01*
X96223387Y-59860489D01*
X96326114Y-59919799D01*
X96440691Y-59950500D01*
X96440694Y-59950500D01*
X96559306Y-59950500D01*
X96559309Y-59950500D01*
X96673886Y-59919799D01*
X96776613Y-59860489D01*
X96860489Y-59776613D01*
X96919799Y-59673886D01*
X96950500Y-59559309D01*
X96950500Y-59440691D01*
X96919799Y-59326114D01*
X96860489Y-59223387D01*
X96776613Y-59139511D01*
X96673886Y-59080201D01*
X96559309Y-59049500D01*
X96440691Y-59049500D01*
X96326114Y-59080201D01*
X96326112Y-59080201D01*
X96326112Y-59080202D01*
X96223387Y-59139511D01*
X96223384Y-59139513D01*
X96139513Y-59223384D01*
X96139511Y-59223387D01*
X96093282Y-59303458D01*
X96080201Y-59326114D01*
X96049500Y-59440691D01*
X89350614Y-59440691D01*
X89342617Y-58216530D01*
X89762000Y-58216530D01*
X89762000Y-58423469D01*
X89802368Y-58626412D01*
X89802370Y-58626420D01*
X89881558Y-58817596D01*
X89996524Y-58989657D01*
X90142842Y-59135975D01*
X90142845Y-59135977D01*
X90314902Y-59250941D01*
X90506080Y-59330130D01*
X90709030Y-59370499D01*
X90709034Y-59370500D01*
X90709035Y-59370500D01*
X91165966Y-59370500D01*
X91165967Y-59370499D01*
X91368920Y-59330130D01*
X91560098Y-59250941D01*
X91732155Y-59135977D01*
X91878477Y-58989655D01*
X91993441Y-58817598D01*
X92072630Y-58626420D01*
X92113000Y-58423465D01*
X92113000Y-58216535D01*
X92072630Y-58013580D01*
X91993441Y-57822402D01*
X91878477Y-57650345D01*
X91878475Y-57650342D01*
X91732157Y-57504024D01*
X91646126Y-57446541D01*
X91560098Y-57389059D01*
X91491124Y-57360489D01*
X91368920Y-57309870D01*
X91368912Y-57309868D01*
X91165969Y-57269500D01*
X91165965Y-57269500D01*
X90709035Y-57269500D01*
X90709030Y-57269500D01*
X90506087Y-57309868D01*
X90506079Y-57309870D01*
X90314903Y-57389058D01*
X90142842Y-57504024D01*
X89996524Y-57650342D01*
X89881558Y-57822403D01*
X89802370Y-58013579D01*
X89802368Y-58013587D01*
X89762000Y-58216530D01*
X89342617Y-58216530D01*
X89334282Y-56940691D01*
X96549500Y-56940691D01*
X96549500Y-57059309D01*
X96580201Y-57173886D01*
X96639511Y-57276613D01*
X96723387Y-57360489D01*
X96826114Y-57419799D01*
X96940691Y-57450500D01*
X96940694Y-57450500D01*
X97059306Y-57450500D01*
X97059309Y-57450500D01*
X97173886Y-57419799D01*
X97276613Y-57360489D01*
X97360489Y-57276613D01*
X97419799Y-57173886D01*
X97450500Y-57059309D01*
X97450500Y-56940691D01*
X97419799Y-56826114D01*
X97360489Y-56723387D01*
X97276613Y-56639511D01*
X97173886Y-56580201D01*
X97059309Y-56549500D01*
X96940691Y-56549500D01*
X96826114Y-56580201D01*
X96826112Y-56580201D01*
X96826112Y-56580202D01*
X96723387Y-56639511D01*
X96723384Y-56639513D01*
X96639513Y-56723384D01*
X96639511Y-56723387D01*
X96580201Y-56826114D01*
X96549500Y-56940691D01*
X89334282Y-56940691D01*
X89326285Y-55716530D01*
X89762000Y-55716530D01*
X89762000Y-55923469D01*
X89802368Y-56126412D01*
X89802370Y-56126420D01*
X89881558Y-56317596D01*
X89996524Y-56489657D01*
X90142842Y-56635975D01*
X90142845Y-56635977D01*
X90314902Y-56750941D01*
X90506080Y-56830130D01*
X90658706Y-56860489D01*
X90709030Y-56870499D01*
X90709034Y-56870500D01*
X90709035Y-56870500D01*
X91165966Y-56870500D01*
X91165967Y-56870499D01*
X91368920Y-56830130D01*
X91560098Y-56750941D01*
X91732155Y-56635977D01*
X91878477Y-56489655D01*
X91993441Y-56317598D01*
X92072630Y-56126420D01*
X92113000Y-55923465D01*
X92113000Y-55716535D01*
X92072630Y-55513580D01*
X91993441Y-55322402D01*
X91878477Y-55150345D01*
X91878475Y-55150342D01*
X91732157Y-55004024D01*
X91637371Y-54940691D01*
X91560098Y-54889059D01*
X91439984Y-54839306D01*
X91368920Y-54809870D01*
X91368912Y-54809868D01*
X91165969Y-54769500D01*
X91165965Y-54769500D01*
X90709035Y-54769500D01*
X90709030Y-54769500D01*
X90506087Y-54809868D01*
X90506079Y-54809870D01*
X90314903Y-54889058D01*
X90142842Y-55004024D01*
X89996524Y-55150342D01*
X89881558Y-55322403D01*
X89802370Y-55513579D01*
X89802368Y-55513587D01*
X89762000Y-55716530D01*
X89326285Y-55716530D01*
X89309953Y-53216530D01*
X89762000Y-53216530D01*
X89762000Y-53423469D01*
X89802368Y-53626412D01*
X89802370Y-53626420D01*
X89838190Y-53712898D01*
X89881559Y-53817598D01*
X89890309Y-53830693D01*
X89996524Y-53989657D01*
X90142842Y-54135975D01*
X90142845Y-54135977D01*
X90314902Y-54250941D01*
X90506080Y-54330130D01*
X90658706Y-54360489D01*
X90709030Y-54370499D01*
X90709034Y-54370500D01*
X90709035Y-54370500D01*
X91165966Y-54370500D01*
X91165967Y-54370499D01*
X91368920Y-54330130D01*
X91560098Y-54250941D01*
X91732155Y-54135977D01*
X91878477Y-53989655D01*
X91993441Y-53817598D01*
X92072630Y-53626420D01*
X92113000Y-53423465D01*
X92113000Y-53216535D01*
X92072630Y-53013580D01*
X91993441Y-52822402D01*
X91878477Y-52650345D01*
X91878475Y-52650342D01*
X91732157Y-52504024D01*
X91560774Y-52389511D01*
X91560098Y-52389059D01*
X91491124Y-52360489D01*
X91368920Y-52309870D01*
X91368912Y-52309868D01*
X91165969Y-52269500D01*
X91165965Y-52269500D01*
X90709035Y-52269500D01*
X90709030Y-52269500D01*
X90506087Y-52309868D01*
X90506079Y-52309870D01*
X90314903Y-52389058D01*
X90142842Y-52504024D01*
X89996524Y-52650342D01*
X89881558Y-52822403D01*
X89802370Y-53013579D01*
X89802368Y-53013587D01*
X89762000Y-53216530D01*
X89309953Y-53216530D01*
X89293621Y-50716530D01*
X89762000Y-50716530D01*
X89762000Y-50923469D01*
X89802368Y-51126412D01*
X89802370Y-51126420D01*
X89881558Y-51317596D01*
X89996524Y-51489657D01*
X90142842Y-51635975D01*
X90142845Y-51635977D01*
X90314902Y-51750941D01*
X90506080Y-51830130D01*
X90709030Y-51870499D01*
X90709034Y-51870500D01*
X90709035Y-51870500D01*
X91165966Y-51870500D01*
X91165967Y-51870499D01*
X91368920Y-51830130D01*
X91560098Y-51750941D01*
X91732155Y-51635977D01*
X91878477Y-51489655D01*
X91993441Y-51317598D01*
X92072630Y-51126420D01*
X92113000Y-50923465D01*
X92113000Y-50716535D01*
X92072630Y-50513580D01*
X91993441Y-50322402D01*
X91878477Y-50150345D01*
X91878475Y-50150342D01*
X91732157Y-50004024D01*
X91560774Y-49889511D01*
X91560098Y-49889059D01*
X91491124Y-49860489D01*
X91368920Y-49809870D01*
X91368912Y-49809868D01*
X91165969Y-49769500D01*
X91165965Y-49769500D01*
X90709035Y-49769500D01*
X90709030Y-49769500D01*
X90506087Y-49809868D01*
X90506079Y-49809870D01*
X90314903Y-49889058D01*
X90142842Y-50004024D01*
X89996524Y-50150342D01*
X89881558Y-50322403D01*
X89802370Y-50513579D01*
X89802368Y-50513587D01*
X89762000Y-50716530D01*
X89293621Y-50716530D01*
X89277289Y-48216530D01*
X89762000Y-48216530D01*
X89762000Y-48423469D01*
X89802368Y-48626412D01*
X89802370Y-48626420D01*
X89878125Y-48809309D01*
X89881559Y-48817598D01*
X89929802Y-48889799D01*
X89996524Y-48989657D01*
X90142842Y-49135975D01*
X90142845Y-49135977D01*
X90314902Y-49250941D01*
X90506080Y-49330130D01*
X90709030Y-49370499D01*
X90709034Y-49370500D01*
X90709035Y-49370500D01*
X91165966Y-49370500D01*
X91165967Y-49370499D01*
X91368920Y-49330130D01*
X91560098Y-49250941D01*
X91732155Y-49135977D01*
X91878477Y-48989655D01*
X91993441Y-48817598D01*
X92072630Y-48626420D01*
X92113000Y-48423465D01*
X92113000Y-48216535D01*
X92072630Y-48013580D01*
X91993441Y-47822402D01*
X91878477Y-47650345D01*
X91878475Y-47650342D01*
X91732157Y-47504024D01*
X91637371Y-47440691D01*
X91560098Y-47389059D01*
X91368920Y-47309870D01*
X91368912Y-47309868D01*
X91165969Y-47269500D01*
X91165965Y-47269500D01*
X90709035Y-47269500D01*
X90709030Y-47269500D01*
X90506087Y-47309868D01*
X90506079Y-47309870D01*
X90314903Y-47389058D01*
X90142842Y-47504024D01*
X89996524Y-47650342D01*
X89881558Y-47822403D01*
X89802370Y-48013579D01*
X89802368Y-48013587D01*
X89762000Y-48216530D01*
X89277289Y-48216530D01*
X89260000Y-45570000D01*
X88864266Y-37990691D01*
X95699500Y-37990691D01*
X95699500Y-38109309D01*
X95730201Y-38223886D01*
X95789511Y-38326613D01*
X95873387Y-38410489D01*
X95976114Y-38469799D01*
X96090691Y-38500500D01*
X96090694Y-38500500D01*
X96209306Y-38500500D01*
X96209309Y-38500500D01*
X96323886Y-38469799D01*
X96426613Y-38410489D01*
X96510489Y-38326613D01*
X96569799Y-38223886D01*
X96600500Y-38109309D01*
X96600500Y-37990691D01*
X96569799Y-37876114D01*
X96510489Y-37773387D01*
X96426613Y-37689511D01*
X96323886Y-37630201D01*
X96209309Y-37599500D01*
X96090691Y-37599500D01*
X95976114Y-37630201D01*
X95976112Y-37630201D01*
X95976112Y-37630202D01*
X95873387Y-37689511D01*
X95873384Y-37689513D01*
X95789513Y-37773384D01*
X95789511Y-37773387D01*
X95750652Y-37840693D01*
X95730201Y-37876114D01*
X95699500Y-37990691D01*
X88864266Y-37990691D01*
X88670000Y-34270000D01*
X88669999Y-34269999D01*
X82830002Y-33749999D01*
X80576823Y-34254442D01*
X80507102Y-34249879D01*
X80450916Y-34208347D01*
X80426104Y-34143031D01*
X80440542Y-34074670D01*
X80442346Y-34071435D01*
X80469799Y-34023886D01*
X80500500Y-33909309D01*
X80500500Y-33790691D01*
X80469799Y-33676114D01*
X80410489Y-33573387D01*
X80326613Y-33489511D01*
X80223886Y-33430201D01*
X80109309Y-33399500D01*
X79990691Y-33399500D01*
X79876114Y-33430201D01*
X79876112Y-33430201D01*
X79876112Y-33430202D01*
X79773387Y-33489511D01*
X79773384Y-33489513D01*
X79689513Y-33573384D01*
X79689511Y-33573387D01*
X79630201Y-33676114D01*
X79599500Y-33790691D01*
X79599500Y-33909309D01*
X79630201Y-34023886D01*
X79683707Y-34116561D01*
X79700180Y-34184459D01*
X79677328Y-34250486D01*
X79622407Y-34293677D01*
X79566190Y-34302146D01*
X71000000Y-33600000D01*
X71108052Y-35800336D01*
X71091679Y-35868260D01*
X71088543Y-35873416D01*
X70535526Y-36734671D01*
X70482740Y-36780447D01*
X70434268Y-36791635D01*
X68489948Y-36840001D01*
X58651757Y-37119950D01*
X58648230Y-37120000D01*
X56550000Y-37120000D01*
X56291934Y-38176612D01*
X56020001Y-39289997D01*
X56020000Y-39290003D01*
X56039993Y-57114186D01*
X56039462Y-57125789D01*
X55302693Y-65060991D01*
X55284669Y-65114775D01*
X54185698Y-66890791D01*
X54172794Y-66908079D01*
X51246017Y-70189617D01*
X51186704Y-70226546D01*
X51155898Y-70231057D01*
X39950000Y-70449999D01*
X39949999Y-70449999D01*
X39811396Y-82682999D01*
X39790953Y-82749811D01*
X39737634Y-82794965D01*
X39686729Y-82805592D01*
X29604492Y-82750678D01*
X29537560Y-82730629D01*
X29492094Y-82677576D01*
X29481173Y-82625512D01*
X29520838Y-78416455D01*
X33176800Y-78416455D01*
X33176800Y-78583544D01*
X33209394Y-78747403D01*
X33209396Y-78747411D01*
X33273335Y-78901775D01*
X33366156Y-79040691D01*
X33366162Y-79040699D01*
X33484300Y-79158837D01*
X33484308Y-79158843D01*
X33623224Y-79251664D01*
X33668436Y-79270391D01*
X33777589Y-79315604D01*
X33941455Y-79348199D01*
X33941458Y-79348200D01*
X33941460Y-79348200D01*
X34108542Y-79348200D01*
X34108543Y-79348199D01*
X34272411Y-79315604D01*
X34426773Y-79251665D01*
X34426773Y-79251664D01*
X34426775Y-79251664D01*
X34495768Y-79205563D01*
X34565696Y-79158840D01*
X34683840Y-79040696D01*
X34776665Y-78901773D01*
X34840604Y-78747411D01*
X34873200Y-78583540D01*
X34873200Y-78416460D01*
X34873200Y-78416457D01*
X34873199Y-78416455D01*
X34840605Y-78252596D01*
X34840604Y-78252589D01*
X34776665Y-78098227D01*
X34776664Y-78098224D01*
X34683843Y-77959308D01*
X34683837Y-77959300D01*
X34565699Y-77841162D01*
X34565691Y-77841156D01*
X34426775Y-77748335D01*
X34272411Y-77684396D01*
X34272403Y-77684394D01*
X34108543Y-77651800D01*
X34108540Y-77651800D01*
X33941460Y-77651800D01*
X33941457Y-77651800D01*
X33777596Y-77684394D01*
X33777588Y-77684396D01*
X33623224Y-77748335D01*
X33484308Y-77841156D01*
X33484300Y-77841162D01*
X33366162Y-77959300D01*
X33366156Y-77959308D01*
X33273335Y-78098224D01*
X33209396Y-78252588D01*
X33209394Y-78252596D01*
X33176800Y-78416455D01*
X29520838Y-78416455D01*
X29520906Y-78409200D01*
X29523672Y-78115693D01*
X29529562Y-77490691D01*
X36824500Y-77490691D01*
X36824500Y-77609309D01*
X36844619Y-77684394D01*
X36855202Y-77723889D01*
X36899434Y-77800500D01*
X36915907Y-77868400D01*
X36899434Y-77924500D01*
X36855202Y-78001110D01*
X36855201Y-78001114D01*
X36824500Y-78115691D01*
X36824500Y-78234309D01*
X36855201Y-78348886D01*
X36855202Y-78348889D01*
X36899434Y-78425500D01*
X36915907Y-78493400D01*
X36899434Y-78549500D01*
X36855202Y-78626110D01*
X36855201Y-78626114D01*
X36824500Y-78740691D01*
X36824500Y-78859309D01*
X36855201Y-78973886D01*
X36914511Y-79076613D01*
X36998387Y-79160489D01*
X37101114Y-79219799D01*
X37215691Y-79250500D01*
X37215694Y-79250500D01*
X37334306Y-79250500D01*
X37334309Y-79250500D01*
X37448886Y-79219799D01*
X37448888Y-79219797D01*
X37448890Y-79219797D01*
X37448891Y-79219796D01*
X37525499Y-79175566D01*
X37593398Y-79159092D01*
X37649501Y-79175566D01*
X37726108Y-79219796D01*
X37726109Y-79219797D01*
X37726111Y-79219797D01*
X37726114Y-79219799D01*
X37840691Y-79250500D01*
X37840694Y-79250500D01*
X37959306Y-79250500D01*
X37959309Y-79250500D01*
X38073886Y-79219799D01*
X38073888Y-79219797D01*
X38073890Y-79219797D01*
X38073891Y-79219796D01*
X38150499Y-79175566D01*
X38218398Y-79159092D01*
X38274501Y-79175566D01*
X38351108Y-79219796D01*
X38351109Y-79219797D01*
X38351111Y-79219797D01*
X38351114Y-79219799D01*
X38465691Y-79250500D01*
X38465694Y-79250500D01*
X38584306Y-79250500D01*
X38584309Y-79250500D01*
X38698886Y-79219799D01*
X38801613Y-79160489D01*
X38885489Y-79076613D01*
X38944799Y-78973886D01*
X38975500Y-78859309D01*
X38975500Y-78740691D01*
X38944799Y-78626114D01*
X38944797Y-78626110D01*
X38944797Y-78626109D01*
X38944796Y-78626108D01*
X38900566Y-78549501D01*
X38884092Y-78481602D01*
X38900566Y-78425499D01*
X38905785Y-78416460D01*
X38944799Y-78348886D01*
X38975500Y-78234309D01*
X38975500Y-78115691D01*
X38944799Y-78001114D01*
X38944797Y-78001110D01*
X38944797Y-78001109D01*
X38944796Y-78001108D01*
X38900566Y-77924501D01*
X38884092Y-77856602D01*
X38900566Y-77800499D01*
X38944796Y-77723891D01*
X38944797Y-77723890D01*
X38944797Y-77723888D01*
X38944799Y-77723886D01*
X38975500Y-77609309D01*
X38975500Y-77490691D01*
X38944799Y-77376114D01*
X38885489Y-77273387D01*
X38801613Y-77189511D01*
X38698886Y-77130201D01*
X38584309Y-77099500D01*
X38465691Y-77099500D01*
X38360505Y-77127684D01*
X38351110Y-77130202D01*
X38274500Y-77174434D01*
X38206600Y-77190907D01*
X38150500Y-77174434D01*
X38073889Y-77130202D01*
X38073890Y-77130202D01*
X38064494Y-77127684D01*
X37959309Y-77099500D01*
X37840691Y-77099500D01*
X37735505Y-77127684D01*
X37726110Y-77130202D01*
X37649500Y-77174434D01*
X37581600Y-77190907D01*
X37525500Y-77174434D01*
X37448889Y-77130202D01*
X37448890Y-77130202D01*
X37439494Y-77127684D01*
X37334309Y-77099500D01*
X37215691Y-77099500D01*
X37101114Y-77130201D01*
X37101112Y-77130201D01*
X37101112Y-77130202D01*
X36998387Y-77189511D01*
X36998384Y-77189513D01*
X36914513Y-77273384D01*
X36914511Y-77273387D01*
X36855201Y-77376114D01*
X36824500Y-77490691D01*
X29529562Y-77490691D01*
X29592646Y-70796455D01*
X30636800Y-70796455D01*
X30636800Y-70963544D01*
X30669394Y-71127403D01*
X30669396Y-71127411D01*
X30733335Y-71281775D01*
X30826156Y-71420691D01*
X30826162Y-71420699D01*
X30944300Y-71538837D01*
X30944308Y-71538843D01*
X31083224Y-71631664D01*
X31102169Y-71639511D01*
X31237589Y-71695604D01*
X31401455Y-71728199D01*
X31401458Y-71728200D01*
X31401460Y-71728200D01*
X31568542Y-71728200D01*
X31568543Y-71728199D01*
X31732411Y-71695604D01*
X31886773Y-71631665D01*
X31886773Y-71631664D01*
X31886775Y-71631664D01*
X32009742Y-71549500D01*
X32025696Y-71538840D01*
X32143840Y-71420696D01*
X32190563Y-71350768D01*
X32236664Y-71281775D01*
X32260849Y-71223387D01*
X32300604Y-71127411D01*
X32333200Y-70963540D01*
X32333200Y-70796460D01*
X32333200Y-70796457D01*
X32333199Y-70796455D01*
X32300605Y-70632596D01*
X32300604Y-70632589D01*
X32236665Y-70478227D01*
X32236664Y-70478224D01*
X32143843Y-70339308D01*
X32143837Y-70339300D01*
X32025699Y-70221162D01*
X32025691Y-70221156D01*
X31886775Y-70128335D01*
X31732411Y-70064396D01*
X31732403Y-70064394D01*
X31568543Y-70031800D01*
X31568540Y-70031800D01*
X31401460Y-70031800D01*
X31401457Y-70031800D01*
X31237596Y-70064394D01*
X31237588Y-70064396D01*
X31083224Y-70128335D01*
X30944308Y-70221156D01*
X30944300Y-70221162D01*
X30826162Y-70339300D01*
X30826156Y-70339308D01*
X30733335Y-70478224D01*
X30669396Y-70632588D01*
X30669394Y-70632596D01*
X30636800Y-70796455D01*
X29592646Y-70796455D01*
X29607189Y-69253187D01*
X29609630Y-68994108D01*
X48199500Y-68994108D01*
X48199500Y-69125891D01*
X48233608Y-69253187D01*
X48253189Y-69287102D01*
X48299500Y-69367314D01*
X48392686Y-69460500D01*
X48506814Y-69526392D01*
X48634108Y-69560500D01*
X48634110Y-69560500D01*
X48765890Y-69560500D01*
X48765892Y-69560500D01*
X48893186Y-69526392D01*
X49007314Y-69460500D01*
X49100500Y-69367314D01*
X49166392Y-69253186D01*
X49200500Y-69125892D01*
X49200500Y-68994108D01*
X49166392Y-68866814D01*
X49100500Y-68752686D01*
X49007314Y-68659500D01*
X48922425Y-68610489D01*
X48893187Y-68593608D01*
X48829539Y-68576554D01*
X48765892Y-68559500D01*
X48634108Y-68559500D01*
X48506812Y-68593608D01*
X48392686Y-68659500D01*
X48392683Y-68659502D01*
X48299502Y-68752683D01*
X48299500Y-68752686D01*
X48233608Y-68866812D01*
X48199500Y-68994108D01*
X29609630Y-68994108D01*
X29609718Y-68984813D01*
X29619519Y-67944797D01*
X29624034Y-67465691D01*
X48699500Y-67465691D01*
X48699500Y-67584309D01*
X48730201Y-67698886D01*
X48789511Y-67801613D01*
X48873387Y-67885489D01*
X48976114Y-67944799D01*
X49090691Y-67975500D01*
X49090694Y-67975500D01*
X49209306Y-67975500D01*
X49209309Y-67975500D01*
X49323886Y-67944799D01*
X49426613Y-67885489D01*
X49510489Y-67801613D01*
X49569799Y-67698886D01*
X49600500Y-67584309D01*
X49600500Y-67465691D01*
X49569799Y-67351114D01*
X49510489Y-67248387D01*
X49426613Y-67164511D01*
X49323886Y-67105201D01*
X49209309Y-67074500D01*
X49090691Y-67074500D01*
X48976114Y-67105201D01*
X48976112Y-67105201D01*
X48976112Y-67105202D01*
X48873387Y-67164511D01*
X48873384Y-67164513D01*
X48789513Y-67248384D01*
X48789511Y-67248387D01*
X48730201Y-67351114D01*
X48699500Y-67465691D01*
X29624034Y-67465691D01*
X29636443Y-66148887D01*
X29638640Y-65915691D01*
X39124500Y-65915691D01*
X39124500Y-66034309D01*
X39155201Y-66148886D01*
X39214511Y-66251613D01*
X39298387Y-66335489D01*
X39401114Y-66394799D01*
X39515691Y-66425500D01*
X39515694Y-66425500D01*
X39634306Y-66425500D01*
X39634309Y-66425500D01*
X39748886Y-66394799D01*
X39851613Y-66335489D01*
X39935489Y-66251613D01*
X39994799Y-66148886D01*
X40025500Y-66034309D01*
X40025500Y-65915691D01*
X39994799Y-65801114D01*
X39935489Y-65698387D01*
X39851613Y-65614511D01*
X39748886Y-65555201D01*
X39634309Y-65524500D01*
X39515691Y-65524500D01*
X39401114Y-65555201D01*
X39401112Y-65555201D01*
X39401112Y-65555202D01*
X39298387Y-65614511D01*
X39298384Y-65614513D01*
X39214513Y-65698384D01*
X39214511Y-65698387D01*
X39155201Y-65801114D01*
X39124500Y-65915691D01*
X29638640Y-65915691D01*
X29638728Y-65906395D01*
X29638728Y-65906394D01*
X29655273Y-64150691D01*
X47709500Y-64150691D01*
X47709500Y-64269309D01*
X47740201Y-64383886D01*
X47799511Y-64486613D01*
X47883387Y-64570489D01*
X47986114Y-64629799D01*
X48100691Y-64660500D01*
X48100694Y-64660500D01*
X48219306Y-64660500D01*
X48219309Y-64660500D01*
X48333886Y-64629799D01*
X48436613Y-64570489D01*
X48520489Y-64486613D01*
X48579799Y-64383886D01*
X48610500Y-64269309D01*
X48610500Y-64150691D01*
X48579799Y-64036114D01*
X48520489Y-63933387D01*
X48436613Y-63849511D01*
X48333886Y-63790201D01*
X48219309Y-63759500D01*
X48100691Y-63759500D01*
X47986114Y-63790201D01*
X47986112Y-63790201D01*
X47986112Y-63790202D01*
X47883387Y-63849511D01*
X47883384Y-63849513D01*
X47799513Y-63933384D01*
X47799511Y-63933387D01*
X47740201Y-64036114D01*
X47709500Y-64150691D01*
X29655273Y-64150691D01*
X29655361Y-64141396D01*
X29670728Y-62510691D01*
X51609500Y-62510691D01*
X51609500Y-62629309D01*
X51640201Y-62743886D01*
X51699511Y-62846613D01*
X51783387Y-62930489D01*
X51886114Y-62989799D01*
X52000691Y-63020500D01*
X52000694Y-63020500D01*
X52119306Y-63020500D01*
X52119309Y-63020500D01*
X52233886Y-62989799D01*
X52336613Y-62930489D01*
X52420489Y-62846613D01*
X52479799Y-62743886D01*
X52504771Y-62650691D01*
X52749500Y-62650691D01*
X52749500Y-62769309D01*
X52780201Y-62883886D01*
X52839511Y-62986613D01*
X52923387Y-63070489D01*
X53026114Y-63129799D01*
X53140691Y-63160500D01*
X53140694Y-63160500D01*
X53259306Y-63160500D01*
X53259309Y-63160500D01*
X53373886Y-63129799D01*
X53476613Y-63070489D01*
X53560489Y-62986613D01*
X53619799Y-62883886D01*
X53650500Y-62769309D01*
X53650500Y-62650691D01*
X53619799Y-62536114D01*
X53560489Y-62433387D01*
X53476613Y-62349511D01*
X53373886Y-62290201D01*
X53259309Y-62259500D01*
X53140691Y-62259500D01*
X53026114Y-62290201D01*
X53026112Y-62290201D01*
X53026112Y-62290202D01*
X52923387Y-62349511D01*
X52923384Y-62349513D01*
X52839513Y-62433384D01*
X52839511Y-62433387D01*
X52780201Y-62536114D01*
X52749500Y-62650691D01*
X52504771Y-62650691D01*
X52510500Y-62629309D01*
X52510500Y-62510691D01*
X52479799Y-62396114D01*
X52420489Y-62293387D01*
X52336613Y-62209511D01*
X52233886Y-62150201D01*
X52119309Y-62119500D01*
X52000691Y-62119500D01*
X51886114Y-62150201D01*
X51886112Y-62150201D01*
X51886112Y-62150202D01*
X51783387Y-62209511D01*
X51783384Y-62209513D01*
X51699513Y-62293384D01*
X51699511Y-62293387D01*
X51640201Y-62396114D01*
X51609500Y-62510691D01*
X29670728Y-62510691D01*
X29670816Y-62501396D01*
X29670816Y-62501395D01*
X29678718Y-61662853D01*
X50333901Y-61662853D01*
X50333901Y-61781471D01*
X50364602Y-61896048D01*
X50423912Y-61998775D01*
X50507788Y-62082651D01*
X50610515Y-62141961D01*
X50725092Y-62172662D01*
X50725095Y-62172662D01*
X50843707Y-62172662D01*
X50843710Y-62172662D01*
X50958287Y-62141961D01*
X51061014Y-62082651D01*
X51144890Y-61998775D01*
X51204200Y-61896048D01*
X51234901Y-61781471D01*
X51234901Y-61662853D01*
X51204200Y-61548276D01*
X51144890Y-61445549D01*
X51061014Y-61361673D01*
X50958287Y-61302363D01*
X50843710Y-61271662D01*
X50725092Y-61271662D01*
X50610515Y-61302363D01*
X50610513Y-61302363D01*
X50610513Y-61302364D01*
X50507788Y-61361673D01*
X50507785Y-61361675D01*
X50423914Y-61445546D01*
X50423912Y-61445549D01*
X50364602Y-61548276D01*
X50333901Y-61662853D01*
X29678718Y-61662853D01*
X29678806Y-61653557D01*
X29678806Y-61653556D01*
X29701732Y-59220691D01*
X54329500Y-59220691D01*
X54329500Y-59339309D01*
X54360201Y-59453886D01*
X54419511Y-59556613D01*
X54503387Y-59640489D01*
X54606114Y-59699799D01*
X54720691Y-59730500D01*
X54720694Y-59730500D01*
X54839306Y-59730500D01*
X54839309Y-59730500D01*
X54953886Y-59699799D01*
X55056613Y-59640489D01*
X55140489Y-59556613D01*
X55199799Y-59453886D01*
X55230500Y-59339309D01*
X55230500Y-59220691D01*
X55199799Y-59106114D01*
X55140489Y-59003387D01*
X55056613Y-58919511D01*
X54953886Y-58860201D01*
X54839309Y-58829500D01*
X54720691Y-58829500D01*
X54606114Y-58860201D01*
X54606112Y-58860201D01*
X54606112Y-58860202D01*
X54503387Y-58919511D01*
X54503384Y-58919513D01*
X54419513Y-59003384D01*
X54419511Y-59003387D01*
X54360201Y-59106114D01*
X54329500Y-59220691D01*
X29701732Y-59220691D01*
X29701820Y-59211396D01*
X29744138Y-54720691D01*
X42869500Y-54720691D01*
X42869500Y-54839309D01*
X42900201Y-54953886D01*
X42959511Y-55056613D01*
X43043387Y-55140489D01*
X43146114Y-55199799D01*
X43260691Y-55230500D01*
X43260694Y-55230500D01*
X43379306Y-55230500D01*
X43379309Y-55230500D01*
X43493886Y-55199799D01*
X43596613Y-55140489D01*
X43680489Y-55056613D01*
X43739799Y-54953886D01*
X43749148Y-54918995D01*
X45749499Y-54918995D01*
X45776418Y-55054322D01*
X45776421Y-55054332D01*
X45829221Y-55181804D01*
X45829228Y-55181817D01*
X45905885Y-55296541D01*
X45905888Y-55296545D01*
X46003454Y-55394111D01*
X46003458Y-55394114D01*
X46118182Y-55470771D01*
X46118195Y-55470778D01*
X46245667Y-55523578D01*
X46245672Y-55523580D01*
X46245676Y-55523580D01*
X46245677Y-55523581D01*
X46381004Y-55550500D01*
X46381007Y-55550500D01*
X46518995Y-55550500D01*
X46610041Y-55532389D01*
X46654328Y-55523580D01*
X46781811Y-55470775D01*
X46896542Y-55394114D01*
X46994114Y-55296542D01*
X47070775Y-55181811D01*
X47123580Y-55054328D01*
X47143471Y-54954332D01*
X47150500Y-54918995D01*
X47150500Y-54818995D01*
X47499499Y-54818995D01*
X47526418Y-54954322D01*
X47526421Y-54954332D01*
X47579221Y-55081804D01*
X47579228Y-55081817D01*
X47655885Y-55196541D01*
X47655888Y-55196545D01*
X47753454Y-55294111D01*
X47753458Y-55294114D01*
X47868182Y-55370771D01*
X47868195Y-55370778D01*
X47995667Y-55423578D01*
X47995672Y-55423580D01*
X47995676Y-55423580D01*
X47995677Y-55423581D01*
X48131004Y-55450500D01*
X48131007Y-55450500D01*
X48268995Y-55450500D01*
X48360041Y-55432389D01*
X48404328Y-55423580D01*
X48531811Y-55370775D01*
X48646542Y-55294114D01*
X48744114Y-55196542D01*
X48820775Y-55081811D01*
X48831212Y-55056615D01*
X48846794Y-55018995D01*
X49349499Y-55018995D01*
X49376418Y-55154322D01*
X49376421Y-55154332D01*
X49429221Y-55281804D01*
X49429228Y-55281817D01*
X49505885Y-55396541D01*
X49505888Y-55396545D01*
X49603454Y-55494111D01*
X49603458Y-55494114D01*
X49718182Y-55570771D01*
X49718195Y-55570778D01*
X49845667Y-55623578D01*
X49845672Y-55623580D01*
X49845676Y-55623580D01*
X49845677Y-55623581D01*
X49981004Y-55650500D01*
X49981007Y-55650500D01*
X50118995Y-55650500D01*
X50210041Y-55632389D01*
X50254328Y-55623580D01*
X50352924Y-55582740D01*
X50381804Y-55570778D01*
X50381804Y-55570777D01*
X50381811Y-55570775D01*
X50496542Y-55494114D01*
X50594114Y-55396542D01*
X50670775Y-55281811D01*
X50723580Y-55154328D01*
X50732389Y-55110041D01*
X50750500Y-55018995D01*
X50750500Y-54881004D01*
X50723581Y-54745677D01*
X50723580Y-54745676D01*
X50723580Y-54745672D01*
X50714349Y-54723387D01*
X50670778Y-54618195D01*
X50670771Y-54618182D01*
X50594114Y-54503458D01*
X50594111Y-54503454D01*
X50496545Y-54405888D01*
X50496541Y-54405885D01*
X50381817Y-54329228D01*
X50381804Y-54329221D01*
X50254332Y-54276421D01*
X50254322Y-54276418D01*
X50118995Y-54249500D01*
X50118993Y-54249500D01*
X49981007Y-54249500D01*
X49981005Y-54249500D01*
X49845677Y-54276418D01*
X49845667Y-54276421D01*
X49718195Y-54329221D01*
X49718182Y-54329228D01*
X49603458Y-54405885D01*
X49603454Y-54405888D01*
X49505888Y-54503454D01*
X49505885Y-54503458D01*
X49429228Y-54618182D01*
X49429221Y-54618195D01*
X49376421Y-54745667D01*
X49376418Y-54745677D01*
X49349500Y-54881004D01*
X49349500Y-54881007D01*
X49349500Y-55018993D01*
X49349500Y-55018995D01*
X49349499Y-55018995D01*
X48846794Y-55018995D01*
X48873578Y-54954332D01*
X48873580Y-54954328D01*
X48888165Y-54881004D01*
X48894189Y-54850723D01*
X48894189Y-54850722D01*
X48898113Y-54830990D01*
X48900500Y-54818993D01*
X48900500Y-54681007D01*
X48900500Y-54681004D01*
X48873581Y-54545677D01*
X48873580Y-54545676D01*
X48873580Y-54545672D01*
X48862193Y-54518182D01*
X48820778Y-54418195D01*
X48820771Y-54418182D01*
X48744114Y-54303458D01*
X48744111Y-54303454D01*
X48646545Y-54205888D01*
X48646541Y-54205885D01*
X48531817Y-54129228D01*
X48531804Y-54129221D01*
X48404332Y-54076421D01*
X48404322Y-54076418D01*
X48268995Y-54049500D01*
X48268993Y-54049500D01*
X48131007Y-54049500D01*
X48131005Y-54049500D01*
X47995677Y-54076418D01*
X47995667Y-54076421D01*
X47868195Y-54129221D01*
X47868182Y-54129228D01*
X47753458Y-54205885D01*
X47753454Y-54205888D01*
X47655888Y-54303454D01*
X47655885Y-54303458D01*
X47579228Y-54418182D01*
X47579221Y-54418195D01*
X47526421Y-54545667D01*
X47526418Y-54545677D01*
X47499500Y-54681004D01*
X47499500Y-54681007D01*
X47499500Y-54818993D01*
X47499500Y-54818995D01*
X47499499Y-54818995D01*
X47150500Y-54818995D01*
X47150500Y-54781004D01*
X47134209Y-54699107D01*
X47134209Y-54699106D01*
X47123581Y-54645679D01*
X47123581Y-54645677D01*
X47123580Y-54645672D01*
X47121028Y-54639511D01*
X47070778Y-54518195D01*
X47070771Y-54518182D01*
X46994114Y-54403458D01*
X46994111Y-54403454D01*
X46896545Y-54305888D01*
X46896541Y-54305885D01*
X46781817Y-54229228D01*
X46781804Y-54229221D01*
X46654332Y-54176421D01*
X46654322Y-54176418D01*
X46518995Y-54149500D01*
X46518993Y-54149500D01*
X46381007Y-54149500D01*
X46381005Y-54149500D01*
X46245677Y-54176418D01*
X46245667Y-54176421D01*
X46118195Y-54229221D01*
X46118182Y-54229228D01*
X46003458Y-54305885D01*
X46003454Y-54305888D01*
X45905888Y-54403454D01*
X45905885Y-54403458D01*
X45829228Y-54518182D01*
X45829221Y-54518195D01*
X45776421Y-54645667D01*
X45776418Y-54645677D01*
X45749500Y-54781004D01*
X45749500Y-54781007D01*
X45749500Y-54918993D01*
X45749500Y-54918995D01*
X45749499Y-54918995D01*
X43749148Y-54918995D01*
X43770500Y-54839309D01*
X43770500Y-54720691D01*
X43739799Y-54606114D01*
X43680489Y-54503387D01*
X43596613Y-54419511D01*
X43493886Y-54360201D01*
X43379309Y-54329500D01*
X43260691Y-54329500D01*
X43146114Y-54360201D01*
X43146112Y-54360201D01*
X43146112Y-54360202D01*
X43043387Y-54419511D01*
X43043384Y-54419513D01*
X42959513Y-54503384D01*
X42959511Y-54503387D01*
X42935098Y-54545672D01*
X42900201Y-54606114D01*
X42869500Y-54720691D01*
X29744138Y-54720691D01*
X29744226Y-54711396D01*
X29752525Y-53830691D01*
X43639500Y-53830691D01*
X43639500Y-53949309D01*
X43670201Y-54063886D01*
X43729511Y-54166613D01*
X43813387Y-54250489D01*
X43916114Y-54309799D01*
X44030691Y-54340500D01*
X44030694Y-54340500D01*
X44149306Y-54340500D01*
X44149309Y-54340500D01*
X44263886Y-54309799D01*
X44366613Y-54250489D01*
X44450489Y-54166613D01*
X44509799Y-54063886D01*
X44540500Y-53949309D01*
X44540500Y-53830691D01*
X44509799Y-53716114D01*
X44450489Y-53613387D01*
X44366613Y-53529511D01*
X44263886Y-53470201D01*
X44149309Y-53439500D01*
X44030691Y-53439500D01*
X43916114Y-53470201D01*
X43916112Y-53470201D01*
X43916112Y-53470202D01*
X43813387Y-53529511D01*
X43813384Y-53529513D01*
X43729513Y-53613384D01*
X43729511Y-53613387D01*
X43694582Y-53673886D01*
X43670201Y-53716114D01*
X43639500Y-53830691D01*
X29752525Y-53830691D01*
X29752613Y-53821396D01*
X29773019Y-51655985D01*
X31251250Y-51655985D01*
X31251250Y-51844014D01*
X31287929Y-52028409D01*
X31287932Y-52028421D01*
X31359879Y-52202118D01*
X31359886Y-52202131D01*
X31464341Y-52358457D01*
X31464344Y-52358461D01*
X31597288Y-52491405D01*
X31597292Y-52491408D01*
X31753618Y-52595863D01*
X31753631Y-52595870D01*
X31927328Y-52667817D01*
X31927333Y-52667819D01*
X32111735Y-52704499D01*
X32111738Y-52704500D01*
X32111740Y-52704500D01*
X32299762Y-52704500D01*
X32299763Y-52704499D01*
X32484167Y-52667819D01*
X32657875Y-52595867D01*
X32814208Y-52491408D01*
X32947158Y-52358458D01*
X33051617Y-52202125D01*
X33123569Y-52028417D01*
X33160250Y-51844010D01*
X33160250Y-51655990D01*
X33160250Y-51655987D01*
X33160249Y-51655985D01*
X33151199Y-51610489D01*
X33123569Y-51471583D01*
X33119972Y-51462898D01*
X33051620Y-51297881D01*
X33051613Y-51297868D01*
X32947158Y-51141542D01*
X32947155Y-51141538D01*
X32814211Y-51008594D01*
X32814207Y-51008591D01*
X32657881Y-50904136D01*
X32657868Y-50904129D01*
X32484171Y-50832182D01*
X32484159Y-50832179D01*
X32299763Y-50795500D01*
X32299760Y-50795500D01*
X32111740Y-50795500D01*
X32111737Y-50795500D01*
X31927340Y-50832179D01*
X31927328Y-50832182D01*
X31753631Y-50904129D01*
X31753618Y-50904136D01*
X31597292Y-51008591D01*
X31597288Y-51008594D01*
X31464344Y-51141538D01*
X31464341Y-51141542D01*
X31359886Y-51297868D01*
X31359879Y-51297881D01*
X31287932Y-51471578D01*
X31287929Y-51471590D01*
X31251250Y-51655985D01*
X29773019Y-51655985D01*
X29773087Y-51648730D01*
X29812605Y-47455247D01*
X40730250Y-47455247D01*
X40730250Y-50044752D01*
X40741881Y-50103229D01*
X40741882Y-50103230D01*
X40786197Y-50169552D01*
X40852519Y-50213867D01*
X40852520Y-50213868D01*
X40910997Y-50225499D01*
X40911000Y-50225500D01*
X40911002Y-50225500D01*
X43500500Y-50225500D01*
X43500501Y-50225499D01*
X43515318Y-50222552D01*
X43558979Y-50213868D01*
X43558979Y-50213867D01*
X43558981Y-50213867D01*
X43625302Y-50169552D01*
X43669617Y-50103231D01*
X43669617Y-50103229D01*
X43669618Y-50103229D01*
X43681249Y-50044752D01*
X43681250Y-50044750D01*
X43681250Y-48410691D01*
X47339500Y-48410691D01*
X47339500Y-48529309D01*
X47370201Y-48643886D01*
X47429511Y-48746613D01*
X47513387Y-48830489D01*
X47616114Y-48889799D01*
X47730691Y-48920500D01*
X47730694Y-48920500D01*
X47849306Y-48920500D01*
X47849309Y-48920500D01*
X47963886Y-48889799D01*
X48066613Y-48830489D01*
X48150489Y-48746613D01*
X48209799Y-48643886D01*
X48240500Y-48529309D01*
X48240500Y-48410691D01*
X48209799Y-48296114D01*
X48150489Y-48193387D01*
X48066613Y-48109511D01*
X47963886Y-48050201D01*
X47849309Y-48019500D01*
X47730691Y-48019500D01*
X47616114Y-48050201D01*
X47616112Y-48050201D01*
X47616112Y-48050202D01*
X47513387Y-48109511D01*
X47513384Y-48109513D01*
X47429513Y-48193384D01*
X47429511Y-48193387D01*
X47370201Y-48296114D01*
X47339500Y-48410691D01*
X43681250Y-48410691D01*
X43681250Y-47455249D01*
X43681249Y-47455247D01*
X43669618Y-47396770D01*
X43669617Y-47396769D01*
X43625302Y-47330447D01*
X43558980Y-47286132D01*
X43558979Y-47286131D01*
X43500502Y-47274500D01*
X43500498Y-47274500D01*
X40911002Y-47274500D01*
X40910997Y-47274500D01*
X40852520Y-47286131D01*
X40852519Y-47286132D01*
X40786197Y-47330447D01*
X40741882Y-47396769D01*
X40741881Y-47396770D01*
X40730250Y-47455247D01*
X29812605Y-47455247D01*
X29812673Y-47447992D01*
X29848616Y-43633870D01*
X40730250Y-43633870D01*
X40730250Y-43866129D01*
X40766581Y-44095514D01*
X40838351Y-44316400D01*
X40943789Y-44523331D01*
X41080301Y-44711224D01*
X41244526Y-44875449D01*
X41432419Y-45011961D01*
X41525344Y-45059309D01*
X41639349Y-45117398D01*
X41639351Y-45117398D01*
X41639354Y-45117400D01*
X41860236Y-45189169D01*
X41978418Y-45207886D01*
X42089621Y-45225500D01*
X42089626Y-45225500D01*
X42321879Y-45225500D01*
X42423252Y-45209443D01*
X42551264Y-45189169D01*
X42772146Y-45117400D01*
X42979081Y-45011961D01*
X43166974Y-44875449D01*
X43331199Y-44711224D01*
X43467711Y-44523331D01*
X43573150Y-44316396D01*
X43644919Y-44095514D01*
X43672102Y-43923886D01*
X43681250Y-43866129D01*
X43681250Y-43633870D01*
X43661982Y-43512222D01*
X43644919Y-43404486D01*
X43573150Y-43183604D01*
X43573148Y-43183601D01*
X43573148Y-43183599D01*
X43517526Y-43074436D01*
X43467711Y-42976669D01*
X43331199Y-42788776D01*
X43166974Y-42624551D01*
X42979081Y-42488039D01*
X42950325Y-42473387D01*
X42772150Y-42382601D01*
X42551264Y-42310831D01*
X42321879Y-42274500D01*
X42321874Y-42274500D01*
X42089626Y-42274500D01*
X42089621Y-42274500D01*
X41860235Y-42310831D01*
X41639349Y-42382601D01*
X41432418Y-42488039D01*
X41244523Y-42624553D01*
X41080303Y-42788773D01*
X40943789Y-42976668D01*
X40838351Y-43183599D01*
X40766581Y-43404485D01*
X40730250Y-43633870D01*
X29848616Y-43633870D01*
X29848673Y-43627836D01*
X29876679Y-40655985D01*
X31251250Y-40655985D01*
X31251250Y-40844014D01*
X31287929Y-41028409D01*
X31287932Y-41028421D01*
X31359879Y-41202118D01*
X31359886Y-41202131D01*
X31464341Y-41358457D01*
X31464344Y-41358461D01*
X31597288Y-41491405D01*
X31597292Y-41491408D01*
X31753618Y-41595863D01*
X31753631Y-41595870D01*
X31823958Y-41625000D01*
X31927333Y-41667819D01*
X32111735Y-41704499D01*
X32111738Y-41704500D01*
X32111740Y-41704500D01*
X32299762Y-41704500D01*
X32299763Y-41704499D01*
X32484167Y-41667819D01*
X32657875Y-41595867D01*
X32814208Y-41491408D01*
X32947158Y-41358458D01*
X33051617Y-41202125D01*
X33123569Y-41028417D01*
X33160250Y-40844010D01*
X33160250Y-40655990D01*
X33160250Y-40655987D01*
X33160249Y-40655985D01*
X33158806Y-40648730D01*
X33123569Y-40471583D01*
X33083563Y-40375000D01*
X33051620Y-40297881D01*
X33051613Y-40297868D01*
X32947158Y-40141542D01*
X32947155Y-40141538D01*
X32814211Y-40008594D01*
X32814207Y-40008591D01*
X32657881Y-39904136D01*
X32657868Y-39904129D01*
X32484171Y-39832182D01*
X32484159Y-39832179D01*
X32299763Y-39795500D01*
X32299760Y-39795500D01*
X32111740Y-39795500D01*
X32111737Y-39795500D01*
X31927340Y-39832179D01*
X31927328Y-39832182D01*
X31753631Y-39904129D01*
X31753618Y-39904136D01*
X31597292Y-40008591D01*
X31597288Y-40008594D01*
X31464344Y-40141538D01*
X31464341Y-40141542D01*
X31359886Y-40297868D01*
X31359879Y-40297881D01*
X31287932Y-40471578D01*
X31287929Y-40471590D01*
X31251250Y-40655985D01*
X29876679Y-40655985D01*
X29876747Y-40648730D01*
X29903208Y-37840691D01*
X48749500Y-37840691D01*
X48749500Y-37959309D01*
X48780201Y-38073886D01*
X48839511Y-38176613D01*
X48923387Y-38260489D01*
X49026114Y-38319799D01*
X49140691Y-38350500D01*
X49140694Y-38350500D01*
X49259306Y-38350500D01*
X49259309Y-38350500D01*
X49373886Y-38319799D01*
X49476613Y-38260489D01*
X49560489Y-38176613D01*
X49619799Y-38073886D01*
X49650500Y-37959309D01*
X49650500Y-37840691D01*
X49619799Y-37726114D01*
X49560489Y-37623387D01*
X49476613Y-37539511D01*
X49373886Y-37480201D01*
X49259309Y-37449500D01*
X49140691Y-37449500D01*
X49026114Y-37480201D01*
X49026112Y-37480201D01*
X49026112Y-37480202D01*
X48923387Y-37539511D01*
X48923384Y-37539513D01*
X48839513Y-37623384D01*
X48839511Y-37623387D01*
X48780201Y-37726114D01*
X48749500Y-37840691D01*
X29903208Y-37840691D01*
X29903296Y-37831396D01*
X29903296Y-37831395D01*
X29910152Y-37103865D01*
X29898233Y-37098460D01*
X29860305Y-37039781D01*
X29855208Y-37006567D01*
X29770720Y-31832944D01*
X30849500Y-31832944D01*
X30849500Y-32167056D01*
X30859344Y-32267004D01*
X30882247Y-32499548D01*
X30882250Y-32499565D01*
X30947425Y-32827230D01*
X30947428Y-32827241D01*
X31044418Y-33146977D01*
X31086806Y-33249309D01*
X31161734Y-33430202D01*
X31172278Y-33455656D01*
X31172280Y-33455661D01*
X31329769Y-33750303D01*
X31329780Y-33750321D01*
X31515393Y-34028109D01*
X31515403Y-34028123D01*
X31727361Y-34286395D01*
X31963604Y-34522638D01*
X31963609Y-34522642D01*
X31963610Y-34522643D01*
X32221882Y-34734601D01*
X32499685Y-34920224D01*
X32499694Y-34920229D01*
X32499696Y-34920230D01*
X32794338Y-35077719D01*
X32794340Y-35077719D01*
X32794346Y-35077723D01*
X33103024Y-35205582D01*
X33422749Y-35302569D01*
X33422755Y-35302570D01*
X33422758Y-35302571D01*
X33422769Y-35302574D01*
X33628243Y-35343444D01*
X33750441Y-35367751D01*
X34082944Y-35400500D01*
X34082947Y-35400500D01*
X34417053Y-35400500D01*
X34417056Y-35400500D01*
X34749559Y-35367751D01*
X34911757Y-35335487D01*
X35077230Y-35302574D01*
X35077241Y-35302571D01*
X35077241Y-35302570D01*
X35077251Y-35302569D01*
X35396976Y-35205582D01*
X35542866Y-35145152D01*
X49638983Y-35145152D01*
X49638983Y-35263770D01*
X49669684Y-35378347D01*
X49728994Y-35481074D01*
X49812870Y-35564950D01*
X49915597Y-35624260D01*
X50030174Y-35654961D01*
X50030177Y-35654961D01*
X50148789Y-35654961D01*
X50148792Y-35654961D01*
X50263369Y-35624260D01*
X50366096Y-35564950D01*
X50385061Y-35545985D01*
X64112250Y-35545985D01*
X64112250Y-35734014D01*
X64148929Y-35918409D01*
X64148932Y-35918421D01*
X64220879Y-36092118D01*
X64220886Y-36092131D01*
X64325341Y-36248457D01*
X64325344Y-36248461D01*
X64458288Y-36381405D01*
X64458292Y-36381408D01*
X64614618Y-36485863D01*
X64614631Y-36485870D01*
X64741818Y-36538552D01*
X64788333Y-36557819D01*
X64972735Y-36594499D01*
X64972738Y-36594500D01*
X64972740Y-36594500D01*
X65160762Y-36594500D01*
X65160763Y-36594499D01*
X65345167Y-36557819D01*
X65518875Y-36485867D01*
X65675208Y-36381408D01*
X65808158Y-36248458D01*
X65912617Y-36092125D01*
X65984569Y-35918417D01*
X66021250Y-35734010D01*
X66021250Y-35545990D01*
X66021250Y-35545987D01*
X66021249Y-35545985D01*
X65992310Y-35400500D01*
X65984569Y-35361583D01*
X65984567Y-35361578D01*
X65912620Y-35187881D01*
X65912613Y-35187868D01*
X65808158Y-35031542D01*
X65808155Y-35031538D01*
X65675211Y-34898594D01*
X65675207Y-34898591D01*
X65626801Y-34866247D01*
X66612250Y-34866247D01*
X66612250Y-36413752D01*
X66623881Y-36472229D01*
X66623882Y-36472230D01*
X66668197Y-36538552D01*
X66734519Y-36582867D01*
X66734520Y-36582868D01*
X66792997Y-36594499D01*
X66793000Y-36594500D01*
X66793002Y-36594500D01*
X68340500Y-36594500D01*
X68340501Y-36594499D01*
X68355318Y-36591552D01*
X68398979Y-36582868D01*
X68398979Y-36582867D01*
X68398981Y-36582867D01*
X68465302Y-36538552D01*
X68509617Y-36472231D01*
X68509617Y-36472229D01*
X68509618Y-36472229D01*
X68521249Y-36413752D01*
X68521250Y-36413750D01*
X68521250Y-34866249D01*
X68521249Y-34866247D01*
X68509618Y-34807770D01*
X68509617Y-34807769D01*
X68465302Y-34741447D01*
X68398980Y-34697132D01*
X68398979Y-34697131D01*
X68340502Y-34685500D01*
X68340498Y-34685500D01*
X66793002Y-34685500D01*
X66792997Y-34685500D01*
X66734520Y-34697131D01*
X66734519Y-34697132D01*
X66668197Y-34741447D01*
X66623882Y-34807769D01*
X66623881Y-34807770D01*
X66612250Y-34866247D01*
X65626801Y-34866247D01*
X65518881Y-34794136D01*
X65518868Y-34794129D01*
X65345171Y-34722182D01*
X65345159Y-34722179D01*
X65160763Y-34685500D01*
X65160760Y-34685500D01*
X64972740Y-34685500D01*
X64972737Y-34685500D01*
X64788340Y-34722179D01*
X64788328Y-34722182D01*
X64614631Y-34794129D01*
X64614618Y-34794136D01*
X64458292Y-34898591D01*
X64458288Y-34898594D01*
X64325344Y-35031538D01*
X64325341Y-35031542D01*
X64220886Y-35187868D01*
X64220879Y-35187881D01*
X64148932Y-35361578D01*
X64148929Y-35361590D01*
X64112250Y-35545985D01*
X50385061Y-35545985D01*
X50449972Y-35481074D01*
X50509282Y-35378347D01*
X50539983Y-35263770D01*
X50539983Y-35145152D01*
X50509282Y-35030575D01*
X50449972Y-34927848D01*
X50366096Y-34843972D01*
X50263369Y-34784662D01*
X50148792Y-34753961D01*
X50030174Y-34753961D01*
X49915597Y-34784662D01*
X49915595Y-34784662D01*
X49915595Y-34784663D01*
X49812870Y-34843972D01*
X49812867Y-34843974D01*
X49728996Y-34927845D01*
X49728994Y-34927848D01*
X49669684Y-35030575D01*
X49638983Y-35145152D01*
X35542866Y-35145152D01*
X35705654Y-35077723D01*
X35792053Y-35031542D01*
X35799303Y-35027667D01*
X35874434Y-34987508D01*
X36000315Y-34920224D01*
X36278118Y-34734601D01*
X36536390Y-34522643D01*
X36772643Y-34286390D01*
X36984601Y-34028118D01*
X37012532Y-33986316D01*
X50041529Y-33986316D01*
X50041529Y-34104934D01*
X50072230Y-34219511D01*
X50131540Y-34322238D01*
X50215416Y-34406114D01*
X50318143Y-34465424D01*
X50432720Y-34496125D01*
X50432723Y-34496125D01*
X50551335Y-34496125D01*
X50551338Y-34496125D01*
X50665915Y-34465424D01*
X50768642Y-34406114D01*
X50852518Y-34322238D01*
X50911828Y-34219511D01*
X50942529Y-34104934D01*
X50942529Y-33986316D01*
X50911828Y-33871739D01*
X50852518Y-33769012D01*
X50768642Y-33685136D01*
X50665915Y-33625826D01*
X50551338Y-33595125D01*
X50432720Y-33595125D01*
X50318143Y-33625826D01*
X50318141Y-33625826D01*
X50318141Y-33625827D01*
X50215416Y-33685136D01*
X50215413Y-33685138D01*
X50131542Y-33769009D01*
X50131540Y-33769012D01*
X50119024Y-33790691D01*
X50072230Y-33871739D01*
X50041529Y-33986316D01*
X37012532Y-33986316D01*
X37170224Y-33750315D01*
X37327723Y-33455654D01*
X37455582Y-33146976D01*
X37552569Y-32827251D01*
X37552571Y-32827241D01*
X37552574Y-32827230D01*
X37589775Y-32640202D01*
X37616499Y-32505855D01*
X50399500Y-32505855D01*
X50399500Y-32624473D01*
X50430201Y-32739050D01*
X50489511Y-32841777D01*
X50573387Y-32925653D01*
X50676114Y-32984963D01*
X50790691Y-33015664D01*
X50790694Y-33015664D01*
X50909306Y-33015664D01*
X50909309Y-33015664D01*
X50965189Y-33000691D01*
X54679500Y-33000691D01*
X54679500Y-33119309D01*
X54710201Y-33233886D01*
X54769511Y-33336613D01*
X54853387Y-33420489D01*
X54956114Y-33479799D01*
X55070691Y-33510500D01*
X55070694Y-33510500D01*
X55189306Y-33510500D01*
X55189309Y-33510500D01*
X55303886Y-33479799D01*
X55406613Y-33420489D01*
X55490489Y-33336613D01*
X55549799Y-33233886D01*
X55580500Y-33119309D01*
X55580500Y-33000691D01*
X55549799Y-32886114D01*
X55490489Y-32783387D01*
X55427793Y-32720691D01*
X59699500Y-32720691D01*
X59699500Y-32839309D01*
X59730201Y-32953886D01*
X59789511Y-33056613D01*
X59873387Y-33140489D01*
X59976114Y-33199799D01*
X60090691Y-33230500D01*
X60090694Y-33230500D01*
X60209306Y-33230500D01*
X60209309Y-33230500D01*
X60323886Y-33199799D01*
X60426613Y-33140489D01*
X60436411Y-33130691D01*
X69759500Y-33130691D01*
X69759500Y-33249309D01*
X69790201Y-33363886D01*
X69849511Y-33466613D01*
X69933387Y-33550489D01*
X70036114Y-33609799D01*
X70150691Y-33640500D01*
X70150694Y-33640500D01*
X70269306Y-33640500D01*
X70269309Y-33640500D01*
X70383886Y-33609799D01*
X70486613Y-33550489D01*
X70570489Y-33466613D01*
X70629799Y-33363886D01*
X70660500Y-33249309D01*
X70660500Y-33130691D01*
X70629799Y-33016114D01*
X70570489Y-32913387D01*
X70486613Y-32829511D01*
X70383886Y-32770201D01*
X70269309Y-32739500D01*
X70150691Y-32739500D01*
X70036114Y-32770201D01*
X70036112Y-32770201D01*
X70036112Y-32770202D01*
X69933387Y-32829511D01*
X69933384Y-32829513D01*
X69849513Y-32913384D01*
X69849511Y-32913387D01*
X69799106Y-33000691D01*
X69790201Y-33016114D01*
X69759500Y-33130691D01*
X60436411Y-33130691D01*
X60510489Y-33056613D01*
X60569799Y-32953886D01*
X60600500Y-32839309D01*
X60600500Y-32720691D01*
X60569799Y-32606114D01*
X60510489Y-32503387D01*
X60426613Y-32419511D01*
X60323886Y-32360201D01*
X60209309Y-32329500D01*
X60090691Y-32329500D01*
X59976114Y-32360201D01*
X59976112Y-32360201D01*
X59976112Y-32360202D01*
X59873387Y-32419511D01*
X59873384Y-32419513D01*
X59789513Y-32503384D01*
X59789511Y-32503387D01*
X59742674Y-32584511D01*
X59730201Y-32606114D01*
X59699500Y-32720691D01*
X55427793Y-32720691D01*
X55406613Y-32699511D01*
X55303886Y-32640201D01*
X55189309Y-32609500D01*
X55070691Y-32609500D01*
X54956114Y-32640201D01*
X54956112Y-32640201D01*
X54956112Y-32640202D01*
X54853387Y-32699511D01*
X54853384Y-32699513D01*
X54769513Y-32783384D01*
X54769511Y-32783387D01*
X54710201Y-32886114D01*
X54679500Y-33000691D01*
X50965189Y-33000691D01*
X51023886Y-32984963D01*
X51126613Y-32925653D01*
X51210489Y-32841777D01*
X51269799Y-32739050D01*
X51300500Y-32624473D01*
X51300500Y-32505855D01*
X51269799Y-32391278D01*
X51210489Y-32288551D01*
X51204829Y-32282891D01*
X72984500Y-32282891D01*
X72984500Y-32401509D01*
X73015201Y-32516086D01*
X73074511Y-32618813D01*
X73158387Y-32702689D01*
X73261114Y-32761999D01*
X73375691Y-32792700D01*
X73375694Y-32792700D01*
X73494306Y-32792700D01*
X73494309Y-32792700D01*
X73608886Y-32761999D01*
X73711613Y-32702689D01*
X73795489Y-32618813D01*
X73854799Y-32516086D01*
X73885500Y-32401509D01*
X73885500Y-32282891D01*
X73854799Y-32168314D01*
X73795489Y-32065587D01*
X73771819Y-32041917D01*
X73738334Y-31980594D01*
X73735500Y-31954236D01*
X73735500Y-31090833D01*
X73755185Y-31023794D01*
X73771819Y-31003152D01*
X74149055Y-30625916D01*
X74210378Y-30592431D01*
X74236736Y-30589597D01*
X75345270Y-30589597D01*
X75412309Y-30609282D01*
X75458064Y-30662086D01*
X75468008Y-30731244D01*
X75438983Y-30794800D01*
X75407270Y-30820984D01*
X75357049Y-30849979D01*
X75340492Y-30859538D01*
X75340486Y-30859542D01*
X74464541Y-31735487D01*
X74464535Y-31735495D01*
X74424982Y-31804004D01*
X74424979Y-31804009D01*
X74413563Y-31846615D01*
X74410884Y-31856615D01*
X74404500Y-31880439D01*
X74404500Y-31954236D01*
X74384815Y-32021275D01*
X74368181Y-32041917D01*
X74344513Y-32065584D01*
X74344511Y-32065587D01*
X74285930Y-32167052D01*
X74285201Y-32168314D01*
X74254500Y-32282891D01*
X74254500Y-32401509D01*
X74285201Y-32516086D01*
X74344511Y-32618813D01*
X74428387Y-32702689D01*
X74531114Y-32761999D01*
X74645691Y-32792700D01*
X74645694Y-32792700D01*
X74764306Y-32792700D01*
X74764309Y-32792700D01*
X74878886Y-32761999D01*
X74981613Y-32702689D01*
X75065489Y-32618813D01*
X75124799Y-32516086D01*
X75155500Y-32401509D01*
X75155500Y-32282891D01*
X75124799Y-32168314D01*
X75083375Y-32096567D01*
X75066903Y-32028669D01*
X75089755Y-31962642D01*
X75103075Y-31946894D01*
X75613152Y-31436819D01*
X75674475Y-31403334D01*
X75700833Y-31400500D01*
X77704167Y-31400500D01*
X77733607Y-31409144D01*
X77763594Y-31415668D01*
X77768609Y-31419422D01*
X77771206Y-31420185D01*
X77791848Y-31436819D01*
X77873181Y-31518152D01*
X77906666Y-31579475D01*
X77909500Y-31605833D01*
X77909500Y-31639309D01*
X77940201Y-31753886D01*
X77999511Y-31856613D01*
X78083387Y-31940489D01*
X78186114Y-31999799D01*
X78300691Y-32030500D01*
X78334167Y-32030500D01*
X78401206Y-32050185D01*
X78421848Y-32066819D01*
X78939540Y-32584511D01*
X78995489Y-32640460D01*
X78995491Y-32640461D01*
X78995495Y-32640464D01*
X79064004Y-32680017D01*
X79064011Y-32680021D01*
X79140438Y-32700500D01*
X79140440Y-32700500D01*
X79689560Y-32700500D01*
X79689562Y-32700500D01*
X79765989Y-32680021D01*
X79834511Y-32640460D01*
X79890460Y-32584511D01*
X80642027Y-31832944D01*
X89599500Y-31832944D01*
X89599500Y-32167056D01*
X89609344Y-32267004D01*
X89632247Y-32499548D01*
X89632250Y-32499565D01*
X89697425Y-32827230D01*
X89697428Y-32827241D01*
X89794418Y-33146977D01*
X89836806Y-33249309D01*
X89911734Y-33430202D01*
X89922278Y-33455656D01*
X89922280Y-33455661D01*
X90079769Y-33750303D01*
X90079780Y-33750321D01*
X90265393Y-34028109D01*
X90265403Y-34028123D01*
X90477361Y-34286395D01*
X90713604Y-34522638D01*
X90713609Y-34522642D01*
X90713610Y-34522643D01*
X90971882Y-34734601D01*
X91249685Y-34920224D01*
X91249694Y-34920229D01*
X91249696Y-34920230D01*
X91544338Y-35077719D01*
X91544340Y-35077719D01*
X91544346Y-35077723D01*
X91853024Y-35205582D01*
X92172749Y-35302569D01*
X92172755Y-35302570D01*
X92172758Y-35302571D01*
X92172769Y-35302574D01*
X92378243Y-35343444D01*
X92500441Y-35367751D01*
X92832944Y-35400500D01*
X92832947Y-35400500D01*
X93167053Y-35400500D01*
X93167056Y-35400500D01*
X93499559Y-35367751D01*
X93661757Y-35335487D01*
X93827230Y-35302574D01*
X93827241Y-35302571D01*
X93827241Y-35302570D01*
X93827251Y-35302569D01*
X94146976Y-35205582D01*
X94455654Y-35077723D01*
X94750315Y-34920224D01*
X95028118Y-34734601D01*
X95286390Y-34522643D01*
X95522643Y-34286390D01*
X95734601Y-34028118D01*
X95920224Y-33750315D01*
X96077723Y-33455654D01*
X96205582Y-33146976D01*
X96302569Y-32827251D01*
X96302571Y-32827241D01*
X96302574Y-32827230D01*
X96339775Y-32640202D01*
X96367751Y-32499559D01*
X96400500Y-32167056D01*
X96400500Y-31832944D01*
X96367751Y-31500441D01*
X96343444Y-31378243D01*
X96302574Y-31172769D01*
X96302571Y-31172758D01*
X96302570Y-31172755D01*
X96302569Y-31172749D01*
X96205582Y-30853024D01*
X96077723Y-30544346D01*
X96041252Y-30476114D01*
X95920230Y-30249696D01*
X95920229Y-30249694D01*
X95920224Y-30249685D01*
X95734601Y-29971882D01*
X95522643Y-29713610D01*
X95522642Y-29713609D01*
X95522638Y-29713604D01*
X95286395Y-29477361D01*
X95028123Y-29265403D01*
X95028122Y-29265402D01*
X95028118Y-29265399D01*
X94750315Y-29079776D01*
X94750310Y-29079773D01*
X94750303Y-29079769D01*
X94455661Y-28922280D01*
X94455656Y-28922278D01*
X94446262Y-28918387D01*
X94243769Y-28834511D01*
X94146977Y-28794418D01*
X93827241Y-28697428D01*
X93827230Y-28697425D01*
X93499565Y-28632250D01*
X93499548Y-28632247D01*
X93248108Y-28607483D01*
X93167056Y-28599500D01*
X92832944Y-28599500D01*
X92757982Y-28606883D01*
X92500451Y-28632247D01*
X92500434Y-28632250D01*
X92172769Y-28697425D01*
X92172758Y-28697428D01*
X91853022Y-28794418D01*
X91544343Y-28922278D01*
X91544338Y-28922280D01*
X91249696Y-29079769D01*
X91249678Y-29079780D01*
X90971890Y-29265393D01*
X90971876Y-29265403D01*
X90713604Y-29477361D01*
X90477361Y-29713604D01*
X90265403Y-29971876D01*
X90265393Y-29971890D01*
X90079780Y-30249678D01*
X90079769Y-30249696D01*
X89922280Y-30544338D01*
X89922278Y-30544343D01*
X89794418Y-30853022D01*
X89697428Y-31172758D01*
X89697425Y-31172769D01*
X89632250Y-31500434D01*
X89632247Y-31500451D01*
X89606883Y-31757982D01*
X89599500Y-31832944D01*
X80642027Y-31832944D01*
X81160460Y-31314511D01*
X81165002Y-31306644D01*
X81191293Y-31276665D01*
X81190865Y-31276237D01*
X81233718Y-31233384D01*
X81280489Y-31186613D01*
X81339799Y-31083886D01*
X81370500Y-30969309D01*
X81370500Y-30850691D01*
X81342365Y-30745690D01*
X81344028Y-30675840D01*
X81383191Y-30617978D01*
X81447419Y-30590474D01*
X81462140Y-30589597D01*
X82705886Y-30589597D01*
X82772925Y-30609282D01*
X82793567Y-30625916D01*
X82817237Y-30649586D01*
X82919964Y-30708896D01*
X83034541Y-30739597D01*
X83034544Y-30739597D01*
X83153156Y-30739597D01*
X83153159Y-30739597D01*
X83267736Y-30708896D01*
X83370463Y-30649586D01*
X83454339Y-30565710D01*
X83513649Y-30462983D01*
X83544350Y-30348406D01*
X83544350Y-30229788D01*
X83513649Y-30115211D01*
X83454339Y-30012484D01*
X83370463Y-29928608D01*
X83267736Y-29869298D01*
X83153159Y-29838597D01*
X83034541Y-29838597D01*
X82919964Y-29869298D01*
X82919962Y-29869298D01*
X82919962Y-29869299D01*
X82817237Y-29928608D01*
X82817234Y-29928610D01*
X82793567Y-29952278D01*
X82732244Y-29985763D01*
X82705886Y-29988597D01*
X74021341Y-29988597D01*
X73944913Y-30009075D01*
X73876392Y-30048637D01*
X73876389Y-30048639D01*
X73184539Y-30740489D01*
X73144979Y-30809011D01*
X73144979Y-30809012D01*
X73124500Y-30885439D01*
X73124500Y-30964562D01*
X73130274Y-30986109D01*
X73134500Y-31018205D01*
X73134500Y-31954236D01*
X73114815Y-32021275D01*
X73098181Y-32041917D01*
X73074513Y-32065584D01*
X73074511Y-32065587D01*
X73015930Y-32167052D01*
X73015201Y-32168314D01*
X72984500Y-32282891D01*
X51204829Y-32282891D01*
X51126613Y-32204675D01*
X51023886Y-32145365D01*
X50909309Y-32114664D01*
X50790691Y-32114664D01*
X50676114Y-32145365D01*
X50676112Y-32145365D01*
X50676112Y-32145366D01*
X50573387Y-32204675D01*
X50573384Y-32204677D01*
X50489513Y-32288548D01*
X50489511Y-32288551D01*
X50435471Y-32382151D01*
X50430201Y-32391278D01*
X50399500Y-32505855D01*
X37616499Y-32505855D01*
X37617751Y-32499559D01*
X37627409Y-32401506D01*
X37639091Y-32282891D01*
X37650500Y-32167056D01*
X37650500Y-31832944D01*
X37631679Y-31641848D01*
X37619158Y-31514718D01*
X37618761Y-31510691D01*
X43859500Y-31510691D01*
X43859500Y-31629309D01*
X43890201Y-31743886D01*
X43949511Y-31846613D01*
X44033387Y-31930489D01*
X44136114Y-31989799D01*
X44250691Y-32020500D01*
X44250694Y-32020500D01*
X44369306Y-32020500D01*
X44369309Y-32020500D01*
X44483886Y-31989799D01*
X44586613Y-31930489D01*
X44670489Y-31846613D01*
X44729799Y-31743886D01*
X44760500Y-31629309D01*
X44760500Y-31510691D01*
X44744423Y-31450691D01*
X59589500Y-31450691D01*
X59589500Y-31569309D01*
X59620201Y-31683886D01*
X59679511Y-31786613D01*
X59763387Y-31870489D01*
X59866114Y-31929799D01*
X59980691Y-31960500D01*
X59980694Y-31960500D01*
X60099306Y-31960500D01*
X60099309Y-31960500D01*
X60213886Y-31929799D01*
X60316613Y-31870489D01*
X60400489Y-31786613D01*
X60459799Y-31683886D01*
X60490500Y-31569309D01*
X60490500Y-31450691D01*
X60459799Y-31336114D01*
X60400489Y-31233387D01*
X60316613Y-31149511D01*
X60213886Y-31090201D01*
X60099309Y-31059500D01*
X59980691Y-31059500D01*
X59866114Y-31090201D01*
X59866112Y-31090201D01*
X59866112Y-31090202D01*
X59763387Y-31149511D01*
X59763384Y-31149513D01*
X59679513Y-31233384D01*
X59679511Y-31233387D01*
X59632674Y-31314511D01*
X59620201Y-31336114D01*
X59589500Y-31450691D01*
X44744423Y-31450691D01*
X44729799Y-31396114D01*
X44670489Y-31293387D01*
X44586613Y-31209511D01*
X44483886Y-31150201D01*
X44369309Y-31119500D01*
X44250691Y-31119500D01*
X44136114Y-31150201D01*
X44136112Y-31150201D01*
X44136112Y-31150202D01*
X44033387Y-31209511D01*
X44033384Y-31209513D01*
X43949513Y-31293384D01*
X43949511Y-31293387D01*
X43890201Y-31396114D01*
X43859500Y-31510691D01*
X37618761Y-31510691D01*
X37618277Y-31505781D01*
X37617751Y-31500441D01*
X37593444Y-31378243D01*
X37552574Y-31172769D01*
X37552571Y-31172758D01*
X37552570Y-31172755D01*
X37552569Y-31172749D01*
X37455582Y-30853024D01*
X37346920Y-30590691D01*
X41899500Y-30590691D01*
X41899500Y-30709309D01*
X41930201Y-30823886D01*
X41989511Y-30926613D01*
X42073387Y-31010489D01*
X42176114Y-31069799D01*
X42290691Y-31100500D01*
X42290694Y-31100500D01*
X42409306Y-31100500D01*
X42409309Y-31100500D01*
X42523886Y-31069799D01*
X42626613Y-31010489D01*
X42710489Y-30926613D01*
X42769799Y-30823886D01*
X42800500Y-30709309D01*
X42800500Y-30590691D01*
X42769799Y-30476114D01*
X42749347Y-30440691D01*
X50549500Y-30440691D01*
X50549500Y-30559309D01*
X50580201Y-30673886D01*
X50639511Y-30776613D01*
X50723387Y-30860489D01*
X50826114Y-30919799D01*
X50940691Y-30950500D01*
X50940694Y-30950500D01*
X51059306Y-30950500D01*
X51059309Y-30950500D01*
X51173886Y-30919799D01*
X51276613Y-30860489D01*
X51360489Y-30776613D01*
X51419799Y-30673886D01*
X51450500Y-30559309D01*
X51450500Y-30440691D01*
X51441034Y-30405363D01*
X51442697Y-30335517D01*
X51481859Y-30277655D01*
X51546087Y-30250150D01*
X51614989Y-30261736D01*
X51648490Y-30285592D01*
X51723387Y-30360489D01*
X51826114Y-30419799D01*
X51940691Y-30450500D01*
X51940694Y-30450500D01*
X52059306Y-30450500D01*
X52059309Y-30450500D01*
X52173886Y-30419799D01*
X52276613Y-30360489D01*
X52296411Y-30340691D01*
X62069500Y-30340691D01*
X62069500Y-30459309D01*
X62100201Y-30573886D01*
X62159511Y-30676613D01*
X62243387Y-30760489D01*
X62346114Y-30819799D01*
X62460691Y-30850500D01*
X62460694Y-30850500D01*
X62579306Y-30850500D01*
X62579309Y-30850500D01*
X62693886Y-30819799D01*
X62796613Y-30760489D01*
X62880489Y-30676613D01*
X62939799Y-30573886D01*
X62970500Y-30459309D01*
X62970500Y-30340691D01*
X62939799Y-30226114D01*
X62880489Y-30123387D01*
X62796613Y-30039511D01*
X62693886Y-29980201D01*
X62579309Y-29949500D01*
X62460691Y-29949500D01*
X62346114Y-29980201D01*
X62346112Y-29980201D01*
X62346112Y-29980202D01*
X62243387Y-30039511D01*
X62243384Y-30039513D01*
X62159513Y-30123384D01*
X62159511Y-30123387D01*
X62100201Y-30226114D01*
X62069500Y-30340691D01*
X52296411Y-30340691D01*
X52360489Y-30276613D01*
X52419799Y-30173886D01*
X52450500Y-30059309D01*
X52450500Y-29940691D01*
X52419799Y-29826114D01*
X52360489Y-29723387D01*
X52276613Y-29639511D01*
X52173886Y-29580201D01*
X52059309Y-29549500D01*
X51940691Y-29549500D01*
X51826114Y-29580201D01*
X51826112Y-29580201D01*
X51826112Y-29580202D01*
X51723387Y-29639511D01*
X51723384Y-29639513D01*
X51639513Y-29723384D01*
X51639511Y-29723387D01*
X51580201Y-29826114D01*
X51549500Y-29940691D01*
X51549500Y-29940693D01*
X51549500Y-30059310D01*
X51558965Y-30094634D01*
X51557302Y-30164483D01*
X51518139Y-30222346D01*
X51453910Y-30249849D01*
X51385008Y-30238262D01*
X51351509Y-30214407D01*
X51276615Y-30139513D01*
X51276613Y-30139511D01*
X51173886Y-30080201D01*
X51059309Y-30049500D01*
X50940691Y-30049500D01*
X50826114Y-30080201D01*
X50826112Y-30080201D01*
X50826112Y-30080202D01*
X50723387Y-30139511D01*
X50723384Y-30139513D01*
X50639513Y-30223384D01*
X50639511Y-30223387D01*
X50608780Y-30276615D01*
X50580201Y-30326114D01*
X50549500Y-30440691D01*
X42749347Y-30440691D01*
X42710489Y-30373387D01*
X42626613Y-30289511D01*
X42523886Y-30230201D01*
X42409309Y-30199500D01*
X42290691Y-30199500D01*
X42176114Y-30230201D01*
X42176112Y-30230201D01*
X42176112Y-30230202D01*
X42073387Y-30289511D01*
X42073384Y-30289513D01*
X41989513Y-30373384D01*
X41989511Y-30373387D01*
X41950652Y-30440693D01*
X41930201Y-30476114D01*
X41899500Y-30590691D01*
X37346920Y-30590691D01*
X37327723Y-30544346D01*
X37291252Y-30476114D01*
X37170230Y-30249696D01*
X37170229Y-30249694D01*
X37170224Y-30249685D01*
X36984601Y-29971882D01*
X36772643Y-29713610D01*
X36772642Y-29713609D01*
X36772638Y-29713604D01*
X36536395Y-29477361D01*
X36278123Y-29265403D01*
X36278122Y-29265402D01*
X36278118Y-29265399D01*
X36204024Y-29215891D01*
X36083997Y-29135691D01*
X73364500Y-29135691D01*
X73364500Y-29254309D01*
X73395201Y-29368886D01*
X73454511Y-29471613D01*
X73538387Y-29555489D01*
X73641114Y-29614799D01*
X73755691Y-29645500D01*
X73755694Y-29645500D01*
X73874306Y-29645500D01*
X73874309Y-29645500D01*
X73988886Y-29614799D01*
X74091613Y-29555489D01*
X74175489Y-29471613D01*
X74234799Y-29368886D01*
X74265500Y-29254309D01*
X74265500Y-29135691D01*
X74251678Y-29084108D01*
X74524500Y-29084108D01*
X74524500Y-29215891D01*
X74558608Y-29343187D01*
X74591554Y-29400250D01*
X74624500Y-29457314D01*
X74717686Y-29550500D01*
X74831814Y-29616392D01*
X74959108Y-29650500D01*
X74959110Y-29650500D01*
X75090890Y-29650500D01*
X75090892Y-29650500D01*
X75218186Y-29616392D01*
X75332314Y-29550500D01*
X75425500Y-29457314D01*
X75491392Y-29343186D01*
X75525500Y-29215892D01*
X75525500Y-29084108D01*
X75491392Y-28956814D01*
X75425500Y-28842686D01*
X75332314Y-28749500D01*
X75275250Y-28716554D01*
X75218187Y-28683608D01*
X75154539Y-28666554D01*
X75090892Y-28649500D01*
X74959108Y-28649500D01*
X74831812Y-28683608D01*
X74717686Y-28749500D01*
X74717683Y-28749502D01*
X74624502Y-28842683D01*
X74624500Y-28842686D01*
X74558608Y-28956812D01*
X74524500Y-29084108D01*
X74251678Y-29084108D01*
X74234799Y-29021114D01*
X74175489Y-28918387D01*
X74091613Y-28834511D01*
X73988886Y-28775201D01*
X73874309Y-28744500D01*
X73755691Y-28744500D01*
X73641114Y-28775201D01*
X73641112Y-28775201D01*
X73641112Y-28775202D01*
X73538387Y-28834511D01*
X73538384Y-28834513D01*
X73454513Y-28918384D01*
X73454511Y-28918387D01*
X73395201Y-29021114D01*
X73364500Y-29135691D01*
X36083997Y-29135691D01*
X36000321Y-29079780D01*
X36000320Y-29079779D01*
X36000315Y-29079776D01*
X36000310Y-29079773D01*
X36000303Y-29079769D01*
X35705661Y-28922280D01*
X35705656Y-28922278D01*
X35696262Y-28918387D01*
X35493769Y-28834511D01*
X35396977Y-28794418D01*
X35077241Y-28697428D01*
X35077230Y-28697425D01*
X34749565Y-28632250D01*
X34749548Y-28632247D01*
X34498108Y-28607483D01*
X34417056Y-28599500D01*
X34082944Y-28599500D01*
X34007982Y-28606883D01*
X33750451Y-28632247D01*
X33750434Y-28632250D01*
X33422769Y-28697425D01*
X33422758Y-28697428D01*
X33103022Y-28794418D01*
X32794343Y-28922278D01*
X32794338Y-28922280D01*
X32499696Y-29079769D01*
X32499678Y-29079780D01*
X32221890Y-29265393D01*
X32221876Y-29265403D01*
X31963604Y-29477361D01*
X31727361Y-29713604D01*
X31515403Y-29971876D01*
X31515393Y-29971890D01*
X31329780Y-30249678D01*
X31329769Y-30249696D01*
X31172280Y-30544338D01*
X31172278Y-30544343D01*
X31044418Y-30853022D01*
X30947428Y-31172758D01*
X30947425Y-31172769D01*
X30882250Y-31500434D01*
X30882247Y-31500451D01*
X30856883Y-31757982D01*
X30849500Y-31832944D01*
X29770720Y-31832944D01*
X29692055Y-27015840D01*
X29710642Y-26948489D01*
X29762692Y-26901878D01*
X29815856Y-26889816D01*
X76992501Y-26820854D01*
X77059568Y-26840441D01*
X77105400Y-26893178D01*
X77115445Y-26962322D01*
X77086513Y-27025920D01*
X77080363Y-27032535D01*
X77014511Y-27098387D01*
X76955201Y-27201114D01*
X76924500Y-27315691D01*
X76924500Y-27434309D01*
X76955201Y-27548886D01*
X77014511Y-27651613D01*
X77098387Y-27735489D01*
X77201114Y-27794799D01*
X77315691Y-27825500D01*
X77315694Y-27825500D01*
X77434306Y-27825500D01*
X77434309Y-27825500D01*
X77548886Y-27794799D01*
X77651613Y-27735489D01*
X77735489Y-27651613D01*
X77794799Y-27548886D01*
X77825500Y-27434309D01*
X77825500Y-27315691D01*
X77794799Y-27201114D01*
X77735489Y-27098387D01*
X77668521Y-27031419D01*
X77635036Y-26970096D01*
X77640020Y-26900404D01*
X77681892Y-26844471D01*
X77747356Y-26820054D01*
X77756012Y-26819738D01*
X97975022Y-26790182D01*
X98042088Y-26809769D01*
G37*
G04 #@! TD.AperFunction*
M02*
