M48
; DRILL file {KiCad 9.0.0} date 2025-07-23T17:32:24-0400
; FORMAT={-:-/ absolute / metric / decimal}
; #@! TF.CreationDate,2025-07-23T17:32:24-04:00
; #@! TF.GenerationSoftware,Kicad,Pcbnew,9.0.0
; #@! TF.FileFunction,Plated,1,6,PTH
FMAT,2
METRIC
; #@! TA.AperFunction,Plated,PTH,ViaDrill
T1C0.300
; #@! TA.AperFunction,Plated,PTH,ViaDrill
T2C0.350
; #@! TA.AperFunction,Plated,PTH,ComponentDrill
T3C0.500
; #@! TA.AperFunction,Plated,PTH,ComponentDrill
T4C0.787
; #@! TA.AperFunction,Plated,PTH,ViaDrill
T5C0.800
; #@! TA.AperFunction,Plated,PTH,ComponentDrill
T6C0.950
; #@! TA.AperFunction,Plated,PTH,ComponentDrill
T7C1.000
; #@! TA.AperFunction,Plated,PTH,ComponentDrill
T8C1.700
; #@! TA.AperFunction,Plated,PTH,ComponentDrill
T9C3.200
; #@! TA.AperFunction,Plated,PTH,ComponentDrill
T10C6.100
%
G90
G05
T1
X48.7Y-69.06
X49.72Y-46.495
X50.72Y-46.495
X51.72Y-46.495
X54.3Y-65.14
X75.025Y-29.15
T2
X37.275Y-74.8
X37.275Y-75.425
X37.275Y-76.05
X37.275Y-77.55
X37.275Y-78.175
X37.275Y-78.8
X37.75Y-56.175
X37.9Y-74.8
X37.9Y-75.425
X37.9Y-76.05
X37.9Y-77.55
X37.9Y-78.175
X37.9Y-78.8
X38.525Y-74.8
X38.525Y-75.425
X38.525Y-76.05
X38.525Y-77.55
X38.525Y-78.175
X38.525Y-78.8
X39.52Y-29.46
X39.575Y-65.975
X42.35Y-30.65
X43.32Y-54.78
X44.09Y-53.89
X44.31Y-31.57
X46.95Y-65.85
X46.994Y-60.579
X46.994Y-62.35
X47.275Y-47.25
X47.79Y-48.47
X48.16Y-64.21
X49.15Y-67.525
X49.2Y-37.9
X49.495Y-51.61
X50.089Y-35.204
X50.492Y-34.046
X50.784Y-61.722
X50.85Y-32.565
X50.85Y-40.1
X51.0Y-30.5
X51.2Y-56.325
X51.975Y-66.675
X52.0Y-30.0
X52.06Y-62.57
X52.898Y-57.85
X53.15Y-81.25
X53.15Y-82.0
X53.2Y-62.71
X53.85Y-82.0
X53.9Y-73.0
X54.6Y-73.0
X54.675Y-40.05
X54.75Y-72.25
X54.78Y-59.28
X54.8Y-47.575
X55.13Y-33.06
X55.45Y-72.25
X55.5Y-71.5
X56.0Y-70.75
X56.15Y-72.25
X56.2Y-71.5
X56.5Y-70.0
X56.7Y-70.75
X56.85Y-72.25
X56.9Y-71.5
X57.432Y-28.975
X57.5Y-36.595
X57.55Y-72.25
X58.0Y-38.5
X58.0Y-39.25
X58.0Y-40.0
X58.0Y-40.75
X58.0Y-41.5
X58.0Y-42.25
X58.0Y-43.0
X58.0Y-43.75
X58.0Y-44.5
X58.0Y-45.25
X58.0Y-46.0
X58.0Y-46.75
X58.0Y-47.5
X58.0Y-48.25
X58.0Y-50.5
X58.0Y-51.25
X58.0Y-52.0
X58.0Y-52.75
X58.0Y-53.5
X58.0Y-54.25
X58.0Y-55.0
X58.0Y-55.75
X58.0Y-56.5
X58.0Y-57.25
X58.0Y-61.0
X58.4Y-68.5
X58.45Y-66.25
X58.65Y-67.75
X58.7Y-38.5
X58.7Y-39.25
X58.7Y-40.0
X58.7Y-40.75
X58.7Y-41.5
X58.7Y-42.25
X58.7Y-43.0
X58.7Y-43.75
X58.7Y-44.5
X58.7Y-45.25
X58.7Y-46.0
X58.7Y-46.75
X58.7Y-47.5
X58.7Y-48.25
X58.7Y-50.5
X58.7Y-51.25
X58.7Y-52.0
X58.7Y-52.75
X58.7Y-53.5
X58.7Y-54.25
X58.7Y-55.0
X58.7Y-55.75
X58.7Y-56.5
X58.7Y-57.25
X58.7Y-61.0
X58.7Y-61.75
X58.7Y-62.5
X58.7Y-63.25
X58.7Y-64.0
X58.7Y-64.75
X58.7Y-65.5
X58.85Y-69.25
X58.9Y-67.0
X59.1Y-68.5
X59.15Y-66.25
X59.3Y-70.0
X59.35Y-67.75
X59.4Y-38.5
X59.4Y-39.25
X59.4Y-40.0
X59.4Y-40.75
X59.4Y-41.5
X59.4Y-42.25
X59.4Y-43.0
X59.4Y-43.75
X59.4Y-44.5
X59.4Y-45.25
X59.4Y-46.0
X59.4Y-46.75
X59.4Y-47.5
X59.4Y-48.25
X59.4Y-50.5
X59.4Y-51.25
X59.4Y-52.0
X59.4Y-52.75
X59.4Y-53.5
X59.4Y-54.25
X59.4Y-55.0
X59.4Y-55.75
X59.4Y-56.5
X59.4Y-57.25
X59.4Y-61.0
X59.4Y-61.75
X59.4Y-62.5
X59.4Y-63.25
X59.4Y-64.0
X59.4Y-64.75
X59.4Y-65.5
X59.55Y-69.25
X59.6Y-67.0
X59.8Y-68.5
X59.85Y-66.25
X60.0Y-70.0
X60.04Y-31.51
X60.05Y-67.75
X60.1Y-38.5
X60.1Y-39.25
X60.1Y-40.0
X60.1Y-40.75
X60.1Y-41.5
X60.1Y-42.25
X60.1Y-43.0
X60.1Y-43.75
X60.1Y-44.5
X60.1Y-45.25
X60.1Y-46.0
X60.1Y-46.75
X60.1Y-47.5
X60.1Y-48.25
X60.1Y-50.5
X60.1Y-51.25
X60.1Y-52.0
X60.1Y-52.75
X60.1Y-53.5
X60.1Y-54.25
X60.1Y-55.0
X60.1Y-55.75
X60.1Y-56.5
X60.1Y-57.25
X60.1Y-61.0
X60.1Y-61.75
X60.1Y-62.5
X60.1Y-63.25
X60.1Y-64.0
X60.1Y-64.75
X60.1Y-65.5
X60.15Y-32.78
X60.2Y-70.75
X60.2Y-82.25
X60.25Y-69.25
X60.3Y-67.0
X60.5Y-68.5
X60.5Y-73.0
X60.55Y-66.25
X60.7Y-70.0
X60.75Y-67.75
X60.8Y-38.5
X60.8Y-39.25
X60.8Y-40.0
X60.8Y-40.75
X60.8Y-41.5
X60.8Y-42.25
X60.8Y-43.0
X60.8Y-43.75
X60.8Y-44.5
X60.8Y-45.25
X60.8Y-46.0
X60.8Y-46.75
X60.8Y-47.5
X60.8Y-48.25
X60.8Y-50.5
X60.8Y-51.25
X60.8Y-52.0
X60.8Y-52.75
X60.8Y-53.5
X60.8Y-54.25
X60.8Y-55.0
X60.8Y-55.75
X60.8Y-56.5
X60.8Y-57.25
X60.8Y-61.0
X60.8Y-61.75
X60.8Y-62.5
X60.8Y-63.25
X60.8Y-64.0
X60.8Y-64.75
X60.8Y-65.5
X60.9Y-70.75
X60.9Y-82.25
X60.95Y-69.25
X61.0Y-67.0
X61.2Y-68.5
X61.2Y-73.0
X61.2Y-73.75
X61.25Y-66.25
X61.4Y-70.0
X61.45Y-67.75
X61.5Y-38.5
X61.5Y-39.25
X61.5Y-40.0
X61.5Y-40.75
X61.5Y-41.5
X61.5Y-42.25
X61.5Y-43.0
X61.5Y-43.75
X61.5Y-44.5
X61.5Y-45.25
X61.5Y-46.0
X61.5Y-46.75
X61.5Y-47.5
X61.5Y-48.25
X61.5Y-50.5
X61.5Y-51.25
X61.5Y-52.0
X61.5Y-52.75
X61.5Y-53.5
X61.5Y-54.25
X61.5Y-55.0
X61.5Y-55.75
X61.5Y-56.5
X61.5Y-57.25
X61.5Y-61.0
X61.5Y-61.75
X61.5Y-62.5
X61.5Y-63.25
X61.5Y-64.0
X61.5Y-64.75
X61.5Y-65.5
X61.6Y-70.75
X61.65Y-69.25
X61.7Y-67.0
X61.9Y-68.5
X61.9Y-73.0
X61.9Y-73.75
X61.95Y-66.25
X62.1Y-70.0
X62.15Y-67.75
X62.2Y-38.5
X62.2Y-39.25
X62.2Y-40.0
X62.2Y-40.75
X62.2Y-41.5
X62.2Y-42.25
X62.2Y-43.0
X62.2Y-43.75
X62.2Y-44.5
X62.2Y-45.25
X62.2Y-46.0
X62.2Y-46.75
X62.2Y-47.5
X62.2Y-48.25
X62.2Y-50.5
X62.2Y-51.25
X62.2Y-52.0
X62.2Y-52.75
X62.2Y-53.5
X62.2Y-54.25
X62.2Y-55.0
X62.2Y-55.75
X62.2Y-56.5
X62.2Y-57.25
X62.2Y-61.0
X62.2Y-61.75
X62.2Y-62.5
X62.2Y-63.25
X62.2Y-64.0
X62.2Y-64.75
X62.2Y-65.5
X62.3Y-70.75
X62.35Y-69.25
X62.35Y-74.5
X62.4Y-67.0
X62.52Y-30.4
X62.6Y-68.5
X62.6Y-73.0
X62.6Y-73.75
X62.65Y-66.25
X62.8Y-70.0
X62.8Y-75.25
X62.85Y-67.75
X62.9Y-38.5
X62.9Y-39.25
X62.9Y-40.0
X62.9Y-40.75
X62.9Y-41.5
X62.9Y-42.25
X62.9Y-43.0
X62.9Y-43.75
X62.9Y-44.5
X62.9Y-45.25
X62.9Y-46.0
X62.9Y-46.75
X62.9Y-47.5
X62.9Y-48.25
X62.9Y-50.5
X62.9Y-51.25
X62.9Y-52.0
X62.9Y-52.75
X62.9Y-53.5
X62.9Y-54.25
X62.9Y-55.0
X62.9Y-55.75
X62.9Y-56.5
X62.9Y-57.25
X62.9Y-61.0
X62.9Y-61.75
X62.9Y-62.5
X62.9Y-63.25
X62.9Y-64.0
X62.9Y-64.75
X62.9Y-65.5
X63.0Y-70.75
X63.05Y-69.25
X63.05Y-74.5
X63.1Y-67.0
X63.3Y-68.5
X63.3Y-73.0
X63.3Y-73.75
X63.35Y-66.25
X63.5Y-70.0
X63.5Y-75.25
X63.55Y-67.75
X63.6Y-38.5
X63.6Y-39.25
X63.6Y-40.0
X63.6Y-40.75
X63.6Y-41.5
X63.6Y-42.25
X63.6Y-43.0
X63.6Y-43.75
X63.6Y-44.5
X63.6Y-45.25
X63.6Y-46.0
X63.6Y-46.75
X63.6Y-47.5
X63.6Y-48.25
X63.6Y-50.5
X63.6Y-51.25
X63.6Y-52.0
X63.6Y-52.75
X63.6Y-53.5
X63.6Y-54.25
X63.6Y-55.0
X63.6Y-55.75
X63.6Y-56.5
X63.6Y-57.25
X63.6Y-61.0
X63.6Y-61.75
X63.6Y-62.5
X63.6Y-63.25
X63.6Y-64.0
X63.6Y-64.75
X63.6Y-65.5
X63.7Y-70.75
X63.75Y-69.25
X63.75Y-74.5
X63.8Y-67.0
X64.0Y-68.5
X64.0Y-73.0
X64.0Y-73.75
X64.05Y-66.25
X64.2Y-70.0
X64.25Y-67.75
X64.3Y-38.5
X64.3Y-39.25
X64.3Y-40.0
X64.3Y-40.75
X64.3Y-41.5
X64.3Y-42.25
X64.3Y-43.0
X64.3Y-43.75
X64.3Y-44.5
X64.3Y-45.25
X64.3Y-46.0
X64.3Y-46.75
X64.3Y-47.5
X64.3Y-48.25
X64.3Y-50.5
X64.3Y-51.25
X64.3Y-52.0
X64.3Y-52.75
X64.3Y-53.5
X64.3Y-54.25
X64.3Y-55.0
X64.3Y-55.75
X64.3Y-56.5
X64.3Y-57.25
X64.3Y-61.0
X64.3Y-61.75
X64.3Y-62.5
X64.3Y-63.25
X64.3Y-64.0
X64.3Y-64.75
X64.3Y-65.5
X64.4Y-70.75
X64.45Y-69.25
X64.5Y-67.0
X64.7Y-68.5
X64.75Y-66.25
X64.9Y-70.0
X64.95Y-67.75
X65.0Y-38.5
X65.0Y-39.25
X65.0Y-40.0
X65.0Y-40.75
X65.0Y-41.5
X65.0Y-42.25
X65.0Y-43.0
X65.0Y-43.75
X65.0Y-44.5
X65.0Y-45.25
X65.0Y-46.0
X65.0Y-46.75
X65.0Y-47.5
X65.0Y-48.25
X65.0Y-50.5
X65.0Y-51.25
X65.0Y-52.0
X65.0Y-52.75
X65.0Y-53.5
X65.0Y-54.25
X65.0Y-55.0
X65.0Y-55.75
X65.0Y-56.5
X65.0Y-57.25
X65.0Y-61.0
X65.0Y-61.75
X65.0Y-62.5
X65.0Y-63.25
X65.0Y-64.0
X65.0Y-64.75
X65.0Y-65.5
X65.1Y-70.75
X65.15Y-69.25
X65.2Y-67.0
X65.4Y-68.5
X65.45Y-66.25
X65.6Y-70.0
X65.65Y-67.75
X65.7Y-38.5
X65.7Y-39.25
X65.7Y-40.0
X65.7Y-40.75
X65.7Y-41.5
X65.7Y-42.25
X65.7Y-43.0
X65.7Y-43.75
X65.7Y-44.5
X65.7Y-45.25
X65.7Y-46.0
X65.7Y-46.75
X65.7Y-47.5
X65.7Y-48.25
X65.7Y-50.5
X65.7Y-51.25
X65.7Y-52.0
X65.7Y-52.75
X65.7Y-53.5
X65.7Y-54.25
X65.7Y-55.0
X65.7Y-55.75
X65.7Y-56.5
X65.7Y-57.25
X65.7Y-61.0
X65.7Y-61.75
X65.7Y-62.5
X65.7Y-63.25
X65.7Y-64.0
X65.7Y-64.75
X65.7Y-65.5
X65.85Y-69.25
X65.9Y-67.0
X66.1Y-68.5
X66.15Y-66.25
X66.35Y-67.75
X66.4Y-38.5
X66.4Y-39.25
X66.4Y-40.0
X66.4Y-40.75
X66.4Y-41.5
X66.4Y-42.25
X66.4Y-43.0
X66.4Y-43.75
X66.4Y-44.5
X66.4Y-45.25
X66.4Y-46.0
X66.4Y-46.75
X66.4Y-47.5
X66.4Y-48.25
X66.4Y-50.5
X66.4Y-51.25
X66.4Y-52.0
X66.4Y-52.75
X66.4Y-53.5
X66.4Y-54.25
X66.4Y-55.0
X66.4Y-55.75
X66.4Y-56.5
X66.4Y-57.25
X66.4Y-61.0
X66.4Y-61.75
X66.4Y-62.5
X66.4Y-63.25
X66.4Y-64.0
X66.4Y-64.75
X66.4Y-65.5
X66.6Y-67.0
X68.5Y-62.25
X68.5Y-63.0
X68.5Y-63.75
X68.5Y-64.5
X68.5Y-65.25
X68.5Y-66.0
X68.5Y-66.75
X68.5Y-67.5
X68.5Y-68.25
X68.75Y-39.0
X68.75Y-39.75
X68.75Y-40.5
X68.75Y-41.25
X68.75Y-42.0
X68.75Y-42.75
X68.75Y-43.5
X68.75Y-44.25
X68.75Y-45.0
X68.75Y-45.75
X68.75Y-46.5
X68.75Y-50.25
X68.75Y-51.0
X68.75Y-51.75
X68.75Y-52.5
X68.75Y-53.25
X68.75Y-54.0
X68.75Y-54.75
X68.75Y-55.5
X68.75Y-56.25
X68.75Y-57.0
X68.75Y-60.75
X68.75Y-61.5
X69.2Y-62.25
X69.2Y-63.0
X69.2Y-63.75
X69.2Y-64.5
X69.2Y-65.25
X69.2Y-66.0
X69.2Y-66.75
X69.2Y-67.5
X69.2Y-68.25
X69.45Y-39.0
X69.45Y-39.75
X69.45Y-40.5
X69.45Y-41.25
X69.45Y-42.0
X69.45Y-42.75
X69.45Y-43.5
X69.45Y-44.25
X69.45Y-45.0
X69.45Y-45.75
X69.45Y-46.5
X69.45Y-50.25
X69.45Y-51.0
X69.45Y-51.75
X69.45Y-52.5
X69.45Y-53.25
X69.45Y-54.0
X69.45Y-54.75
X69.45Y-55.5
X69.45Y-56.25
X69.45Y-57.0
X69.45Y-60.75
X69.45Y-61.5
X69.9Y-62.25
X69.9Y-63.0
X69.9Y-63.75
X69.9Y-64.5
X69.9Y-65.25
X69.9Y-66.0
X69.9Y-66.75
X69.9Y-67.5
X69.9Y-68.25
X70.15Y-39.0
X70.15Y-39.75
X70.15Y-40.5
X70.15Y-41.25
X70.15Y-42.0
X70.15Y-42.75
X70.15Y-43.5
X70.15Y-44.25
X70.15Y-45.0
X70.15Y-45.75
X70.15Y-46.5
X70.15Y-50.25
X70.15Y-51.0
X70.15Y-51.75
X70.15Y-52.5
X70.15Y-53.25
X70.15Y-54.0
X70.15Y-54.75
X70.15Y-55.5
X70.15Y-56.25
X70.15Y-57.0
X70.15Y-60.75
X70.15Y-61.5
X70.21Y-33.19
X70.6Y-62.25
X70.6Y-63.0
X70.6Y-63.75
X70.6Y-64.5
X70.6Y-65.25
X70.6Y-66.0
X70.6Y-66.75
X70.6Y-67.5
X70.6Y-68.25
X70.85Y-39.0
X70.85Y-39.75
X70.85Y-40.5
X70.85Y-41.25
X70.85Y-42.0
X70.85Y-42.75
X70.85Y-43.5
X70.85Y-44.25
X70.85Y-45.0
X70.85Y-45.75
X70.85Y-46.5
X70.85Y-50.25
X70.85Y-51.0
X70.85Y-51.75
X70.85Y-52.5
X70.85Y-53.25
X70.85Y-54.0
X70.85Y-54.75
X70.85Y-55.5
X70.85Y-56.25
X70.85Y-57.0
X70.85Y-61.5
X71.3Y-62.25
X71.3Y-63.0
X71.3Y-63.75
X71.3Y-64.5
X71.3Y-65.25
X71.3Y-66.0
X71.3Y-66.75
X71.3Y-67.5
X71.3Y-68.25
X71.55Y-39.0
X71.55Y-39.75
X71.55Y-40.5
X71.55Y-41.25
X71.55Y-42.0
X71.55Y-42.75
X71.55Y-43.5
X71.55Y-44.25
X71.55Y-45.0
X71.55Y-45.75
X71.55Y-46.5
X71.55Y-50.25
X71.55Y-51.0
X71.55Y-51.75
X71.55Y-52.5
X71.55Y-53.25
X71.55Y-54.0
X71.55Y-54.75
X71.55Y-55.5
X71.55Y-56.25
X71.55Y-57.0
X71.55Y-61.5
X72.0Y-62.25
X72.0Y-63.0
X72.0Y-63.75
X72.0Y-64.5
X72.0Y-65.25
X72.0Y-66.0
X72.0Y-66.75
X72.0Y-67.5
X72.0Y-68.25
X72.25Y-39.0
X72.25Y-39.75
X72.25Y-40.5
X72.25Y-41.25
X72.25Y-42.0
X72.25Y-42.75
X72.25Y-43.5
X72.25Y-44.25
X72.25Y-45.0
X72.25Y-45.75
X72.25Y-46.5
X72.25Y-47.25
X72.25Y-50.25
X72.25Y-51.0
X72.25Y-51.75
X72.25Y-52.5
X72.25Y-53.25
X72.25Y-54.0
X72.25Y-54.75
X72.25Y-55.5
X72.25Y-56.25
X72.25Y-57.0
X72.25Y-57.75
X72.25Y-60.75
X72.25Y-61.5
X72.5Y-36.0
X72.5Y-36.75
X72.5Y-37.5
X72.5Y-38.25
X72.7Y-62.25
X72.7Y-63.0
X72.7Y-63.75
X72.7Y-64.5
X72.7Y-65.25
X72.7Y-66.0
X72.7Y-66.75
X72.7Y-67.5
X72.7Y-68.25
X72.7Y-69.0
X72.95Y-39.0
X72.95Y-39.75
X72.95Y-40.5
X72.95Y-41.25
X72.95Y-42.0
X72.95Y-42.75
X72.95Y-43.5
X72.95Y-44.25
X72.95Y-45.0
X72.95Y-45.75
X72.95Y-46.5
X72.95Y-47.25
X72.95Y-49.5
X72.95Y-50.25
X72.95Y-51.0
X72.95Y-51.75
X72.95Y-52.5
X72.95Y-53.25
X72.95Y-54.0
X72.95Y-54.75
X72.95Y-55.5
X72.95Y-56.25
X72.95Y-57.0
X72.95Y-57.75
X72.95Y-58.5
X72.95Y-59.25
X72.95Y-60.0
X72.95Y-60.75
X72.95Y-61.5
X73.2Y-36.0
X73.2Y-36.75
X73.2Y-37.5
X73.2Y-38.25
X73.4Y-62.25
X73.4Y-63.0
X73.4Y-63.75
X73.4Y-64.5
X73.4Y-65.25
X73.4Y-66.0
X73.4Y-66.75
X73.4Y-67.5
X73.4Y-68.25
X73.4Y-69.0
X73.4Y-69.75
X73.435Y-32.342
X73.65Y-39.0
X73.65Y-39.75
X73.65Y-40.5
X73.65Y-41.25
X73.65Y-42.0
X73.65Y-42.75
X73.65Y-43.5
X73.65Y-44.25
X73.65Y-45.0
X73.65Y-45.75
X73.65Y-46.5
X73.65Y-47.25
X73.65Y-48.0
X73.65Y-48.75
X73.65Y-49.5
X73.65Y-50.25
X73.65Y-51.0
X73.65Y-51.75
X73.65Y-52.5
X73.65Y-53.25
X73.65Y-54.0
X73.65Y-54.75
X73.65Y-55.5
X73.65Y-56.25
X73.65Y-57.0
X73.65Y-57.75
X73.65Y-58.5
X73.65Y-59.25
X73.65Y-60.0
X73.65Y-60.75
X73.65Y-61.5
X73.815Y-29.195
X73.9Y-36.0
X73.9Y-36.75
X73.9Y-37.5
X73.9Y-38.25
X74.1Y-62.25
X74.1Y-63.0
X74.1Y-63.75
X74.1Y-64.5
X74.1Y-65.25
X74.1Y-66.0
X74.1Y-66.75
X74.1Y-67.5
X74.1Y-68.25
X74.1Y-69.0
X74.1Y-69.75
X74.35Y-39.0
X74.35Y-39.75
X74.35Y-40.5
X74.35Y-41.25
X74.35Y-42.0
X74.35Y-42.75
X74.35Y-43.5
X74.35Y-44.25
X74.35Y-45.0
X74.35Y-45.75
X74.35Y-46.5
X74.35Y-47.25
X74.35Y-48.0
X74.35Y-48.75
X74.35Y-49.5
X74.35Y-50.25
X74.35Y-51.0
X74.35Y-51.75
X74.35Y-52.5
X74.35Y-53.25
X74.35Y-54.0
X74.35Y-54.75
X74.35Y-55.5
X74.35Y-56.25
X74.35Y-57.0
X74.35Y-57.75
X74.35Y-58.5
X74.35Y-59.25
X74.35Y-60.0
X74.35Y-60.75
X74.35Y-61.5
X74.6Y-36.0
X74.6Y-36.75
X74.6Y-37.5
X74.6Y-38.25
X74.705Y-32.342
X74.8Y-62.25
X74.8Y-63.0
X74.8Y-63.75
X74.8Y-64.5
X74.8Y-65.25
X74.8Y-66.0
X74.8Y-66.75
X74.8Y-67.5
X74.8Y-68.25
X74.8Y-69.0
X74.8Y-69.75
X75.05Y-39.0
X75.05Y-39.75
X75.05Y-40.5
X75.05Y-41.25
X75.05Y-42.0
X75.05Y-42.75
X75.05Y-43.5
X75.05Y-44.25
X75.05Y-45.0
X75.05Y-45.75
X75.05Y-46.5
X75.05Y-47.25
X75.05Y-48.0
X75.05Y-48.75
X75.05Y-49.5
X75.05Y-50.25
X75.05Y-51.0
X75.05Y-51.75
X75.05Y-52.5
X75.05Y-53.25
X75.05Y-54.0
X75.05Y-54.75
X75.05Y-55.5
X75.05Y-56.25
X75.05Y-57.0
X75.05Y-57.75
X75.05Y-58.5
X75.05Y-59.25
X75.05Y-60.0
X75.05Y-60.75
X75.05Y-61.5
X75.3Y-36.0
X75.3Y-36.75
X75.3Y-37.5
X75.3Y-38.25
X75.5Y-62.25
X75.5Y-63.0
X75.5Y-63.75
X75.5Y-64.5
X75.5Y-65.25
X75.5Y-66.0
X75.5Y-66.75
X75.5Y-67.5
X75.5Y-68.25
X75.5Y-69.0
X75.5Y-69.75
X75.75Y-39.0
X75.75Y-39.75
X75.75Y-40.5
X75.75Y-41.25
X75.75Y-42.0
X75.75Y-42.75
X75.75Y-43.5
X75.75Y-44.25
X75.75Y-45.0
X75.75Y-45.75
X75.75Y-46.5
X75.75Y-47.25
X75.75Y-48.0
X75.75Y-48.75
X75.75Y-49.5
X75.75Y-50.25
X75.75Y-51.0
X75.75Y-51.75
X75.75Y-52.5
X75.75Y-53.25
X75.75Y-54.0
X75.75Y-54.75
X75.75Y-55.5
X75.75Y-56.25
X75.75Y-57.0
X75.75Y-57.75
X75.75Y-58.5
X75.75Y-59.25
X75.75Y-60.0
X75.75Y-60.75
X75.75Y-61.5
X75.975Y-32.342
X76.0Y-36.0
X76.0Y-36.75
X76.0Y-37.5
X76.0Y-38.25
X76.2Y-62.25
X76.2Y-63.0
X76.2Y-63.75
X76.2Y-64.5
X76.2Y-65.25
X76.2Y-66.0
X76.2Y-66.75
X76.2Y-67.5
X76.2Y-68.25
X76.2Y-69.0
X76.2Y-69.75
X76.45Y-39.0
X76.45Y-39.75
X76.45Y-40.5
X76.45Y-41.25
X76.45Y-42.0
X76.45Y-42.75
X76.45Y-43.5
X76.45Y-44.25
X76.45Y-45.0
X76.45Y-45.75
X76.45Y-46.5
X76.45Y-47.25
X76.45Y-48.0
X76.45Y-48.75
X76.45Y-49.5
X76.45Y-50.25
X76.45Y-51.0
X76.45Y-51.75
X76.45Y-52.5
X76.45Y-53.25
X76.45Y-54.0
X76.45Y-54.75
X76.45Y-55.5
X76.45Y-56.25
X76.45Y-57.0
X76.45Y-57.75
X76.45Y-58.5
X76.45Y-59.25
X76.45Y-60.0
X76.45Y-60.75
X76.45Y-61.5
X76.7Y-36.0
X76.7Y-36.75
X76.7Y-37.5
X76.7Y-38.25
X76.9Y-62.25
X76.9Y-63.0
X76.9Y-63.75
X76.9Y-64.5
X76.9Y-65.25
X76.9Y-66.0
X76.9Y-66.75
X76.9Y-67.5
X76.9Y-68.25
X76.9Y-69.0
X76.9Y-69.75
X77.15Y-39.0
X77.15Y-39.75
X77.15Y-40.5
X77.15Y-41.25
X77.15Y-42.0
X77.15Y-42.75
X77.15Y-43.5
X77.15Y-44.25
X77.15Y-45.0
X77.15Y-45.75
X77.15Y-46.5
X77.15Y-47.25
X77.15Y-48.0
X77.15Y-48.75
X77.15Y-49.5
X77.15Y-50.25
X77.15Y-51.0
X77.15Y-51.75
X77.15Y-52.5
X77.15Y-53.25
X77.15Y-54.0
X77.15Y-54.75
X77.15Y-55.5
X77.15Y-56.25
X77.15Y-57.0
X77.15Y-57.75
X77.15Y-58.5
X77.15Y-59.25
X77.15Y-60.0
X77.15Y-60.75
X77.15Y-61.5
X77.375Y-27.375
X77.4Y-36.0
X77.4Y-36.75
X77.4Y-37.5
X77.4Y-38.25
X77.6Y-62.25
X77.6Y-63.0
X77.6Y-63.75
X77.6Y-64.5
X77.6Y-65.25
X77.6Y-66.0
X77.6Y-66.75
X77.6Y-67.5
X77.6Y-68.25
X77.6Y-69.0
X77.6Y-69.75
X77.8Y-82.25
X77.85Y-39.0
X77.85Y-39.75
X77.85Y-40.5
X77.85Y-41.25
X77.85Y-42.0
X77.85Y-42.75
X77.85Y-43.5
X77.85Y-44.25
X77.85Y-45.0
X77.85Y-45.75
X77.85Y-46.5
X77.85Y-47.25
X77.85Y-48.0
X77.85Y-48.75
X77.85Y-49.5
X77.85Y-50.25
X77.85Y-51.0
X77.85Y-51.75
X77.85Y-52.5
X77.85Y-53.25
X77.85Y-54.0
X77.85Y-54.75
X77.85Y-55.5
X77.85Y-56.25
X77.85Y-57.0
X77.85Y-57.75
X77.85Y-58.5
X77.85Y-59.25
X77.85Y-60.0
X77.85Y-60.75
X77.85Y-61.5
X78.1Y-36.0
X78.1Y-36.75
X78.1Y-37.5
X78.1Y-38.25
X78.3Y-62.25
X78.3Y-63.0
X78.3Y-63.75
X78.3Y-64.5
X78.3Y-65.25
X78.3Y-66.0
X78.3Y-66.75
X78.3Y-67.5
X78.3Y-68.25
X78.3Y-69.0
X78.3Y-69.75
X78.36Y-31.58
X78.5Y-82.25
X78.55Y-39.0
X78.55Y-39.75
X78.55Y-40.5
X78.55Y-41.25
X78.55Y-42.0
X78.55Y-42.75
X78.55Y-43.5
X78.55Y-44.25
X78.55Y-45.0
X78.55Y-45.75
X78.55Y-46.5
X78.55Y-47.25
X78.55Y-48.0
X78.55Y-48.75
X78.55Y-49.5
X78.55Y-50.25
X78.55Y-51.0
X78.55Y-51.75
X78.55Y-52.5
X78.55Y-53.25
X78.55Y-54.0
X78.55Y-54.75
X78.55Y-55.5
X78.55Y-56.25
X78.55Y-57.0
X78.55Y-57.75
X78.55Y-58.5
X78.55Y-59.25
X78.55Y-60.0
X78.55Y-60.75
X78.55Y-61.5
X78.8Y-36.0
X78.8Y-36.75
X78.8Y-37.5
X78.8Y-38.25
X79.0Y-62.25
X79.0Y-63.0
X79.0Y-63.75
X79.0Y-64.5
X79.0Y-65.25
X79.0Y-66.0
X79.0Y-66.75
X79.0Y-67.5
X79.0Y-68.25
X79.0Y-69.0
X79.0Y-69.75
X79.05Y-72.75
X79.25Y-39.0
X79.25Y-39.75
X79.25Y-40.5
X79.25Y-41.25
X79.25Y-42.0
X79.25Y-42.75
X79.25Y-43.5
X79.25Y-44.25
X79.25Y-45.0
X79.25Y-45.75
X79.25Y-46.5
X79.25Y-47.25
X79.25Y-48.0
X79.25Y-48.75
X79.25Y-49.5
X79.25Y-50.25
X79.25Y-51.0
X79.25Y-51.75
X79.25Y-52.5
X79.25Y-53.25
X79.25Y-54.0
X79.25Y-54.75
X79.25Y-55.5
X79.25Y-56.25
X79.25Y-57.0
X79.25Y-57.75
X79.25Y-58.5
X79.25Y-59.25
X79.25Y-60.0
X79.25Y-60.75
X79.25Y-61.5
X79.5Y-36.0
X79.5Y-36.75
X79.5Y-37.5
X79.5Y-38.25
X79.75Y-72.75
X80.0Y-72.0
X80.05Y-33.85
X80.375Y-27.55
X80.7Y-71.25
X80.7Y-72.0
X80.92Y-30.91
X81.4Y-71.25
X81.4Y-72.0
X82.05Y-43.5
X82.05Y-44.25
X82.05Y-45.0
X82.05Y-45.75
X82.05Y-46.5
X82.05Y-47.25
X82.05Y-48.0
X82.05Y-48.75
X82.05Y-49.5
X82.05Y-50.25
X82.05Y-51.0
X82.05Y-51.75
X82.05Y-52.5
X82.05Y-53.25
X82.05Y-54.0
X82.05Y-54.75
X82.05Y-55.5
X82.05Y-56.25
X82.05Y-57.0
X82.05Y-57.75
X82.05Y-58.5
X82.05Y-59.25
X82.05Y-60.0
X82.05Y-60.75
X82.05Y-61.5
X82.05Y-62.25
X82.05Y-63.0
X82.05Y-63.75
X82.05Y-64.5
X82.05Y-65.25
X82.05Y-66.0
X82.05Y-66.75
X82.05Y-67.5
X82.05Y-68.25
X82.05Y-69.0
X82.05Y-69.75
X82.05Y-70.5
X82.1Y-71.25
X82.1Y-72.0
X82.3Y-35.25
X82.3Y-36.0
X82.3Y-36.75
X82.3Y-37.5
X82.3Y-38.25
X82.3Y-39.0
X82.3Y-39.75
X82.3Y-40.5
X82.3Y-41.25
X82.3Y-42.0
X82.3Y-42.75
X82.75Y-43.5
X82.75Y-44.25
X82.75Y-45.0
X82.75Y-45.75
X82.75Y-46.5
X82.75Y-47.25
X82.75Y-48.0
X82.75Y-48.75
X82.75Y-49.5
X82.75Y-50.25
X82.75Y-51.0
X82.75Y-51.75
X82.75Y-52.5
X82.75Y-53.25
X82.75Y-54.0
X82.75Y-54.75
X82.75Y-55.5
X82.75Y-56.25
X82.75Y-57.0
X82.75Y-57.75
X82.75Y-58.5
X82.75Y-59.25
X82.75Y-60.0
X82.75Y-60.75
X82.75Y-61.5
X82.75Y-62.25
X82.75Y-63.0
X82.75Y-63.75
X82.75Y-64.5
X82.75Y-65.25
X82.75Y-66.0
X82.75Y-66.75
X82.75Y-67.5
X82.75Y-68.25
X82.75Y-69.0
X82.75Y-69.75
X82.75Y-70.5
X82.8Y-71.25
X82.8Y-72.0
X83.0Y-35.25
X83.0Y-36.0
X83.0Y-36.75
X83.0Y-37.5
X83.0Y-38.25
X83.0Y-39.0
X83.0Y-39.75
X83.0Y-40.5
X83.0Y-41.25
X83.0Y-42.0
X83.0Y-42.75
X83.094Y-30.289
X83.45Y-43.5
X83.45Y-44.25
X83.45Y-45.0
X83.45Y-45.75
X83.45Y-46.5
X83.45Y-47.25
X83.45Y-48.0
X83.45Y-48.75
X83.45Y-49.5
X83.45Y-50.25
X83.45Y-51.0
X83.45Y-51.75
X83.45Y-52.5
X83.45Y-53.25
X83.45Y-54.0
X83.45Y-54.75
X83.45Y-55.5
X83.45Y-56.25
X83.45Y-57.0
X83.45Y-57.75
X83.45Y-58.5
X83.45Y-59.25
X83.45Y-60.0
X83.45Y-60.75
X83.45Y-61.5
X83.45Y-62.25
X83.45Y-63.0
X83.45Y-63.75
X83.45Y-64.5
X83.45Y-65.25
X83.45Y-66.0
X83.45Y-66.75
X83.45Y-67.5
X83.45Y-68.25
X83.45Y-69.0
X83.45Y-69.75
X83.45Y-70.5
X83.5Y-71.25
X83.5Y-72.0
X83.5Y-72.75
X83.7Y-35.25
X83.7Y-36.0
X83.7Y-36.75
X83.7Y-37.5
X83.7Y-38.25
X83.7Y-39.0
X83.7Y-39.75
X83.7Y-40.5
X83.7Y-41.25
X83.7Y-42.0
X83.7Y-42.75
X84.15Y-43.5
X84.15Y-44.25
X84.15Y-45.0
X84.15Y-45.75
X84.15Y-46.5
X84.15Y-47.25
X84.15Y-48.0
X84.15Y-48.75
X84.15Y-49.5
X84.15Y-50.25
X84.15Y-51.0
X84.15Y-51.75
X84.15Y-52.5
X84.15Y-53.25
X84.15Y-54.0
X84.15Y-54.75
X84.15Y-55.5
X84.15Y-56.25
X84.15Y-57.0
X84.15Y-57.75
X84.15Y-58.5
X84.15Y-59.25
X84.15Y-60.0
X84.15Y-60.75
X84.15Y-61.5
X84.15Y-62.25
X84.15Y-63.0
X84.15Y-63.75
X84.15Y-64.5
X84.15Y-65.25
X84.15Y-66.0
X84.15Y-66.75
X84.15Y-67.5
X84.15Y-68.25
X84.15Y-69.0
X84.15Y-69.75
X84.15Y-70.5
X84.2Y-71.25
X84.2Y-72.0
X84.2Y-72.75
X84.4Y-35.25
X84.4Y-36.0
X84.4Y-36.75
X84.4Y-37.5
X84.4Y-38.25
X84.4Y-39.0
X84.4Y-39.75
X84.4Y-40.5
X84.4Y-41.25
X84.4Y-42.0
X84.4Y-42.75
X84.525Y-27.55
X84.85Y-43.5
X84.85Y-44.25
X84.85Y-45.0
X84.85Y-45.75
X84.85Y-46.5
X84.85Y-47.25
X84.85Y-48.0
X84.85Y-48.75
X84.85Y-49.5
X84.85Y-50.25
X84.85Y-51.0
X84.85Y-51.75
X84.85Y-52.5
X84.85Y-53.25
X84.85Y-54.0
X84.85Y-54.75
X84.85Y-55.5
X84.85Y-56.25
X84.85Y-57.0
X84.85Y-57.75
X84.85Y-58.5
X84.85Y-59.25
X84.85Y-60.0
X84.85Y-60.75
X84.85Y-61.5
X84.85Y-62.25
X84.85Y-63.0
X84.85Y-63.75
X84.85Y-64.5
X84.85Y-65.25
X84.85Y-66.0
X84.85Y-66.75
X84.85Y-67.5
X84.85Y-68.25
X84.85Y-69.0
X84.85Y-69.75
X84.85Y-70.5
X84.9Y-71.25
X84.9Y-72.0
X84.9Y-72.75
X84.9Y-73.5
X85.1Y-35.25
X85.1Y-36.0
X85.1Y-36.75
X85.1Y-37.5
X85.1Y-38.25
X85.1Y-39.0
X85.1Y-39.75
X85.1Y-40.5
X85.1Y-41.25
X85.1Y-42.0
X85.1Y-42.75
X85.55Y-43.5
X85.55Y-44.25
X85.55Y-45.0
X85.55Y-45.75
X85.55Y-46.5
X85.55Y-47.25
X85.55Y-48.0
X85.55Y-48.75
X85.55Y-49.5
X85.55Y-50.25
X85.55Y-51.0
X85.55Y-51.75
X85.55Y-52.5
X85.55Y-53.25
X85.55Y-54.0
X85.55Y-54.75
X85.55Y-55.5
X85.55Y-56.25
X85.55Y-57.0
X85.55Y-57.75
X85.55Y-58.5
X85.55Y-59.25
X85.55Y-60.0
X85.55Y-60.75
X85.55Y-61.5
X85.55Y-62.25
X85.55Y-63.0
X85.55Y-63.75
X85.55Y-64.5
X85.55Y-65.25
X85.55Y-66.0
X85.55Y-66.75
X85.55Y-67.5
X85.55Y-68.25
X85.55Y-69.0
X85.55Y-69.75
X85.55Y-70.5
X85.6Y-71.25
X85.6Y-72.0
X85.6Y-72.75
X85.6Y-73.5
X85.6Y-74.25
X85.8Y-35.25
X85.8Y-36.0
X85.8Y-36.75
X85.8Y-37.5
X85.8Y-38.25
X85.8Y-39.0
X85.8Y-39.75
X85.8Y-40.5
X85.8Y-41.25
X85.8Y-42.0
X85.8Y-42.75
X86.25Y-43.5
X86.25Y-44.25
X86.25Y-45.0
X86.25Y-45.75
X86.25Y-46.5
X86.25Y-47.25
X86.25Y-48.0
X86.25Y-48.75
X86.25Y-49.5
X86.25Y-50.25
X86.25Y-51.0
X86.25Y-51.75
X86.25Y-52.5
X86.25Y-53.25
X86.25Y-54.0
X86.25Y-54.75
X86.25Y-55.5
X86.25Y-56.25
X86.25Y-57.0
X86.25Y-57.75
X86.25Y-58.5
X86.25Y-59.25
X86.25Y-60.0
X86.25Y-60.75
X86.25Y-61.5
X86.25Y-62.25
X86.25Y-63.0
X86.25Y-63.75
X86.25Y-64.5
X86.25Y-65.25
X86.25Y-66.0
X86.25Y-66.75
X86.25Y-67.5
X86.25Y-68.25
X86.25Y-69.0
X86.25Y-69.75
X86.25Y-70.5
X86.3Y-71.25
X86.3Y-72.0
X86.3Y-72.75
X86.3Y-73.5
X86.3Y-74.25
X86.3Y-75.0
X86.3Y-75.75
X86.5Y-35.25
X86.5Y-36.0
X86.5Y-36.75
X86.5Y-37.5
X86.5Y-38.25
X86.5Y-39.0
X86.5Y-39.75
X86.5Y-40.5
X86.5Y-41.25
X86.5Y-42.0
X86.5Y-42.75
X86.95Y-43.5
X86.95Y-44.25
X86.95Y-45.0
X86.95Y-45.75
X86.95Y-46.5
X86.95Y-47.25
X86.95Y-48.0
X86.95Y-48.75
X86.95Y-49.5
X86.95Y-50.25
X86.95Y-51.0
X86.95Y-51.75
X86.95Y-52.5
X86.95Y-53.25
X86.95Y-54.0
X86.95Y-54.75
X86.95Y-55.5
X86.95Y-56.25
X86.95Y-57.0
X86.95Y-57.75
X86.95Y-58.5
X86.95Y-59.25
X86.95Y-60.0
X86.95Y-60.75
X86.95Y-61.5
X86.95Y-62.25
X86.95Y-63.0
X86.95Y-63.75
X86.95Y-64.5
X86.95Y-65.25
X86.95Y-66.0
X86.95Y-66.75
X86.95Y-67.5
X86.95Y-68.25
X86.95Y-69.0
X86.95Y-69.75
X86.95Y-70.5
X87.0Y-71.25
X87.0Y-72.0
X87.0Y-72.75
X87.0Y-73.5
X87.0Y-74.25
X87.0Y-75.0
X87.0Y-75.75
X87.2Y-35.25
X87.2Y-36.0
X87.2Y-36.75
X87.2Y-37.5
X87.2Y-38.25
X87.2Y-39.0
X87.2Y-39.75
X87.2Y-40.5
X87.2Y-41.25
X87.2Y-42.0
X87.2Y-42.75
X87.526Y-30.305
X87.526Y-30.955
X88.525Y-27.45
X89.875Y-41.3
X96.15Y-38.05
X96.5Y-59.5
X97.0Y-57.0
T3
X31.85Y-32.0
X32.553Y-30.303
X32.553Y-33.697
X34.25Y-29.6
X34.25Y-34.4
X35.947Y-30.303
X35.947Y-33.697
X36.65Y-32.0
X90.6Y-32.0
X90.6Y-78.25
X91.303Y-30.303
X91.303Y-33.697
X91.303Y-76.553
X91.303Y-79.947
X93.0Y-29.6
X93.0Y-34.4
X93.0Y-75.85
X93.0Y-80.65
X94.697Y-30.303
X94.697Y-33.697
X94.697Y-76.553
X94.697Y-79.947
X95.4Y-32.0
X95.4Y-78.25
T4
X31.485Y-70.88
X34.025Y-65.8
X34.025Y-78.5
T5
X46.45Y-54.85
X48.2Y-54.75
X50.05Y-54.95
X69.25Y-48.75
X69.52Y-70.81
X71.0Y-59.75
T6
X90.938Y-48.32
X90.938Y-50.82
X90.938Y-53.32
X90.938Y-55.82
X90.938Y-58.32
X90.938Y-60.82
T7
X32.206Y-40.75
X32.206Y-51.75
X62.567Y-35.64
X65.067Y-35.64
X67.567Y-35.64
T8
X42.206Y-43.75
X42.206Y-48.75
T9
X34.25Y-32.0
X93.0Y-32.0
X93.0Y-78.25
T10
X46.43Y-77.63
X57.43Y-77.63
X70.43Y-77.63
X81.43Y-77.63
M30
