G04 #@! TF.GenerationSoftware,KiCad,Pcbnew,9.0.0*
G04 #@! TF.CreationDate,2025-07-23T17:32:58-04:00*
G04 #@! TF.ProjectId,PresToe_BMS_48V,50726573-546f-4655-9f42-4d535f343856,rev?*
G04 #@! TF.SameCoordinates,Original*
G04 #@! TF.FileFunction,Paste,Top*
G04 #@! TF.FilePolarity,Positive*
%FSLAX46Y46*%
G04 Gerber Fmt 4.6, Leading zero omitted, Abs format (unit mm)*
G04 Created by KiCad (PCBNEW 9.0.0) date 2025-07-23 17:32:58*
%MOMM*%
%LPD*%
G01*
G04 APERTURE LIST*
G04 Aperture macros list*
%AMRoundRect*
0 Rectangle with rounded corners*
0 $1 Rounding radius*
0 $2 $3 $4 $5 $6 $7 $8 $9 X,Y pos of 4 corners*
0 Add a 4 corners polygon primitive as box body*
4,1,4,$2,$3,$4,$5,$6,$7,$8,$9,$2,$3,0*
0 Add four circle primitives for the rounded corners*
1,1,$1+$1,$2,$3*
1,1,$1+$1,$4,$5*
1,1,$1+$1,$6,$7*
1,1,$1+$1,$8,$9*
0 Add four rect primitives between the rounded corners*
20,1,$1+$1,$2,$3,$4,$5,0*
20,1,$1+$1,$4,$5,$6,$7,0*
20,1,$1+$1,$6,$7,$8,$9,0*
20,1,$1+$1,$8,$9,$2,$3,0*%
G04 Aperture macros list end*
%ADD10C,0.010000*%
%ADD11R,0.279400X1.358900*%
%ADD12RoundRect,0.250000X-1.100000X0.325000X-1.100000X-0.325000X1.100000X-0.325000X1.100000X0.325000X0*%
%ADD13R,0.508000X1.422400*%
%ADD14RoundRect,0.225000X0.250000X-0.225000X0.250000X0.225000X-0.250000X0.225000X-0.250000X-0.225000X0*%
%ADD15RoundRect,0.200000X0.275000X-0.200000X0.275000X0.200000X-0.275000X0.200000X-0.275000X-0.200000X0*%
%ADD16R,0.558800X0.977900*%
%ADD17R,4.000000X15.500000*%
%ADD18RoundRect,0.225000X0.225000X0.250000X-0.225000X0.250000X-0.225000X-0.250000X0.225000X-0.250000X0*%
%ADD19RoundRect,0.200000X-0.200000X-0.275000X0.200000X-0.275000X0.200000X0.275000X-0.200000X0.275000X0*%
%ADD20RoundRect,0.075000X-0.955000X-0.225000X0.955000X-0.225000X0.955000X0.225000X-0.955000X0.225000X0*%
%ADD21C,0.300000*%
%ADD22RoundRect,0.218750X-0.218750X-0.256250X0.218750X-0.256250X0.218750X0.256250X-0.218750X0.256250X0*%
%ADD23RoundRect,0.250000X-0.475000X0.250000X-0.475000X-0.250000X0.475000X-0.250000X0.475000X0.250000X0*%
%ADD24RoundRect,0.200000X0.200000X0.275000X-0.200000X0.275000X-0.200000X-0.275000X0.200000X-0.275000X0*%
%ADD25R,0.558800X1.981200*%
%ADD26R,1.333500X0.431800*%
%ADD27RoundRect,0.225000X-0.225000X-0.250000X0.225000X-0.250000X0.225000X0.250000X-0.225000X0.250000X0*%
%ADD28RoundRect,0.225000X-0.250000X0.225000X-0.250000X-0.225000X0.250000X-0.225000X0.250000X0.225000X0*%
G04 APERTURE END LIST*
D10*
X59395000Y-65310000D02*
X58545000Y-65310000D01*
X58545000Y-60810000D01*
X59395000Y-60810000D01*
X59395000Y-65310000D01*
G36*
X59395000Y-65310000D02*
G01*
X58545000Y-65310000D01*
X58545000Y-60810000D01*
X59395000Y-60810000D01*
X59395000Y-65310000D01*
G37*
X59395000Y-70310000D02*
X58545000Y-70310000D01*
X58545000Y-65810000D01*
X59395000Y-65810000D01*
X59395000Y-70310000D01*
G36*
X59395000Y-70310000D02*
G01*
X58545000Y-70310000D01*
X58545000Y-65810000D01*
X59395000Y-65810000D01*
X59395000Y-70310000D01*
G37*
X61195000Y-65310000D02*
X60095000Y-65310000D01*
X60095000Y-61310000D01*
X61195000Y-61310000D01*
X61195000Y-65310000D01*
G36*
X61195000Y-65310000D02*
G01*
X60095000Y-65310000D01*
X60095000Y-61310000D01*
X61195000Y-61310000D01*
X61195000Y-65310000D01*
G37*
X61195000Y-69810000D02*
X60095000Y-69810000D01*
X60095000Y-65810000D01*
X61195000Y-65810000D01*
X61195000Y-69810000D01*
G36*
X61195000Y-69810000D02*
G01*
X60095000Y-69810000D01*
X60095000Y-65810000D01*
X61195000Y-65810000D01*
X61195000Y-69810000D01*
G37*
X62995000Y-65310000D02*
X61895000Y-65310000D01*
X61895000Y-61310000D01*
X62995000Y-61310000D01*
X62995000Y-65310000D01*
G36*
X62995000Y-65310000D02*
G01*
X61895000Y-65310000D01*
X61895000Y-61310000D01*
X62995000Y-61310000D01*
X62995000Y-65310000D01*
G37*
X62995000Y-69810000D02*
X61895000Y-69810000D01*
X61895000Y-65810000D01*
X62995000Y-65810000D01*
X62995000Y-69810000D01*
G36*
X62995000Y-69810000D02*
G01*
X61895000Y-69810000D01*
X61895000Y-65810000D01*
X62995000Y-65810000D01*
X62995000Y-69810000D01*
G37*
X64795000Y-65310000D02*
X63695000Y-65310000D01*
X63695000Y-60810000D01*
X64795000Y-60810000D01*
X64795000Y-65310000D01*
G36*
X64795000Y-65310000D02*
G01*
X63695000Y-65310000D01*
X63695000Y-60810000D01*
X64795000Y-60810000D01*
X64795000Y-65310000D01*
G37*
X64795000Y-70310000D02*
X63695000Y-70310000D01*
X63695000Y-65810000D01*
X64795000Y-65810000D01*
X64795000Y-70310000D01*
G36*
X64795000Y-70310000D02*
G01*
X63695000Y-70310000D01*
X63695000Y-65810000D01*
X64795000Y-65810000D01*
X64795000Y-70310000D01*
G37*
X66345000Y-65310000D02*
X65495000Y-65310000D01*
X65495000Y-60810000D01*
X66345000Y-60810000D01*
X66345000Y-65310000D01*
G36*
X66345000Y-65310000D02*
G01*
X65495000Y-65310000D01*
X65495000Y-60810000D01*
X66345000Y-60810000D01*
X66345000Y-65310000D01*
G37*
X66345000Y-70310000D02*
X65495000Y-70310000D01*
X65495000Y-65810000D01*
X66345000Y-65810000D01*
X66345000Y-70310000D01*
G36*
X66345000Y-70310000D02*
G01*
X65495000Y-70310000D01*
X65495000Y-65810000D01*
X66345000Y-65810000D01*
X66345000Y-70310000D01*
G37*
X71420000Y-61760000D02*
X68720000Y-61760000D01*
X68720000Y-60960000D01*
X71420000Y-60960000D01*
X71420000Y-61760000D01*
G36*
X71420000Y-61760000D02*
G01*
X68720000Y-61760000D01*
X68720000Y-60960000D01*
X71420000Y-60960000D01*
X71420000Y-61760000D01*
G37*
X71420000Y-62960000D02*
X68720000Y-62960000D01*
X68720000Y-62160000D01*
X71420000Y-62160000D01*
X71420000Y-62960000D01*
G36*
X71420000Y-62960000D02*
G01*
X68720000Y-62960000D01*
X68720000Y-62160000D01*
X71420000Y-62160000D01*
X71420000Y-62960000D01*
G37*
X71420000Y-64160000D02*
X68720000Y-64160000D01*
X68720000Y-63360000D01*
X71420000Y-63360000D01*
X71420000Y-64160000D01*
G36*
X71420000Y-64160000D02*
G01*
X68720000Y-64160000D01*
X68720000Y-63360000D01*
X71420000Y-63360000D01*
X71420000Y-64160000D01*
G37*
X71420000Y-65360000D02*
X68720000Y-65360000D01*
X68720000Y-64560000D01*
X71420000Y-64560000D01*
X71420000Y-65360000D01*
G36*
X71420000Y-65360000D02*
G01*
X68720000Y-65360000D01*
X68720000Y-64560000D01*
X71420000Y-64560000D01*
X71420000Y-65360000D01*
G37*
X71420000Y-66560000D02*
X68720000Y-66560000D01*
X68720000Y-65760000D01*
X71420000Y-65760000D01*
X71420000Y-66560000D01*
G36*
X71420000Y-66560000D02*
G01*
X68720000Y-66560000D01*
X68720000Y-65760000D01*
X71420000Y-65760000D01*
X71420000Y-66560000D01*
G37*
X71420000Y-67760000D02*
X68720000Y-67760000D01*
X68720000Y-66960000D01*
X71420000Y-66960000D01*
X71420000Y-67760000D01*
G36*
X71420000Y-67760000D02*
G01*
X68720000Y-67760000D01*
X68720000Y-66960000D01*
X71420000Y-66960000D01*
X71420000Y-67760000D01*
G37*
X71420000Y-68960000D02*
X68720000Y-68960000D01*
X68720000Y-68160000D01*
X71420000Y-68160000D01*
X71420000Y-68960000D01*
G36*
X71420000Y-68960000D02*
G01*
X68720000Y-68960000D01*
X68720000Y-68160000D01*
X71420000Y-68160000D01*
X71420000Y-68960000D01*
G37*
X71420000Y-70160000D02*
X68720000Y-70160000D01*
X68720000Y-69360000D01*
X71420000Y-69360000D01*
X71420000Y-70160000D01*
G36*
X71420000Y-70160000D02*
G01*
X68720000Y-70160000D01*
X68720000Y-69360000D01*
X71420000Y-69360000D01*
X71420000Y-70160000D01*
G37*
X49228000Y-44896000D02*
X49230000Y-44896000D01*
X49233000Y-44897000D01*
X49235000Y-44897000D01*
X49238000Y-44898000D01*
X49240000Y-44899000D01*
X49243000Y-44900000D01*
X49245000Y-44902000D01*
X49247000Y-44903000D01*
X49249000Y-44905000D01*
X49251000Y-44906000D01*
X49253000Y-44908000D01*
X49255000Y-44910000D01*
X49257000Y-44912000D01*
X49259000Y-44914000D01*
X49260000Y-44916000D01*
X49262000Y-44918000D01*
X49263000Y-44920000D01*
X49265000Y-44922000D01*
X49266000Y-44925000D01*
X49267000Y-44927000D01*
X49268000Y-44930000D01*
X49268000Y-44932000D01*
X49269000Y-44935000D01*
X49269000Y-44937000D01*
X49270000Y-44940000D01*
X49270000Y-44942000D01*
X49270000Y-44945000D01*
X49270000Y-45595000D01*
X49270000Y-45598000D01*
X49270000Y-45600000D01*
X49269000Y-45603000D01*
X49269000Y-45605000D01*
X49268000Y-45608000D01*
X49268000Y-45610000D01*
X49267000Y-45613000D01*
X49266000Y-45615000D01*
X49265000Y-45618000D01*
X49263000Y-45620000D01*
X49262000Y-45622000D01*
X49260000Y-45624000D01*
X49259000Y-45626000D01*
X49257000Y-45628000D01*
X49255000Y-45630000D01*
X49253000Y-45632000D01*
X49251000Y-45634000D01*
X49249000Y-45635000D01*
X49247000Y-45637000D01*
X49245000Y-45638000D01*
X49243000Y-45640000D01*
X49240000Y-45641000D01*
X49238000Y-45642000D01*
X49235000Y-45643000D01*
X49233000Y-45643000D01*
X49230000Y-45644000D01*
X49228000Y-45644000D01*
X49225000Y-45645000D01*
X49223000Y-45645000D01*
X49220000Y-45645000D01*
X49020000Y-45645000D01*
X49017000Y-45645000D01*
X49015000Y-45645000D01*
X49012000Y-45644000D01*
X49010000Y-45644000D01*
X49007000Y-45643000D01*
X49005000Y-45643000D01*
X49002000Y-45642000D01*
X49000000Y-45641000D01*
X48997000Y-45640000D01*
X48995000Y-45638000D01*
X48993000Y-45637000D01*
X48991000Y-45635000D01*
X48989000Y-45634000D01*
X48987000Y-45632000D01*
X48985000Y-45630000D01*
X48983000Y-45628000D01*
X48981000Y-45626000D01*
X48980000Y-45624000D01*
X48978000Y-45622000D01*
X48977000Y-45620000D01*
X48975000Y-45618000D01*
X48974000Y-45615000D01*
X48973000Y-45613000D01*
X48972000Y-45610000D01*
X48972000Y-45608000D01*
X48971000Y-45605000D01*
X48971000Y-45603000D01*
X48970000Y-45600000D01*
X48970000Y-45598000D01*
X48970000Y-45595000D01*
X48970000Y-44945000D01*
X48970000Y-44942000D01*
X48970000Y-44940000D01*
X48971000Y-44937000D01*
X48971000Y-44935000D01*
X48972000Y-44932000D01*
X48972000Y-44930000D01*
X48973000Y-44927000D01*
X48974000Y-44925000D01*
X48975000Y-44922000D01*
X48977000Y-44920000D01*
X48978000Y-44918000D01*
X48980000Y-44916000D01*
X48981000Y-44914000D01*
X48983000Y-44912000D01*
X48985000Y-44910000D01*
X48987000Y-44908000D01*
X48989000Y-44906000D01*
X48991000Y-44905000D01*
X48993000Y-44903000D01*
X48995000Y-44902000D01*
X48997000Y-44900000D01*
X49000000Y-44899000D01*
X49002000Y-44898000D01*
X49005000Y-44897000D01*
X49007000Y-44897000D01*
X49010000Y-44896000D01*
X49012000Y-44896000D01*
X49015000Y-44895000D01*
X49017000Y-44895000D01*
X49020000Y-44895000D01*
X49220000Y-44895000D01*
X49223000Y-44895000D01*
X49225000Y-44895000D01*
X49228000Y-44896000D01*
G36*
X49228000Y-44896000D02*
G01*
X49230000Y-44896000D01*
X49233000Y-44897000D01*
X49235000Y-44897000D01*
X49238000Y-44898000D01*
X49240000Y-44899000D01*
X49243000Y-44900000D01*
X49245000Y-44902000D01*
X49247000Y-44903000D01*
X49249000Y-44905000D01*
X49251000Y-44906000D01*
X49253000Y-44908000D01*
X49255000Y-44910000D01*
X49257000Y-44912000D01*
X49259000Y-44914000D01*
X49260000Y-44916000D01*
X49262000Y-44918000D01*
X49263000Y-44920000D01*
X49265000Y-44922000D01*
X49266000Y-44925000D01*
X49267000Y-44927000D01*
X49268000Y-44930000D01*
X49268000Y-44932000D01*
X49269000Y-44935000D01*
X49269000Y-44937000D01*
X49270000Y-44940000D01*
X49270000Y-44942000D01*
X49270000Y-44945000D01*
X49270000Y-45595000D01*
X49270000Y-45598000D01*
X49270000Y-45600000D01*
X49269000Y-45603000D01*
X49269000Y-45605000D01*
X49268000Y-45608000D01*
X49268000Y-45610000D01*
X49267000Y-45613000D01*
X49266000Y-45615000D01*
X49265000Y-45618000D01*
X49263000Y-45620000D01*
X49262000Y-45622000D01*
X49260000Y-45624000D01*
X49259000Y-45626000D01*
X49257000Y-45628000D01*
X49255000Y-45630000D01*
X49253000Y-45632000D01*
X49251000Y-45634000D01*
X49249000Y-45635000D01*
X49247000Y-45637000D01*
X49245000Y-45638000D01*
X49243000Y-45640000D01*
X49240000Y-45641000D01*
X49238000Y-45642000D01*
X49235000Y-45643000D01*
X49233000Y-45643000D01*
X49230000Y-45644000D01*
X49228000Y-45644000D01*
X49225000Y-45645000D01*
X49223000Y-45645000D01*
X49220000Y-45645000D01*
X49020000Y-45645000D01*
X49017000Y-45645000D01*
X49015000Y-45645000D01*
X49012000Y-45644000D01*
X49010000Y-45644000D01*
X49007000Y-45643000D01*
X49005000Y-45643000D01*
X49002000Y-45642000D01*
X49000000Y-45641000D01*
X48997000Y-45640000D01*
X48995000Y-45638000D01*
X48993000Y-45637000D01*
X48991000Y-45635000D01*
X48989000Y-45634000D01*
X48987000Y-45632000D01*
X48985000Y-45630000D01*
X48983000Y-45628000D01*
X48981000Y-45626000D01*
X48980000Y-45624000D01*
X48978000Y-45622000D01*
X48977000Y-45620000D01*
X48975000Y-45618000D01*
X48974000Y-45615000D01*
X48973000Y-45613000D01*
X48972000Y-45610000D01*
X48972000Y-45608000D01*
X48971000Y-45605000D01*
X48971000Y-45603000D01*
X48970000Y-45600000D01*
X48970000Y-45598000D01*
X48970000Y-45595000D01*
X48970000Y-44945000D01*
X48970000Y-44942000D01*
X48970000Y-44940000D01*
X48971000Y-44937000D01*
X48971000Y-44935000D01*
X48972000Y-44932000D01*
X48972000Y-44930000D01*
X48973000Y-44927000D01*
X48974000Y-44925000D01*
X48975000Y-44922000D01*
X48977000Y-44920000D01*
X48978000Y-44918000D01*
X48980000Y-44916000D01*
X48981000Y-44914000D01*
X48983000Y-44912000D01*
X48985000Y-44910000D01*
X48987000Y-44908000D01*
X48989000Y-44906000D01*
X48991000Y-44905000D01*
X48993000Y-44903000D01*
X48995000Y-44902000D01*
X48997000Y-44900000D01*
X49000000Y-44899000D01*
X49002000Y-44898000D01*
X49005000Y-44897000D01*
X49007000Y-44897000D01*
X49010000Y-44896000D01*
X49012000Y-44896000D01*
X49015000Y-44895000D01*
X49017000Y-44895000D01*
X49020000Y-44895000D01*
X49220000Y-44895000D01*
X49223000Y-44895000D01*
X49225000Y-44895000D01*
X49228000Y-44896000D01*
G37*
X49228000Y-47346000D02*
X49230000Y-47346000D01*
X49233000Y-47347000D01*
X49235000Y-47347000D01*
X49238000Y-47348000D01*
X49240000Y-47349000D01*
X49243000Y-47350000D01*
X49245000Y-47352000D01*
X49247000Y-47353000D01*
X49249000Y-47355000D01*
X49251000Y-47356000D01*
X49253000Y-47358000D01*
X49255000Y-47360000D01*
X49257000Y-47362000D01*
X49259000Y-47364000D01*
X49260000Y-47366000D01*
X49262000Y-47368000D01*
X49263000Y-47370000D01*
X49265000Y-47372000D01*
X49266000Y-47375000D01*
X49267000Y-47377000D01*
X49268000Y-47380000D01*
X49268000Y-47382000D01*
X49269000Y-47385000D01*
X49269000Y-47387000D01*
X49270000Y-47390000D01*
X49270000Y-47392000D01*
X49270000Y-47395000D01*
X49270000Y-48045000D01*
X49270000Y-48048000D01*
X49270000Y-48050000D01*
X49269000Y-48053000D01*
X49269000Y-48055000D01*
X49268000Y-48058000D01*
X49268000Y-48060000D01*
X49267000Y-48063000D01*
X49266000Y-48065000D01*
X49265000Y-48068000D01*
X49263000Y-48070000D01*
X49262000Y-48072000D01*
X49260000Y-48074000D01*
X49259000Y-48076000D01*
X49257000Y-48078000D01*
X49255000Y-48080000D01*
X49253000Y-48082000D01*
X49251000Y-48084000D01*
X49249000Y-48085000D01*
X49247000Y-48087000D01*
X49245000Y-48088000D01*
X49243000Y-48090000D01*
X49240000Y-48091000D01*
X49238000Y-48092000D01*
X49235000Y-48093000D01*
X49233000Y-48093000D01*
X49230000Y-48094000D01*
X49228000Y-48094000D01*
X49225000Y-48095000D01*
X49223000Y-48095000D01*
X49220000Y-48095000D01*
X49020000Y-48095000D01*
X49017000Y-48095000D01*
X49015000Y-48095000D01*
X49012000Y-48094000D01*
X49010000Y-48094000D01*
X49007000Y-48093000D01*
X49005000Y-48093000D01*
X49002000Y-48092000D01*
X49000000Y-48091000D01*
X48997000Y-48090000D01*
X48995000Y-48088000D01*
X48993000Y-48087000D01*
X48991000Y-48085000D01*
X48989000Y-48084000D01*
X48987000Y-48082000D01*
X48985000Y-48080000D01*
X48983000Y-48078000D01*
X48981000Y-48076000D01*
X48980000Y-48074000D01*
X48978000Y-48072000D01*
X48977000Y-48070000D01*
X48975000Y-48068000D01*
X48974000Y-48065000D01*
X48973000Y-48063000D01*
X48972000Y-48060000D01*
X48972000Y-48058000D01*
X48971000Y-48055000D01*
X48971000Y-48053000D01*
X48970000Y-48050000D01*
X48970000Y-48048000D01*
X48970000Y-48045000D01*
X48970000Y-47395000D01*
X48970000Y-47392000D01*
X48970000Y-47390000D01*
X48971000Y-47387000D01*
X48971000Y-47385000D01*
X48972000Y-47382000D01*
X48972000Y-47380000D01*
X48973000Y-47377000D01*
X48974000Y-47375000D01*
X48975000Y-47372000D01*
X48977000Y-47370000D01*
X48978000Y-47368000D01*
X48980000Y-47366000D01*
X48981000Y-47364000D01*
X48983000Y-47362000D01*
X48985000Y-47360000D01*
X48987000Y-47358000D01*
X48989000Y-47356000D01*
X48991000Y-47355000D01*
X48993000Y-47353000D01*
X48995000Y-47352000D01*
X48997000Y-47350000D01*
X49000000Y-47349000D01*
X49002000Y-47348000D01*
X49005000Y-47347000D01*
X49007000Y-47347000D01*
X49010000Y-47346000D01*
X49012000Y-47346000D01*
X49015000Y-47345000D01*
X49017000Y-47345000D01*
X49020000Y-47345000D01*
X49220000Y-47345000D01*
X49223000Y-47345000D01*
X49225000Y-47345000D01*
X49228000Y-47346000D01*
G36*
X49228000Y-47346000D02*
G01*
X49230000Y-47346000D01*
X49233000Y-47347000D01*
X49235000Y-47347000D01*
X49238000Y-47348000D01*
X49240000Y-47349000D01*
X49243000Y-47350000D01*
X49245000Y-47352000D01*
X49247000Y-47353000D01*
X49249000Y-47355000D01*
X49251000Y-47356000D01*
X49253000Y-47358000D01*
X49255000Y-47360000D01*
X49257000Y-47362000D01*
X49259000Y-47364000D01*
X49260000Y-47366000D01*
X49262000Y-47368000D01*
X49263000Y-47370000D01*
X49265000Y-47372000D01*
X49266000Y-47375000D01*
X49267000Y-47377000D01*
X49268000Y-47380000D01*
X49268000Y-47382000D01*
X49269000Y-47385000D01*
X49269000Y-47387000D01*
X49270000Y-47390000D01*
X49270000Y-47392000D01*
X49270000Y-47395000D01*
X49270000Y-48045000D01*
X49270000Y-48048000D01*
X49270000Y-48050000D01*
X49269000Y-48053000D01*
X49269000Y-48055000D01*
X49268000Y-48058000D01*
X49268000Y-48060000D01*
X49267000Y-48063000D01*
X49266000Y-48065000D01*
X49265000Y-48068000D01*
X49263000Y-48070000D01*
X49262000Y-48072000D01*
X49260000Y-48074000D01*
X49259000Y-48076000D01*
X49257000Y-48078000D01*
X49255000Y-48080000D01*
X49253000Y-48082000D01*
X49251000Y-48084000D01*
X49249000Y-48085000D01*
X49247000Y-48087000D01*
X49245000Y-48088000D01*
X49243000Y-48090000D01*
X49240000Y-48091000D01*
X49238000Y-48092000D01*
X49235000Y-48093000D01*
X49233000Y-48093000D01*
X49230000Y-48094000D01*
X49228000Y-48094000D01*
X49225000Y-48095000D01*
X49223000Y-48095000D01*
X49220000Y-48095000D01*
X49020000Y-48095000D01*
X49017000Y-48095000D01*
X49015000Y-48095000D01*
X49012000Y-48094000D01*
X49010000Y-48094000D01*
X49007000Y-48093000D01*
X49005000Y-48093000D01*
X49002000Y-48092000D01*
X49000000Y-48091000D01*
X48997000Y-48090000D01*
X48995000Y-48088000D01*
X48993000Y-48087000D01*
X48991000Y-48085000D01*
X48989000Y-48084000D01*
X48987000Y-48082000D01*
X48985000Y-48080000D01*
X48983000Y-48078000D01*
X48981000Y-48076000D01*
X48980000Y-48074000D01*
X48978000Y-48072000D01*
X48977000Y-48070000D01*
X48975000Y-48068000D01*
X48974000Y-48065000D01*
X48973000Y-48063000D01*
X48972000Y-48060000D01*
X48972000Y-48058000D01*
X48971000Y-48055000D01*
X48971000Y-48053000D01*
X48970000Y-48050000D01*
X48970000Y-48048000D01*
X48970000Y-48045000D01*
X48970000Y-47395000D01*
X48970000Y-47392000D01*
X48970000Y-47390000D01*
X48971000Y-47387000D01*
X48971000Y-47385000D01*
X48972000Y-47382000D01*
X48972000Y-47380000D01*
X48973000Y-47377000D01*
X48974000Y-47375000D01*
X48975000Y-47372000D01*
X48977000Y-47370000D01*
X48978000Y-47368000D01*
X48980000Y-47366000D01*
X48981000Y-47364000D01*
X48983000Y-47362000D01*
X48985000Y-47360000D01*
X48987000Y-47358000D01*
X48989000Y-47356000D01*
X48991000Y-47355000D01*
X48993000Y-47353000D01*
X48995000Y-47352000D01*
X48997000Y-47350000D01*
X49000000Y-47349000D01*
X49002000Y-47348000D01*
X49005000Y-47347000D01*
X49007000Y-47347000D01*
X49010000Y-47346000D01*
X49012000Y-47346000D01*
X49015000Y-47345000D01*
X49017000Y-47345000D01*
X49020000Y-47345000D01*
X49220000Y-47345000D01*
X49223000Y-47345000D01*
X49225000Y-47345000D01*
X49228000Y-47346000D01*
G37*
X49578000Y-46296000D02*
X49580000Y-46296000D01*
X49583000Y-46297000D01*
X49585000Y-46297000D01*
X49588000Y-46298000D01*
X49590000Y-46299000D01*
X49593000Y-46300000D01*
X49595000Y-46302000D01*
X49597000Y-46303000D01*
X49599000Y-46305000D01*
X49601000Y-46306000D01*
X49603000Y-46308000D01*
X49605000Y-46310000D01*
X49607000Y-46312000D01*
X49609000Y-46314000D01*
X49610000Y-46316000D01*
X49612000Y-46318000D01*
X49613000Y-46320000D01*
X49615000Y-46322000D01*
X49616000Y-46325000D01*
X49617000Y-46327000D01*
X49618000Y-46330000D01*
X49618000Y-46332000D01*
X49619000Y-46335000D01*
X49619000Y-46337000D01*
X49620000Y-46340000D01*
X49620000Y-46342000D01*
X49620000Y-46345000D01*
X49620000Y-46645000D01*
X49620000Y-46648000D01*
X49620000Y-46650000D01*
X49619000Y-46653000D01*
X49619000Y-46655000D01*
X49618000Y-46658000D01*
X49618000Y-46660000D01*
X49617000Y-46663000D01*
X49616000Y-46665000D01*
X49615000Y-46668000D01*
X49613000Y-46670000D01*
X49612000Y-46672000D01*
X49610000Y-46674000D01*
X49609000Y-46676000D01*
X49607000Y-46678000D01*
X49605000Y-46680000D01*
X49603000Y-46682000D01*
X49601000Y-46684000D01*
X49599000Y-46685000D01*
X49597000Y-46687000D01*
X49595000Y-46688000D01*
X49593000Y-46690000D01*
X49590000Y-46691000D01*
X49588000Y-46692000D01*
X49585000Y-46693000D01*
X49583000Y-46693000D01*
X49580000Y-46694000D01*
X49578000Y-46694000D01*
X49575000Y-46695000D01*
X49573000Y-46695000D01*
X49570000Y-46695000D01*
X48870000Y-46695000D01*
X48867000Y-46695000D01*
X48865000Y-46695000D01*
X48862000Y-46694000D01*
X48860000Y-46694000D01*
X48857000Y-46693000D01*
X48855000Y-46693000D01*
X48852000Y-46692000D01*
X48850000Y-46691000D01*
X48847000Y-46690000D01*
X48845000Y-46688000D01*
X48843000Y-46687000D01*
X48841000Y-46685000D01*
X48839000Y-46684000D01*
X48837000Y-46682000D01*
X48835000Y-46680000D01*
X48833000Y-46678000D01*
X48831000Y-46676000D01*
X48830000Y-46674000D01*
X48828000Y-46672000D01*
X48827000Y-46670000D01*
X48825000Y-46668000D01*
X48824000Y-46665000D01*
X48823000Y-46663000D01*
X48822000Y-46660000D01*
X48822000Y-46658000D01*
X48821000Y-46655000D01*
X48821000Y-46653000D01*
X48820000Y-46650000D01*
X48820000Y-46648000D01*
X48820000Y-46645000D01*
X48820000Y-46345000D01*
X48820000Y-46342000D01*
X48820000Y-46340000D01*
X48821000Y-46337000D01*
X48821000Y-46335000D01*
X48822000Y-46332000D01*
X48822000Y-46330000D01*
X48823000Y-46327000D01*
X48824000Y-46325000D01*
X48825000Y-46322000D01*
X48827000Y-46320000D01*
X48828000Y-46318000D01*
X48830000Y-46316000D01*
X48831000Y-46314000D01*
X48833000Y-46312000D01*
X48835000Y-46310000D01*
X48837000Y-46308000D01*
X48839000Y-46306000D01*
X48841000Y-46305000D01*
X48843000Y-46303000D01*
X48845000Y-46302000D01*
X48847000Y-46300000D01*
X48850000Y-46299000D01*
X48852000Y-46298000D01*
X48855000Y-46297000D01*
X48857000Y-46297000D01*
X48860000Y-46296000D01*
X48862000Y-46296000D01*
X48865000Y-46295000D01*
X48867000Y-46295000D01*
X48870000Y-46295000D01*
X49570000Y-46295000D01*
X49573000Y-46295000D01*
X49575000Y-46295000D01*
X49578000Y-46296000D01*
G36*
X49578000Y-46296000D02*
G01*
X49580000Y-46296000D01*
X49583000Y-46297000D01*
X49585000Y-46297000D01*
X49588000Y-46298000D01*
X49590000Y-46299000D01*
X49593000Y-46300000D01*
X49595000Y-46302000D01*
X49597000Y-46303000D01*
X49599000Y-46305000D01*
X49601000Y-46306000D01*
X49603000Y-46308000D01*
X49605000Y-46310000D01*
X49607000Y-46312000D01*
X49609000Y-46314000D01*
X49610000Y-46316000D01*
X49612000Y-46318000D01*
X49613000Y-46320000D01*
X49615000Y-46322000D01*
X49616000Y-46325000D01*
X49617000Y-46327000D01*
X49618000Y-46330000D01*
X49618000Y-46332000D01*
X49619000Y-46335000D01*
X49619000Y-46337000D01*
X49620000Y-46340000D01*
X49620000Y-46342000D01*
X49620000Y-46345000D01*
X49620000Y-46645000D01*
X49620000Y-46648000D01*
X49620000Y-46650000D01*
X49619000Y-46653000D01*
X49619000Y-46655000D01*
X49618000Y-46658000D01*
X49618000Y-46660000D01*
X49617000Y-46663000D01*
X49616000Y-46665000D01*
X49615000Y-46668000D01*
X49613000Y-46670000D01*
X49612000Y-46672000D01*
X49610000Y-46674000D01*
X49609000Y-46676000D01*
X49607000Y-46678000D01*
X49605000Y-46680000D01*
X49603000Y-46682000D01*
X49601000Y-46684000D01*
X49599000Y-46685000D01*
X49597000Y-46687000D01*
X49595000Y-46688000D01*
X49593000Y-46690000D01*
X49590000Y-46691000D01*
X49588000Y-46692000D01*
X49585000Y-46693000D01*
X49583000Y-46693000D01*
X49580000Y-46694000D01*
X49578000Y-46694000D01*
X49575000Y-46695000D01*
X49573000Y-46695000D01*
X49570000Y-46695000D01*
X48870000Y-46695000D01*
X48867000Y-46695000D01*
X48865000Y-46695000D01*
X48862000Y-46694000D01*
X48860000Y-46694000D01*
X48857000Y-46693000D01*
X48855000Y-46693000D01*
X48852000Y-46692000D01*
X48850000Y-46691000D01*
X48847000Y-46690000D01*
X48845000Y-46688000D01*
X48843000Y-46687000D01*
X48841000Y-46685000D01*
X48839000Y-46684000D01*
X48837000Y-46682000D01*
X48835000Y-46680000D01*
X48833000Y-46678000D01*
X48831000Y-46676000D01*
X48830000Y-46674000D01*
X48828000Y-46672000D01*
X48827000Y-46670000D01*
X48825000Y-46668000D01*
X48824000Y-46665000D01*
X48823000Y-46663000D01*
X48822000Y-46660000D01*
X48822000Y-46658000D01*
X48821000Y-46655000D01*
X48821000Y-46653000D01*
X48820000Y-46650000D01*
X48820000Y-46648000D01*
X48820000Y-46645000D01*
X48820000Y-46345000D01*
X48820000Y-46342000D01*
X48820000Y-46340000D01*
X48821000Y-46337000D01*
X48821000Y-46335000D01*
X48822000Y-46332000D01*
X48822000Y-46330000D01*
X48823000Y-46327000D01*
X48824000Y-46325000D01*
X48825000Y-46322000D01*
X48827000Y-46320000D01*
X48828000Y-46318000D01*
X48830000Y-46316000D01*
X48831000Y-46314000D01*
X48833000Y-46312000D01*
X48835000Y-46310000D01*
X48837000Y-46308000D01*
X48839000Y-46306000D01*
X48841000Y-46305000D01*
X48843000Y-46303000D01*
X48845000Y-46302000D01*
X48847000Y-46300000D01*
X48850000Y-46299000D01*
X48852000Y-46298000D01*
X48855000Y-46297000D01*
X48857000Y-46297000D01*
X48860000Y-46296000D01*
X48862000Y-46296000D01*
X48865000Y-46295000D01*
X48867000Y-46295000D01*
X48870000Y-46295000D01*
X49570000Y-46295000D01*
X49573000Y-46295000D01*
X49575000Y-46295000D01*
X49578000Y-46296000D01*
G37*
X50028000Y-44896000D02*
X50030000Y-44896000D01*
X50033000Y-44897000D01*
X50035000Y-44897000D01*
X50038000Y-44898000D01*
X50040000Y-44899000D01*
X50043000Y-44900000D01*
X50045000Y-44902000D01*
X50047000Y-44903000D01*
X50049000Y-44905000D01*
X50051000Y-44906000D01*
X50053000Y-44908000D01*
X50055000Y-44910000D01*
X50057000Y-44912000D01*
X50059000Y-44914000D01*
X50060000Y-44916000D01*
X50062000Y-44918000D01*
X50063000Y-44920000D01*
X50065000Y-44922000D01*
X50066000Y-44925000D01*
X50067000Y-44927000D01*
X50068000Y-44930000D01*
X50068000Y-44932000D01*
X50069000Y-44935000D01*
X50069000Y-44937000D01*
X50070000Y-44940000D01*
X50070000Y-44942000D01*
X50070000Y-44945000D01*
X50070000Y-45595000D01*
X50070000Y-45598000D01*
X50070000Y-45600000D01*
X50069000Y-45603000D01*
X50069000Y-45605000D01*
X50068000Y-45608000D01*
X50068000Y-45610000D01*
X50067000Y-45613000D01*
X50066000Y-45615000D01*
X50065000Y-45618000D01*
X50063000Y-45620000D01*
X50062000Y-45622000D01*
X50060000Y-45624000D01*
X50059000Y-45626000D01*
X50057000Y-45628000D01*
X50055000Y-45630000D01*
X50053000Y-45632000D01*
X50051000Y-45634000D01*
X50049000Y-45635000D01*
X50047000Y-45637000D01*
X50045000Y-45638000D01*
X50043000Y-45640000D01*
X50040000Y-45641000D01*
X50038000Y-45642000D01*
X50035000Y-45643000D01*
X50033000Y-45643000D01*
X50030000Y-45644000D01*
X50028000Y-45644000D01*
X50025000Y-45645000D01*
X50023000Y-45645000D01*
X50020000Y-45645000D01*
X49820000Y-45645000D01*
X49817000Y-45645000D01*
X49815000Y-45645000D01*
X49812000Y-45644000D01*
X49810000Y-45644000D01*
X49807000Y-45643000D01*
X49805000Y-45643000D01*
X49802000Y-45642000D01*
X49800000Y-45641000D01*
X49797000Y-45640000D01*
X49795000Y-45638000D01*
X49793000Y-45637000D01*
X49791000Y-45635000D01*
X49789000Y-45634000D01*
X49787000Y-45632000D01*
X49785000Y-45630000D01*
X49783000Y-45628000D01*
X49781000Y-45626000D01*
X49780000Y-45624000D01*
X49778000Y-45622000D01*
X49777000Y-45620000D01*
X49775000Y-45618000D01*
X49774000Y-45615000D01*
X49773000Y-45613000D01*
X49772000Y-45610000D01*
X49772000Y-45608000D01*
X49771000Y-45605000D01*
X49771000Y-45603000D01*
X49770000Y-45600000D01*
X49770000Y-45598000D01*
X49770000Y-45595000D01*
X49770000Y-44945000D01*
X49770000Y-44942000D01*
X49770000Y-44940000D01*
X49771000Y-44937000D01*
X49771000Y-44935000D01*
X49772000Y-44932000D01*
X49772000Y-44930000D01*
X49773000Y-44927000D01*
X49774000Y-44925000D01*
X49775000Y-44922000D01*
X49777000Y-44920000D01*
X49778000Y-44918000D01*
X49780000Y-44916000D01*
X49781000Y-44914000D01*
X49783000Y-44912000D01*
X49785000Y-44910000D01*
X49787000Y-44908000D01*
X49789000Y-44906000D01*
X49791000Y-44905000D01*
X49793000Y-44903000D01*
X49795000Y-44902000D01*
X49797000Y-44900000D01*
X49800000Y-44899000D01*
X49802000Y-44898000D01*
X49805000Y-44897000D01*
X49807000Y-44897000D01*
X49810000Y-44896000D01*
X49812000Y-44896000D01*
X49815000Y-44895000D01*
X49817000Y-44895000D01*
X49820000Y-44895000D01*
X50020000Y-44895000D01*
X50023000Y-44895000D01*
X50025000Y-44895000D01*
X50028000Y-44896000D01*
G36*
X50028000Y-44896000D02*
G01*
X50030000Y-44896000D01*
X50033000Y-44897000D01*
X50035000Y-44897000D01*
X50038000Y-44898000D01*
X50040000Y-44899000D01*
X50043000Y-44900000D01*
X50045000Y-44902000D01*
X50047000Y-44903000D01*
X50049000Y-44905000D01*
X50051000Y-44906000D01*
X50053000Y-44908000D01*
X50055000Y-44910000D01*
X50057000Y-44912000D01*
X50059000Y-44914000D01*
X50060000Y-44916000D01*
X50062000Y-44918000D01*
X50063000Y-44920000D01*
X50065000Y-44922000D01*
X50066000Y-44925000D01*
X50067000Y-44927000D01*
X50068000Y-44930000D01*
X50068000Y-44932000D01*
X50069000Y-44935000D01*
X50069000Y-44937000D01*
X50070000Y-44940000D01*
X50070000Y-44942000D01*
X50070000Y-44945000D01*
X50070000Y-45595000D01*
X50070000Y-45598000D01*
X50070000Y-45600000D01*
X50069000Y-45603000D01*
X50069000Y-45605000D01*
X50068000Y-45608000D01*
X50068000Y-45610000D01*
X50067000Y-45613000D01*
X50066000Y-45615000D01*
X50065000Y-45618000D01*
X50063000Y-45620000D01*
X50062000Y-45622000D01*
X50060000Y-45624000D01*
X50059000Y-45626000D01*
X50057000Y-45628000D01*
X50055000Y-45630000D01*
X50053000Y-45632000D01*
X50051000Y-45634000D01*
X50049000Y-45635000D01*
X50047000Y-45637000D01*
X50045000Y-45638000D01*
X50043000Y-45640000D01*
X50040000Y-45641000D01*
X50038000Y-45642000D01*
X50035000Y-45643000D01*
X50033000Y-45643000D01*
X50030000Y-45644000D01*
X50028000Y-45644000D01*
X50025000Y-45645000D01*
X50023000Y-45645000D01*
X50020000Y-45645000D01*
X49820000Y-45645000D01*
X49817000Y-45645000D01*
X49815000Y-45645000D01*
X49812000Y-45644000D01*
X49810000Y-45644000D01*
X49807000Y-45643000D01*
X49805000Y-45643000D01*
X49802000Y-45642000D01*
X49800000Y-45641000D01*
X49797000Y-45640000D01*
X49795000Y-45638000D01*
X49793000Y-45637000D01*
X49791000Y-45635000D01*
X49789000Y-45634000D01*
X49787000Y-45632000D01*
X49785000Y-45630000D01*
X49783000Y-45628000D01*
X49781000Y-45626000D01*
X49780000Y-45624000D01*
X49778000Y-45622000D01*
X49777000Y-45620000D01*
X49775000Y-45618000D01*
X49774000Y-45615000D01*
X49773000Y-45613000D01*
X49772000Y-45610000D01*
X49772000Y-45608000D01*
X49771000Y-45605000D01*
X49771000Y-45603000D01*
X49770000Y-45600000D01*
X49770000Y-45598000D01*
X49770000Y-45595000D01*
X49770000Y-44945000D01*
X49770000Y-44942000D01*
X49770000Y-44940000D01*
X49771000Y-44937000D01*
X49771000Y-44935000D01*
X49772000Y-44932000D01*
X49772000Y-44930000D01*
X49773000Y-44927000D01*
X49774000Y-44925000D01*
X49775000Y-44922000D01*
X49777000Y-44920000D01*
X49778000Y-44918000D01*
X49780000Y-44916000D01*
X49781000Y-44914000D01*
X49783000Y-44912000D01*
X49785000Y-44910000D01*
X49787000Y-44908000D01*
X49789000Y-44906000D01*
X49791000Y-44905000D01*
X49793000Y-44903000D01*
X49795000Y-44902000D01*
X49797000Y-44900000D01*
X49800000Y-44899000D01*
X49802000Y-44898000D01*
X49805000Y-44897000D01*
X49807000Y-44897000D01*
X49810000Y-44896000D01*
X49812000Y-44896000D01*
X49815000Y-44895000D01*
X49817000Y-44895000D01*
X49820000Y-44895000D01*
X50020000Y-44895000D01*
X50023000Y-44895000D01*
X50025000Y-44895000D01*
X50028000Y-44896000D01*
G37*
X50028000Y-47346000D02*
X50030000Y-47346000D01*
X50033000Y-47347000D01*
X50035000Y-47347000D01*
X50038000Y-47348000D01*
X50040000Y-47349000D01*
X50043000Y-47350000D01*
X50045000Y-47352000D01*
X50047000Y-47353000D01*
X50049000Y-47355000D01*
X50051000Y-47356000D01*
X50053000Y-47358000D01*
X50055000Y-47360000D01*
X50057000Y-47362000D01*
X50059000Y-47364000D01*
X50060000Y-47366000D01*
X50062000Y-47368000D01*
X50063000Y-47370000D01*
X50065000Y-47372000D01*
X50066000Y-47375000D01*
X50067000Y-47377000D01*
X50068000Y-47380000D01*
X50068000Y-47382000D01*
X50069000Y-47385000D01*
X50069000Y-47387000D01*
X50070000Y-47390000D01*
X50070000Y-47392000D01*
X50070000Y-47395000D01*
X50070000Y-48045000D01*
X50070000Y-48048000D01*
X50070000Y-48050000D01*
X50069000Y-48053000D01*
X50069000Y-48055000D01*
X50068000Y-48058000D01*
X50068000Y-48060000D01*
X50067000Y-48063000D01*
X50066000Y-48065000D01*
X50065000Y-48068000D01*
X50063000Y-48070000D01*
X50062000Y-48072000D01*
X50060000Y-48074000D01*
X50059000Y-48076000D01*
X50057000Y-48078000D01*
X50055000Y-48080000D01*
X50053000Y-48082000D01*
X50051000Y-48084000D01*
X50049000Y-48085000D01*
X50047000Y-48087000D01*
X50045000Y-48088000D01*
X50043000Y-48090000D01*
X50040000Y-48091000D01*
X50038000Y-48092000D01*
X50035000Y-48093000D01*
X50033000Y-48093000D01*
X50030000Y-48094000D01*
X50028000Y-48094000D01*
X50025000Y-48095000D01*
X50023000Y-48095000D01*
X50020000Y-48095000D01*
X49820000Y-48095000D01*
X49817000Y-48095000D01*
X49815000Y-48095000D01*
X49812000Y-48094000D01*
X49810000Y-48094000D01*
X49807000Y-48093000D01*
X49805000Y-48093000D01*
X49802000Y-48092000D01*
X49800000Y-48091000D01*
X49797000Y-48090000D01*
X49795000Y-48088000D01*
X49793000Y-48087000D01*
X49791000Y-48085000D01*
X49789000Y-48084000D01*
X49787000Y-48082000D01*
X49785000Y-48080000D01*
X49783000Y-48078000D01*
X49781000Y-48076000D01*
X49780000Y-48074000D01*
X49778000Y-48072000D01*
X49777000Y-48070000D01*
X49775000Y-48068000D01*
X49774000Y-48065000D01*
X49773000Y-48063000D01*
X49772000Y-48060000D01*
X49772000Y-48058000D01*
X49771000Y-48055000D01*
X49771000Y-48053000D01*
X49770000Y-48050000D01*
X49770000Y-48048000D01*
X49770000Y-48045000D01*
X49770000Y-47395000D01*
X49770000Y-47392000D01*
X49770000Y-47390000D01*
X49771000Y-47387000D01*
X49771000Y-47385000D01*
X49772000Y-47382000D01*
X49772000Y-47380000D01*
X49773000Y-47377000D01*
X49774000Y-47375000D01*
X49775000Y-47372000D01*
X49777000Y-47370000D01*
X49778000Y-47368000D01*
X49780000Y-47366000D01*
X49781000Y-47364000D01*
X49783000Y-47362000D01*
X49785000Y-47360000D01*
X49787000Y-47358000D01*
X49789000Y-47356000D01*
X49791000Y-47355000D01*
X49793000Y-47353000D01*
X49795000Y-47352000D01*
X49797000Y-47350000D01*
X49800000Y-47349000D01*
X49802000Y-47348000D01*
X49805000Y-47347000D01*
X49807000Y-47347000D01*
X49810000Y-47346000D01*
X49812000Y-47346000D01*
X49815000Y-47345000D01*
X49817000Y-47345000D01*
X49820000Y-47345000D01*
X50020000Y-47345000D01*
X50023000Y-47345000D01*
X50025000Y-47345000D01*
X50028000Y-47346000D01*
G36*
X50028000Y-47346000D02*
G01*
X50030000Y-47346000D01*
X50033000Y-47347000D01*
X50035000Y-47347000D01*
X50038000Y-47348000D01*
X50040000Y-47349000D01*
X50043000Y-47350000D01*
X50045000Y-47352000D01*
X50047000Y-47353000D01*
X50049000Y-47355000D01*
X50051000Y-47356000D01*
X50053000Y-47358000D01*
X50055000Y-47360000D01*
X50057000Y-47362000D01*
X50059000Y-47364000D01*
X50060000Y-47366000D01*
X50062000Y-47368000D01*
X50063000Y-47370000D01*
X50065000Y-47372000D01*
X50066000Y-47375000D01*
X50067000Y-47377000D01*
X50068000Y-47380000D01*
X50068000Y-47382000D01*
X50069000Y-47385000D01*
X50069000Y-47387000D01*
X50070000Y-47390000D01*
X50070000Y-47392000D01*
X50070000Y-47395000D01*
X50070000Y-48045000D01*
X50070000Y-48048000D01*
X50070000Y-48050000D01*
X50069000Y-48053000D01*
X50069000Y-48055000D01*
X50068000Y-48058000D01*
X50068000Y-48060000D01*
X50067000Y-48063000D01*
X50066000Y-48065000D01*
X50065000Y-48068000D01*
X50063000Y-48070000D01*
X50062000Y-48072000D01*
X50060000Y-48074000D01*
X50059000Y-48076000D01*
X50057000Y-48078000D01*
X50055000Y-48080000D01*
X50053000Y-48082000D01*
X50051000Y-48084000D01*
X50049000Y-48085000D01*
X50047000Y-48087000D01*
X50045000Y-48088000D01*
X50043000Y-48090000D01*
X50040000Y-48091000D01*
X50038000Y-48092000D01*
X50035000Y-48093000D01*
X50033000Y-48093000D01*
X50030000Y-48094000D01*
X50028000Y-48094000D01*
X50025000Y-48095000D01*
X50023000Y-48095000D01*
X50020000Y-48095000D01*
X49820000Y-48095000D01*
X49817000Y-48095000D01*
X49815000Y-48095000D01*
X49812000Y-48094000D01*
X49810000Y-48094000D01*
X49807000Y-48093000D01*
X49805000Y-48093000D01*
X49802000Y-48092000D01*
X49800000Y-48091000D01*
X49797000Y-48090000D01*
X49795000Y-48088000D01*
X49793000Y-48087000D01*
X49791000Y-48085000D01*
X49789000Y-48084000D01*
X49787000Y-48082000D01*
X49785000Y-48080000D01*
X49783000Y-48078000D01*
X49781000Y-48076000D01*
X49780000Y-48074000D01*
X49778000Y-48072000D01*
X49777000Y-48070000D01*
X49775000Y-48068000D01*
X49774000Y-48065000D01*
X49773000Y-48063000D01*
X49772000Y-48060000D01*
X49772000Y-48058000D01*
X49771000Y-48055000D01*
X49771000Y-48053000D01*
X49770000Y-48050000D01*
X49770000Y-48048000D01*
X49770000Y-48045000D01*
X49770000Y-47395000D01*
X49770000Y-47392000D01*
X49770000Y-47390000D01*
X49771000Y-47387000D01*
X49771000Y-47385000D01*
X49772000Y-47382000D01*
X49772000Y-47380000D01*
X49773000Y-47377000D01*
X49774000Y-47375000D01*
X49775000Y-47372000D01*
X49777000Y-47370000D01*
X49778000Y-47368000D01*
X49780000Y-47366000D01*
X49781000Y-47364000D01*
X49783000Y-47362000D01*
X49785000Y-47360000D01*
X49787000Y-47358000D01*
X49789000Y-47356000D01*
X49791000Y-47355000D01*
X49793000Y-47353000D01*
X49795000Y-47352000D01*
X49797000Y-47350000D01*
X49800000Y-47349000D01*
X49802000Y-47348000D01*
X49805000Y-47347000D01*
X49807000Y-47347000D01*
X49810000Y-47346000D01*
X49812000Y-47346000D01*
X49815000Y-47345000D01*
X49817000Y-47345000D01*
X49820000Y-47345000D01*
X50020000Y-47345000D01*
X50023000Y-47345000D01*
X50025000Y-47345000D01*
X50028000Y-47346000D01*
G37*
X50828000Y-44896000D02*
X50830000Y-44896000D01*
X50833000Y-44897000D01*
X50835000Y-44897000D01*
X50838000Y-44898000D01*
X50840000Y-44899000D01*
X50843000Y-44900000D01*
X50845000Y-44902000D01*
X50847000Y-44903000D01*
X50849000Y-44905000D01*
X50851000Y-44906000D01*
X50853000Y-44908000D01*
X50855000Y-44910000D01*
X50857000Y-44912000D01*
X50859000Y-44914000D01*
X50860000Y-44916000D01*
X50862000Y-44918000D01*
X50863000Y-44920000D01*
X50865000Y-44922000D01*
X50866000Y-44925000D01*
X50867000Y-44927000D01*
X50868000Y-44930000D01*
X50868000Y-44932000D01*
X50869000Y-44935000D01*
X50869000Y-44937000D01*
X50870000Y-44940000D01*
X50870000Y-44942000D01*
X50870000Y-44945000D01*
X50870000Y-45595000D01*
X50870000Y-45598000D01*
X50870000Y-45600000D01*
X50869000Y-45603000D01*
X50869000Y-45605000D01*
X50868000Y-45608000D01*
X50868000Y-45610000D01*
X50867000Y-45613000D01*
X50866000Y-45615000D01*
X50865000Y-45618000D01*
X50863000Y-45620000D01*
X50862000Y-45622000D01*
X50860000Y-45624000D01*
X50859000Y-45626000D01*
X50857000Y-45628000D01*
X50855000Y-45630000D01*
X50853000Y-45632000D01*
X50851000Y-45634000D01*
X50849000Y-45635000D01*
X50847000Y-45637000D01*
X50845000Y-45638000D01*
X50843000Y-45640000D01*
X50840000Y-45641000D01*
X50838000Y-45642000D01*
X50835000Y-45643000D01*
X50833000Y-45643000D01*
X50830000Y-45644000D01*
X50828000Y-45644000D01*
X50825000Y-45645000D01*
X50823000Y-45645000D01*
X50820000Y-45645000D01*
X50620000Y-45645000D01*
X50617000Y-45645000D01*
X50615000Y-45645000D01*
X50612000Y-45644000D01*
X50610000Y-45644000D01*
X50607000Y-45643000D01*
X50605000Y-45643000D01*
X50602000Y-45642000D01*
X50600000Y-45641000D01*
X50597000Y-45640000D01*
X50595000Y-45638000D01*
X50593000Y-45637000D01*
X50591000Y-45635000D01*
X50589000Y-45634000D01*
X50587000Y-45632000D01*
X50585000Y-45630000D01*
X50583000Y-45628000D01*
X50581000Y-45626000D01*
X50580000Y-45624000D01*
X50578000Y-45622000D01*
X50577000Y-45620000D01*
X50575000Y-45618000D01*
X50574000Y-45615000D01*
X50573000Y-45613000D01*
X50572000Y-45610000D01*
X50572000Y-45608000D01*
X50571000Y-45605000D01*
X50571000Y-45603000D01*
X50570000Y-45600000D01*
X50570000Y-45598000D01*
X50570000Y-45595000D01*
X50570000Y-44945000D01*
X50570000Y-44942000D01*
X50570000Y-44940000D01*
X50571000Y-44937000D01*
X50571000Y-44935000D01*
X50572000Y-44932000D01*
X50572000Y-44930000D01*
X50573000Y-44927000D01*
X50574000Y-44925000D01*
X50575000Y-44922000D01*
X50577000Y-44920000D01*
X50578000Y-44918000D01*
X50580000Y-44916000D01*
X50581000Y-44914000D01*
X50583000Y-44912000D01*
X50585000Y-44910000D01*
X50587000Y-44908000D01*
X50589000Y-44906000D01*
X50591000Y-44905000D01*
X50593000Y-44903000D01*
X50595000Y-44902000D01*
X50597000Y-44900000D01*
X50600000Y-44899000D01*
X50602000Y-44898000D01*
X50605000Y-44897000D01*
X50607000Y-44897000D01*
X50610000Y-44896000D01*
X50612000Y-44896000D01*
X50615000Y-44895000D01*
X50617000Y-44895000D01*
X50620000Y-44895000D01*
X50820000Y-44895000D01*
X50823000Y-44895000D01*
X50825000Y-44895000D01*
X50828000Y-44896000D01*
G36*
X50828000Y-44896000D02*
G01*
X50830000Y-44896000D01*
X50833000Y-44897000D01*
X50835000Y-44897000D01*
X50838000Y-44898000D01*
X50840000Y-44899000D01*
X50843000Y-44900000D01*
X50845000Y-44902000D01*
X50847000Y-44903000D01*
X50849000Y-44905000D01*
X50851000Y-44906000D01*
X50853000Y-44908000D01*
X50855000Y-44910000D01*
X50857000Y-44912000D01*
X50859000Y-44914000D01*
X50860000Y-44916000D01*
X50862000Y-44918000D01*
X50863000Y-44920000D01*
X50865000Y-44922000D01*
X50866000Y-44925000D01*
X50867000Y-44927000D01*
X50868000Y-44930000D01*
X50868000Y-44932000D01*
X50869000Y-44935000D01*
X50869000Y-44937000D01*
X50870000Y-44940000D01*
X50870000Y-44942000D01*
X50870000Y-44945000D01*
X50870000Y-45595000D01*
X50870000Y-45598000D01*
X50870000Y-45600000D01*
X50869000Y-45603000D01*
X50869000Y-45605000D01*
X50868000Y-45608000D01*
X50868000Y-45610000D01*
X50867000Y-45613000D01*
X50866000Y-45615000D01*
X50865000Y-45618000D01*
X50863000Y-45620000D01*
X50862000Y-45622000D01*
X50860000Y-45624000D01*
X50859000Y-45626000D01*
X50857000Y-45628000D01*
X50855000Y-45630000D01*
X50853000Y-45632000D01*
X50851000Y-45634000D01*
X50849000Y-45635000D01*
X50847000Y-45637000D01*
X50845000Y-45638000D01*
X50843000Y-45640000D01*
X50840000Y-45641000D01*
X50838000Y-45642000D01*
X50835000Y-45643000D01*
X50833000Y-45643000D01*
X50830000Y-45644000D01*
X50828000Y-45644000D01*
X50825000Y-45645000D01*
X50823000Y-45645000D01*
X50820000Y-45645000D01*
X50620000Y-45645000D01*
X50617000Y-45645000D01*
X50615000Y-45645000D01*
X50612000Y-45644000D01*
X50610000Y-45644000D01*
X50607000Y-45643000D01*
X50605000Y-45643000D01*
X50602000Y-45642000D01*
X50600000Y-45641000D01*
X50597000Y-45640000D01*
X50595000Y-45638000D01*
X50593000Y-45637000D01*
X50591000Y-45635000D01*
X50589000Y-45634000D01*
X50587000Y-45632000D01*
X50585000Y-45630000D01*
X50583000Y-45628000D01*
X50581000Y-45626000D01*
X50580000Y-45624000D01*
X50578000Y-45622000D01*
X50577000Y-45620000D01*
X50575000Y-45618000D01*
X50574000Y-45615000D01*
X50573000Y-45613000D01*
X50572000Y-45610000D01*
X50572000Y-45608000D01*
X50571000Y-45605000D01*
X50571000Y-45603000D01*
X50570000Y-45600000D01*
X50570000Y-45598000D01*
X50570000Y-45595000D01*
X50570000Y-44945000D01*
X50570000Y-44942000D01*
X50570000Y-44940000D01*
X50571000Y-44937000D01*
X50571000Y-44935000D01*
X50572000Y-44932000D01*
X50572000Y-44930000D01*
X50573000Y-44927000D01*
X50574000Y-44925000D01*
X50575000Y-44922000D01*
X50577000Y-44920000D01*
X50578000Y-44918000D01*
X50580000Y-44916000D01*
X50581000Y-44914000D01*
X50583000Y-44912000D01*
X50585000Y-44910000D01*
X50587000Y-44908000D01*
X50589000Y-44906000D01*
X50591000Y-44905000D01*
X50593000Y-44903000D01*
X50595000Y-44902000D01*
X50597000Y-44900000D01*
X50600000Y-44899000D01*
X50602000Y-44898000D01*
X50605000Y-44897000D01*
X50607000Y-44897000D01*
X50610000Y-44896000D01*
X50612000Y-44896000D01*
X50615000Y-44895000D01*
X50617000Y-44895000D01*
X50620000Y-44895000D01*
X50820000Y-44895000D01*
X50823000Y-44895000D01*
X50825000Y-44895000D01*
X50828000Y-44896000D01*
G37*
X50578000Y-46296000D02*
X50580000Y-46296000D01*
X50583000Y-46297000D01*
X50585000Y-46297000D01*
X50588000Y-46298000D01*
X50590000Y-46299000D01*
X50593000Y-46300000D01*
X50595000Y-46302000D01*
X50597000Y-46303000D01*
X50599000Y-46305000D01*
X50601000Y-46306000D01*
X50603000Y-46308000D01*
X50605000Y-46310000D01*
X50607000Y-46312000D01*
X50609000Y-46314000D01*
X50610000Y-46316000D01*
X50612000Y-46318000D01*
X50613000Y-46320000D01*
X50615000Y-46322000D01*
X50616000Y-46325000D01*
X50617000Y-46327000D01*
X50618000Y-46330000D01*
X50618000Y-46332000D01*
X50619000Y-46335000D01*
X50619000Y-46337000D01*
X50620000Y-46340000D01*
X50620000Y-46342000D01*
X50620000Y-46345000D01*
X50620000Y-46645000D01*
X50620000Y-46648000D01*
X50620000Y-46650000D01*
X50619000Y-46653000D01*
X50619000Y-46655000D01*
X50618000Y-46658000D01*
X50618000Y-46660000D01*
X50617000Y-46663000D01*
X50616000Y-46665000D01*
X50615000Y-46668000D01*
X50613000Y-46670000D01*
X50612000Y-46672000D01*
X50610000Y-46674000D01*
X50609000Y-46676000D01*
X50607000Y-46678000D01*
X50605000Y-46680000D01*
X50603000Y-46682000D01*
X50601000Y-46684000D01*
X50599000Y-46685000D01*
X50597000Y-46687000D01*
X50595000Y-46688000D01*
X50593000Y-46690000D01*
X50590000Y-46691000D01*
X50588000Y-46692000D01*
X50585000Y-46693000D01*
X50583000Y-46693000D01*
X50580000Y-46694000D01*
X50578000Y-46694000D01*
X50575000Y-46695000D01*
X50573000Y-46695000D01*
X50570000Y-46695000D01*
X49870000Y-46695000D01*
X49867000Y-46695000D01*
X49865000Y-46695000D01*
X49862000Y-46694000D01*
X49860000Y-46694000D01*
X49857000Y-46693000D01*
X49855000Y-46693000D01*
X49852000Y-46692000D01*
X49850000Y-46691000D01*
X49847000Y-46690000D01*
X49845000Y-46688000D01*
X49843000Y-46687000D01*
X49841000Y-46685000D01*
X49839000Y-46684000D01*
X49837000Y-46682000D01*
X49835000Y-46680000D01*
X49833000Y-46678000D01*
X49831000Y-46676000D01*
X49830000Y-46674000D01*
X49828000Y-46672000D01*
X49827000Y-46670000D01*
X49825000Y-46668000D01*
X49824000Y-46665000D01*
X49823000Y-46663000D01*
X49822000Y-46660000D01*
X49822000Y-46658000D01*
X49821000Y-46655000D01*
X49821000Y-46653000D01*
X49820000Y-46650000D01*
X49820000Y-46648000D01*
X49820000Y-46645000D01*
X49820000Y-46345000D01*
X49820000Y-46342000D01*
X49820000Y-46340000D01*
X49821000Y-46337000D01*
X49821000Y-46335000D01*
X49822000Y-46332000D01*
X49822000Y-46330000D01*
X49823000Y-46327000D01*
X49824000Y-46325000D01*
X49825000Y-46322000D01*
X49827000Y-46320000D01*
X49828000Y-46318000D01*
X49830000Y-46316000D01*
X49831000Y-46314000D01*
X49833000Y-46312000D01*
X49835000Y-46310000D01*
X49837000Y-46308000D01*
X49839000Y-46306000D01*
X49841000Y-46305000D01*
X49843000Y-46303000D01*
X49845000Y-46302000D01*
X49847000Y-46300000D01*
X49850000Y-46299000D01*
X49852000Y-46298000D01*
X49855000Y-46297000D01*
X49857000Y-46297000D01*
X49860000Y-46296000D01*
X49862000Y-46296000D01*
X49865000Y-46295000D01*
X49867000Y-46295000D01*
X49870000Y-46295000D01*
X50570000Y-46295000D01*
X50573000Y-46295000D01*
X50575000Y-46295000D01*
X50578000Y-46296000D01*
G36*
X50578000Y-46296000D02*
G01*
X50580000Y-46296000D01*
X50583000Y-46297000D01*
X50585000Y-46297000D01*
X50588000Y-46298000D01*
X50590000Y-46299000D01*
X50593000Y-46300000D01*
X50595000Y-46302000D01*
X50597000Y-46303000D01*
X50599000Y-46305000D01*
X50601000Y-46306000D01*
X50603000Y-46308000D01*
X50605000Y-46310000D01*
X50607000Y-46312000D01*
X50609000Y-46314000D01*
X50610000Y-46316000D01*
X50612000Y-46318000D01*
X50613000Y-46320000D01*
X50615000Y-46322000D01*
X50616000Y-46325000D01*
X50617000Y-46327000D01*
X50618000Y-46330000D01*
X50618000Y-46332000D01*
X50619000Y-46335000D01*
X50619000Y-46337000D01*
X50620000Y-46340000D01*
X50620000Y-46342000D01*
X50620000Y-46345000D01*
X50620000Y-46645000D01*
X50620000Y-46648000D01*
X50620000Y-46650000D01*
X50619000Y-46653000D01*
X50619000Y-46655000D01*
X50618000Y-46658000D01*
X50618000Y-46660000D01*
X50617000Y-46663000D01*
X50616000Y-46665000D01*
X50615000Y-46668000D01*
X50613000Y-46670000D01*
X50612000Y-46672000D01*
X50610000Y-46674000D01*
X50609000Y-46676000D01*
X50607000Y-46678000D01*
X50605000Y-46680000D01*
X50603000Y-46682000D01*
X50601000Y-46684000D01*
X50599000Y-46685000D01*
X50597000Y-46687000D01*
X50595000Y-46688000D01*
X50593000Y-46690000D01*
X50590000Y-46691000D01*
X50588000Y-46692000D01*
X50585000Y-46693000D01*
X50583000Y-46693000D01*
X50580000Y-46694000D01*
X50578000Y-46694000D01*
X50575000Y-46695000D01*
X50573000Y-46695000D01*
X50570000Y-46695000D01*
X49870000Y-46695000D01*
X49867000Y-46695000D01*
X49865000Y-46695000D01*
X49862000Y-46694000D01*
X49860000Y-46694000D01*
X49857000Y-46693000D01*
X49855000Y-46693000D01*
X49852000Y-46692000D01*
X49850000Y-46691000D01*
X49847000Y-46690000D01*
X49845000Y-46688000D01*
X49843000Y-46687000D01*
X49841000Y-46685000D01*
X49839000Y-46684000D01*
X49837000Y-46682000D01*
X49835000Y-46680000D01*
X49833000Y-46678000D01*
X49831000Y-46676000D01*
X49830000Y-46674000D01*
X49828000Y-46672000D01*
X49827000Y-46670000D01*
X49825000Y-46668000D01*
X49824000Y-46665000D01*
X49823000Y-46663000D01*
X49822000Y-46660000D01*
X49822000Y-46658000D01*
X49821000Y-46655000D01*
X49821000Y-46653000D01*
X49820000Y-46650000D01*
X49820000Y-46648000D01*
X49820000Y-46645000D01*
X49820000Y-46345000D01*
X49820000Y-46342000D01*
X49820000Y-46340000D01*
X49821000Y-46337000D01*
X49821000Y-46335000D01*
X49822000Y-46332000D01*
X49822000Y-46330000D01*
X49823000Y-46327000D01*
X49824000Y-46325000D01*
X49825000Y-46322000D01*
X49827000Y-46320000D01*
X49828000Y-46318000D01*
X49830000Y-46316000D01*
X49831000Y-46314000D01*
X49833000Y-46312000D01*
X49835000Y-46310000D01*
X49837000Y-46308000D01*
X49839000Y-46306000D01*
X49841000Y-46305000D01*
X49843000Y-46303000D01*
X49845000Y-46302000D01*
X49847000Y-46300000D01*
X49850000Y-46299000D01*
X49852000Y-46298000D01*
X49855000Y-46297000D01*
X49857000Y-46297000D01*
X49860000Y-46296000D01*
X49862000Y-46296000D01*
X49865000Y-46295000D01*
X49867000Y-46295000D01*
X49870000Y-46295000D01*
X50570000Y-46295000D01*
X50573000Y-46295000D01*
X50575000Y-46295000D01*
X50578000Y-46296000D01*
G37*
X50828000Y-47346000D02*
X50830000Y-47346000D01*
X50833000Y-47347000D01*
X50835000Y-47347000D01*
X50838000Y-47348000D01*
X50840000Y-47349000D01*
X50843000Y-47350000D01*
X50845000Y-47352000D01*
X50847000Y-47353000D01*
X50849000Y-47355000D01*
X50851000Y-47356000D01*
X50853000Y-47358000D01*
X50855000Y-47360000D01*
X50857000Y-47362000D01*
X50859000Y-47364000D01*
X50860000Y-47366000D01*
X50862000Y-47368000D01*
X50863000Y-47370000D01*
X50865000Y-47372000D01*
X50866000Y-47375000D01*
X50867000Y-47377000D01*
X50868000Y-47380000D01*
X50868000Y-47382000D01*
X50869000Y-47385000D01*
X50869000Y-47387000D01*
X50870000Y-47390000D01*
X50870000Y-47392000D01*
X50870000Y-47395000D01*
X50870000Y-48045000D01*
X50870000Y-48048000D01*
X50870000Y-48050000D01*
X50869000Y-48053000D01*
X50869000Y-48055000D01*
X50868000Y-48058000D01*
X50868000Y-48060000D01*
X50867000Y-48063000D01*
X50866000Y-48065000D01*
X50865000Y-48068000D01*
X50863000Y-48070000D01*
X50862000Y-48072000D01*
X50860000Y-48074000D01*
X50859000Y-48076000D01*
X50857000Y-48078000D01*
X50855000Y-48080000D01*
X50853000Y-48082000D01*
X50851000Y-48084000D01*
X50849000Y-48085000D01*
X50847000Y-48087000D01*
X50845000Y-48088000D01*
X50843000Y-48090000D01*
X50840000Y-48091000D01*
X50838000Y-48092000D01*
X50835000Y-48093000D01*
X50833000Y-48093000D01*
X50830000Y-48094000D01*
X50828000Y-48094000D01*
X50825000Y-48095000D01*
X50823000Y-48095000D01*
X50820000Y-48095000D01*
X50620000Y-48095000D01*
X50617000Y-48095000D01*
X50615000Y-48095000D01*
X50612000Y-48094000D01*
X50610000Y-48094000D01*
X50607000Y-48093000D01*
X50605000Y-48093000D01*
X50602000Y-48092000D01*
X50600000Y-48091000D01*
X50597000Y-48090000D01*
X50595000Y-48088000D01*
X50593000Y-48087000D01*
X50591000Y-48085000D01*
X50589000Y-48084000D01*
X50587000Y-48082000D01*
X50585000Y-48080000D01*
X50583000Y-48078000D01*
X50581000Y-48076000D01*
X50580000Y-48074000D01*
X50578000Y-48072000D01*
X50577000Y-48070000D01*
X50575000Y-48068000D01*
X50574000Y-48065000D01*
X50573000Y-48063000D01*
X50572000Y-48060000D01*
X50572000Y-48058000D01*
X50571000Y-48055000D01*
X50571000Y-48053000D01*
X50570000Y-48050000D01*
X50570000Y-48048000D01*
X50570000Y-48045000D01*
X50570000Y-47395000D01*
X50570000Y-47392000D01*
X50570000Y-47390000D01*
X50571000Y-47387000D01*
X50571000Y-47385000D01*
X50572000Y-47382000D01*
X50572000Y-47380000D01*
X50573000Y-47377000D01*
X50574000Y-47375000D01*
X50575000Y-47372000D01*
X50577000Y-47370000D01*
X50578000Y-47368000D01*
X50580000Y-47366000D01*
X50581000Y-47364000D01*
X50583000Y-47362000D01*
X50585000Y-47360000D01*
X50587000Y-47358000D01*
X50589000Y-47356000D01*
X50591000Y-47355000D01*
X50593000Y-47353000D01*
X50595000Y-47352000D01*
X50597000Y-47350000D01*
X50600000Y-47349000D01*
X50602000Y-47348000D01*
X50605000Y-47347000D01*
X50607000Y-47347000D01*
X50610000Y-47346000D01*
X50612000Y-47346000D01*
X50615000Y-47345000D01*
X50617000Y-47345000D01*
X50620000Y-47345000D01*
X50820000Y-47345000D01*
X50823000Y-47345000D01*
X50825000Y-47345000D01*
X50828000Y-47346000D01*
G36*
X50828000Y-47346000D02*
G01*
X50830000Y-47346000D01*
X50833000Y-47347000D01*
X50835000Y-47347000D01*
X50838000Y-47348000D01*
X50840000Y-47349000D01*
X50843000Y-47350000D01*
X50845000Y-47352000D01*
X50847000Y-47353000D01*
X50849000Y-47355000D01*
X50851000Y-47356000D01*
X50853000Y-47358000D01*
X50855000Y-47360000D01*
X50857000Y-47362000D01*
X50859000Y-47364000D01*
X50860000Y-47366000D01*
X50862000Y-47368000D01*
X50863000Y-47370000D01*
X50865000Y-47372000D01*
X50866000Y-47375000D01*
X50867000Y-47377000D01*
X50868000Y-47380000D01*
X50868000Y-47382000D01*
X50869000Y-47385000D01*
X50869000Y-47387000D01*
X50870000Y-47390000D01*
X50870000Y-47392000D01*
X50870000Y-47395000D01*
X50870000Y-48045000D01*
X50870000Y-48048000D01*
X50870000Y-48050000D01*
X50869000Y-48053000D01*
X50869000Y-48055000D01*
X50868000Y-48058000D01*
X50868000Y-48060000D01*
X50867000Y-48063000D01*
X50866000Y-48065000D01*
X50865000Y-48068000D01*
X50863000Y-48070000D01*
X50862000Y-48072000D01*
X50860000Y-48074000D01*
X50859000Y-48076000D01*
X50857000Y-48078000D01*
X50855000Y-48080000D01*
X50853000Y-48082000D01*
X50851000Y-48084000D01*
X50849000Y-48085000D01*
X50847000Y-48087000D01*
X50845000Y-48088000D01*
X50843000Y-48090000D01*
X50840000Y-48091000D01*
X50838000Y-48092000D01*
X50835000Y-48093000D01*
X50833000Y-48093000D01*
X50830000Y-48094000D01*
X50828000Y-48094000D01*
X50825000Y-48095000D01*
X50823000Y-48095000D01*
X50820000Y-48095000D01*
X50620000Y-48095000D01*
X50617000Y-48095000D01*
X50615000Y-48095000D01*
X50612000Y-48094000D01*
X50610000Y-48094000D01*
X50607000Y-48093000D01*
X50605000Y-48093000D01*
X50602000Y-48092000D01*
X50600000Y-48091000D01*
X50597000Y-48090000D01*
X50595000Y-48088000D01*
X50593000Y-48087000D01*
X50591000Y-48085000D01*
X50589000Y-48084000D01*
X50587000Y-48082000D01*
X50585000Y-48080000D01*
X50583000Y-48078000D01*
X50581000Y-48076000D01*
X50580000Y-48074000D01*
X50578000Y-48072000D01*
X50577000Y-48070000D01*
X50575000Y-48068000D01*
X50574000Y-48065000D01*
X50573000Y-48063000D01*
X50572000Y-48060000D01*
X50572000Y-48058000D01*
X50571000Y-48055000D01*
X50571000Y-48053000D01*
X50570000Y-48050000D01*
X50570000Y-48048000D01*
X50570000Y-48045000D01*
X50570000Y-47395000D01*
X50570000Y-47392000D01*
X50570000Y-47390000D01*
X50571000Y-47387000D01*
X50571000Y-47385000D01*
X50572000Y-47382000D01*
X50572000Y-47380000D01*
X50573000Y-47377000D01*
X50574000Y-47375000D01*
X50575000Y-47372000D01*
X50577000Y-47370000D01*
X50578000Y-47368000D01*
X50580000Y-47366000D01*
X50581000Y-47364000D01*
X50583000Y-47362000D01*
X50585000Y-47360000D01*
X50587000Y-47358000D01*
X50589000Y-47356000D01*
X50591000Y-47355000D01*
X50593000Y-47353000D01*
X50595000Y-47352000D01*
X50597000Y-47350000D01*
X50600000Y-47349000D01*
X50602000Y-47348000D01*
X50605000Y-47347000D01*
X50607000Y-47347000D01*
X50610000Y-47346000D01*
X50612000Y-47346000D01*
X50615000Y-47345000D01*
X50617000Y-47345000D01*
X50620000Y-47345000D01*
X50820000Y-47345000D01*
X50823000Y-47345000D01*
X50825000Y-47345000D01*
X50828000Y-47346000D01*
G37*
X51628000Y-44896000D02*
X51630000Y-44896000D01*
X51633000Y-44897000D01*
X51635000Y-44897000D01*
X51638000Y-44898000D01*
X51640000Y-44899000D01*
X51643000Y-44900000D01*
X51645000Y-44902000D01*
X51647000Y-44903000D01*
X51649000Y-44905000D01*
X51651000Y-44906000D01*
X51653000Y-44908000D01*
X51655000Y-44910000D01*
X51657000Y-44912000D01*
X51659000Y-44914000D01*
X51660000Y-44916000D01*
X51662000Y-44918000D01*
X51663000Y-44920000D01*
X51665000Y-44922000D01*
X51666000Y-44925000D01*
X51667000Y-44927000D01*
X51668000Y-44930000D01*
X51668000Y-44932000D01*
X51669000Y-44935000D01*
X51669000Y-44937000D01*
X51670000Y-44940000D01*
X51670000Y-44942000D01*
X51670000Y-44945000D01*
X51670000Y-45595000D01*
X51670000Y-45598000D01*
X51670000Y-45600000D01*
X51669000Y-45603000D01*
X51669000Y-45605000D01*
X51668000Y-45608000D01*
X51668000Y-45610000D01*
X51667000Y-45613000D01*
X51666000Y-45615000D01*
X51665000Y-45618000D01*
X51663000Y-45620000D01*
X51662000Y-45622000D01*
X51660000Y-45624000D01*
X51659000Y-45626000D01*
X51657000Y-45628000D01*
X51655000Y-45630000D01*
X51653000Y-45632000D01*
X51651000Y-45634000D01*
X51649000Y-45635000D01*
X51647000Y-45637000D01*
X51645000Y-45638000D01*
X51643000Y-45640000D01*
X51640000Y-45641000D01*
X51638000Y-45642000D01*
X51635000Y-45643000D01*
X51633000Y-45643000D01*
X51630000Y-45644000D01*
X51628000Y-45644000D01*
X51625000Y-45645000D01*
X51623000Y-45645000D01*
X51620000Y-45645000D01*
X51420000Y-45645000D01*
X51417000Y-45645000D01*
X51415000Y-45645000D01*
X51412000Y-45644000D01*
X51410000Y-45644000D01*
X51407000Y-45643000D01*
X51405000Y-45643000D01*
X51402000Y-45642000D01*
X51400000Y-45641000D01*
X51397000Y-45640000D01*
X51395000Y-45638000D01*
X51393000Y-45637000D01*
X51391000Y-45635000D01*
X51389000Y-45634000D01*
X51387000Y-45632000D01*
X51385000Y-45630000D01*
X51383000Y-45628000D01*
X51381000Y-45626000D01*
X51380000Y-45624000D01*
X51378000Y-45622000D01*
X51377000Y-45620000D01*
X51375000Y-45618000D01*
X51374000Y-45615000D01*
X51373000Y-45613000D01*
X51372000Y-45610000D01*
X51372000Y-45608000D01*
X51371000Y-45605000D01*
X51371000Y-45603000D01*
X51370000Y-45600000D01*
X51370000Y-45598000D01*
X51370000Y-45595000D01*
X51370000Y-44945000D01*
X51370000Y-44942000D01*
X51370000Y-44940000D01*
X51371000Y-44937000D01*
X51371000Y-44935000D01*
X51372000Y-44932000D01*
X51372000Y-44930000D01*
X51373000Y-44927000D01*
X51374000Y-44925000D01*
X51375000Y-44922000D01*
X51377000Y-44920000D01*
X51378000Y-44918000D01*
X51380000Y-44916000D01*
X51381000Y-44914000D01*
X51383000Y-44912000D01*
X51385000Y-44910000D01*
X51387000Y-44908000D01*
X51389000Y-44906000D01*
X51391000Y-44905000D01*
X51393000Y-44903000D01*
X51395000Y-44902000D01*
X51397000Y-44900000D01*
X51400000Y-44899000D01*
X51402000Y-44898000D01*
X51405000Y-44897000D01*
X51407000Y-44897000D01*
X51410000Y-44896000D01*
X51412000Y-44896000D01*
X51415000Y-44895000D01*
X51417000Y-44895000D01*
X51420000Y-44895000D01*
X51620000Y-44895000D01*
X51623000Y-44895000D01*
X51625000Y-44895000D01*
X51628000Y-44896000D01*
G36*
X51628000Y-44896000D02*
G01*
X51630000Y-44896000D01*
X51633000Y-44897000D01*
X51635000Y-44897000D01*
X51638000Y-44898000D01*
X51640000Y-44899000D01*
X51643000Y-44900000D01*
X51645000Y-44902000D01*
X51647000Y-44903000D01*
X51649000Y-44905000D01*
X51651000Y-44906000D01*
X51653000Y-44908000D01*
X51655000Y-44910000D01*
X51657000Y-44912000D01*
X51659000Y-44914000D01*
X51660000Y-44916000D01*
X51662000Y-44918000D01*
X51663000Y-44920000D01*
X51665000Y-44922000D01*
X51666000Y-44925000D01*
X51667000Y-44927000D01*
X51668000Y-44930000D01*
X51668000Y-44932000D01*
X51669000Y-44935000D01*
X51669000Y-44937000D01*
X51670000Y-44940000D01*
X51670000Y-44942000D01*
X51670000Y-44945000D01*
X51670000Y-45595000D01*
X51670000Y-45598000D01*
X51670000Y-45600000D01*
X51669000Y-45603000D01*
X51669000Y-45605000D01*
X51668000Y-45608000D01*
X51668000Y-45610000D01*
X51667000Y-45613000D01*
X51666000Y-45615000D01*
X51665000Y-45618000D01*
X51663000Y-45620000D01*
X51662000Y-45622000D01*
X51660000Y-45624000D01*
X51659000Y-45626000D01*
X51657000Y-45628000D01*
X51655000Y-45630000D01*
X51653000Y-45632000D01*
X51651000Y-45634000D01*
X51649000Y-45635000D01*
X51647000Y-45637000D01*
X51645000Y-45638000D01*
X51643000Y-45640000D01*
X51640000Y-45641000D01*
X51638000Y-45642000D01*
X51635000Y-45643000D01*
X51633000Y-45643000D01*
X51630000Y-45644000D01*
X51628000Y-45644000D01*
X51625000Y-45645000D01*
X51623000Y-45645000D01*
X51620000Y-45645000D01*
X51420000Y-45645000D01*
X51417000Y-45645000D01*
X51415000Y-45645000D01*
X51412000Y-45644000D01*
X51410000Y-45644000D01*
X51407000Y-45643000D01*
X51405000Y-45643000D01*
X51402000Y-45642000D01*
X51400000Y-45641000D01*
X51397000Y-45640000D01*
X51395000Y-45638000D01*
X51393000Y-45637000D01*
X51391000Y-45635000D01*
X51389000Y-45634000D01*
X51387000Y-45632000D01*
X51385000Y-45630000D01*
X51383000Y-45628000D01*
X51381000Y-45626000D01*
X51380000Y-45624000D01*
X51378000Y-45622000D01*
X51377000Y-45620000D01*
X51375000Y-45618000D01*
X51374000Y-45615000D01*
X51373000Y-45613000D01*
X51372000Y-45610000D01*
X51372000Y-45608000D01*
X51371000Y-45605000D01*
X51371000Y-45603000D01*
X51370000Y-45600000D01*
X51370000Y-45598000D01*
X51370000Y-45595000D01*
X51370000Y-44945000D01*
X51370000Y-44942000D01*
X51370000Y-44940000D01*
X51371000Y-44937000D01*
X51371000Y-44935000D01*
X51372000Y-44932000D01*
X51372000Y-44930000D01*
X51373000Y-44927000D01*
X51374000Y-44925000D01*
X51375000Y-44922000D01*
X51377000Y-44920000D01*
X51378000Y-44918000D01*
X51380000Y-44916000D01*
X51381000Y-44914000D01*
X51383000Y-44912000D01*
X51385000Y-44910000D01*
X51387000Y-44908000D01*
X51389000Y-44906000D01*
X51391000Y-44905000D01*
X51393000Y-44903000D01*
X51395000Y-44902000D01*
X51397000Y-44900000D01*
X51400000Y-44899000D01*
X51402000Y-44898000D01*
X51405000Y-44897000D01*
X51407000Y-44897000D01*
X51410000Y-44896000D01*
X51412000Y-44896000D01*
X51415000Y-44895000D01*
X51417000Y-44895000D01*
X51420000Y-44895000D01*
X51620000Y-44895000D01*
X51623000Y-44895000D01*
X51625000Y-44895000D01*
X51628000Y-44896000D01*
G37*
X51578000Y-46296000D02*
X51580000Y-46296000D01*
X51583000Y-46297000D01*
X51585000Y-46297000D01*
X51588000Y-46298000D01*
X51590000Y-46299000D01*
X51593000Y-46300000D01*
X51595000Y-46302000D01*
X51597000Y-46303000D01*
X51599000Y-46305000D01*
X51601000Y-46306000D01*
X51603000Y-46308000D01*
X51605000Y-46310000D01*
X51607000Y-46312000D01*
X51609000Y-46314000D01*
X51610000Y-46316000D01*
X51612000Y-46318000D01*
X51613000Y-46320000D01*
X51615000Y-46322000D01*
X51616000Y-46325000D01*
X51617000Y-46327000D01*
X51618000Y-46330000D01*
X51618000Y-46332000D01*
X51619000Y-46335000D01*
X51619000Y-46337000D01*
X51620000Y-46340000D01*
X51620000Y-46342000D01*
X51620000Y-46345000D01*
X51620000Y-46645000D01*
X51620000Y-46648000D01*
X51620000Y-46650000D01*
X51619000Y-46653000D01*
X51619000Y-46655000D01*
X51618000Y-46658000D01*
X51618000Y-46660000D01*
X51617000Y-46663000D01*
X51616000Y-46665000D01*
X51615000Y-46668000D01*
X51613000Y-46670000D01*
X51612000Y-46672000D01*
X51610000Y-46674000D01*
X51609000Y-46676000D01*
X51607000Y-46678000D01*
X51605000Y-46680000D01*
X51603000Y-46682000D01*
X51601000Y-46684000D01*
X51599000Y-46685000D01*
X51597000Y-46687000D01*
X51595000Y-46688000D01*
X51593000Y-46690000D01*
X51590000Y-46691000D01*
X51588000Y-46692000D01*
X51585000Y-46693000D01*
X51583000Y-46693000D01*
X51580000Y-46694000D01*
X51578000Y-46694000D01*
X51575000Y-46695000D01*
X51573000Y-46695000D01*
X51570000Y-46695000D01*
X50870000Y-46695000D01*
X50867000Y-46695000D01*
X50865000Y-46695000D01*
X50862000Y-46694000D01*
X50860000Y-46694000D01*
X50857000Y-46693000D01*
X50855000Y-46693000D01*
X50852000Y-46692000D01*
X50850000Y-46691000D01*
X50847000Y-46690000D01*
X50845000Y-46688000D01*
X50843000Y-46687000D01*
X50841000Y-46685000D01*
X50839000Y-46684000D01*
X50837000Y-46682000D01*
X50835000Y-46680000D01*
X50833000Y-46678000D01*
X50831000Y-46676000D01*
X50830000Y-46674000D01*
X50828000Y-46672000D01*
X50827000Y-46670000D01*
X50825000Y-46668000D01*
X50824000Y-46665000D01*
X50823000Y-46663000D01*
X50822000Y-46660000D01*
X50822000Y-46658000D01*
X50821000Y-46655000D01*
X50821000Y-46653000D01*
X50820000Y-46650000D01*
X50820000Y-46648000D01*
X50820000Y-46645000D01*
X50820000Y-46345000D01*
X50820000Y-46342000D01*
X50820000Y-46340000D01*
X50821000Y-46337000D01*
X50821000Y-46335000D01*
X50822000Y-46332000D01*
X50822000Y-46330000D01*
X50823000Y-46327000D01*
X50824000Y-46325000D01*
X50825000Y-46322000D01*
X50827000Y-46320000D01*
X50828000Y-46318000D01*
X50830000Y-46316000D01*
X50831000Y-46314000D01*
X50833000Y-46312000D01*
X50835000Y-46310000D01*
X50837000Y-46308000D01*
X50839000Y-46306000D01*
X50841000Y-46305000D01*
X50843000Y-46303000D01*
X50845000Y-46302000D01*
X50847000Y-46300000D01*
X50850000Y-46299000D01*
X50852000Y-46298000D01*
X50855000Y-46297000D01*
X50857000Y-46297000D01*
X50860000Y-46296000D01*
X50862000Y-46296000D01*
X50865000Y-46295000D01*
X50867000Y-46295000D01*
X50870000Y-46295000D01*
X51570000Y-46295000D01*
X51573000Y-46295000D01*
X51575000Y-46295000D01*
X51578000Y-46296000D01*
G36*
X51578000Y-46296000D02*
G01*
X51580000Y-46296000D01*
X51583000Y-46297000D01*
X51585000Y-46297000D01*
X51588000Y-46298000D01*
X51590000Y-46299000D01*
X51593000Y-46300000D01*
X51595000Y-46302000D01*
X51597000Y-46303000D01*
X51599000Y-46305000D01*
X51601000Y-46306000D01*
X51603000Y-46308000D01*
X51605000Y-46310000D01*
X51607000Y-46312000D01*
X51609000Y-46314000D01*
X51610000Y-46316000D01*
X51612000Y-46318000D01*
X51613000Y-46320000D01*
X51615000Y-46322000D01*
X51616000Y-46325000D01*
X51617000Y-46327000D01*
X51618000Y-46330000D01*
X51618000Y-46332000D01*
X51619000Y-46335000D01*
X51619000Y-46337000D01*
X51620000Y-46340000D01*
X51620000Y-46342000D01*
X51620000Y-46345000D01*
X51620000Y-46645000D01*
X51620000Y-46648000D01*
X51620000Y-46650000D01*
X51619000Y-46653000D01*
X51619000Y-46655000D01*
X51618000Y-46658000D01*
X51618000Y-46660000D01*
X51617000Y-46663000D01*
X51616000Y-46665000D01*
X51615000Y-46668000D01*
X51613000Y-46670000D01*
X51612000Y-46672000D01*
X51610000Y-46674000D01*
X51609000Y-46676000D01*
X51607000Y-46678000D01*
X51605000Y-46680000D01*
X51603000Y-46682000D01*
X51601000Y-46684000D01*
X51599000Y-46685000D01*
X51597000Y-46687000D01*
X51595000Y-46688000D01*
X51593000Y-46690000D01*
X51590000Y-46691000D01*
X51588000Y-46692000D01*
X51585000Y-46693000D01*
X51583000Y-46693000D01*
X51580000Y-46694000D01*
X51578000Y-46694000D01*
X51575000Y-46695000D01*
X51573000Y-46695000D01*
X51570000Y-46695000D01*
X50870000Y-46695000D01*
X50867000Y-46695000D01*
X50865000Y-46695000D01*
X50862000Y-46694000D01*
X50860000Y-46694000D01*
X50857000Y-46693000D01*
X50855000Y-46693000D01*
X50852000Y-46692000D01*
X50850000Y-46691000D01*
X50847000Y-46690000D01*
X50845000Y-46688000D01*
X50843000Y-46687000D01*
X50841000Y-46685000D01*
X50839000Y-46684000D01*
X50837000Y-46682000D01*
X50835000Y-46680000D01*
X50833000Y-46678000D01*
X50831000Y-46676000D01*
X50830000Y-46674000D01*
X50828000Y-46672000D01*
X50827000Y-46670000D01*
X50825000Y-46668000D01*
X50824000Y-46665000D01*
X50823000Y-46663000D01*
X50822000Y-46660000D01*
X50822000Y-46658000D01*
X50821000Y-46655000D01*
X50821000Y-46653000D01*
X50820000Y-46650000D01*
X50820000Y-46648000D01*
X50820000Y-46645000D01*
X50820000Y-46345000D01*
X50820000Y-46342000D01*
X50820000Y-46340000D01*
X50821000Y-46337000D01*
X50821000Y-46335000D01*
X50822000Y-46332000D01*
X50822000Y-46330000D01*
X50823000Y-46327000D01*
X50824000Y-46325000D01*
X50825000Y-46322000D01*
X50827000Y-46320000D01*
X50828000Y-46318000D01*
X50830000Y-46316000D01*
X50831000Y-46314000D01*
X50833000Y-46312000D01*
X50835000Y-46310000D01*
X50837000Y-46308000D01*
X50839000Y-46306000D01*
X50841000Y-46305000D01*
X50843000Y-46303000D01*
X50845000Y-46302000D01*
X50847000Y-46300000D01*
X50850000Y-46299000D01*
X50852000Y-46298000D01*
X50855000Y-46297000D01*
X50857000Y-46297000D01*
X50860000Y-46296000D01*
X50862000Y-46296000D01*
X50865000Y-46295000D01*
X50867000Y-46295000D01*
X50870000Y-46295000D01*
X51570000Y-46295000D01*
X51573000Y-46295000D01*
X51575000Y-46295000D01*
X51578000Y-46296000D01*
G37*
X51628000Y-47346000D02*
X51630000Y-47346000D01*
X51633000Y-47347000D01*
X51635000Y-47347000D01*
X51638000Y-47348000D01*
X51640000Y-47349000D01*
X51643000Y-47350000D01*
X51645000Y-47352000D01*
X51647000Y-47353000D01*
X51649000Y-47355000D01*
X51651000Y-47356000D01*
X51653000Y-47358000D01*
X51655000Y-47360000D01*
X51657000Y-47362000D01*
X51659000Y-47364000D01*
X51660000Y-47366000D01*
X51662000Y-47368000D01*
X51663000Y-47370000D01*
X51665000Y-47372000D01*
X51666000Y-47375000D01*
X51667000Y-47377000D01*
X51668000Y-47380000D01*
X51668000Y-47382000D01*
X51669000Y-47385000D01*
X51669000Y-47387000D01*
X51670000Y-47390000D01*
X51670000Y-47392000D01*
X51670000Y-47395000D01*
X51670000Y-48045000D01*
X51670000Y-48048000D01*
X51670000Y-48050000D01*
X51669000Y-48053000D01*
X51669000Y-48055000D01*
X51668000Y-48058000D01*
X51668000Y-48060000D01*
X51667000Y-48063000D01*
X51666000Y-48065000D01*
X51665000Y-48068000D01*
X51663000Y-48070000D01*
X51662000Y-48072000D01*
X51660000Y-48074000D01*
X51659000Y-48076000D01*
X51657000Y-48078000D01*
X51655000Y-48080000D01*
X51653000Y-48082000D01*
X51651000Y-48084000D01*
X51649000Y-48085000D01*
X51647000Y-48087000D01*
X51645000Y-48088000D01*
X51643000Y-48090000D01*
X51640000Y-48091000D01*
X51638000Y-48092000D01*
X51635000Y-48093000D01*
X51633000Y-48093000D01*
X51630000Y-48094000D01*
X51628000Y-48094000D01*
X51625000Y-48095000D01*
X51623000Y-48095000D01*
X51620000Y-48095000D01*
X51420000Y-48095000D01*
X51417000Y-48095000D01*
X51415000Y-48095000D01*
X51412000Y-48094000D01*
X51410000Y-48094000D01*
X51407000Y-48093000D01*
X51405000Y-48093000D01*
X51402000Y-48092000D01*
X51400000Y-48091000D01*
X51397000Y-48090000D01*
X51395000Y-48088000D01*
X51393000Y-48087000D01*
X51391000Y-48085000D01*
X51389000Y-48084000D01*
X51387000Y-48082000D01*
X51385000Y-48080000D01*
X51383000Y-48078000D01*
X51381000Y-48076000D01*
X51380000Y-48074000D01*
X51378000Y-48072000D01*
X51377000Y-48070000D01*
X51375000Y-48068000D01*
X51374000Y-48065000D01*
X51373000Y-48063000D01*
X51372000Y-48060000D01*
X51372000Y-48058000D01*
X51371000Y-48055000D01*
X51371000Y-48053000D01*
X51370000Y-48050000D01*
X51370000Y-48048000D01*
X51370000Y-48045000D01*
X51370000Y-47395000D01*
X51370000Y-47392000D01*
X51370000Y-47390000D01*
X51371000Y-47387000D01*
X51371000Y-47385000D01*
X51372000Y-47382000D01*
X51372000Y-47380000D01*
X51373000Y-47377000D01*
X51374000Y-47375000D01*
X51375000Y-47372000D01*
X51377000Y-47370000D01*
X51378000Y-47368000D01*
X51380000Y-47366000D01*
X51381000Y-47364000D01*
X51383000Y-47362000D01*
X51385000Y-47360000D01*
X51387000Y-47358000D01*
X51389000Y-47356000D01*
X51391000Y-47355000D01*
X51393000Y-47353000D01*
X51395000Y-47352000D01*
X51397000Y-47350000D01*
X51400000Y-47349000D01*
X51402000Y-47348000D01*
X51405000Y-47347000D01*
X51407000Y-47347000D01*
X51410000Y-47346000D01*
X51412000Y-47346000D01*
X51415000Y-47345000D01*
X51417000Y-47345000D01*
X51420000Y-47345000D01*
X51620000Y-47345000D01*
X51623000Y-47345000D01*
X51625000Y-47345000D01*
X51628000Y-47346000D01*
G36*
X51628000Y-47346000D02*
G01*
X51630000Y-47346000D01*
X51633000Y-47347000D01*
X51635000Y-47347000D01*
X51638000Y-47348000D01*
X51640000Y-47349000D01*
X51643000Y-47350000D01*
X51645000Y-47352000D01*
X51647000Y-47353000D01*
X51649000Y-47355000D01*
X51651000Y-47356000D01*
X51653000Y-47358000D01*
X51655000Y-47360000D01*
X51657000Y-47362000D01*
X51659000Y-47364000D01*
X51660000Y-47366000D01*
X51662000Y-47368000D01*
X51663000Y-47370000D01*
X51665000Y-47372000D01*
X51666000Y-47375000D01*
X51667000Y-47377000D01*
X51668000Y-47380000D01*
X51668000Y-47382000D01*
X51669000Y-47385000D01*
X51669000Y-47387000D01*
X51670000Y-47390000D01*
X51670000Y-47392000D01*
X51670000Y-47395000D01*
X51670000Y-48045000D01*
X51670000Y-48048000D01*
X51670000Y-48050000D01*
X51669000Y-48053000D01*
X51669000Y-48055000D01*
X51668000Y-48058000D01*
X51668000Y-48060000D01*
X51667000Y-48063000D01*
X51666000Y-48065000D01*
X51665000Y-48068000D01*
X51663000Y-48070000D01*
X51662000Y-48072000D01*
X51660000Y-48074000D01*
X51659000Y-48076000D01*
X51657000Y-48078000D01*
X51655000Y-48080000D01*
X51653000Y-48082000D01*
X51651000Y-48084000D01*
X51649000Y-48085000D01*
X51647000Y-48087000D01*
X51645000Y-48088000D01*
X51643000Y-48090000D01*
X51640000Y-48091000D01*
X51638000Y-48092000D01*
X51635000Y-48093000D01*
X51633000Y-48093000D01*
X51630000Y-48094000D01*
X51628000Y-48094000D01*
X51625000Y-48095000D01*
X51623000Y-48095000D01*
X51620000Y-48095000D01*
X51420000Y-48095000D01*
X51417000Y-48095000D01*
X51415000Y-48095000D01*
X51412000Y-48094000D01*
X51410000Y-48094000D01*
X51407000Y-48093000D01*
X51405000Y-48093000D01*
X51402000Y-48092000D01*
X51400000Y-48091000D01*
X51397000Y-48090000D01*
X51395000Y-48088000D01*
X51393000Y-48087000D01*
X51391000Y-48085000D01*
X51389000Y-48084000D01*
X51387000Y-48082000D01*
X51385000Y-48080000D01*
X51383000Y-48078000D01*
X51381000Y-48076000D01*
X51380000Y-48074000D01*
X51378000Y-48072000D01*
X51377000Y-48070000D01*
X51375000Y-48068000D01*
X51374000Y-48065000D01*
X51373000Y-48063000D01*
X51372000Y-48060000D01*
X51372000Y-48058000D01*
X51371000Y-48055000D01*
X51371000Y-48053000D01*
X51370000Y-48050000D01*
X51370000Y-48048000D01*
X51370000Y-48045000D01*
X51370000Y-47395000D01*
X51370000Y-47392000D01*
X51370000Y-47390000D01*
X51371000Y-47387000D01*
X51371000Y-47385000D01*
X51372000Y-47382000D01*
X51372000Y-47380000D01*
X51373000Y-47377000D01*
X51374000Y-47375000D01*
X51375000Y-47372000D01*
X51377000Y-47370000D01*
X51378000Y-47368000D01*
X51380000Y-47366000D01*
X51381000Y-47364000D01*
X51383000Y-47362000D01*
X51385000Y-47360000D01*
X51387000Y-47358000D01*
X51389000Y-47356000D01*
X51391000Y-47355000D01*
X51393000Y-47353000D01*
X51395000Y-47352000D01*
X51397000Y-47350000D01*
X51400000Y-47349000D01*
X51402000Y-47348000D01*
X51405000Y-47347000D01*
X51407000Y-47347000D01*
X51410000Y-47346000D01*
X51412000Y-47346000D01*
X51415000Y-47345000D01*
X51417000Y-47345000D01*
X51420000Y-47345000D01*
X51620000Y-47345000D01*
X51623000Y-47345000D01*
X51625000Y-47345000D01*
X51628000Y-47346000D01*
G37*
X52428000Y-44896000D02*
X52430000Y-44896000D01*
X52433000Y-44897000D01*
X52435000Y-44897000D01*
X52438000Y-44898000D01*
X52440000Y-44899000D01*
X52443000Y-44900000D01*
X52445000Y-44902000D01*
X52447000Y-44903000D01*
X52449000Y-44905000D01*
X52451000Y-44906000D01*
X52453000Y-44908000D01*
X52455000Y-44910000D01*
X52457000Y-44912000D01*
X52459000Y-44914000D01*
X52460000Y-44916000D01*
X52462000Y-44918000D01*
X52463000Y-44920000D01*
X52465000Y-44922000D01*
X52466000Y-44925000D01*
X52467000Y-44927000D01*
X52468000Y-44930000D01*
X52468000Y-44932000D01*
X52469000Y-44935000D01*
X52469000Y-44937000D01*
X52470000Y-44940000D01*
X52470000Y-44942000D01*
X52470000Y-44945000D01*
X52470000Y-45595000D01*
X52470000Y-45598000D01*
X52470000Y-45600000D01*
X52469000Y-45603000D01*
X52469000Y-45605000D01*
X52468000Y-45608000D01*
X52468000Y-45610000D01*
X52467000Y-45613000D01*
X52466000Y-45615000D01*
X52465000Y-45618000D01*
X52463000Y-45620000D01*
X52462000Y-45622000D01*
X52460000Y-45624000D01*
X52459000Y-45626000D01*
X52457000Y-45628000D01*
X52455000Y-45630000D01*
X52453000Y-45632000D01*
X52451000Y-45634000D01*
X52449000Y-45635000D01*
X52447000Y-45637000D01*
X52445000Y-45638000D01*
X52443000Y-45640000D01*
X52440000Y-45641000D01*
X52438000Y-45642000D01*
X52435000Y-45643000D01*
X52433000Y-45643000D01*
X52430000Y-45644000D01*
X52428000Y-45644000D01*
X52425000Y-45645000D01*
X52423000Y-45645000D01*
X52420000Y-45645000D01*
X52220000Y-45645000D01*
X52217000Y-45645000D01*
X52215000Y-45645000D01*
X52212000Y-45644000D01*
X52210000Y-45644000D01*
X52207000Y-45643000D01*
X52205000Y-45643000D01*
X52202000Y-45642000D01*
X52200000Y-45641000D01*
X52197000Y-45640000D01*
X52195000Y-45638000D01*
X52193000Y-45637000D01*
X52191000Y-45635000D01*
X52189000Y-45634000D01*
X52187000Y-45632000D01*
X52185000Y-45630000D01*
X52183000Y-45628000D01*
X52181000Y-45626000D01*
X52180000Y-45624000D01*
X52178000Y-45622000D01*
X52177000Y-45620000D01*
X52175000Y-45618000D01*
X52174000Y-45615000D01*
X52173000Y-45613000D01*
X52172000Y-45610000D01*
X52172000Y-45608000D01*
X52171000Y-45605000D01*
X52171000Y-45603000D01*
X52170000Y-45600000D01*
X52170000Y-45598000D01*
X52170000Y-45595000D01*
X52170000Y-44945000D01*
X52170000Y-44942000D01*
X52170000Y-44940000D01*
X52171000Y-44937000D01*
X52171000Y-44935000D01*
X52172000Y-44932000D01*
X52172000Y-44930000D01*
X52173000Y-44927000D01*
X52174000Y-44925000D01*
X52175000Y-44922000D01*
X52177000Y-44920000D01*
X52178000Y-44918000D01*
X52180000Y-44916000D01*
X52181000Y-44914000D01*
X52183000Y-44912000D01*
X52185000Y-44910000D01*
X52187000Y-44908000D01*
X52189000Y-44906000D01*
X52191000Y-44905000D01*
X52193000Y-44903000D01*
X52195000Y-44902000D01*
X52197000Y-44900000D01*
X52200000Y-44899000D01*
X52202000Y-44898000D01*
X52205000Y-44897000D01*
X52207000Y-44897000D01*
X52210000Y-44896000D01*
X52212000Y-44896000D01*
X52215000Y-44895000D01*
X52217000Y-44895000D01*
X52220000Y-44895000D01*
X52420000Y-44895000D01*
X52423000Y-44895000D01*
X52425000Y-44895000D01*
X52428000Y-44896000D01*
G36*
X52428000Y-44896000D02*
G01*
X52430000Y-44896000D01*
X52433000Y-44897000D01*
X52435000Y-44897000D01*
X52438000Y-44898000D01*
X52440000Y-44899000D01*
X52443000Y-44900000D01*
X52445000Y-44902000D01*
X52447000Y-44903000D01*
X52449000Y-44905000D01*
X52451000Y-44906000D01*
X52453000Y-44908000D01*
X52455000Y-44910000D01*
X52457000Y-44912000D01*
X52459000Y-44914000D01*
X52460000Y-44916000D01*
X52462000Y-44918000D01*
X52463000Y-44920000D01*
X52465000Y-44922000D01*
X52466000Y-44925000D01*
X52467000Y-44927000D01*
X52468000Y-44930000D01*
X52468000Y-44932000D01*
X52469000Y-44935000D01*
X52469000Y-44937000D01*
X52470000Y-44940000D01*
X52470000Y-44942000D01*
X52470000Y-44945000D01*
X52470000Y-45595000D01*
X52470000Y-45598000D01*
X52470000Y-45600000D01*
X52469000Y-45603000D01*
X52469000Y-45605000D01*
X52468000Y-45608000D01*
X52468000Y-45610000D01*
X52467000Y-45613000D01*
X52466000Y-45615000D01*
X52465000Y-45618000D01*
X52463000Y-45620000D01*
X52462000Y-45622000D01*
X52460000Y-45624000D01*
X52459000Y-45626000D01*
X52457000Y-45628000D01*
X52455000Y-45630000D01*
X52453000Y-45632000D01*
X52451000Y-45634000D01*
X52449000Y-45635000D01*
X52447000Y-45637000D01*
X52445000Y-45638000D01*
X52443000Y-45640000D01*
X52440000Y-45641000D01*
X52438000Y-45642000D01*
X52435000Y-45643000D01*
X52433000Y-45643000D01*
X52430000Y-45644000D01*
X52428000Y-45644000D01*
X52425000Y-45645000D01*
X52423000Y-45645000D01*
X52420000Y-45645000D01*
X52220000Y-45645000D01*
X52217000Y-45645000D01*
X52215000Y-45645000D01*
X52212000Y-45644000D01*
X52210000Y-45644000D01*
X52207000Y-45643000D01*
X52205000Y-45643000D01*
X52202000Y-45642000D01*
X52200000Y-45641000D01*
X52197000Y-45640000D01*
X52195000Y-45638000D01*
X52193000Y-45637000D01*
X52191000Y-45635000D01*
X52189000Y-45634000D01*
X52187000Y-45632000D01*
X52185000Y-45630000D01*
X52183000Y-45628000D01*
X52181000Y-45626000D01*
X52180000Y-45624000D01*
X52178000Y-45622000D01*
X52177000Y-45620000D01*
X52175000Y-45618000D01*
X52174000Y-45615000D01*
X52173000Y-45613000D01*
X52172000Y-45610000D01*
X52172000Y-45608000D01*
X52171000Y-45605000D01*
X52171000Y-45603000D01*
X52170000Y-45600000D01*
X52170000Y-45598000D01*
X52170000Y-45595000D01*
X52170000Y-44945000D01*
X52170000Y-44942000D01*
X52170000Y-44940000D01*
X52171000Y-44937000D01*
X52171000Y-44935000D01*
X52172000Y-44932000D01*
X52172000Y-44930000D01*
X52173000Y-44927000D01*
X52174000Y-44925000D01*
X52175000Y-44922000D01*
X52177000Y-44920000D01*
X52178000Y-44918000D01*
X52180000Y-44916000D01*
X52181000Y-44914000D01*
X52183000Y-44912000D01*
X52185000Y-44910000D01*
X52187000Y-44908000D01*
X52189000Y-44906000D01*
X52191000Y-44905000D01*
X52193000Y-44903000D01*
X52195000Y-44902000D01*
X52197000Y-44900000D01*
X52200000Y-44899000D01*
X52202000Y-44898000D01*
X52205000Y-44897000D01*
X52207000Y-44897000D01*
X52210000Y-44896000D01*
X52212000Y-44896000D01*
X52215000Y-44895000D01*
X52217000Y-44895000D01*
X52220000Y-44895000D01*
X52420000Y-44895000D01*
X52423000Y-44895000D01*
X52425000Y-44895000D01*
X52428000Y-44896000D01*
G37*
X52428000Y-47346000D02*
X52430000Y-47346000D01*
X52433000Y-47347000D01*
X52435000Y-47347000D01*
X52438000Y-47348000D01*
X52440000Y-47349000D01*
X52443000Y-47350000D01*
X52445000Y-47352000D01*
X52447000Y-47353000D01*
X52449000Y-47355000D01*
X52451000Y-47356000D01*
X52453000Y-47358000D01*
X52455000Y-47360000D01*
X52457000Y-47362000D01*
X52459000Y-47364000D01*
X52460000Y-47366000D01*
X52462000Y-47368000D01*
X52463000Y-47370000D01*
X52465000Y-47372000D01*
X52466000Y-47375000D01*
X52467000Y-47377000D01*
X52468000Y-47380000D01*
X52468000Y-47382000D01*
X52469000Y-47385000D01*
X52469000Y-47387000D01*
X52470000Y-47390000D01*
X52470000Y-47392000D01*
X52470000Y-47395000D01*
X52470000Y-48045000D01*
X52470000Y-48048000D01*
X52470000Y-48050000D01*
X52469000Y-48053000D01*
X52469000Y-48055000D01*
X52468000Y-48058000D01*
X52468000Y-48060000D01*
X52467000Y-48063000D01*
X52466000Y-48065000D01*
X52465000Y-48068000D01*
X52463000Y-48070000D01*
X52462000Y-48072000D01*
X52460000Y-48074000D01*
X52459000Y-48076000D01*
X52457000Y-48078000D01*
X52455000Y-48080000D01*
X52453000Y-48082000D01*
X52451000Y-48084000D01*
X52449000Y-48085000D01*
X52447000Y-48087000D01*
X52445000Y-48088000D01*
X52443000Y-48090000D01*
X52440000Y-48091000D01*
X52438000Y-48092000D01*
X52435000Y-48093000D01*
X52433000Y-48093000D01*
X52430000Y-48094000D01*
X52428000Y-48094000D01*
X52425000Y-48095000D01*
X52423000Y-48095000D01*
X52420000Y-48095000D01*
X52220000Y-48095000D01*
X52217000Y-48095000D01*
X52215000Y-48095000D01*
X52212000Y-48094000D01*
X52210000Y-48094000D01*
X52207000Y-48093000D01*
X52205000Y-48093000D01*
X52202000Y-48092000D01*
X52200000Y-48091000D01*
X52197000Y-48090000D01*
X52195000Y-48088000D01*
X52193000Y-48087000D01*
X52191000Y-48085000D01*
X52189000Y-48084000D01*
X52187000Y-48082000D01*
X52185000Y-48080000D01*
X52183000Y-48078000D01*
X52181000Y-48076000D01*
X52180000Y-48074000D01*
X52178000Y-48072000D01*
X52177000Y-48070000D01*
X52175000Y-48068000D01*
X52174000Y-48065000D01*
X52173000Y-48063000D01*
X52172000Y-48060000D01*
X52172000Y-48058000D01*
X52171000Y-48055000D01*
X52171000Y-48053000D01*
X52170000Y-48050000D01*
X52170000Y-48048000D01*
X52170000Y-48045000D01*
X52170000Y-47395000D01*
X52170000Y-47392000D01*
X52170000Y-47390000D01*
X52171000Y-47387000D01*
X52171000Y-47385000D01*
X52172000Y-47382000D01*
X52172000Y-47380000D01*
X52173000Y-47377000D01*
X52174000Y-47375000D01*
X52175000Y-47372000D01*
X52177000Y-47370000D01*
X52178000Y-47368000D01*
X52180000Y-47366000D01*
X52181000Y-47364000D01*
X52183000Y-47362000D01*
X52185000Y-47360000D01*
X52187000Y-47358000D01*
X52189000Y-47356000D01*
X52191000Y-47355000D01*
X52193000Y-47353000D01*
X52195000Y-47352000D01*
X52197000Y-47350000D01*
X52200000Y-47349000D01*
X52202000Y-47348000D01*
X52205000Y-47347000D01*
X52207000Y-47347000D01*
X52210000Y-47346000D01*
X52212000Y-47346000D01*
X52215000Y-47345000D01*
X52217000Y-47345000D01*
X52220000Y-47345000D01*
X52420000Y-47345000D01*
X52423000Y-47345000D01*
X52425000Y-47345000D01*
X52428000Y-47346000D01*
G36*
X52428000Y-47346000D02*
G01*
X52430000Y-47346000D01*
X52433000Y-47347000D01*
X52435000Y-47347000D01*
X52438000Y-47348000D01*
X52440000Y-47349000D01*
X52443000Y-47350000D01*
X52445000Y-47352000D01*
X52447000Y-47353000D01*
X52449000Y-47355000D01*
X52451000Y-47356000D01*
X52453000Y-47358000D01*
X52455000Y-47360000D01*
X52457000Y-47362000D01*
X52459000Y-47364000D01*
X52460000Y-47366000D01*
X52462000Y-47368000D01*
X52463000Y-47370000D01*
X52465000Y-47372000D01*
X52466000Y-47375000D01*
X52467000Y-47377000D01*
X52468000Y-47380000D01*
X52468000Y-47382000D01*
X52469000Y-47385000D01*
X52469000Y-47387000D01*
X52470000Y-47390000D01*
X52470000Y-47392000D01*
X52470000Y-47395000D01*
X52470000Y-48045000D01*
X52470000Y-48048000D01*
X52470000Y-48050000D01*
X52469000Y-48053000D01*
X52469000Y-48055000D01*
X52468000Y-48058000D01*
X52468000Y-48060000D01*
X52467000Y-48063000D01*
X52466000Y-48065000D01*
X52465000Y-48068000D01*
X52463000Y-48070000D01*
X52462000Y-48072000D01*
X52460000Y-48074000D01*
X52459000Y-48076000D01*
X52457000Y-48078000D01*
X52455000Y-48080000D01*
X52453000Y-48082000D01*
X52451000Y-48084000D01*
X52449000Y-48085000D01*
X52447000Y-48087000D01*
X52445000Y-48088000D01*
X52443000Y-48090000D01*
X52440000Y-48091000D01*
X52438000Y-48092000D01*
X52435000Y-48093000D01*
X52433000Y-48093000D01*
X52430000Y-48094000D01*
X52428000Y-48094000D01*
X52425000Y-48095000D01*
X52423000Y-48095000D01*
X52420000Y-48095000D01*
X52220000Y-48095000D01*
X52217000Y-48095000D01*
X52215000Y-48095000D01*
X52212000Y-48094000D01*
X52210000Y-48094000D01*
X52207000Y-48093000D01*
X52205000Y-48093000D01*
X52202000Y-48092000D01*
X52200000Y-48091000D01*
X52197000Y-48090000D01*
X52195000Y-48088000D01*
X52193000Y-48087000D01*
X52191000Y-48085000D01*
X52189000Y-48084000D01*
X52187000Y-48082000D01*
X52185000Y-48080000D01*
X52183000Y-48078000D01*
X52181000Y-48076000D01*
X52180000Y-48074000D01*
X52178000Y-48072000D01*
X52177000Y-48070000D01*
X52175000Y-48068000D01*
X52174000Y-48065000D01*
X52173000Y-48063000D01*
X52172000Y-48060000D01*
X52172000Y-48058000D01*
X52171000Y-48055000D01*
X52171000Y-48053000D01*
X52170000Y-48050000D01*
X52170000Y-48048000D01*
X52170000Y-48045000D01*
X52170000Y-47395000D01*
X52170000Y-47392000D01*
X52170000Y-47390000D01*
X52171000Y-47387000D01*
X52171000Y-47385000D01*
X52172000Y-47382000D01*
X52172000Y-47380000D01*
X52173000Y-47377000D01*
X52174000Y-47375000D01*
X52175000Y-47372000D01*
X52177000Y-47370000D01*
X52178000Y-47368000D01*
X52180000Y-47366000D01*
X52181000Y-47364000D01*
X52183000Y-47362000D01*
X52185000Y-47360000D01*
X52187000Y-47358000D01*
X52189000Y-47356000D01*
X52191000Y-47355000D01*
X52193000Y-47353000D01*
X52195000Y-47352000D01*
X52197000Y-47350000D01*
X52200000Y-47349000D01*
X52202000Y-47348000D01*
X52205000Y-47347000D01*
X52207000Y-47347000D01*
X52210000Y-47346000D01*
X52212000Y-47346000D01*
X52215000Y-47345000D01*
X52217000Y-47345000D01*
X52220000Y-47345000D01*
X52420000Y-47345000D01*
X52423000Y-47345000D01*
X52425000Y-47345000D01*
X52428000Y-47346000D01*
G37*
X52578000Y-46296000D02*
X52580000Y-46296000D01*
X52583000Y-46297000D01*
X52585000Y-46297000D01*
X52588000Y-46298000D01*
X52590000Y-46299000D01*
X52593000Y-46300000D01*
X52595000Y-46302000D01*
X52597000Y-46303000D01*
X52599000Y-46305000D01*
X52601000Y-46306000D01*
X52603000Y-46308000D01*
X52605000Y-46310000D01*
X52607000Y-46312000D01*
X52609000Y-46314000D01*
X52610000Y-46316000D01*
X52612000Y-46318000D01*
X52613000Y-46320000D01*
X52615000Y-46322000D01*
X52616000Y-46325000D01*
X52617000Y-46327000D01*
X52618000Y-46330000D01*
X52618000Y-46332000D01*
X52619000Y-46335000D01*
X52619000Y-46337000D01*
X52620000Y-46340000D01*
X52620000Y-46342000D01*
X52620000Y-46345000D01*
X52620000Y-46645000D01*
X52620000Y-46648000D01*
X52620000Y-46650000D01*
X52619000Y-46653000D01*
X52619000Y-46655000D01*
X52618000Y-46658000D01*
X52618000Y-46660000D01*
X52617000Y-46663000D01*
X52616000Y-46665000D01*
X52615000Y-46668000D01*
X52613000Y-46670000D01*
X52612000Y-46672000D01*
X52610000Y-46674000D01*
X52609000Y-46676000D01*
X52607000Y-46678000D01*
X52605000Y-46680000D01*
X52603000Y-46682000D01*
X52601000Y-46684000D01*
X52599000Y-46685000D01*
X52597000Y-46687000D01*
X52595000Y-46688000D01*
X52593000Y-46690000D01*
X52590000Y-46691000D01*
X52588000Y-46692000D01*
X52585000Y-46693000D01*
X52583000Y-46693000D01*
X52580000Y-46694000D01*
X52578000Y-46694000D01*
X52575000Y-46695000D01*
X52573000Y-46695000D01*
X52570000Y-46695000D01*
X51870000Y-46695000D01*
X51867000Y-46695000D01*
X51865000Y-46695000D01*
X51862000Y-46694000D01*
X51860000Y-46694000D01*
X51857000Y-46693000D01*
X51855000Y-46693000D01*
X51852000Y-46692000D01*
X51850000Y-46691000D01*
X51847000Y-46690000D01*
X51845000Y-46688000D01*
X51843000Y-46687000D01*
X51841000Y-46685000D01*
X51839000Y-46684000D01*
X51837000Y-46682000D01*
X51835000Y-46680000D01*
X51833000Y-46678000D01*
X51831000Y-46676000D01*
X51830000Y-46674000D01*
X51828000Y-46672000D01*
X51827000Y-46670000D01*
X51825000Y-46668000D01*
X51824000Y-46665000D01*
X51823000Y-46663000D01*
X51822000Y-46660000D01*
X51822000Y-46658000D01*
X51821000Y-46655000D01*
X51821000Y-46653000D01*
X51820000Y-46650000D01*
X51820000Y-46648000D01*
X51820000Y-46645000D01*
X51820000Y-46345000D01*
X51820000Y-46342000D01*
X51820000Y-46340000D01*
X51821000Y-46337000D01*
X51821000Y-46335000D01*
X51822000Y-46332000D01*
X51822000Y-46330000D01*
X51823000Y-46327000D01*
X51824000Y-46325000D01*
X51825000Y-46322000D01*
X51827000Y-46320000D01*
X51828000Y-46318000D01*
X51830000Y-46316000D01*
X51831000Y-46314000D01*
X51833000Y-46312000D01*
X51835000Y-46310000D01*
X51837000Y-46308000D01*
X51839000Y-46306000D01*
X51841000Y-46305000D01*
X51843000Y-46303000D01*
X51845000Y-46302000D01*
X51847000Y-46300000D01*
X51850000Y-46299000D01*
X51852000Y-46298000D01*
X51855000Y-46297000D01*
X51857000Y-46297000D01*
X51860000Y-46296000D01*
X51862000Y-46296000D01*
X51865000Y-46295000D01*
X51867000Y-46295000D01*
X51870000Y-46295000D01*
X52570000Y-46295000D01*
X52573000Y-46295000D01*
X52575000Y-46295000D01*
X52578000Y-46296000D01*
G36*
X52578000Y-46296000D02*
G01*
X52580000Y-46296000D01*
X52583000Y-46297000D01*
X52585000Y-46297000D01*
X52588000Y-46298000D01*
X52590000Y-46299000D01*
X52593000Y-46300000D01*
X52595000Y-46302000D01*
X52597000Y-46303000D01*
X52599000Y-46305000D01*
X52601000Y-46306000D01*
X52603000Y-46308000D01*
X52605000Y-46310000D01*
X52607000Y-46312000D01*
X52609000Y-46314000D01*
X52610000Y-46316000D01*
X52612000Y-46318000D01*
X52613000Y-46320000D01*
X52615000Y-46322000D01*
X52616000Y-46325000D01*
X52617000Y-46327000D01*
X52618000Y-46330000D01*
X52618000Y-46332000D01*
X52619000Y-46335000D01*
X52619000Y-46337000D01*
X52620000Y-46340000D01*
X52620000Y-46342000D01*
X52620000Y-46345000D01*
X52620000Y-46645000D01*
X52620000Y-46648000D01*
X52620000Y-46650000D01*
X52619000Y-46653000D01*
X52619000Y-46655000D01*
X52618000Y-46658000D01*
X52618000Y-46660000D01*
X52617000Y-46663000D01*
X52616000Y-46665000D01*
X52615000Y-46668000D01*
X52613000Y-46670000D01*
X52612000Y-46672000D01*
X52610000Y-46674000D01*
X52609000Y-46676000D01*
X52607000Y-46678000D01*
X52605000Y-46680000D01*
X52603000Y-46682000D01*
X52601000Y-46684000D01*
X52599000Y-46685000D01*
X52597000Y-46687000D01*
X52595000Y-46688000D01*
X52593000Y-46690000D01*
X52590000Y-46691000D01*
X52588000Y-46692000D01*
X52585000Y-46693000D01*
X52583000Y-46693000D01*
X52580000Y-46694000D01*
X52578000Y-46694000D01*
X52575000Y-46695000D01*
X52573000Y-46695000D01*
X52570000Y-46695000D01*
X51870000Y-46695000D01*
X51867000Y-46695000D01*
X51865000Y-46695000D01*
X51862000Y-46694000D01*
X51860000Y-46694000D01*
X51857000Y-46693000D01*
X51855000Y-46693000D01*
X51852000Y-46692000D01*
X51850000Y-46691000D01*
X51847000Y-46690000D01*
X51845000Y-46688000D01*
X51843000Y-46687000D01*
X51841000Y-46685000D01*
X51839000Y-46684000D01*
X51837000Y-46682000D01*
X51835000Y-46680000D01*
X51833000Y-46678000D01*
X51831000Y-46676000D01*
X51830000Y-46674000D01*
X51828000Y-46672000D01*
X51827000Y-46670000D01*
X51825000Y-46668000D01*
X51824000Y-46665000D01*
X51823000Y-46663000D01*
X51822000Y-46660000D01*
X51822000Y-46658000D01*
X51821000Y-46655000D01*
X51821000Y-46653000D01*
X51820000Y-46650000D01*
X51820000Y-46648000D01*
X51820000Y-46645000D01*
X51820000Y-46345000D01*
X51820000Y-46342000D01*
X51820000Y-46340000D01*
X51821000Y-46337000D01*
X51821000Y-46335000D01*
X51822000Y-46332000D01*
X51822000Y-46330000D01*
X51823000Y-46327000D01*
X51824000Y-46325000D01*
X51825000Y-46322000D01*
X51827000Y-46320000D01*
X51828000Y-46318000D01*
X51830000Y-46316000D01*
X51831000Y-46314000D01*
X51833000Y-46312000D01*
X51835000Y-46310000D01*
X51837000Y-46308000D01*
X51839000Y-46306000D01*
X51841000Y-46305000D01*
X51843000Y-46303000D01*
X51845000Y-46302000D01*
X51847000Y-46300000D01*
X51850000Y-46299000D01*
X51852000Y-46298000D01*
X51855000Y-46297000D01*
X51857000Y-46297000D01*
X51860000Y-46296000D01*
X51862000Y-46296000D01*
X51865000Y-46295000D01*
X51867000Y-46295000D01*
X51870000Y-46295000D01*
X52570000Y-46295000D01*
X52573000Y-46295000D01*
X52575000Y-46295000D01*
X52578000Y-46296000D01*
G37*
X59365000Y-43500000D02*
X58515000Y-43500000D01*
X58515000Y-39000000D01*
X59365000Y-39000000D01*
X59365000Y-43500000D01*
G36*
X59365000Y-43500000D02*
G01*
X58515000Y-43500000D01*
X58515000Y-39000000D01*
X59365000Y-39000000D01*
X59365000Y-43500000D01*
G37*
X59365000Y-48500000D02*
X58515000Y-48500000D01*
X58515000Y-44000000D01*
X59365000Y-44000000D01*
X59365000Y-48500000D01*
G36*
X59365000Y-48500000D02*
G01*
X58515000Y-48500000D01*
X58515000Y-44000000D01*
X59365000Y-44000000D01*
X59365000Y-48500000D01*
G37*
X61165000Y-43500000D02*
X60065000Y-43500000D01*
X60065000Y-39500000D01*
X61165000Y-39500000D01*
X61165000Y-43500000D01*
G36*
X61165000Y-43500000D02*
G01*
X60065000Y-43500000D01*
X60065000Y-39500000D01*
X61165000Y-39500000D01*
X61165000Y-43500000D01*
G37*
X61165000Y-48000000D02*
X60065000Y-48000000D01*
X60065000Y-44000000D01*
X61165000Y-44000000D01*
X61165000Y-48000000D01*
G36*
X61165000Y-48000000D02*
G01*
X60065000Y-48000000D01*
X60065000Y-44000000D01*
X61165000Y-44000000D01*
X61165000Y-48000000D01*
G37*
X62965000Y-43500000D02*
X61865000Y-43500000D01*
X61865000Y-39500000D01*
X62965000Y-39500000D01*
X62965000Y-43500000D01*
G36*
X62965000Y-43500000D02*
G01*
X61865000Y-43500000D01*
X61865000Y-39500000D01*
X62965000Y-39500000D01*
X62965000Y-43500000D01*
G37*
X62965000Y-48000000D02*
X61865000Y-48000000D01*
X61865000Y-44000000D01*
X62965000Y-44000000D01*
X62965000Y-48000000D01*
G36*
X62965000Y-48000000D02*
G01*
X61865000Y-48000000D01*
X61865000Y-44000000D01*
X62965000Y-44000000D01*
X62965000Y-48000000D01*
G37*
X64765000Y-43500000D02*
X63665000Y-43500000D01*
X63665000Y-39000000D01*
X64765000Y-39000000D01*
X64765000Y-43500000D01*
G36*
X64765000Y-43500000D02*
G01*
X63665000Y-43500000D01*
X63665000Y-39000000D01*
X64765000Y-39000000D01*
X64765000Y-43500000D01*
G37*
X64765000Y-48500000D02*
X63665000Y-48500000D01*
X63665000Y-44000000D01*
X64765000Y-44000000D01*
X64765000Y-48500000D01*
G36*
X64765000Y-48500000D02*
G01*
X63665000Y-48500000D01*
X63665000Y-44000000D01*
X64765000Y-44000000D01*
X64765000Y-48500000D01*
G37*
X66315000Y-43500000D02*
X65465000Y-43500000D01*
X65465000Y-39000000D01*
X66315000Y-39000000D01*
X66315000Y-43500000D01*
G36*
X66315000Y-43500000D02*
G01*
X65465000Y-43500000D01*
X65465000Y-39000000D01*
X66315000Y-39000000D01*
X66315000Y-43500000D01*
G37*
X66315000Y-48500000D02*
X65465000Y-48500000D01*
X65465000Y-44000000D01*
X66315000Y-44000000D01*
X66315000Y-48500000D01*
G36*
X66315000Y-48500000D02*
G01*
X65465000Y-48500000D01*
X65465000Y-44000000D01*
X66315000Y-44000000D01*
X66315000Y-48500000D01*
G37*
X71390000Y-39950000D02*
X68690000Y-39950000D01*
X68690000Y-39150000D01*
X71390000Y-39150000D01*
X71390000Y-39950000D01*
G36*
X71390000Y-39950000D02*
G01*
X68690000Y-39950000D01*
X68690000Y-39150000D01*
X71390000Y-39150000D01*
X71390000Y-39950000D01*
G37*
X71390000Y-41150000D02*
X68690000Y-41150000D01*
X68690000Y-40350000D01*
X71390000Y-40350000D01*
X71390000Y-41150000D01*
G36*
X71390000Y-41150000D02*
G01*
X68690000Y-41150000D01*
X68690000Y-40350000D01*
X71390000Y-40350000D01*
X71390000Y-41150000D01*
G37*
X71390000Y-42350000D02*
X68690000Y-42350000D01*
X68690000Y-41550000D01*
X71390000Y-41550000D01*
X71390000Y-42350000D01*
G36*
X71390000Y-42350000D02*
G01*
X68690000Y-42350000D01*
X68690000Y-41550000D01*
X71390000Y-41550000D01*
X71390000Y-42350000D01*
G37*
X71390000Y-43550000D02*
X68690000Y-43550000D01*
X68690000Y-42750000D01*
X71390000Y-42750000D01*
X71390000Y-43550000D01*
G36*
X71390000Y-43550000D02*
G01*
X68690000Y-43550000D01*
X68690000Y-42750000D01*
X71390000Y-42750000D01*
X71390000Y-43550000D01*
G37*
X71390000Y-44750000D02*
X68690000Y-44750000D01*
X68690000Y-43950000D01*
X71390000Y-43950000D01*
X71390000Y-44750000D01*
G36*
X71390000Y-44750000D02*
G01*
X68690000Y-44750000D01*
X68690000Y-43950000D01*
X71390000Y-43950000D01*
X71390000Y-44750000D01*
G37*
X71390000Y-45950000D02*
X68690000Y-45950000D01*
X68690000Y-45150000D01*
X71390000Y-45150000D01*
X71390000Y-45950000D01*
G36*
X71390000Y-45950000D02*
G01*
X68690000Y-45950000D01*
X68690000Y-45150000D01*
X71390000Y-45150000D01*
X71390000Y-45950000D01*
G37*
X71390000Y-47150000D02*
X68690000Y-47150000D01*
X68690000Y-46350000D01*
X71390000Y-46350000D01*
X71390000Y-47150000D01*
G36*
X71390000Y-47150000D02*
G01*
X68690000Y-47150000D01*
X68690000Y-46350000D01*
X71390000Y-46350000D01*
X71390000Y-47150000D01*
G37*
X71390000Y-48350000D02*
X68690000Y-48350000D01*
X68690000Y-47550000D01*
X71390000Y-47550000D01*
X71390000Y-48350000D01*
G36*
X71390000Y-48350000D02*
G01*
X68690000Y-48350000D01*
X68690000Y-47550000D01*
X71390000Y-47550000D01*
X71390000Y-48350000D01*
G37*
X59365000Y-54410000D02*
X58515000Y-54410000D01*
X58515000Y-49910000D01*
X59365000Y-49910000D01*
X59365000Y-54410000D01*
G36*
X59365000Y-54410000D02*
G01*
X58515000Y-54410000D01*
X58515000Y-49910000D01*
X59365000Y-49910000D01*
X59365000Y-54410000D01*
G37*
X59365000Y-59410000D02*
X58515000Y-59410000D01*
X58515000Y-54910000D01*
X59365000Y-54910000D01*
X59365000Y-59410000D01*
G36*
X59365000Y-59410000D02*
G01*
X58515000Y-59410000D01*
X58515000Y-54910000D01*
X59365000Y-54910000D01*
X59365000Y-59410000D01*
G37*
X61165000Y-54410000D02*
X60065000Y-54410000D01*
X60065000Y-50410000D01*
X61165000Y-50410000D01*
X61165000Y-54410000D01*
G36*
X61165000Y-54410000D02*
G01*
X60065000Y-54410000D01*
X60065000Y-50410000D01*
X61165000Y-50410000D01*
X61165000Y-54410000D01*
G37*
X61165000Y-58910000D02*
X60065000Y-58910000D01*
X60065000Y-54910000D01*
X61165000Y-54910000D01*
X61165000Y-58910000D01*
G36*
X61165000Y-58910000D02*
G01*
X60065000Y-58910000D01*
X60065000Y-54910000D01*
X61165000Y-54910000D01*
X61165000Y-58910000D01*
G37*
X62965000Y-54410000D02*
X61865000Y-54410000D01*
X61865000Y-50410000D01*
X62965000Y-50410000D01*
X62965000Y-54410000D01*
G36*
X62965000Y-54410000D02*
G01*
X61865000Y-54410000D01*
X61865000Y-50410000D01*
X62965000Y-50410000D01*
X62965000Y-54410000D01*
G37*
X62965000Y-58910000D02*
X61865000Y-58910000D01*
X61865000Y-54910000D01*
X62965000Y-54910000D01*
X62965000Y-58910000D01*
G36*
X62965000Y-58910000D02*
G01*
X61865000Y-58910000D01*
X61865000Y-54910000D01*
X62965000Y-54910000D01*
X62965000Y-58910000D01*
G37*
X64765000Y-54410000D02*
X63665000Y-54410000D01*
X63665000Y-49910000D01*
X64765000Y-49910000D01*
X64765000Y-54410000D01*
G36*
X64765000Y-54410000D02*
G01*
X63665000Y-54410000D01*
X63665000Y-49910000D01*
X64765000Y-49910000D01*
X64765000Y-54410000D01*
G37*
X64765000Y-59410000D02*
X63665000Y-59410000D01*
X63665000Y-54910000D01*
X64765000Y-54910000D01*
X64765000Y-59410000D01*
G36*
X64765000Y-59410000D02*
G01*
X63665000Y-59410000D01*
X63665000Y-54910000D01*
X64765000Y-54910000D01*
X64765000Y-59410000D01*
G37*
X66315000Y-54410000D02*
X65465000Y-54410000D01*
X65465000Y-49910000D01*
X66315000Y-49910000D01*
X66315000Y-54410000D01*
G36*
X66315000Y-54410000D02*
G01*
X65465000Y-54410000D01*
X65465000Y-49910000D01*
X66315000Y-49910000D01*
X66315000Y-54410000D01*
G37*
X66315000Y-59410000D02*
X65465000Y-59410000D01*
X65465000Y-54910000D01*
X66315000Y-54910000D01*
X66315000Y-59410000D01*
G36*
X66315000Y-59410000D02*
G01*
X65465000Y-59410000D01*
X65465000Y-54910000D01*
X66315000Y-54910000D01*
X66315000Y-59410000D01*
G37*
X71390000Y-50860000D02*
X68690000Y-50860000D01*
X68690000Y-50060000D01*
X71390000Y-50060000D01*
X71390000Y-50860000D01*
G36*
X71390000Y-50860000D02*
G01*
X68690000Y-50860000D01*
X68690000Y-50060000D01*
X71390000Y-50060000D01*
X71390000Y-50860000D01*
G37*
X71390000Y-52060000D02*
X68690000Y-52060000D01*
X68690000Y-51260000D01*
X71390000Y-51260000D01*
X71390000Y-52060000D01*
G36*
X71390000Y-52060000D02*
G01*
X68690000Y-52060000D01*
X68690000Y-51260000D01*
X71390000Y-51260000D01*
X71390000Y-52060000D01*
G37*
X71390000Y-53260000D02*
X68690000Y-53260000D01*
X68690000Y-52460000D01*
X71390000Y-52460000D01*
X71390000Y-53260000D01*
G36*
X71390000Y-53260000D02*
G01*
X68690000Y-53260000D01*
X68690000Y-52460000D01*
X71390000Y-52460000D01*
X71390000Y-53260000D01*
G37*
X71390000Y-54460000D02*
X68690000Y-54460000D01*
X68690000Y-53660000D01*
X71390000Y-53660000D01*
X71390000Y-54460000D01*
G36*
X71390000Y-54460000D02*
G01*
X68690000Y-54460000D01*
X68690000Y-53660000D01*
X71390000Y-53660000D01*
X71390000Y-54460000D01*
G37*
X71390000Y-55660000D02*
X68690000Y-55660000D01*
X68690000Y-54860000D01*
X71390000Y-54860000D01*
X71390000Y-55660000D01*
G36*
X71390000Y-55660000D02*
G01*
X68690000Y-55660000D01*
X68690000Y-54860000D01*
X71390000Y-54860000D01*
X71390000Y-55660000D01*
G37*
X71390000Y-56860000D02*
X68690000Y-56860000D01*
X68690000Y-56060000D01*
X71390000Y-56060000D01*
X71390000Y-56860000D01*
G36*
X71390000Y-56860000D02*
G01*
X68690000Y-56860000D01*
X68690000Y-56060000D01*
X71390000Y-56060000D01*
X71390000Y-56860000D01*
G37*
X71390000Y-58060000D02*
X68690000Y-58060000D01*
X68690000Y-57260000D01*
X71390000Y-57260000D01*
X71390000Y-58060000D01*
G36*
X71390000Y-58060000D02*
G01*
X68690000Y-58060000D01*
X68690000Y-57260000D01*
X71390000Y-57260000D01*
X71390000Y-58060000D01*
G37*
X71390000Y-59260000D02*
X68690000Y-59260000D01*
X68690000Y-58460000D01*
X71390000Y-58460000D01*
X71390000Y-59260000D01*
G36*
X71390000Y-59260000D02*
G01*
X68690000Y-59260000D01*
X68690000Y-58460000D01*
X71390000Y-58460000D01*
X71390000Y-59260000D01*
G37*
D11*
X49228992Y-65140000D03*
X49729118Y-65140000D03*
X50229244Y-65140000D03*
X50729370Y-65140000D03*
X51229496Y-65140000D03*
X51729622Y-65140000D03*
X52229748Y-65140000D03*
X52729874Y-65140000D03*
X53230000Y-65140000D03*
X53730126Y-65140000D03*
X53730126Y-60682300D03*
X53230000Y-60682300D03*
X52729874Y-60682300D03*
X52229748Y-60682300D03*
X51729622Y-60682300D03*
X50729370Y-60682300D03*
X50229244Y-60682300D03*
X49729118Y-60682300D03*
X49228992Y-60682300D03*
D12*
X54800000Y-44625000D03*
X54800000Y-47575000D03*
D13*
X39275000Y-61225400D03*
X39275000Y-70725000D03*
D14*
X51200000Y-57875000D03*
X51200000Y-56325000D03*
D15*
X47800000Y-57925000D03*
X47800000Y-56275000D03*
D16*
X78499999Y-32695250D03*
X79450000Y-32695250D03*
X80400001Y-32695250D03*
X80400001Y-29964750D03*
X79450000Y-29964750D03*
X78499999Y-29964750D03*
D17*
X75470000Y-61930000D03*
X84670000Y-61930000D03*
D18*
X80375000Y-27550000D03*
X78825000Y-27550000D03*
D19*
X45315000Y-67650000D03*
X46965000Y-67650000D03*
D20*
X48152500Y-27705000D03*
X48152500Y-28975000D03*
X48152500Y-30245000D03*
X48152500Y-31515000D03*
X48152500Y-32785000D03*
X48152500Y-34055000D03*
X48152500Y-35325000D03*
X48152500Y-36595000D03*
X57432500Y-36595000D03*
X57432500Y-35325000D03*
X57432500Y-34055000D03*
X57432500Y-32785000D03*
X57432500Y-31515000D03*
X57432500Y-30245000D03*
X57432500Y-28975000D03*
X57432500Y-27705000D03*
D19*
X43195000Y-37400000D03*
X44845000Y-37400000D03*
D21*
X51720000Y-46495000D03*
X50720000Y-46495000D03*
X49720000Y-46495000D03*
D15*
X42550000Y-57925000D03*
X42550000Y-56275000D03*
D14*
X52898220Y-57850000D03*
X52898220Y-56300000D03*
D15*
X46050000Y-57925000D03*
X46050000Y-56275000D03*
D14*
X50850000Y-40100000D03*
X50850000Y-38550000D03*
D19*
X43195000Y-33570000D03*
X44845000Y-33570000D03*
D14*
X54669370Y-57850000D03*
X54669370Y-56300000D03*
D22*
X39482500Y-37400000D03*
X41057500Y-37400000D03*
D15*
X49550000Y-57925000D03*
X49550000Y-56275000D03*
D19*
X89875000Y-43300000D03*
X91525000Y-43300000D03*
D23*
X47275000Y-45350000D03*
X47275000Y-47250000D03*
D17*
X75470000Y-43370000D03*
X84670000Y-43370000D03*
D19*
X49495000Y-51610000D03*
X51145000Y-51610000D03*
D24*
X91525000Y-41300000D03*
X89875000Y-41300000D03*
D19*
X47775000Y-49750000D03*
X49425000Y-49750000D03*
D22*
X39520000Y-29460000D03*
X41095000Y-29460000D03*
D24*
X46994370Y-60578850D03*
X45344370Y-60578850D03*
D22*
X39520000Y-33570000D03*
X41095000Y-33570000D03*
D24*
X46994370Y-62350000D03*
X45344370Y-62350000D03*
X46985000Y-64090000D03*
X45335000Y-64090000D03*
X52805000Y-49780000D03*
X51155000Y-49780000D03*
D25*
X72165000Y-32342200D03*
X73435000Y-32342200D03*
X74705000Y-32342200D03*
X75975000Y-32342200D03*
X75975000Y-27617800D03*
X74705000Y-27617800D03*
X73435000Y-27617800D03*
X72165000Y-27617800D03*
D18*
X46915000Y-65860000D03*
X45365000Y-65860000D03*
D26*
X87526150Y-32254999D03*
X87526150Y-31605001D03*
X87526150Y-30954999D03*
X87526150Y-30305001D03*
X83093850Y-30305001D03*
X83093850Y-30954999D03*
X83093850Y-31605001D03*
X83093850Y-32254999D03*
D27*
X82975000Y-27550000D03*
X84525000Y-27550000D03*
D28*
X54675000Y-38500000D03*
X54675000Y-40050000D03*
D19*
X43195000Y-29460000D03*
X44845000Y-29460000D03*
D15*
X44300000Y-57925000D03*
X44300000Y-56275000D03*
D18*
X88525000Y-27500000D03*
X86975000Y-27500000D03*
M02*
